<svg width="50" height="50" viewBox="0 0 44 49" fill="none" xmlns="http://www.w3.org/2000/svg">
<path d="M21.2457 34.8358C26.9895 34.8358 31.6457 30.1795 31.6457 24.4358C31.6457 18.692 26.9895 14.0358 21.2457 14.0358C15.5019 14.0358 10.8457 18.692 10.8457 24.4358C10.8457 30.1795 15.5019 34.8358 21.2457 34.8358Z" fill="#E6E6E6"/>
<path d="M17.5457 22.1358C17.5457 22.1358 13.7457 30.8358 21.8457 30.8358C29.9457 30.8358 25.8457 20.5358 25.8457 20.5358C25.8457 20.5358 23.4457 22.4358 21.3457 22.4358C19.2457 22.4358 17.5457 22.1358 17.5457 22.1358Z" fill="#FACE8D"/>
<path d="M19.9457 25.2357C19.9457 25.2357 19.9457 25.1357 19.9457 25.2357C19.8457 25.1357 19.8457 25.0357 19.7457 24.9357C19.6457 24.8357 19.5457 24.8357 19.4457 24.8357C19.3457 24.8357 19.2457 24.8357 19.1457 24.9357C19.0457 25.0357 18.9457 25.0357 18.9457 25.1357C18.9457 25.1357 18.9457 25.1357 18.9457 25.2357C18.8457 25.3357 18.8457 25.4357 18.8457 25.5357C18.8457 25.6357 18.8457 25.7357 18.9457 25.8357C19.0457 26.0357 19.2457 26.1357 19.4457 26.1357C19.6457 26.1357 19.8457 26.0357 19.9457 25.8357C20.0457 25.7357 20.0457 25.6357 20.0457 25.5357C20.0457 25.4357 20.0457 25.3357 19.9457 25.2357Z" fill="#3D4F3D"/>
<path d="M26.646 19.8357C26.646 19.8357 26.046 18.1357 21.146 18.1357C16.246 18.1357 15.646 18.6357 15.646 18.6357C15.646 18.6357 15.646 22.6357 19.946 22.6357C24.246 22.6357 26.646 19.8357 26.646 19.8357Z" fill="#FF931E"/>
<path d="M23.7457 24.8357C23.0457 24.8357 23.0457 26.0357 23.7457 26.0357C24.4457 26.0357 24.4457 24.8357 23.7457 24.8357Z" fill="#3D4F3D"/>
<path d="M27.3457 21.2358C27.1457 20.0358 26.8457 18.7358 25.7457 18.0358C24.4457 17.2358 22.7457 17.5358 21.3457 17.6358C19.4457 17.7358 17.5457 17.7358 15.6457 18.0358C15.1457 18.1358 15.0457 18.5358 15.1457 18.8358C15.1457 20.9358 16.7457 22.6358 18.6457 23.0358C20.8457 23.6358 22.9457 22.8358 24.9457 22.0358C25.5457 21.8358 25.1457 20.8358 24.5457 21.0358C22.9457 21.6358 21.0457 22.3358 19.3457 21.9358C17.9457 21.7358 16.5457 20.6358 16.4457 19.0358C18.8457 19.0358 21.2457 18.7358 23.7457 18.8358C24.9457 18.8358 25.7457 19.2358 26.0457 20.4358C26.3457 21.4358 26.4457 22.6358 26.4457 23.7358C26.5457 25.8358 26.2457 28.1358 24.2457 29.3358C22.7457 30.3358 20.6457 30.3358 19.1457 29.2358C17.4457 28.0358 16.8457 25.6358 17.6457 23.7358C17.9457 22.9358 16.6457 22.5358 16.3457 23.3358C15.5457 25.4358 16.0457 27.9358 17.6457 29.6358C19.2457 31.3358 21.7457 31.7358 23.8457 30.9358C26.2457 30.0358 27.5457 27.8358 27.7457 25.2358C27.7457 23.9358 27.5457 22.5358 27.3457 21.2358Z" fill="#3D4F3D"/>
<path d="M23.2457 27.5357C23.0457 27.4357 22.8457 27.3357 22.6457 27.4357C22.5457 27.5357 22.4457 27.6357 22.3457 27.7357C22.3457 27.7357 22.3457 27.7357 22.2457 27.7357C22.2457 27.7357 22.1457 27.7357 22.1457 27.8357C22.1457 27.8357 22.0457 27.8357 22.0457 27.9357C21.9457 27.9357 21.8457 28.0357 21.7457 28.0357H21.6457C21.6457 28.0357 21.6457 28.0357 21.5457 28.0357C21.4457 28.0357 21.3457 28.0357 21.2457 28.0357H21.1457C21.0457 28.0357 20.9457 27.9357 20.8457 27.9357C20.5457 27.8357 20.2457 28.0357 20.2457 28.3357C20.1457 28.6357 20.3457 28.8357 20.6457 28.9357C21.5457 29.2357 22.5457 29.0357 23.2457 28.4357C23.4457 28.3357 23.5457 27.7357 23.2457 27.5357Z" fill="#3D4F3D"/>
<path d="M32.9456 24.2357C32.7456 20.2357 30.3456 16.8357 27.0456 15.0357C26.9456 14.9357 26.9456 14.7357 26.7456 14.6357C22.5456 12.1357 16.8456 12.7357 13.3456 16.2357C9.84561 19.7357 9.04561 25.5357 11.6456 29.7357C14.3456 34.2357 19.8456 36.7357 24.9456 35.3357C29.8456 33.8357 33.1456 29.3357 32.9456 24.2357ZM26.0456 33.3357C21.7456 35.3357 16.7456 33.8357 13.7456 30.2357C10.9456 26.9357 10.8456 22.1357 13.2456 18.5357C15.1456 15.8357 18.3456 14.5357 21.5456 14.6357C21.6456 14.7357 21.7456 14.8357 21.9456 14.8357C23.0456 14.9357 24.0456 15.1357 25.0456 15.5357C25.3456 15.6357 25.5456 15.7357 25.7456 15.9357C25.8456 16.0357 25.9456 16.0357 26.0456 16.0357C28.6456 17.3357 30.5456 19.7357 31.1456 22.6357C32.2456 27.0357 30.0456 31.5357 26.0456 33.3357Z" fill="#3D4F3D"/>
<path d="M21.7457 9.03571C23.8996 9.03571 25.6457 7.28963 25.6457 5.13572C25.6457 2.98181 23.8996 1.23572 21.7457 1.23572C19.5918 1.23572 17.8457 2.98181 17.8457 5.13572C17.8457 7.28963 19.5918 9.03571 21.7457 9.03571Z" fill="#FF1D25"/>
<path d="M26.6457 4.63572C26.4457 3.23572 25.7457 2.03572 24.6457 1.23572C24.6457 0.935718 24.5457 0.735713 24.2457 0.535713C22.1457 -0.464287 19.5457 -0.0642824 18.0457 1.73572C16.6457 3.53572 16.4457 6.03571 17.7457 7.93571C18.5457 9.03571 19.7457 9.73571 21.0457 9.93571C21.0457 10.4357 21.0457 10.9357 21.0457 11.4357V12.4357C21.0457 12.8357 21.0457 13.1357 21.0457 13.5357C21.1457 14.1357 22.0457 14.0357 22.1457 13.5357C22.2457 13.2357 22.2457 12.8357 22.2457 12.4357C22.2457 12.1357 22.2457 11.7357 22.2457 11.4357C22.2457 10.9357 22.2457 10.4357 22.3457 9.93571C22.8457 9.83571 23.3457 9.73571 23.7457 9.53571C25.6457 8.83571 26.9457 6.63572 26.6457 4.63572ZM23.7457 8.03571C22.3457 8.93571 20.4457 8.83572 19.2457 7.63572C18.0457 6.43572 17.9457 4.73572 18.7457 3.33572C19.6457 1.83572 21.6457 1.23571 23.2457 2.03571C23.3457 2.03571 23.4457 2.13572 23.5457 2.13572C24.3457 2.63572 24.9457 3.33572 25.1457 4.23572C25.6457 5.63572 25.0457 7.23571 23.7457 8.03571Z" fill="#3D4F3D"/>
<path d="M21.8458 46.9357C23.9997 46.9357 25.7458 45.1896 25.7458 43.0357C25.7458 40.8818 23.9997 39.1357 21.8458 39.1357C19.6919 39.1357 17.9458 40.8818 17.9458 43.0357C17.9458 45.1896 19.6919 46.9357 21.8458 46.9357Z" fill="#FF931E"/>
<path d="M16.8459 43.4357C17.0459 44.8357 17.7459 46.0357 18.8459 46.8357C18.8459 47.1357 18.9459 47.3357 19.2459 47.5357C21.3459 48.5357 23.9459 48.1357 25.4459 46.3357C26.8459 44.5357 27.0459 42.0357 25.7459 40.1357C24.9459 39.0357 23.7459 38.3357 22.4459 38.1357C22.4459 37.6357 22.4459 37.1357 22.4459 36.6357V35.6357C22.4459 35.2357 22.4459 34.9357 22.4459 34.5357C22.3459 33.9357 21.4459 34.0357 21.3459 34.5357C21.2459 34.8357 21.2459 35.2357 21.2459 35.6357C21.2459 35.9357 21.2459 36.3357 21.2459 36.6357C21.2459 37.1357 21.2459 37.6357 21.1459 38.1357C20.6459 38.2357 20.1459 38.3357 19.7459 38.5357C17.8459 39.3357 16.6459 41.4357 16.8459 43.4357ZM19.7459 40.1357C21.1459 39.2357 23.0459 39.3357 24.2459 40.5357C25.4459 41.7357 25.5459 43.4357 24.7459 44.8357C23.8459 46.3357 21.8459 46.9357 20.2459 46.1357C20.1459 46.1357 20.0459 46.0357 19.9459 46.0357C19.1459 45.5357 18.5459 44.8357 18.3459 43.9357C17.8459 42.5357 18.5459 40.9357 19.7459 40.1357Z" fill="#3D4F3D"/>
<path d="M5.54599 18.2357C7.6999 18.2357 9.446 16.4896 9.446 14.3357C9.446 12.1818 7.6999 10.4357 5.54599 10.4357C3.39208 10.4357 1.646 12.1818 1.646 14.3357C1.646 16.4896 3.39208 18.2357 5.54599 18.2357Z" fill="#FACE8D"/>
<path d="M7.64579 9.83576C6.34579 9.23576 4.2458 9.03576 2.8458 9.83576C0.845798 10.9358 -0.154202 13.5358 0.645798 15.7358C1.4458 17.8358 3.4458 19.3358 5.7458 19.1358C7.1458 19.0358 8.3458 18.3358 9.2458 17.3358C9.6458 17.6358 10.1458 17.8358 10.5458 18.1358L11.3458 18.6358C11.6458 18.8358 11.9458 19.0358 12.2458 19.1358C12.8458 19.3358 13.2458 18.6358 12.8458 18.1358C12.6458 17.8358 12.2458 17.7358 11.9458 17.5358C11.6458 17.3358 11.3458 17.1358 11.1458 17.0358C10.7458 16.7358 10.3458 16.4358 9.8458 16.2358C10.0458 15.8358 10.2458 15.3358 10.2458 14.8358C10.7458 12.8358 9.54579 10.6358 7.64579 9.83576ZM9.0458 14.0358C9.1458 15.7358 7.9458 17.2358 6.3458 17.6358C4.7458 18.0358 3.1458 17.2358 2.4458 15.8358C1.6458 14.2358 2.2458 12.2358 3.7458 11.3358C3.8458 11.2358 3.8458 11.2358 3.9458 11.1358C4.7458 10.7358 5.6458 10.6358 6.5458 10.8358C7.9458 11.1358 8.9458 12.5358 9.0458 14.0358Z" fill="#3D4F3D"/>
<path d="M37.9459 37.7357C40.0998 37.7357 41.8459 35.9896 41.8459 33.8357C41.8459 31.6818 40.0998 29.9357 37.9459 29.9357C35.792 29.9357 34.0459 31.6818 34.0459 33.8357C34.0459 35.9896 35.792 37.7357 37.9459 37.7357Z" fill="#39B54A"/>
<path d="M35.8459 38.3358C37.1459 38.9358 39.6459 39.1358 40.6459 38.3358C42.4459 36.9358 43.6459 34.6358 42.8459 32.4358C42.0459 30.3358 40.0459 28.8358 37.7459 29.0358C36.3459 29.1358 35.1459 29.8358 34.2459 30.8358C33.8459 30.5358 33.3459 30.3358 32.9459 30.0358L32.1459 29.5358C31.8459 29.3358 31.5459 29.1358 31.2459 29.0358C30.6459 28.8358 30.2459 29.5358 30.6459 30.0358C30.8459 30.3358 31.2459 30.4358 31.5459 30.6358C31.8459 30.8358 32.1459 31.0358 32.3459 31.1358C32.7459 31.4358 33.1459 31.7358 33.6459 31.9358C33.4459 32.3358 33.2459 32.8358 33.2459 33.3358C32.8459 35.3358 33.9459 37.4358 35.8459 38.3358ZM34.4459 34.1358C34.3459 32.4358 35.5459 30.9358 37.1459 30.5358C38.7459 30.1358 40.3459 30.9358 41.0459 32.3358C41.8459 33.9358 41.2459 35.9358 39.7459 36.8358C39.6459 36.9358 39.6459 36.9358 39.5459 37.0358C38.7459 37.4358 37.8459 37.5358 36.9459 37.3358C35.5459 37.0358 34.5459 35.6358 34.4459 34.1358Z" fill="#3D4F3D"/>
<path d="M4.9459 36.6357C7.09981 36.6357 8.8459 34.8896 8.8459 32.7357C8.8459 30.5818 7.09981 28.8357 4.9459 28.8357C2.79199 28.8357 1.0459 30.5818 1.0459 32.7357C1.0459 34.8896 2.79199 36.6357 4.9459 36.6357Z" fill="#999999"/>
<path d="M2.24578 28.5357C1.04578 29.3357 0.345784 30.5357 0.145784 31.9357C-0.0542161 32.0357 -0.654216 36.6357 3.64578 37.5357C5.84578 38.0357 8.24579 37.0357 9.24579 34.9357C9.84579 33.7357 9.94578 32.3357 9.54578 31.0357C10.0458 30.8357 10.4458 30.5357 10.9458 30.3357L11.8458 29.9357C12.1458 29.7357 12.5458 29.6357 12.7458 29.4357C13.1458 29.0357 12.7458 28.3357 12.2458 28.4357C11.9458 28.5357 11.5458 28.7357 11.2458 28.8357C10.9458 28.9357 10.6458 29.1357 10.3458 29.2357C9.84578 29.4357 9.44578 29.6357 8.94578 29.8357C8.64578 29.4357 8.34578 29.0357 7.94578 28.7357C6.34578 27.5357 3.94578 27.4357 2.24578 28.5357ZM6.54578 29.6357C8.04578 30.4357 8.74579 32.2357 8.24579 33.8357C7.74579 35.4357 6.24578 36.3357 4.64578 36.2357C2.84578 36.1357 1.44578 34.5357 1.44578 32.7357C1.44578 32.6357 1.44578 32.5357 1.34578 32.4357C1.44578 31.5357 1.74578 30.7357 2.44578 30.0357C3.54578 29.0357 5.24578 28.8357 6.54578 29.6357Z" fill="#3D4F3D"/>
<path d="M38.546 19.3358C40.6999 19.3358 42.446 17.5897 42.446 15.4358C42.446 13.2819 40.6999 11.5358 38.546 11.5358C36.3921 11.5358 34.646 13.2819 34.646 15.4358C34.646 17.5897 36.3921 19.3358 38.546 19.3358Z" fill="#3FA9F5"/>
<path d="M41.2458 19.6357C42.4458 18.8357 43.1458 17.6357 43.3458 16.2357C43.6458 13.1357 42.1458 11.1357 39.8458 10.6357C37.6458 10.1357 35.2458 11.1357 34.2458 13.2357C33.6458 14.4357 33.5458 15.8357 33.9458 17.1357C33.4458 17.3357 33.0458 17.6357 32.5458 17.8357L31.6458 18.2357C31.3458 18.4357 30.9458 18.5357 30.7458 18.7357C30.3458 19.1357 30.7458 19.8357 31.2458 19.7357C31.5458 19.6357 31.9458 19.4357 32.2458 19.3357C32.5458 19.2357 32.8458 19.0357 33.1458 18.9357C33.6458 18.7357 34.0458 18.5357 34.5458 18.3357C34.8458 18.7357 35.1458 19.1357 35.5458 19.4357C37.1458 20.5357 39.5458 20.7357 41.2458 19.6357ZM36.9458 18.5357C35.4458 17.7357 34.7458 15.9357 35.2458 14.3357C35.7458 12.7357 37.2458 11.8357 38.8458 11.9357C40.6458 12.0357 42.0458 13.6357 42.0458 15.4357C42.0458 15.5357 42.0458 15.6357 42.1458 15.7357C42.0458 16.6357 41.7458 17.4357 41.0458 18.1357C39.9458 19.1357 38.2458 19.2357 36.9458 18.5357Z" fill="#3D4F3D"/>
</svg>
