<svg width="48" height="37" viewBox="0 0 48 37" fill="none" xmlns="http://www.w3.org/2000/svg">
<path d="M1.63873 31.267L45.7105 30.8959C45.7105 30.8959 50.5095 19.9062 37.8755 15.8908C25.2416 11.8754 4.08716 15.8908 2.12841 19.6124C0.169664 23.334 1.63873 31.267 1.63873 31.267Z" fill="#FF1D25"/>
<path d="M39.9323 16.6744C39.9323 16.6744 37.8756 20.298 40.9116 22.1589C43.9477 24.0197 45.2209 20.4939 45.2209 20.4939C45.2209 20.4939 42.3807 15.8909 39.9323 16.6744Z" fill="white"/>
<path d="M10.16 34.9887C12.7563 34.9887 14.861 32.884 14.861 30.2877C14.861 27.6914 12.7563 25.5867 10.16 25.5867C7.56369 25.5867 5.45898 27.6914 5.45898 30.2877C5.45898 32.884 7.56369 34.9887 10.16 34.9887Z" fill="#999999"/>
<path d="M36.6027 35.0865C39.3613 35.0865 41.5975 32.8503 41.5975 30.0917C41.5975 27.3332 39.3613 25.0969 36.6027 25.0969C33.8442 25.0969 31.6079 27.3332 31.6079 30.0917C31.6079 32.8503 33.8442 35.0865 36.6027 35.0865Z" fill="#999999"/>
<path d="M4.96924 17.164L34.7422 15.2052C34.7422 15.2052 32.4896 4.23625 27.7886 2.08163C23.0877 -0.0729961 10.1599 1.494 10.1599 1.494L4.96924 17.164Z" fill="#E6E6E6"/>
<path d="M39.9328 24.5094C39.7369 24.4114 39.639 24.4114 39.4431 24.4114C39.0513 24.2156 38.6596 24.0197 38.2678 23.9218C36.9946 23.53 35.5256 23.53 34.2524 24.0197C31.6081 24.9991 29.8452 27.6434 29.8452 30.4836C29.9432 33.4217 32.0978 36.066 34.938 36.6536C37.8761 37.2412 40.7163 35.7722 42.0874 33.1279C43.5564 30.2877 42.7729 26.2722 39.9328 24.5094ZM40.7163 31.4629C40.1286 33.4217 38.2678 34.8907 36.2111 34.7928C33.9586 34.7928 32.0978 33.1279 31.706 30.9732C31.4122 29.0145 32.4895 26.9578 34.1545 25.9784C35.1338 25.3908 36.2111 25.2929 37.3864 25.3908C37.8761 25.4888 38.3658 25.5867 38.7575 25.7826C38.7575 25.7826 38.7575 25.8805 38.8555 25.8805C39.639 26.664 40.3245 27.3496 40.7163 28.4269C41.0101 29.4062 41.0101 30.4836 40.7163 31.4629Z" fill="#3D4F3D"/>
<path d="M15.7416 26.7619C14.8602 25.4887 13.587 24.6073 12.1179 24.5093C10.7468 23.9217 9.08188 23.9217 7.71076 24.4114C4.87057 25.4887 3.20564 28.6227 3.79326 31.5608C4.38089 34.499 7.12313 36.8494 10.1592 36.7515C13.1952 36.6536 15.9375 34.5969 16.5251 31.5608C16.9169 29.9938 16.721 28.133 15.7416 26.7619ZM14.8602 30.8753C14.5664 33.0299 12.9014 34.6948 10.7468 34.8907C8.69013 35.0866 6.63345 33.8134 5.94788 31.8546C5.26232 29.8959 6.14376 27.7413 7.90663 26.664C8.98394 25.9784 10.0613 25.8805 11.1386 26.1743C11.3344 26.3701 11.6283 26.4681 11.9221 26.3701C12.7056 26.664 13.4891 27.1536 14.1746 27.8392C14.2726 27.9371 14.2726 27.9371 14.3705 27.9371C14.8602 28.7206 14.9581 29.798 14.8602 30.8753Z" fill="#3D4F3D"/>
<path d="M28.278 30.5814C27.4945 30.2876 26.6131 30.3856 25.7316 30.3856C24.8502 30.3856 23.9688 30.3856 23.0873 30.3856C22.2059 30.3856 21.3245 30.3856 20.443 30.3856C20.0513 30.3856 19.6595 30.3856 19.2678 30.3856C18.7781 30.3856 18.2884 30.2876 17.7987 30.4835C17.0152 30.7773 16.9173 31.9526 17.7987 32.2464C18.2884 32.4423 18.7781 32.3443 19.2678 32.3443C19.6595 32.3443 20.0513 32.3443 20.443 32.3443L23.0873 32.2464C23.9688 32.2464 24.8502 32.1484 25.7316 32.1484C26.6131 32.1484 27.4945 32.1484 28.278 31.8546C28.8656 31.5608 28.8656 30.7773 28.278 30.5814Z" fill="#3D4F3D"/>
<path d="M26.7112 20.5919C26.4174 20.4939 26.1236 20.4939 25.8298 20.4939C25.536 20.4939 25.3401 20.4939 25.0463 20.4939H24.2628C23.871 20.4939 23.3814 20.396 23.0875 20.7877C22.7937 21.0815 22.7937 21.5712 23.0875 21.865C23.2834 22.0609 23.5772 22.1588 23.871 22.1588C23.969 22.1588 24.1649 22.1588 24.2628 22.0609C24.5566 22.0609 24.7525 21.963 25.0463 21.963C25.3401 21.963 25.6339 21.865 25.9277 21.865L26.3195 21.7671C26.5154 21.7671 26.6133 21.6692 26.8092 21.5712C27.005 21.4733 27.103 21.1795 27.103 20.9836C27.103 20.7877 26.9071 20.6898 26.7112 20.5919Z" fill="#3D4F3D"/>
<path d="M45.2211 18.9269C42.5768 15.7929 38.8552 14.9114 35.0356 14.4218C34.8398 13.0506 34.2521 11.7774 33.8604 10.5043C33.3707 9.0352 32.7831 7.56614 32.2934 6.19501C31.412 4.04039 30.3346 1.98371 27.9841 1.00433C25.5357 -0.0729797 22.4997 0.122895 19.8553 0.0249578C16.6234 -0.0729796 13.3915 0.122895 10.1595 0.514645C9.57192 0.612582 9.18017 0.808457 8.98429 1.39608C7.02554 6.58676 5.0668 11.8754 3.10805 17.164C2.91217 17.2619 2.7163 17.3599 2.61836 17.5557C0.855489 19.0248 0.169928 21.1794 0.0719903 23.432C-0.123884 26.1742 0.0719903 29.1124 0.757552 31.7567C1.05136 33.1278 3.01011 32.5402 2.81424 31.169C2.52042 29.0144 2.42249 26.8598 2.42249 24.7052C2.42249 23.0402 2.61836 20.9836 3.79361 19.7104C5.0668 18.4372 6.92761 18.1434 8.59254 17.8496C10.943 17.4578 13.1956 17.164 15.5461 16.9681C20.1492 16.4784 24.6543 16.2826 29.2573 16.3805C32.3913 16.4784 35.9171 16.2826 39.0511 17.164C37.8758 18.4372 37.8758 20.5918 38.9531 21.9629C40.1284 23.5299 42.283 24.0196 44.0459 23.1382C44.4376 22.9423 44.8294 22.6485 45.2211 22.2567C46.2984 24.6072 46.4943 27.3495 45.7108 29.9938C45.417 29.9938 45.0252 30.0917 44.7314 30.0917C43.7521 30.1897 43.7521 31.6587 44.7314 31.5608C45.3191 31.5608 45.8087 31.4629 46.3964 31.4629C46.6902 31.4629 46.984 31.3649 47.0819 31.0711C48.7469 26.9577 48.1592 22.3547 45.2211 18.9269ZM21.0306 14.1279C21.0306 13.6383 21.0306 13.1486 20.9327 12.6589C20.9327 11.7774 20.9327 10.9939 20.8347 10.1125C20.8347 9.32901 20.7368 8.44757 20.7368 7.66407C20.7368 6.88057 20.7368 5.9012 20.443 5.21564C20.2471 4.72595 19.5615 4.62802 19.3657 5.21564C19.0718 5.99914 19.1698 6.88057 19.1698 7.66407C19.1698 8.54551 19.1698 9.32901 19.1698 10.2104C19.1698 10.9939 19.1698 11.8754 19.1698 12.6589C19.1698 13.1486 19.1698 13.7362 19.1698 14.3238C18.2883 14.4218 17.4069 14.4218 16.6234 14.5197C13.8812 14.8135 11.2369 15.1073 8.59254 15.597C7.71111 15.597 6.92761 15.6949 6.14411 15.8908C7.80904 11.5816 9.47398 7.17439 11.041 2.7672C13.4894 2.47339 15.9378 2.27752 18.3863 2.27752C20.9327 2.17958 23.8708 2.08164 26.4171 2.57133C28.8656 3.06102 29.845 5.21564 30.7264 7.37026C31.2161 8.74138 31.7058 10.1125 32.2934 11.4836C32.6851 12.3651 32.9789 13.3444 33.4686 14.3238C33.2728 14.3238 33.0769 14.3238 32.881 14.3238C28.9635 13.9321 25.046 13.9321 21.0306 14.1279ZM44.1438 20.5918L44.0459 20.6897C43.9479 20.7877 43.9479 20.7877 43.85 20.8856C43.7521 20.9836 43.7521 20.9836 43.6541 21.0815L43.4582 21.1794C43.3603 21.2774 43.2624 21.2774 43.1644 21.2774H43.0665C42.8706 21.3753 42.6747 21.3753 42.3809 21.4732C42.283 21.4732 42.1851 21.4732 42.0871 21.4732H41.9892C41.8912 21.4732 41.7933 21.4732 41.6954 21.3753C41.5974 21.3753 41.5974 21.3753 41.4995 21.2774L41.3036 21.1794C41.2057 21.0815 41.1077 21.0815 41.0098 20.9836C40.9119 20.8856 40.8139 20.7877 40.8139 20.7877C40.8139 20.7877 40.716 20.5918 40.6181 20.5918C40.5201 20.3959 40.4222 20.298 40.3242 20.1021C40.3242 20.1021 40.3243 20.0042 40.2263 20.0042C40.2263 19.9062 40.1284 19.8083 40.1284 19.7104V19.6124C40.1284 19.6124 40.1284 19.6124 40.1284 19.5145C40.1284 19.4166 40.1284 19.3186 40.1284 19.1227C40.1284 19.0248 40.1284 18.9269 40.1284 18.8289C40.1284 18.9269 40.1284 18.6331 40.1284 18.6331C40.1284 18.5351 40.1284 18.4372 40.2263 18.3392C40.2263 18.2413 40.2263 18.2413 40.3242 18.1434C40.4222 17.9475 40.5201 17.7516 40.6181 17.5557C41.1078 17.7516 41.4995 17.9475 41.8912 18.2413C42.7727 18.9269 43.5562 19.7104 44.1438 20.5918C44.1438 20.5918 44.2417 20.4939 44.1438 20.5918Z" fill="#3D4F3D"/>
</svg>
