<svg width="48" height="49" viewBox="0 0 48 49" fill="none" xmlns="http://www.w3.org/2000/svg">
<path d="M34.8392 21.1017H43.9392C43.9392 21.1017 43.2392 10.6017 42.3392 7.20165C41.4392 3.80165 40.4392 -0.398346 38.1392 1.40165C35.8392 3.20165 35.4392 7.90165 35.1392 11.5017C34.8392 15.1017 34.8392 21.1017 34.8392 21.1017Z" fill="#FF1D25"/>
<path d="M47.0392 20.8016C42.0392 20.6016 37.1392 21.0017 32.1392 20.7017C31.0392 20.6017 31.0392 22.4016 32.1392 22.3016C37.0392 22.0016 42.0392 22.4017 47.0392 22.1017C47.8392 22.0017 47.8392 20.9016 47.0392 20.8016Z" fill="#3D4F3D"/>
<path d="M35.9392 11.1017C36.0392 9.50167 36.3392 7.80167 36.5392 6.20167C36.8392 4.80167 37.2392 3.20167 37.2392 1.80167C37.2392 1.60167 37.6392 0.30167 36.8392 1.70167C36.0392 3.00167 35.7392 4.80167 35.4392 6.30167C35.1392 7.80167 34.9392 9.30167 34.7392 10.8017C34.5392 12.4017 34.4392 13.9017 34.3392 15.5017C34.3392 16.4017 34.3392 17.2017 34.3392 18.1017C34.3392 18.5017 34.3392 18.8017 34.3392 19.2017C34.3392 19.5017 34.3392 20.2017 34.3392 20.5017C34.2392 21.3017 34.6392 22.0017 35.2392 21.9017C35.9392 21.8017 35.7392 21.1017 35.7392 20.3017C35.8392 19.6017 35.6392 14.2017 35.9392 11.1017Z" fill="#3D4F3D"/>
<path d="M46.8392 21.8017H32.1392V47.2017H46.8392V21.8017Z" fill="#FF931E"/>
<path d="M33.2392 47.0017L46.5392 47.2017L46.8392 40.4017C46.8392 40.4017 44.1392 42.5017 40.2392 43.2017C36.3392 43.9017 33.2392 47.0017 33.2392 47.0017Z" fill="#FACE8D"/>
<path d="M46.8392 21.8017H32.1392V26.5017H46.8392V21.8017Z" fill="#FACE8D"/>
<path d="M47.8392 33.4017C47.8392 31.2017 47.8392 29.0017 47.8392 26.8017C47.8392 25.7017 48.0392 21.7017 47.4392 21.1017C47.3392 21.0017 46.9392 21.1017 46.8392 21.2017C46.2392 21.8017 46.3392 22.5017 46.3392 23.3017C46.2392 24.4017 46.1392 25.6017 46.1392 26.7017C46.0392 28.9017 45.9392 31.1017 45.9392 33.3017C45.9392 35.5017 45.9392 37.7017 45.8392 39.9017C45.8392 42.2017 45.5392 44.5017 45.7392 46.8017C45.8392 48.1017 47.6392 48.1017 47.7392 46.8017C47.9392 44.5017 47.7392 42.2017 47.7392 39.9017C47.8392 37.8017 47.8392 35.6017 47.8392 33.4017Z" fill="#3D4F3D"/>
<path d="M33.0392 40.8017C32.9392 38.6017 32.8392 36.3017 32.8392 34.1017C32.8392 32.0017 32.8392 29.8017 32.7392 27.7017C32.7392 26.6017 32.7392 25.6017 32.6392 24.5017C32.6392 23.5017 32.7392 22.4017 32.3392 21.5017C32.2392 21.3017 31.5392 21.1017 31.4392 21.3017C31.0392 22.1017 31.2392 26.3017 31.1392 27.5017C31.0392 29.7017 30.9392 32.0017 31.0392 34.2017C31.0392 36.4017 31.0392 38.7017 31.2392 40.9017C31.3392 43.0017 31.2392 45.5017 31.8392 47.5017C32.0392 48.4017 33.2392 48.1017 33.3392 47.3017C33.4392 45.1017 33.0392 42.8017 33.0392 40.8017Z" fill="#3D4F3D"/>
<path d="M47.1392 46.8017C46.3392 46.2017 44.9392 46.5017 43.9392 46.5017C42.6392 46.5017 41.4392 46.6017 40.1392 46.6017C38.9392 46.6017 37.7392 46.6017 36.4392 46.5017C35.1392 46.5017 33.9392 46.3017 32.6392 46.3017C31.4392 46.3017 31.2392 47.8017 32.4392 48.0017C33.7392 48.2017 39.0392 48.2017 40.2392 48.2017C41.4392 48.1017 46.7392 48.3017 47.5392 47.6017C47.6392 47.4017 47.3392 46.8017 47.1392 46.8017Z" fill="#3D4F3D"/>
<path d="M47.2392 26.0017C44.8392 25.6017 42.3392 25.8017 39.8392 25.7017C38.6392 25.6017 37.3392 25.6017 36.1392 25.6017C34.8392 25.6017 33.5392 25.5017 32.3392 25.7017C31.4392 25.8017 31.4392 27.3017 32.3392 27.5017C33.5392 27.7017 34.7392 27.7017 36.0392 27.7017C37.3392 27.7017 38.5392 27.7017 39.8392 27.6017C42.2392 27.5017 44.8392 27.6017 47.2392 27.1017C47.7392 26.9017 47.7392 26.1017 47.2392 26.0017Z" fill="#3D4F3D"/>
<path d="M42.5392 6.0017C42.2392 4.1017 41.4392 2.3017 40.3392 0.701697C39.8392 0.00169659 38.5392 0.201697 38.2392 0.401697C37.6392 0.701697 37.2392 1.1017 36.9392 1.8017C36.2392 3.4017 36.9392 5.1017 37.6392 6.6017C38.2392 7.9017 39.3392 9.3017 40.8392 9.6017C41.6392 9.7017 42.4392 9.3017 42.7392 8.5017C42.8392 7.7017 42.7392 6.8017 42.5392 6.0017ZM41.4392 8.2017C41.1392 8.5017 40.4392 8.0017 40.2392 7.9017C39.8392 7.6017 39.4392 7.2017 39.2392 6.7017C38.9392 6.2017 38.7392 5.7017 38.5392 5.2017C38.3392 4.6017 38.0392 3.9017 37.9392 3.3017C37.8392 2.7017 37.8392 1.8017 38.3392 1.4017C38.6392 1.2017 39.2392 0.901697 39.5392 1.2017C40.4392 2.2017 40.7392 3.5017 41.1392 4.8017C41.3392 5.4017 41.4392 6.0017 41.5392 6.7017C41.5392 7.0017 41.6392 7.3017 41.6392 7.6017C41.4392 7.8017 41.5392 8.1017 41.4392 8.2017Z" fill="#3D4F3D"/>
<path d="M44.4392 20.7017C44.5392 19.8017 44.4392 18.8017 44.4392 18.0017C44.4392 17.2017 44.4392 16.3017 44.3392 15.5017C44.2392 13.8017 44.0392 12.2017 43.7392 10.5017C43.1392 7.30169 41.9392 3.60169 40.3392 0.701689C40.2392 0.501689 40.0392 1.00169 40.1392 1.30169C41.0392 4.40169 42.1392 7.40169 42.6392 10.6017C42.9392 12.2017 43.0392 13.8017 43.1392 15.4017C43.1392 16.2017 43.2392 17.1017 43.1392 17.9017C43.1392 18.6017 43.0392 19.9017 42.9392 20.7017C42.8392 22.3017 44.3392 22.0017 44.4392 20.7017Z" fill="#3D4F3D"/>
<path d="M21.5392 47.2017L12.4392 47.0017V21.8017H21.5392V47.2017Z" fill="#FF931E"/>
<path d="M16.2392 21.5017L20.9392 20.9017C20.9392 20.9017 24.6392 16.1017 27.0392 14.1017C29.4392 12.1017 31.3392 10.1017 31.3392 10.1017C31.3392 10.1017 24.5392 0.301672 15.1392 1.00167C5.73922 1.70167 0.639221 10.8017 0.639221 10.8017C0.639221 10.8017 6.53922 15.3017 8.03922 16.9017C9.53922 18.5017 12.5392 21.7017 12.5392 21.7017L16.2392 21.5017Z" fill="#999999"/>
<path d="M21.4392 21.8017H12.4392V26.5017H21.4392V21.8017Z" fill="#FACE8D"/>
<path d="M32.3392 9.90167C28.3392 4.30167 21.9392 -0.0983288 14.8392 0.00167122C8.23923 0.101671 1.93923 4.20167 0.0392305 10.6017C-0.0607695 10.9017 0.0392305 11.3017 0.23923 11.5017C4.33923 14.7017 8.03923 18.5017 11.7392 22.1017C12.5392 22.9017 13.6392 21.7017 12.9392 20.9017C9.53923 17.1017 5.73923 13.9017 1.83923 10.6017C4.03923 5.40167 9.63923 2.00167 15.1392 2.00167C21.1392 2.00167 26.7392 5.50167 30.3392 10.1017C26.4392 13.2017 22.8392 16.8017 20.2392 21.1017C19.9392 21.6017 20.6392 22.2017 21.1392 21.8017C24.5392 17.9017 28.0392 14.2017 32.1392 11.1017C32.3392 10.8017 32.6392 10.3017 32.3392 9.90167Z" fill="#3D4F3D"/>
<path d="M20.9392 20.9017C20.2392 20.7017 19.5392 20.7017 18.8392 20.7017C18.1392 20.7017 17.4392 20.6017 16.7392 20.6017C16.0392 20.6017 15.3392 20.6017 14.6392 20.6017C14.3392 20.6017 14.0392 20.6017 13.6392 20.6017C13.2392 20.6017 12.8392 20.6017 12.4392 20.8017C11.7392 21.1017 11.6392 22.1017 12.4392 22.4017C13.0392 22.6017 13.9392 22.5017 14.6392 22.5017C15.3392 22.5017 16.0392 22.5017 16.7392 22.4017C17.4392 22.3017 20.3392 22.5017 20.9392 22.3017C21.4392 22.1017 21.4392 21.0017 20.9392 20.9017Z" fill="#3D4F3D"/>
<path d="M12.4392 47.0017L21.4392 47.2017L21.6392 40.4017C21.6392 40.4017 19.8392 42.5017 17.1392 43.2017C14.5392 43.9017 12.4392 47.0017 12.4392 47.0017Z" fill="#FACE8D"/>
<path d="M22.6392 33.8017C22.6392 31.7017 22.5392 29.5017 22.3392 27.4017C22.2392 25.5017 22.2392 22.8017 22.0392 20.4017C22.0392 20.2017 20.9392 21.2017 20.8392 21.4017C20.3392 23.2017 20.6392 25.5017 20.7392 27.4017C20.8392 29.6017 20.9392 31.8017 20.9392 34.0017C20.9392 38.4017 20.6392 42.7017 20.5392 47.0017C20.5392 48.1017 22.0392 48.0017 22.1392 47.0017C22.7392 42.7017 22.7392 38.2017 22.6392 33.8017Z" fill="#3D4F3D"/>
<path d="M12.9392 24.0017C12.9392 23.1017 12.9392 22.2017 12.4392 21.4017C12.3392 21.2017 11.0392 21.0017 11.0392 21.1017C11.1392 22.3017 11.3392 26.3017 11.3392 27.4017C11.2392 29.6017 11.2392 31.7017 11.2392 33.9017C11.1392 38.4017 11.1392 42.6017 11.0392 47.1017C11.0392 48.1017 12.6392 48.1017 12.6392 47.1017C12.7392 42.6017 12.7392 38.4017 12.8392 33.9017C12.8392 31.7017 12.9392 29.6017 12.9392 27.4017C13.0392 26.3017 13.0392 25.2017 12.9392 24.0017Z" fill="#3D4F3D"/>
<path d="M21.7392 46.7017C21.0392 46.4017 20.1392 46.5017 19.4392 46.4017C18.6392 46.4017 17.9392 46.3017 17.1392 46.4017C15.5392 46.4017 14.0392 46.3017 12.4392 46.5017C11.6392 46.6017 10.9392 48.0017 11.7392 47.9017C13.3392 47.8017 20.9392 48.0017 21.6392 47.8017C22.2392 47.6017 22.1392 46.8017 21.7392 46.7017Z" fill="#3D4F3D"/>
<path d="M21.3392 26.4017C20.6392 26.3017 19.9392 26.4017 19.2392 26.4017C18.5392 26.4017 17.9392 26.5017 17.2392 26.5017C15.8392 26.5017 14.4392 26.6017 13.1392 26.6017C11.9392 26.6017 12.0392 27.9017 13.2392 28.0017C14.8392 28.1017 20.8392 28.1017 21.4392 27.8017C21.8392 27.6017 21.8392 26.5017 21.3392 26.4017Z" fill="#3D4F3D"/>
<path d="M21.1392 8.00167C19.9392 10.0017 19.1392 12.3017 18.4392 14.6017C17.7392 16.9017 17.3392 19.2017 17.2392 21.6017C17.2392 21.9017 17.6392 21.9017 17.7392 21.7017C18.1392 19.4017 18.5392 17.1017 19.2392 14.8017C19.9392 12.5017 20.8392 10.4017 21.7392 8.20167C21.8392 7.90167 21.3392 7.70167 21.1392 8.00167Z" fill="#3D4F3D"/>
<path d="M15.6392 17.7016C15.3392 16.5016 14.7392 15.4016 14.0392 14.4016C13.7392 14.0016 13.0392 14.4016 13.3392 14.8016C13.9392 15.7016 14.5392 16.8016 14.8392 17.9016C15.2392 19.0016 15.3392 20.1016 15.4392 21.3016C15.4392 21.5016 15.8392 21.6016 15.9392 21.4016C16.1392 20.1016 15.9392 18.9016 15.6392 17.7016Z" fill="#3D4F3D"/>
<path d="M20.9392 38.5017C20.5392 40.4017 18.7392 41.6017 17.1392 42.5017C16.2392 43.0017 15.3392 43.4017 14.5392 44.0017C13.6392 44.6017 12.7392 45.2017 12.3392 46.1017C12.0392 46.8017 12.8392 47.4017 13.3392 46.9017C14.1392 46.2017 14.8392 45.6017 15.7392 45.0017C16.6392 44.5017 17.6392 44.0017 18.5392 43.4017C20.2392 42.3017 21.8392 40.8017 22.1392 38.6017C22.1392 38.0017 21.1392 37.9017 20.9392 38.5017Z" fill="#3D4F3D"/>
<path d="M46.5392 38.2017C45.1392 40.7017 42.5392 41.4017 39.9392 42.1017C37.2392 42.8017 34.6392 43.6017 32.8392 45.9017C32.2392 46.7017 33.5392 47.7017 34.2392 47.0017C36.3392 45.0017 39.2392 44.6017 41.8392 43.6017C44.1392 42.7017 46.6392 41.2017 47.3392 38.6017C47.5392 38.1017 46.7392 37.8017 46.5392 38.2017Z" fill="#3D4F3D"/>
</svg>
