<svg width="50" height="50" viewBox="0 0 48 46" fill="none" xmlns="http://www.w3.org/2000/svg">
<path d="M2.09082 20.3172L12.7032 25.6234L36.0505 26.6846L47.5012 19.5531L45.6016 41.542L38.173 43.6644H8.45825L3.15206 40.4807L2.09082 20.3172Z" fill="#0B6C9D"/>
<path d="M46.6629 18.1946L44.5404 10.766H24.3769L6.33577 9.70471L2.09082 13.9497L2.11207 21.6967L12.7032 25.6233L36.0505 26.6845L46.6629 18.1946Z" fill="#5B707A"/>
<path d="M47.7347 24.9335C47.6498 23.4902 47.4163 17.6958 47.342 16.7832C47.2678 15.8599 47.1617 14.9472 47.0555 14.024C46.96 13.1856 46.96 12.2411 46.6523 11.4451C46.0368 9.85329 44.2751 9.63043 42.8 9.38635C40.9746 9.0892 39.1493 8.96185 37.3028 9.23777C35.6366 8.97246 33.8325 9.16349 32.1239 9.26961C32.2725 8.3994 32.1239 7.42306 31.9966 6.59529C31.8268 5.45977 31.6252 4.14383 30.946 3.18872C30.1076 2.02135 28.7704 1.79849 27.4544 1.55441C26.2022 1.32094 24.9394 1.09808 23.6553 1.00257C21.2993 0.832767 17.776 1.04501 16.3857 3.29484C15.7384 4.34547 15.6322 5.67201 15.6322 6.88182C15.6322 7.49734 15.6535 8.24021 15.7914 8.95124C14.4331 8.85573 13.0641 8.72838 11.6951 8.65409C8.58566 8.0598 4.46803 8.3145 2.09086 10.7872C-0.424277 13.4084 0.0426874 23.0551 0.0214626 24.3074C-0.0209869 26.4935 0.000213224 28.6797 0.0957247 30.8658C0.180624 32.8928 0.361035 34.9197 0.594508 36.9361C0.806756 38.7296 0.838609 40.8202 1.7725 42.4121C2.72761 44.0358 4.39374 44.4603 6.13417 44.7256C8.16114 45.0333 10.1988 45.3093 12.2469 45.4578C14.3694 45.6064 16.4919 45.6276 18.6144 45.5321C22.9655 46.2219 27.6349 45.9035 31.9966 45.7231C34.3737 45.6276 36.7721 45.617 39.1387 45.3835C41.1763 45.1819 43.6065 44.9484 45.4 43.8872C46.9813 42.9533 47.48 41.181 47.671 39.4724C47.9363 37.0953 48 34.6863 48 32.3091C47.9788 29.8152 47.8833 27.3743 47.7347 24.9335ZM42.0995 12.0288C42.6301 12.0819 43.5853 12.0819 44.0098 12.379C44.4131 12.6656 44.36 13.5252 44.4236 14.024C44.5934 15.393 44.742 16.762 44.9118 18.1309C44.9012 18.1416 44.8906 18.1416 44.88 18.1522C43.3306 19.1497 41.7918 20.1685 40.253 21.1767C39.1917 21.8771 38.0562 22.8216 36.857 23.4265C36.857 22.1212 36.8676 20.8159 36.8889 19.5106C36.9101 17.9505 36.9525 16.3905 37.0268 14.8305C37.0587 14.1195 36.9631 13.2174 37.1329 12.5382C37.2072 12.2411 37.3452 12.2729 37.8228 12.188C39.2024 11.9333 40.6987 11.9015 42.0995 12.0288ZM14.6135 18.9906C14.6665 16.9211 14.7196 14.8517 14.7726 12.7717C14.7726 12.6019 14.7833 12.4321 14.7833 12.2517C15.3988 12.2941 16.0143 12.3366 16.6192 12.379C19.0176 12.5488 21.4266 12.5807 23.8356 12.5701C26.2447 12.5594 28.643 12.4852 31.0521 12.3578C32.0178 12.3048 33.0578 12.2835 34.0978 12.2092C33.8962 13.9072 33.8644 15.637 33.8007 17.3456C33.7052 19.6061 33.6733 21.8771 33.6839 24.1376C32.4953 24.2012 31.2855 24.1588 30.1606 24.1906C28.2185 24.2543 26.2871 24.318 24.345 24.3498C21.1082 24.4029 17.7335 24.5727 14.4649 24.318C14.5286 22.5563 14.571 20.7734 14.6135 18.9906ZM19.0388 4.95037C19.4103 4.38791 20.5564 4.21812 21.1719 4.09077C22.0634 3.91036 22.9973 3.89975 23.8993 3.94219C24.8438 3.98464 25.7777 4.10138 26.701 4.24995C27.3377 4.35608 28.4096 4.32424 28.8022 4.8867C29.2904 5.58711 29.4496 6.6908 29.6194 7.50796C29.7361 8.09164 29.7998 8.72838 29.9589 9.32267C27.9108 9.35451 25.8626 9.35451 23.825 9.30145C22.2013 9.259 20.5882 9.18471 18.9645 9.09981C18.9327 8.47368 18.7947 7.82633 18.7735 7.24265C18.7523 6.57407 18.6568 5.54466 19.0388 4.95037ZM5.12602 12.5488C5.98562 11.6468 6.95133 11.4876 8.16114 11.5407C8.67054 11.5619 9.17993 11.6043 9.68933 11.6362C10.3791 11.7847 11.0795 11.9015 11.7906 11.9864C11.7906 12.1243 11.78 12.2623 11.78 12.4003C11.7694 12.7929 11.7587 13.175 11.7481 13.5676C11.7269 14.4697 11.7057 15.3823 11.6845 16.2844C11.642 18.0991 11.5996 19.9138 11.5571 21.7179C11.5359 22.4184 11.5253 23.1294 11.5041 23.8298C10.2518 23.3416 9.05259 22.4502 7.97013 21.8134C6.56929 20.9751 5.2109 19.9987 3.68271 19.4363C3.56598 17.1015 3.44926 14.3211 5.12602 12.5488ZM45.1347 37.2332C45.018 39.0161 45.1984 41.1917 43.2032 41.839C41.2718 42.4651 39.128 42.4227 37.1223 42.4121C34.8937 42.4015 32.6651 42.3166 30.4365 42.2953C28.7916 42.2847 19.2723 42.2847 17.7547 42.497C16.2265 42.5394 14.6878 42.5288 13.1596 42.4545C11.313 42.359 9.45587 42.1892 7.61993 41.8815C6.84523 41.7541 5.91133 41.6798 5.18969 41.3402C4.57417 41.0431 4.4256 40.47 4.29825 39.8439C3.55538 36.3524 3.54475 32.532 3.41741 28.9768C3.35373 27.1833 3.33252 25.3898 3.36436 23.5857C3.37497 23.14 3.4068 22.6624 3.42803 22.1637C4.31947 22.9065 5.31703 23.5327 6.3146 24.1588C7.87462 25.1245 9.56199 26.3555 11.3555 26.8543C11.4085 26.8756 11.4722 26.8756 11.5359 26.8968C11.5359 26.9817 11.504 31.1099 13.3187 30.2503C14.242 29.8152 14.1466 28.8176 14.2315 27.9368C14.2527 27.7033 14.2739 27.4698 14.2951 27.2364C15.367 27.2682 16.46 27.2364 17.4682 27.2576C19.665 27.3 21.8723 27.2894 24.0691 27.247C26.181 27.2045 28.2929 27.1302 30.4153 27.0454C31.4872 27.0029 32.6015 27.0029 33.7052 26.9498C33.7158 27.5972 33.7264 28.2445 33.7476 28.8813C33.8113 30.9083 36.9632 30.9189 36.9101 28.8813C36.8889 28.0748 36.8889 27.2682 36.8782 26.4617C38.3958 25.9417 39.7118 24.8804 41.0277 24.0102C42.3012 23.1612 43.5747 22.3122 44.8482 21.4632C44.88 22.4502 44.9649 23.4371 45.0179 24.4241C45.1347 26.5147 45.2408 28.6054 45.2727 30.7066C45.3045 32.8715 45.2727 35.0577 45.1347 37.2332Z" fill="#3D4F3D"/>
</svg>
