<svg width="44" height="49" viewBox="0 0 44 49" fill="none" xmlns="http://www.w3.org/2000/svg">
<path d="M2.5 35.4C5.5 43 21.7 47.7 22.2 47.5C29.6 45.7 38.1 43.1 40.9 35.2C42.3 31.2 42 26.7 42.2 22.5C42.4 17.8 42.6 13.1 42.7 8.4C42.7 7.7 42.1 7.1 41.4 7.1C34.9 7.1 28.1 7.1 23 2.3C22 1.4 21.1 2.8 20.3 3.5C18.4 5.4 9.49999 7.8 3.59999 7.4C2.89999 7.4 2.29999 8 2.29999 8.7C2.09999 13.4 1.79999 18.1 1.59999 22.8C1.59999 26.9 0.999995 31.4 2.5 35.4Z" fill="#3FA9F5"/>
<path d="M1.70001 35.9C4.80001 43.8 21.7 48.7 22.3 48.5C30 46.6 38.9 43.9 41.8 35.6C43.3 31.5 43 26.7 43.1 22.4C43.3 17.5 43.5 12.6 43.7 7.69999C43.7 6.99999 43.1 6.29999 42.3 6.29999C35.5 6.29999 28.4 6.29999 23.1 1.29999C22.1 0.299994 21.1 1.79999 20.3 2.59999C18.3 4.49999 9.00001 6.99999 2.90001 6.59999C2.10001 6.49999 1.6 7.29999 1.6 7.89999C1.4 12.8 1.10001 17.7 0.900007 22.6C0.700007 27 0.100006 31.7 1.70001 35.9ZM3.6 21.4C3.8 17.4 4.00001 13.4 4.20001 9.39999C10.5 9.59999 16.8 7.89999 22.2 4.59999C27.6 8.49999 34.4 8.99999 40.9 8.99999C40.8 13 40.6 16.9 40.5 20.9C40.3 25.1 40.6 29.5 39.6 33.6C37.6 41.4 29.3 43.9 22.3 45.7C22.2 45.6 6.00001 41.6 3.90001 33.9C2.80001 29.9 3.4 25.4 3.6 21.4Z" fill="#3D4F3D"/>
<path d="M33.8 30.2H29.3V33.7H33.8V30.2Z" fill="#999999"/>
<path d="M14.3 30.2H9.8V33.7H14.3V30.2Z" fill="#999999"/>
<path d="M11.6 21.8H31.5C31.5 21.8 30.6 15.5 28.3 15.3C25.9 15.1 15.2 14.9 14.4 15.5C13.5 16.2 11.6 21.8 11.6 21.8Z" fill="#E6E6E6"/>
<path d="M10.2 29.5C8.50001 28.5 9.10001 23.2 11.6 22.4C14.1 21.6 30.6 21 32.2 21.9C33.8 22.8 35.1 28.8 33.5 29.6C31.9 30.4 24.2 31 20.2 30.9C16.1 31 11.6 30.3 10.2 29.5Z" fill="#FF1D25"/>
<path d="M25.8 26C25.3 25.7 22.7 25.6 22 25.7C20.7 25.7 19.4 25.8 18.2 25.9C17.5 25.9 17.5 27 18.2 27C19.5 27.1 20.8 27.1 22 27.2C22.6 27.2 25.2 27.2 25.8 26.8C26.1 26.6 26.1 26.2 25.8 26Z" fill="#3D4F3D"/>
<path d="M34.7 29.6C35.1 28.7 35 27.5 34.9 26.3C34.7 24.1 33.2 21.6 32.3 20.7C32.2 20.6 32.2 20.6 32.2 20.6C31.8 18.2 30 14.8 28.7 14.6C26.6 14.3 25.4 14.3 22.9 14.3C21.3 14.3 19.6 14.3 18 14.4C16.8 14.4 15.2 14.2 14.1 14.9C13 15.5 12.6 16.8 12.1 17.9C11.4 19.5 10.8 21 10.2 22.6C10.2 22.7 10.2 22.7 10.2 22.8C9.3 23.9 9.00001 25.4 8.90001 26.8C8.80001 27.8 8.9 28.7 9.3 29.5C9 29.7 9 30 9 30.2C9 30.4 9.00001 30.6 8.90001 30.9C8.90001 31.4 9 31.8 9 32.3C9.1 33.1 9.3 34 10.1 34.4C10.9 34.8 11.8 34.8 12.7 34.8C13.5 34.8 14.4 34.6 14.8 33.8C15 33.4 15.1 32.9 15.1 32.5C15.1 32.2 15.1 31.9 15.1 31.7C16 31.8 16.9 31.9 17.7 31.9C20.3 32 22.9 31.9 25.5 31.8C26.5 31.7 27.4 31.7 28.4 31.6C28.4 31.9 28.4 32.2 28.4 32.5C28.4 32.9 28.5 33.4 28.7 33.8C29.1 34.6 30 34.8 30.8 34.8C31.6 34.8 32.6 34.8 33.4 34.4C34.3 34 34.4 33.2 34.5 32.3C34.6 31.8 34.6 31.4 34.6 30.9C34.6 30.7 34.6 30.5 34.5 30.2C34.8 30 34.8 29.8 34.7 29.6ZM13 19.7C13.4 18.8 13.8 17.2 14.6 16.6C15.4 16 20.8 16.2 22.1 16.2C23.3 16.2 27 16.2 27.6 16.2C28.6 16.1 30 18.3 30.3 19.3C30.5 20 30.7 20.7 30.9 21.4H30.8C30.6 21.4 30.3 21.3 30.1 21.3C30.1 20.6 29.6 19.9 29.1 19.4C28.5 18.8 27.6 18.5 26.8 18.5C26 18.5 25.1 18.7 24.4 19.2C24.1 19.4 23.7 19.7 23.4 20C23.1 20.3 22.8 20.7 22.7 21.1C20.8 21.1 18.9 21.1 17 21.1C15.5 21.1 13.8 21 12.3 21.5C12.5 20.8 12.8 20.2 13 19.7ZM29.3 21.1C27.9 21 26.5 21 25.1 21C24.7 21 24.4 21 24 21C24 20.9 24.1 20.9 24.1 20.8C24.3 20.6 24.6 20.4 24.9 20.2C25.4 19.9 26.1 19.7 26.7 19.8C27.3 19.8 27.8 20.1 28.3 20.4C28.7 20.5 29 20.8 29.3 21.1ZM13.9 32.9C13.9 33 13.8 33.1 13.8 33.2C13.7 33.4 13.4 33.5 13.1 33.5C12.6 33.5 12.2 33.5 11.7 33.5C11.5 33.5 11.3 33.5 11.1 33.4C10.9 33.4 10.8 33.3 10.7 33.2C10.6 33.2 10.6 33.1 10.5 33C10.4 32.8 10.4 32.6 10.4 32.4C10.3 32 10.3 31.5 10.3 31.1C10.3 31 10.3 30.9 10.3 30.8C10.5 30.9 10.6 31 10.8 31.1C11.7 31.4 12.6 31.5 13.5 31.6C13.6 31.6 13.7 31.6 13.7 31.6C13.7 31.9 13.8 32.2 13.8 32.4C13.9 32.4 13.9 32.7 13.9 32.9ZM33.5 31C33.5 31.4 33.4 31.9 33.4 32.3C33.4 32.5 33.3 32.7 33.3 32.9C33.3 33 33.2 33.1 33.1 33.1C33 33.2 32.9 33.2 32.7 33.3C32.5 33.3 32.3 33.4 32.1 33.4C31.6 33.5 31.2 33.5 30.7 33.4C30.4 33.4 30.2 33.3 30 33.1C29.9 33 29.9 32.9 29.9 32.8C29.9 32.6 29.9 32.4 29.9 32.2C29.9 31.9 30 31.6 30 31.4C31.1 31.4 32.2 31.3 33.2 31C33.3 31 33.3 30.9 33.4 30.9C33.5 30.9 33.5 31 33.5 31ZM33.5 28C33.2 29.6 31.9 29.6 30.5 29.7C29.4 29.8 28.2 29.9 27.1 29.9C24.5 30.1 21.9 30.2 19.3 30.2C16.9 30.2 14.2 30.4 11.8 29.8C10.4 29.5 10.1 28.5 10.2 27.2C10.3 26.2 10.4 25 10.9 24.1C12.1 22.1 15.6 22.6 17.6 22.6C20.1 22.6 22.7 22.6 25.2 22.7C27.1 22.8 29.3 23 31.3 22.8C32.9 23.9 33.9 26 33.5 28Z" fill="#3D4F3D"/>
<path d="M14 28C14.8837 28 15.6 27.2836 15.6 26.4C15.6 25.5163 14.8837 24.8 14 24.8C13.1164 24.8 12.4 25.5163 12.4 26.4C12.4 27.2836 13.1164 28 14 28Z" fill="white"/>
<path d="M29.3 28C30.1837 28 30.9 27.2836 30.9 26.4C30.9 25.5163 30.1837 24.8 29.3 24.8C28.4163 24.8 27.7 25.5163 27.7 26.4C27.7 27.2836 28.4163 28 29.3 28Z" fill="white"/>
<path d="M15.9 24.6C15.6 24.2 15.1 24 14.7 23.9C14.5 23.9 14.3 23.9 14.1 24.1H14C13.5 24.1 13 24.3 12.6 24.6C12.2 24.9 12 25.3 11.8 25.7C11.6 26.1 11.6 26.7 11.7 27.1C12 28 13 28.5 13.9 28.5C14.8 28.5 15.6 28 16.1 27.2C16.6 26.4 16.5 25.3 15.9 24.6ZM15.3 26.6C15.2 26.9 15 27.1 14.7 27.3C14.6 27.4 14.3 27.4 14.2 27.5C14.3 27.5 14.2 27.5 14.2 27.5C14.1 27.5 14.1 27.5 14 27.5C13.9 27.5 13.9 27.5 13.8 27.5C13.7 27.5 13.8 27.5 13.7 27.5C13.6 27.5 13.5 27.5 13.4 27.4C13.3 27.4 13.2 27.3 13.2 27.3L13.1 27.2C13.1 27.2 13 27.2 13 27.1L12.9 27C12.9 27 12.9 26.9 12.8 26.9C12.7 26.7 12.7 26.6 12.7 26.4C12.7 26.2 12.8 26 13 25.9C13 25.8 13.1 25.8 13.1 25.7C13.2 25.6 13.2 25.6 13.3 25.5L13.4 25.4L13.5 25.3L13.6 25.2C13.6 25.2 13.6 25.2 13.7 25.2C13.8 25.2 13.9 25.1 14 25.1C14.1 25.1 14.1 25.1 14.2 25.1C14.3 25.1 14.4 25.1 14.5 25.2C14.5 25.2 14.5 25.2 14.6 25.2C14.7 25.2 14.8 25.2 14.8 25.3C14.7 25.2 14.8 25.3 14.8 25.3L14.9 25.4L15 25.5L15.1 25.6C15.1 25.6 15.1 25.7 15.2 25.7C15.2 25.7 15.2 25.8 15.3 25.8C15.3 25.9 15.3 25.9 15.3 26C15.4 26.3 15.4 26.4 15.3 26.6Z" fill="#3D4F3D"/>
<path d="M31.1 24.6C30.8 24.2 30.3 24 29.9 23.9C29.7 23.9 29.5 23.9 29.3 24.1H29.2C28.7 24.1 28.2 24.3 27.8 24.6C27.4 24.9 27.2 25.3 27 25.7C26.8 26.1 26.8 26.7 26.9 27.1C27.2 28 28.2 28.5 29.1 28.5C30 28.5 30.8 28 31.3 27.2C31.8 26.4 31.8 25.3 31.1 24.6ZM30.6 26.6C30.5 26.9 30.3 27.1 30 27.3C29.9 27.4 29.6 27.4 29.5 27.5C29.6 27.5 29.5 27.5 29.5 27.5C29.4 27.5 29.4 27.5 29.3 27.5C29.2 27.5 29.2 27.5 29.1 27.5C29 27.5 29.1 27.5 29 27.5C28.9 27.5 28.8 27.5 28.7 27.4C28.6 27.4 28.5 27.3 28.5 27.3L28.4 27.2C28.4 27.2 28.3 27.2 28.3 27.1L28.2 27C28.2 27 28.2 26.9 28.1 26.9C28 26.7 28 26.6 28 26.4C28 26.2 28.1 26 28.3 25.9C28.3 25.8 28.4 25.8 28.4 25.7C28.5 25.6 28.5 25.6 28.6 25.5L28.7 25.4L28.8 25.3L28.9 25.2C28.9 25.2 28.9 25.2 29 25.2C29.1 25.2 29.2 25.1 29.3 25.1C29.4 25.1 29.4 25.1 29.5 25.1C29.6 25.1 29.7 25.1 29.8 25.2C29.8 25.2 29.8 25.2 29.9 25.2C30 25.2 30.1 25.2 30.1 25.3C30 25.2 30.1 25.3 30.1 25.3L30.2 25.4L30.3 25.5L30.4 25.6C30.4 25.6 30.4 25.7 30.5 25.7C30.5 25.7 30.5 25.8 30.6 25.8C30.6 25.9 30.6 25.9 30.6 26C30.7 26.3 30.6 26.4 30.6 26.6Z" fill="#3D4F3D"/>
</svg>
