<svg width="34" height="50" viewBox="0 0 34 50" fill="none" xmlns="http://www.w3.org/2000/svg">
<path d="M16.5 19.8829C16.5 19.8829 32.3 21.5829 32.3 29.3829C32.3 37.1829 32.6 47.9829 32.6 47.9829H1.2C1.2 47.9829 0.200005 29.2829 1.7 27.3829C3.2 25.4829 13.3 19.1829 13.3 19.1829L16.5 19.8829Z" fill="#999999"/>
<path d="M8.3 22.6828C8.3 22.6828 12.2 18.7828 17.8 19.7828C23.4 20.7828 25.8 23.1828 25.8 23.1828C25.8 23.1828 23 38.1828 16.7 38.6828C10.4 39.1828 8.3 22.6828 8.3 22.6828Z" fill="white"/>
<path d="M6.5 8.88283L26.1 8.58282L26.2 12.3828C26.2 12.3828 28.6 11.9828 28.5 13.4828C28.4 14.9828 25.5 16.0828 25.5 16.0828C25.5 16.0828 23 22.2828 17 21.7828C11 21.3828 7.7 17.1828 7.7 17.1828C7.7 17.1828 5 16.7828 4.6 15.0828C4.2 13.4828 6.7 12.4828 6.7 12.4828L6.5 8.88283Z" fill="#FACE8D"/>
<path d="M25.1 0.282837C25.1 0.282837 27 5.18284 26.6 6.88284C26.1 8.58284 24.8 9.18284 24.8 9.18284L6.60001 9.48283C6.60001 9.48283 7.70001 4.08283 10.5 3.48283C13.3 2.88283 20.9 2.28284 22 1.78284C23.1 1.28284 25.1 0.282837 25.1 0.282837Z" fill="#FF931E"/>
<path d="M26 8.38284C28.1 6.18284 26.7 2.38284 25.1 0.282843C24.9 0.0828433 24.6 -0.117157 24.3 0.0828426C22.3 1.28284 20.3 1.38284 18 1.78284C15.9 2.18284 13.8 1.88284 11.7 2.28284C9.7 2.58284 8 3.68284 7 5.48284C5.9 7.28284 5.8 9.38284 6 11.4828C6.4 15.3828 7.1 19.4828 10.9 21.3828C14.1 23.0828 18.6 23.0828 21.8 21.1828C26.2 18.5828 26.4 12.9828 26 8.48284C26.1 8.48284 26 8.48284 26 8.38284ZM22.3 19.5828C19.7 21.8828 15.2 21.8828 12.1 20.5828C8.5 18.9828 7.5 14.9828 7.5 11.3828C7.5 9.48284 7.8 7.38284 9 5.78284C10.2 4.38284 12 3.98284 13.7 3.88284C15.7 3.78284 17.7 3.58284 19.7 3.08284C21.5 2.58284 22.9 2.48284 24.4 1.38284C25.3 2.68284 26.1 3.48284 26 5.08284C26 5.98284 25.8 6.88284 25.3 7.58284C24.6 8.48284 23.6 8.48284 22.6 8.48284C18.9 8.48284 11.4 8.18284 7.7 8.48284C7 8.58284 7 9.58285 7.7 9.68285C10.1 9.88285 16.3 9.78285 18.7 9.68285C19.9 9.68285 21.1 9.58284 22.3 9.58284C23.1 9.58284 23.9 9.48284 24.6 9.28284C25.1 12.7828 25.2 16.9828 22.3 19.5828Z" fill="#3D4F3D"/>
<path d="M8 16.4829C7.9 16.1829 7.5 15.9829 7.2 16.0829C7.1 16.0829 7.1 16.0829 7 16.1829C7 16.1829 7 16.1829 6.9 16.1829C6.8 16.1829 6.8 16.1829 6.9 16.1829H6.5C6.6 16.1829 6.6 16.1829 6.6 16.1829H6.5C6.4 16.1829 6.4 16.1829 6.3 16.0829C6.2 16.0829 6.2 16.0829 6.1 16.0829C6 16.0829 6 15.9829 5.9 15.9829C5.9 15.9829 5.9 15.9829 5.8 15.9829C5.8 15.9829 5.8 15.9829 5.9 15.9829C5.8 15.9829 5.6 15.7829 5.6 15.6829C5.7 15.7829 5.7 15.7829 5.6 15.6829C5.6 15.5829 5.5 15.5829 5.5 15.4829C5.5 15.3829 5.5 15.3829 5.4 15.2829C5.4 15.1829 5.3 15.0829 5.3 14.9829V14.8829C5.3 14.7829 5.3 14.7829 5.3 14.6829V14.5829C5.3 14.4829 5.3 14.4829 5.3 14.3829V14.2829C5.3 14.2829 5.3 14.1829 5.4 14.1829C5.6 13.7829 5.9 13.5829 6.4 13.4829C6.5 13.4829 6.7 13.2829 6.7 13.1829C6.8 13.0829 6.8 12.8829 6.6 12.7829C6.5 12.6829 6.4 12.4829 6.2 12.5829C5 12.6829 4.1 13.4829 3.8 14.6829C3.7 15.3829 3.7 15.9829 4.1 16.5829C4.4 17.1829 5 17.5829 5.6 17.7829C6.3 17.9829 7.1 17.8829 7.7 17.5829C8 17.1829 8.1 16.7829 8 16.4829Z" fill="#3D4F3D"/>
<path d="M29.3 12.5828C29 11.8828 28.5 11.2828 27.8 11.0828C27.5 10.9828 27.2 10.9828 26.9 10.9828C26.5 10.9828 26.2 11.1828 25.9 11.4828C25.6 11.8828 25.8 12.3829 26.3 12.3829C26.3 12.3829 26.3 12.3829 26.4 12.3829H26.5C26.6 12.3829 26.7 12.3828 26.8 12.4828C26.7 12.4828 26.7 12.4828 26.8 12.4828C26.8 12.4828 26.9 12.4828 27 12.5828C27 12.5828 26.9 12.5828 27 12.5828C27.1 12.5828 27.1 12.6829 27.2 12.6829C27.3 12.7829 27.4 12.8828 27.5 12.9828C27.5 13.0828 27.6 13.0829 27.6 13.1829C27.6 13.2829 27.6 13.2829 27.6 13.3829C27.6 13.4829 27.6 13.4828 27.6 13.5828C27.6 13.6828 27.6 13.8828 27.6 13.9828C27.6 13.8828 27.6 13.8829 27.6 13.8829V13.9828C27.6 14.0828 27.6 14.0829 27.5 14.1829C27.5 14.1829 27.5 14.1829 27.5 14.2829C27.5 14.3829 27.4 14.3828 27.4 14.4828C27.4 14.4828 27.4 14.5828 27.3 14.5828L27.2 14.6829L27.1 14.7829L27 14.8829C26.9 14.9829 26.8 14.9828 26.7 15.0828C26.6 15.0828 26.5 15.1829 26.5 15.1829C26.4 15.1829 26.2 15.2829 26.1 15.2829C25.7 15.3829 25.5 15.8829 25.6 16.1829C25.7 16.5829 26.1 16.7829 26.5 16.6829C27.8 16.4829 28.9 15.6828 29.4 14.4828C29.5 13.8828 29.5 13.1828 29.3 12.5828Z" fill="#3D4F3D"/>
<path d="M14.2 12.9828V12.8828C14.2 12.7828 14.1 12.6828 14.1 12.6828C14 12.4828 14 12.3828 13.9 12.1828C13.9 12.0828 13.8 11.9828 13.7 11.8828C13.6 11.7828 13.5 11.7828 13.4 11.7828C13.3 11.7828 13.2 11.8828 13.1 11.8828L13 11.9828C13 12.0828 12.9 12.1828 12.9 12.2828C12.9 12.4828 12.9 12.5828 12.9 12.7828C12.9 12.8828 12.9 12.9828 12.9 12.9828V13.0828C12.9 13.2828 13 13.3828 13 13.4828L13.1 13.5828L13.2 13.6828C13.3 13.6828 13.3 13.6828 13.4 13.7828C13.5 13.7828 13.6 13.7828 13.7 13.7828C13.8 13.7828 13.8 13.7828 13.9 13.7828C14 13.7828 14 13.7828 14.1 13.6828C14.2 13.6828 14.2 13.5828 14.2 13.5828C14.3 13.4828 14.3 13.4828 14.3 13.3828C14.2 13.2828 14.2 13.0828 14.2 12.9828Z" fill="#3D4F3D"/>
<path d="M21.6 13.0828C21.5 12.8828 21.5 12.6828 21.5 12.4828C21.5 12.5828 21.5 12.5828 21.5 12.6828C21.5 12.4828 21.5 12.3828 21.4 12.1828C21.4 12.0828 21.4 11.9828 21.4 11.9828C21.4 11.8828 21.4 11.8828 21.4 11.7828C21.4 11.5828 21.3 11.3828 21 11.2828C20.8 11.1828 20.6 11.2828 20.4 11.4828C20.3 11.7828 20.1 12.0828 20.1 12.3828C20.1 12.6828 20.1 12.8828 20.1 13.1828C20.1 13.2828 20.1 13.4828 20.2 13.5828C20.2 13.6828 20.3 13.6828 20.3 13.7828C20.5 13.9828 20.7 13.9828 20.9 13.9828C21.1 13.9828 21.3 13.8828 21.4 13.6828C21.6 13.5828 21.6 13.3828 21.6 13.0828Z" fill="#3D4F3D"/>
<path d="M19.3 14.6828C19.1 14.4828 18.9 14.3828 18.8 14.2828C18.7 14.2828 18.6 14.1828 18.6 14.1828L18.5 14.0828C18.5 14.0828 18.4 14.0828 18.4 13.9828L18.3 13.8828C18.3 13.8828 18.3 13.7828 18.2 13.7828C18.2 13.7828 18.2 13.7828 18.2 13.6828V13.5828C18.2 13.4828 18.1 13.3828 18 13.2828C17.9 13.1828 17.7 13.1828 17.6 13.2828C17.3 13.5828 17.4 13.9828 17.5 14.3828C17.6 14.7828 17.8 15.0828 18.1 15.2828C18.2 15.3828 18.3 15.4828 18.5 15.5828L18.6 15.6828H18.5C18.4 15.7828 18.2 15.9828 18.2 16.0828C18.1 16.3828 18.3 16.8828 18.7 16.9828C19 16.9828 19.3 16.9828 19.6 16.7828C19.8 16.5828 20 16.3828 20.1 16.0828C19.9 15.5828 19.7 15.0828 19.3 14.6828Z" fill="#3D4F3D"/>
<path d="M18.5 18.5828C18.4 18.5828 18.3 18.5828 18.1 18.5828C18 18.5828 18 18.5828 17.9 18.5828C17.7 18.5828 17.6 18.5828 17.4 18.5828C17.2 18.5828 17 18.4828 16.8 18.3828C16.5 18.2828 16 18.4828 15.9 18.8828C15.8 19.2828 16 19.5828 16.4 19.7828C16.8 19.8828 17.3 19.8828 17.7 19.7828C17.9 19.6828 18.1 19.6828 18.3 19.5828C18.4 19.4828 18.5 19.4828 18.6 19.3828C18.7 19.2828 18.7 19.1828 18.8 19.0828C18.9 18.8828 18.8 18.5828 18.5 18.5828Z" fill="#3D4F3D"/>
<path d="M33 29.4829C32.4 23.8829 26.9 21.7829 22.1 20.5829C21.8 20.4829 21.5 20.8829 21.8 21.0829C23.6 22.5829 26 23.2829 27.9 24.5829C28.9 25.2829 29.8 26.0829 30.4 27.1829C31.1 28.3829 31.2 29.7829 31.2 31.1829C31.3 33.9829 31.2 36.6829 31.3 39.4829C31.5 42.3829 31.7 45.1829 31.6 48.0829C31.6 48.8829 32.9 48.8829 32.8 48.0829C32.7 44.9829 32.9 41.8829 33 38.6829C33.3 35.6829 33.4 32.4829 33 29.4829Z" fill="#3D4F3D"/>
<path d="M19.2 22.8828L13.5 23.3828L16.7 28.7828L19.2 22.8828Z" fill="#3FA9F5"/>
<path d="M20.3 36.5829C20.2 35.9829 19.9 35.4829 19.6 34.9829C17.7 31.7829 16.6 28.6829 16.6 28.6829C16.6 28.6829 14.7 32.9829 13.6 36.6829C12.9 39.5829 21 39.6829 20.3 36.5829Z" fill="#3FA9F5"/>
<path d="M19 32.9828C18.1 30.6828 17 28.3828 15.7 26.2828C15.4 25.6828 15 25.1828 14.7 24.5828C14.6 24.4828 14.2 23.9828 14.3 23.8828C14.4 23.6828 15.3 23.6828 15.5 23.6828C16.8 23.5828 18.2 23.3828 19.5 23.1828C19.9 23.0828 19.8 22.5828 19.4 22.5828C17.9 22.5828 16.3 22.6828 14.8 22.7828C14.1 22.8828 13.3 22.8828 13.2 23.7828C13.2 24.7828 14.2 25.8828 14.7 26.6828C15.5 27.9828 16.2 29.3828 16.9 30.6828C18 32.9828 18.9 35.3828 19.6 37.8828C20 39.1828 20.5 37.0828 20.4 36.6828C20 35.3828 19.5 34.1828 19 32.9828Z" fill="#3D4F3D"/>
<path d="M19.2 22.8828C17.7 24.3828 16.8 26.6828 15.9 28.6828C15 30.6828 14.3 32.6828 13.7 34.7828C13.5 35.3828 13.5 35.9828 13.2 36.5828C12.9 37.2828 14.4 38.7828 14.2 37.9828C14 36.9828 14.6 36.0828 14.9 35.1828C15.5 33.1828 16.1 31.1828 16.9 29.1828C17.7 27.1828 19 25.2828 19.6 23.2828C19.8 22.8828 19.4 22.6828 19.2 22.8828Z" fill="#3D4F3D"/>
<path d="M10 20.6829C8.8 20.9829 7.6 21.7829 6.5 22.3829C5.4 23.0829 4.3 23.7829 3.2 24.5829C1.1 26.0829 0.5 27.8829 0.3 30.2829C0.1 33.1829 0 35.9829 0 38.8829C0 41.7829 1.78814e-07 44.8829 0.3 47.7829C0.4 48.6829 1.7 48.6829 1.7 47.7829C1.7 45.1829 1.5 42.4829 1.5 39.8829C1.6 37.2829 1.7 34.7829 2 32.2829C2.1 31.0829 2.1 29.7829 2.4 28.6829C2.7 27.3829 3.5 26.7829 4.5 25.9829C5.5 25.1829 6.5 24.4829 7.5 23.7829C8.4 23.0829 9.6 22.3829 10.3 21.3829C10.6 21.0829 10.4 20.5829 10 20.6829Z" fill="#3D4F3D"/>
<path d="M24.1 23.1829C24.1 24.6829 24 26.1829 23.6 27.6829C23.2 29.1829 22.7 30.5828 22 31.9828C21.4 33.3828 20.6 34.6829 19.8 35.8829C19.1 36.8829 18 38.7829 16.6 38.6829C15.2 38.5829 14.4 36.6829 13.8 35.6829C13 34.2829 12.3 32.8829 11.7 31.3829C11.1 29.8829 10.7 28.3829 10.2 26.8829C9.79999 25.4829 9.59999 23.8828 8.79999 22.5828C8.59999 22.3828 8.29999 22.3829 8.19999 22.6829C7.79999 23.9829 8.19999 25.4829 8.49999 26.6829C8.79999 28.0829 9.29999 29.3829 9.79999 30.7829C10.8 33.3829 12.1 35.9829 13.7 38.1829C14.3 39.0829 15.1 39.8828 16.2 40.0828C16.3 40.0828 16.4 40.0828 16.5 40.0828C16.4 40.3828 16.4 40.6828 16.4 40.9828C16.3 41.7828 16.2 42.5829 16.1 43.3829C16.1 44.1829 16.1 44.8829 16.1 45.6829C16.1 46.3829 16 47.4828 16.5 48.0828C16.8 48.3828 17.4 48.3828 17.6 48.0828C17.9 47.6828 17.9 47.3829 17.9 46.8829C17.9 46.4829 17.9 46.0829 17.9 45.6829C17.9 44.9829 17.9 44.1828 18 43.4828C18 42.7828 18 41.9829 18.1 41.2829C18.1 40.8829 18.1 40.4829 18.1 40.1829C18.1 40.0829 18.1 39.8829 18.1 39.7829C18.5 39.5829 18.8 39.2828 19.1 38.9828C20.9 37.1828 22.3 34.5829 23.3 32.2829C24.5 29.4829 25.2 26.3829 25.5 23.3829C25.9 22.1829 24.1 22.0829 24.1 23.1829Z" fill="#3D4F3D"/>
<path d="M32.5 47.9829C27.3 47.2829 22 47.4829 16.8 47.3829C11.6 47.2829 6.3 47.1829 1.1 47.1829C0.200003 47.1829 0.200003 48.4829 1.1 48.5829C6.3 48.7829 11.6 48.7829 16.8 48.8829C22 48.9829 27.3 49.2829 32.5 48.6829C33 48.5829 32.9 48.0829 32.5 47.9829Z" fill="#3D4F3D"/>
<path d="M27.1 40.2828C27 40.1828 26.8 40.1828 26.7 40.2828C26.2 40.5828 26.2 41.3828 26.1 41.8828C26 42.5828 25.9 43.1828 25.8 43.8828C25.7 45.1828 25.6 46.4828 25.7 47.7828C25.8 48.5828 26.9 48.5828 26.9 47.7828C26.9 46.4828 27 45.1828 27.1 43.8828C27.1 43.2828 27.2 42.5828 27.2 41.9828C27.2 41.4828 27.4 40.7828 27.1 40.2828Z" fill="#3D4F3D"/>
<path d="M6.9 40.2828C6.8 39.8828 6.3 39.9828 6.3 40.3828C6.2 42.9828 6.4 45.5828 6.4 48.0828C6.4 48.5828 7.2 48.5828 7.2 48.0828C7.3 45.4828 7.3 42.7828 6.9 40.2828Z" fill="#3D4F3D"/>
<path d="M24 22.2829C23.4 22.7829 22.7 23.1829 22.1 23.6829C21.5 24.1829 20.9 24.6829 20.3 25.1829C19.1 26.1829 17.9 27.2829 16.7 28.2829C16.3 28.5829 16.4 29.1829 16.7 29.5829C17.1 29.9829 17.6 29.8829 18 29.5829C19.2 28.4829 20.3 27.4829 21.4 26.3829C22 25.8829 22.5 25.2829 23.1 24.7829C23.7 24.1829 24.2 23.5829 24.7 22.9829C24.9 22.5829 24.5 21.9829 24 22.2829Z" fill="#3D4F3D"/>
<path d="M16.8 28.8829C15.4 27.6829 14.1 26.4829 12.7 25.3829C12 24.8829 11.3 24.2829 10.6 23.7829C10.3 23.5829 9.89999 23.2828 9.59999 23.0828C9.19999 22.8828 8.8 22.4828 8.3 22.4828C8 22.4828 7.7 22.7829 7.8 23.1829C7.9 23.5829 8.29999 23.8829 8.59999 24.1829C8.89999 24.4829 9.29999 24.7828 9.59999 25.0828C10.3 25.6828 10.9 26.1829 11.6 26.7829C12.9 27.9829 14.3 28.9829 15.5 30.2829C15.9 30.5829 16.5 30.6829 16.8 30.2829C17.2 29.8829 17.2 29.1829 16.8 28.8829Z" fill="#3D4F3D"/>
</svg>
