<svg width="44" height="48" viewBox="0 0 44 48" fill="none" xmlns="http://www.w3.org/2000/svg">
<path d="M41.8998 21.7C41.6998 17 41.3998 12.3 41.1998 7.59996C41.1998 6.89996 40.5998 6.29996 39.8998 6.29996C34.0998 6.69996 25.0998 4.29996 23.1998 2.39996C22.3998 1.69996 21.4998 0.299962 20.4998 1.19996C15.4998 5.99996 8.5998 5.99996 2.0998 5.99996C1.3998 5.99996 0.799805 6.59996 0.799805 7.29996C0.999805 12 1.1998 16.7 1.2998 21.4C1.4998 25.5 1.1998 30.1 2.5998 34.1C5.4998 42.1 13.9998 44.7 21.3998 46.5C21.9998 46.6 38.1998 41.9 41.0998 34.4C42.6998 30.4 42.0998 25.9 41.8998 21.7Z" fill="#39B54A"/>
<path d="M42.8 21.6C42.5 16.7 42.3 11.8 42 7.00005C42 6.30005 41.4 5.60005 40.7 5.70005C34.6 6.10005 25.3 3.60005 23.3 1.70005C22.5 0.900049 21.5 -0.499951 20.5 0.400049C15.3 5.40005 8.1 5.40005 1.3 5.40005C0.6 5.30005 0 5.90005 0 6.70005C0.2 11.6 0.4 16.5 0.6 21.4C0.8 25.7 0.5 30.5 1.9 34.6C4.8 42.9 13.7 45.6 21.4 47.5C22 47.6 38.9 42.7001 42 34.9001C43.6 30.7001 43 26 42.8 21.6ZM39.8 32.9001C37.6 40.6001 21.5 44.6001 21.4 44.7001C14.5 42.9001 6.1 40.4 4.1 32.6C3.1 28.5 3.3 24.1 3.2 19.9C3.1 16 2.9 12 2.8 8.00005C9.3 8.00005 16.1 7.50005 21.4 3.50005C26.8 6.80005 33.1 8.50005 39.4 8.30005C39.6 12.3 39.8 16.3 40 20.3C40.2 24.4 40.9 28.9001 39.8 32.9001Z" fill="#3D4F3D"/>
<path d="M29.7002 23.8H12.2002V35.5H29.7002V23.8Z" fill="#CCCCCC"/>
<path d="M30.8999 24.8C31.4999 24 31.0999 22.6 29.8999 22.6C26.9999 22.7 24.0999 22.6 21.1999 22.5C19.9999 22.5 18.7999 22.5 17.5999 22.5C17.5999 22.3 17.5999 22.2 17.4999 22C16.9999 20.4 16.9999 18.6 17.6999 17.2C18.2999 15.9 19.3999 14.8 20.6999 14.4C21.9999 14 23.4999 14.2 24.4999 15.1C25.4999 16 25.8999 17.4 25.4999 18.6C24.9999 20.2 27.5999 21 28.0999 19.3C29.0999 15.9 26.7999 12.3 23.2999 11.7C19.6999 11 16.3999 13.2 14.9999 16.5C14.1999 18.4 14.1999 20.6 14.7999 22.5C13.9999 22.5 13.1999 22.5 12.3999 22.5C11.3999 22.5 10.9999 23.4 11.0999 24.1C11.0999 24.2 11.1999 31.9 11.1999 35.7C11.1999 37.6 23.7999 36.9 28.9999 37C29.3999 37 30.9999 36 30.9999 35.4C30.7999 32 30.6999 28.4 30.8999 24.8ZM28.2999 25.3C28.1999 28.4 28.1999 31.4 28.3999 34.5C23.5999 34.4 18.7999 34.4 13.9999 34.2C13.9999 31.2 13.8999 28.3 13.8999 25.3C16.2999 25.3 18.7999 25.3 21.1999 25.3C23.5999 25.3 25.8999 25.2 28.2999 25.3Z" fill="#3D4F3D"/>
<path d="M23.2998 28.7C23.2998 28.6 23.2998 28.5 23.2998 28.5C23.2998 28.3 23.1998 28.2 23.0998 28C22.9998 27.9 22.8998 27.7 22.7998 27.6C22.6998 27.5 22.5998 27.4 22.4998 27.4H22.3998C22.2998 27.3 22.1998 27.2999 22.0998 27.2999C21.9998 27.2999 21.7998 27.3 21.6998 27.2H21.5998C21.4998 27.2 21.2998 27.1999 21.1998 27.2999C21.0998 27.2999 20.9998 27.4 20.8998 27.4H20.7998C20.6998 27.5 20.5998 27.5 20.4998 27.6C20.4998 27.6 20.4998 27.6 20.3998 27.7C20.0998 27.8 19.9998 27.9 19.9998 28C19.8998 28.1 19.8998 28.1999 19.8998 28.2999V28.4C19.8998 28.5 19.8998 28.6999 19.7998 28.7999C19.7998 28.8999 19.7998 29.1 19.8998 29.2V29.2999C19.8998 29.3999 19.9998 29.5 19.9998 29.6C20.0998 29.7 20.0998 29.6999 20.1998 29.7999C20.1998 29.9999 20.1998 30.0999 20.1998 30.2999C20.1998 30.6999 20.1998 31.2 20.1998 31.6C20.1998 31.9 20.2998 32.3 20.5998 32.5C20.7998 32.7 21.1998 32.9 21.4998 32.9C22.1998 32.9 22.7998 32.3 22.7998 31.6C22.7998 31.2 22.7998 30.7999 22.7998 30.2999C22.7998 30.1999 22.7998 30 22.7998 29.9C22.8998 29.8 23.0998 29.7 23.1998 29.5C23.2998 29.4 23.2998 29.3 23.2998 29.2C23.2998 29.1 23.3998 28.8999 23.3998 28.7999V28.7C23.3998 28.8 23.3998 28.8 23.2998 28.7Z" fill="#3D4F3D"/>
</svg>
