<svg xmlns="http://www.w3.org/2000/svg" viewBox="0 0 48.43 45.39"><defs><style>.cls-1{fill:#e6e6e6;}.cls-2{fill:#fff;}.cls-3{fill:#484949;}.cls-4{fill:#ff931e;}.cls-5{fill:#ff1d25;}</style></defs><title>Asset 2</title><g id="Layer_2" data-name="Layer 2"><g id="Layer_1-2" data-name="Layer 1"><polygon class="cls-1" points="24.22 43.8 32.69 37.31 47.02 38.57 45.76 17.29 29.23 18.19 28.32 20.43 23.16 20.01 23.16 27.61 19.11 24.47 18.83 37.24 23.58 36.89 24.22 43.8"/><polygon class="cls-2" points="28.81 1.66 1.46 2.5 2.58 21.05 15.54 20.36 23.16 27.61 24.22 19.45 29.16 19.52 28.81 1.66"/><path class="cls-3" d="M47.93,17.84c-1.42-2.87-5.27-2-7.81-1.81l-5.42.4a23,23,0,0,0-4.43.4q.12-7.68.23-15.37A1.21,1.21,0,0,0,29,.27C27-.22,24.62.1,22.66.13L15.48.26C10.79.34,6,.15,1.35.63-.49.82.05,4.24.16,6.14.26,7.76.23,9.38.3,11s.13,3.25.19,4.87L.6,18.41c0,.83.16,1.7.26,2.53a1.62,1.62,0,0,0,1.72,1.48c2.24-.12,4.48-.24,6.71-.41,1.09-.09,2.19-.15,3.29-.26l1.64-.2.77-.12.28.28,1,1c.51.51,1,1,1.57,1.53a1.35,1.35,0,0,0-.12.47c-.18,2.51-.3,5-.44,7.54-.11,1.82-.61,4.42,1.25,5.57a3.52,3.52,0,0,0,2.27.42c.48-.05,1.53-.4,1.95-.1s.18,1.06.18,1.4c0,.65,0,1.29,0,1.93a10,10,0,0,0,.51,3.57.5.5,0,0,0,.51.28.85.85,0,0,0,.6,0,4.22,4.22,0,0,0,1.09-.89c.33-.31.64-.62,1-.94.64-.64,1.31-1.23,2-1.82a24.74,24.74,0,0,1,4.27-3l0,0a15.68,15.68,0,0,0,2.5.36c1.26.12,2.53.2,3.8.29l7.6.55a1.32,1.32,0,0,0,1.31-1.31c.05-3.65.1-7.31.16-11l.09-5.48A9.17,9.17,0,0,0,47.93,17.84ZM16.61,19.38a1.58,1.58,0,0,0-1.13-.5c-.26,0-2.15.22-2.78.23-1.13,0-2.27.08-3.41.13-1.86.08-3.71.2-5.57.32,0-.39,0-.78,0-1.15l-.06-2.53c0-1.68-.09-3.37-.13-5.05s-.1-3.37-.2-5a21.92,21.92,0,0,0-.16-2.35c4.11.12,8.25-.11,12.35-.19l6.93-.12c1.16,0,2.32,0,3.47-.09.68,0,1.38,0,2.07-.1l-.21,15.64c-1.47,0-2.94,0-4.41.12a1.11,1.11,0,0,0-1.1,1.1c.17,2.05.23,4.11.4,6.16l-.55-.65c-.63-.76-1.28-1.49-1.95-2.21s-1.3-1.4-2-2.09l-1-1.06Zm29.07,4.79,0,4.64-.09,8.29-6.09-.44c-1.2-.09-2.39-.19-3.59-.25a21.6,21.6,0,0,0-4.19.15A27.58,27.58,0,0,0,27,39.92a20.05,20.05,0,0,0-1.92,2l-.15.2a1.5,1.5,0,0,0,0-.22,21.43,21.43,0,0,0,.18-3.49c-.14-2-1.73-2.78-3.56-2.61-.5,0-1.44.33-1.77-.15s0-2.28.08-3c.17-2,.35-4,.52-6.06l.12.12a11.37,11.37,0,0,0,1.21,1c.39.26,2.39,1.11,2.46.35.2-2.36.17-4.74.22-7.11,1.52.09,3.05.08,4.57.1a1.27,1.27,0,0,0,1.25-1.25v-.06a17.34,17.34,0,0,0,4.26-.3L39.08,19c1.51-.16,3-.37,4.55-.45,1.12-.07,1.92.05,2.06,1.3A38.73,38.73,0,0,1,45.68,24.17Z"/><path class="cls-4" d="M33.62,34s6.42-4.32,5-7.58-5-.5-5-.5-2.6-2.83-4.46,0S33.62,34,33.62,34Z"/><path class="cls-3" d="M39.94,26.67A3.47,3.47,0,0,0,37,24.12a4.39,4.39,0,0,0-2.94.65,3.39,3.39,0,0,0-2.54-1.26A3.79,3.79,0,0,0,28,26.3a5.16,5.16,0,0,0,1.14,4.75,11.5,11.5,0,0,0,4.46,3c.66.3,1.18,0,1.73-.58s2.18-1.7,3-2.64A4.88,4.88,0,0,0,39.94,26.67Zm-1.88.91a5.64,5.64,0,0,1-1.61,2.64c-.38.43-.79.83-1.17,1.26-.15.16-.56.46-.69.62a3.07,3.07,0,0,0-.31-.17c-1.79-.74-4.21-2.11-4.15-4.44A1.77,1.77,0,0,1,31.3,25.8a1.23,1.23,0,0,1,.81.15,1.06,1.06,0,0,1,.39.33c-.08-.1.09.18.09.18s0,.18,0,0a1.11,1.11,0,0,0,.67,1,1.08,1.08,0,0,0,1.19-.23,2.82,2.82,0,0,1,2.31-1.17A1.37,1.37,0,0,1,38.06,27.58Z"/><path class="cls-5" d="M16,15.12s5.19-5,3.35-7.14-4.86.52-4.86.52S11,5.64,9.48,9,16,15.12,16,15.12Z"/><path class="cls-3" d="M20.32,8a3.5,3.5,0,0,0-3.91-2.22,3.17,3.17,0,0,0-2,1.23,4.3,4.3,0,0,0-2.48-1,3.49,3.49,0,0,0-3.5,2.6,4.83,4.83,0,0,0,1.34,4.71C11.15,14.5,13.5,15,15,16a.76.76,0,0,0,1.07.07s.59-.62.61-.69a37.23,37.23,0,0,0,2.63-2.7A4.89,4.89,0,0,0,20.32,8ZM17,12.53c-.32.44-1.15,1.14-1.46,1.58-1.87-.75-2.72-.93-3.65-1.67-.49-.39-1.79-1.61-1.43-2.86a1.91,1.91,0,0,1,.47-.78,1.42,1.42,0,0,1,.81-.42,2,2,0,0,1,2,.88c.61,1,1.52.81,1.57-.31,0-.66.84-1.19,1.93-1a1.48,1.48,0,0,1,.77.4,1.77,1.77,0,0,1,.35,1.24A5.73,5.73,0,0,1,17,12.53Z"/></g></g></svg>