<svg width="43" height="48" viewBox="0 0 43 48" fill="none" xmlns="http://www.w3.org/2000/svg">
<path d="M38.0944 3.65206C36.0944 1.55206 33.2944 0.552038 30.3944 0.852038C27.0944 1.25204 24.1945 2.95203 21.4945 4.75203C18.1945 2.75203 14.8945 0.652038 10.8945 0.852038C5.09445 1.05204 1.79445 6.25204 0.99445 11.452C0.0944498 17.452 1.59445 23.652 3.69445 29.252C4.79445 32.152 5.99445 34.9521 7.29445 37.6521C8.39445 40.0521 9.59445 42.552 11.3945 44.452C12.8945 46.052 15.3945 47.652 17.4945 46.252C19.5945 44.952 19.0945 41.952 19.4945 39.852C19.6945 38.552 20.0945 36.952 20.8945 35.852C22.0945 34.152 22.6945 36.0521 22.7945 37.1521C23.0945 39.8521 23.6945 42.2521 25.1945 44.6521C26.5945 46.7521 28.6945 47.752 30.7945 46.752C33.1945 45.552 34.5944 41.9521 35.4944 39.6521C37.7944 33.7521 39.9944 27.752 40.9944 21.452C41.8944 15.652 42.4944 8.25206 38.0944 3.65206Z" fill="#E6E6E6"/>
<path d="M38.5944 2.95207C36.4944 0.752072 33.6944 -0.247922 30.5944 0.052078C27.1944 0.452078 24.2944 2.25208 21.4944 4.15208C18.0944 2.05208 14.6944 -0.047922 10.4944 0.052078C4.59445 0.252078 1.09445 5.65207 0.294448 10.9521C-0.705552 17.1521 0.994448 23.5521 3.09445 29.3521C4.19445 32.3521 5.49445 35.1521 6.79445 38.0521C7.99445 40.5521 9.09445 43.0521 10.9944 45.0521C12.4944 46.6521 15.0944 48.3521 17.2944 46.9521C19.4944 45.5521 18.9944 42.5521 19.3944 40.3521C19.5944 38.9521 19.9944 37.3521 20.7944 36.2521C21.9944 34.5521 22.5944 36.4521 22.7944 37.6521C23.0944 40.3521 23.6944 42.9521 25.2944 45.3521C26.6944 47.5521 28.8944 48.5521 30.9944 47.4521C33.4944 46.2521 34.8944 42.4521 35.7944 40.0521C38.1944 33.9521 40.4944 27.7521 41.4944 21.3521C42.4944 15.4521 43.1944 7.75207 38.5944 2.95207ZM39.9944 19.7521C39.0944 25.3521 37.2944 30.7521 35.3944 36.0521C34.8944 37.3521 34.3944 38.6521 33.8944 39.9521C33.3944 41.2521 32.3944 43.4521 31.5944 44.6521C29.7944 47.0521 27.2944 45.3521 25.8944 42.9521C24.6944 40.6521 25.2944 38.1521 24.5944 35.7521C24.0944 33.9521 22.2944 32.7521 20.5944 33.7521C18.5944 34.8521 18.0944 37.8521 17.7944 39.8521C17.4944 41.5521 18.0944 46.2521 15.1944 45.6521C12.6944 45.2521 10.9944 42.2521 9.89445 40.2521C8.59445 37.8521 7.69445 35.2521 6.59445 32.6521C4.49445 27.4521 2.49445 21.9521 2.29445 16.3521C2.09445 11.0521 3.39445 3.05208 9.99445 2.15208C13.0944 1.75208 15.9944 3.15208 18.5944 4.55208C21.1944 5.95208 23.6944 7.35207 26.5944 7.95207C27.2944 8.05207 27.5944 7.15207 26.8944 6.85207C25.5944 6.35207 24.3944 5.65207 23.1944 4.95207C27.4944 2.35207 33.0944 -0.347928 37.2944 3.95207C41.2944 8.15207 40.7944 14.6521 39.9944 19.7521Z" fill="#3D4F3D"/>
<path d="M12.9944 9.55206C11.6944 9.25206 10.5944 7.95206 10.7944 6.55206C10.7944 6.15206 10.3944 5.85205 10.0944 5.85205C9.69445 5.85205 9.29445 6.15206 9.39445 6.55206C9.39445 6.55206 9.29445 6.55207 9.29445 6.65207C9.09445 6.95207 8.99445 7.25206 8.89445 7.55206C8.79445 7.85206 8.59445 8.15206 8.29445 8.45206C7.89445 8.95206 7.29445 9.35207 6.69445 9.65207C6.19445 9.85207 6.09445 10.6521 6.69445 10.8521C8.09445 11.0521 8.99445 12.2521 8.89445 13.6521C8.79445 14.3521 9.99445 14.5521 10.1944 13.8521C10.4944 12.4521 11.6944 11.2521 13.0944 10.9521C13.6944 10.6521 13.6944 9.65206 12.9944 9.55206Z" fill="#FF931E"/>
<path d="M13.5944 9.45203C12.0944 9.05203 10.7945 7.45202 10.8945 5.85202C10.9945 5.35202 10.4945 4.95203 9.99445 4.95203C9.59445 4.95203 9.09445 5.35202 9.09445 5.85202C9.09445 5.85202 8.99445 5.85203 8.99445 5.95203C8.79445 6.25203 8.69445 6.65203 8.49445 7.05203C8.29445 7.45203 8.09445 7.85204 7.79445 8.15204C7.29445 8.75204 6.59445 9.25203 5.89445 9.55203C5.29445 9.75203 5.19445 10.752 5.89445 10.952C7.49445 11.252 8.69445 12.652 8.49445 14.252C8.39445 15.152 9.79445 15.352 9.99445 14.452C10.3945 12.752 11.6945 11.352 13.3945 10.952C14.3945 10.752 14.3944 9.65203 13.5944 9.45203ZM9.79445 11.752C9.69445 11.452 9.49445 11.152 9.29445 10.852C8.89445 10.452 8.49445 10.152 7.99445 9.85202C8.39445 9.55202 8.69445 9.15201 8.89445 8.75201C9.09445 8.35201 9.39445 7.85202 9.59445 7.35202C9.79445 7.95202 10.0945 8.55203 10.4945 9.05203C10.7945 9.45203 11.1944 9.85203 11.5944 10.052C10.8944 10.552 10.2944 11.152 9.79445 11.752Z" fill="#3D4F3D"/>
<path d="M16.4944 18.6521C15.2944 18.5521 14.2944 17.552 14.0944 16.352C14.0944 16.152 13.7944 15.9521 13.4944 16.0521C13.1944 16.1521 13.0944 16.3521 13.1944 16.6521C13.1944 16.8521 13.2944 17.052 13.3944 17.252C13.0944 17.852 12.5944 18.3521 11.9944 18.5521C11.6944 18.6521 11.6944 19.252 11.9944 19.352C12.7944 19.752 13.2944 20.452 13.2944 21.352C13.2944 21.652 13.4944 21.852 13.7944 21.852C14.0944 21.852 14.2944 21.652 14.2944 21.352C14.3944 20.452 15.3944 19.652 16.2944 19.752C16.5944 19.852 16.8944 19.652 16.9944 19.252C17.0944 18.852 16.8944 18.6521 16.4944 18.6521Z" fill="#FF931E"/>
<path d="M16.7944 18.5521C15.4944 18.4521 14.3944 17.2521 14.0944 15.9521C13.9944 15.6521 13.6944 15.5521 13.4944 15.5521C13.1944 15.6521 13.0944 15.8521 13.0944 16.1521C13.0944 16.3521 13.1944 16.6521 13.2944 16.8521C12.8944 17.4521 12.3944 18.0521 11.6944 18.3521C11.3944 18.5521 11.3944 19.052 11.6944 19.252C12.4944 19.652 13.0944 20.5521 13.0944 21.4521C13.0944 21.7521 13.3944 22.0521 13.6944 22.0521C14.0944 22.0521 14.2944 21.7521 14.2944 21.4521C14.3944 20.4521 15.5944 19.5521 16.5944 19.6521C16.9944 19.7521 17.2944 19.5521 17.3944 19.1521C17.3944 18.8521 17.0944 18.6521 16.7944 18.5521ZM14.3944 19.3521C14.1944 19.5521 13.9944 19.6521 13.8944 19.8521C13.8944 19.7521 13.7944 19.7521 13.7944 19.6521C13.5944 19.3521 13.2944 19.0521 12.9944 18.8521C13.1944 18.6521 13.4944 18.3521 13.5944 18.0521C13.6944 17.9521 13.6944 17.8521 13.6944 17.8521C13.9944 18.3521 14.3944 18.7521 14.8944 19.1521C14.6944 19.1521 14.4944 19.2521 14.3944 19.3521Z" fill="#3D4F3D"/>
</svg>
