<svg width="50" height="46" viewBox="0 0 50 46" fill="none" xmlns="http://www.w3.org/2000/svg">
<path d="M40.6265 28.9042C42.8356 28.9042 44.6265 27.1133 44.6265 24.9042C44.6265 22.695 42.8356 20.9042 40.6265 20.9042C38.4173 20.9042 36.6265 22.695 36.6265 24.9042C36.6265 27.1133 38.4173 28.9042 40.6265 28.9042Z" fill="#0B6C9D"/>
<path d="M27.8263 38.6042C27.8263 38.6042 29.1263 31.0042 32.2263 31.3042C35.3263 31.6042 39.8263 33.9042 40.2263 31.8042C40.6263 29.7042 41.2263 27.9042 41.2263 27.9042C41.2263 27.9042 35.1263 29.4042 33.2263 25.6042C31.3263 21.8042 37.3263 22.6042 37.3263 22.6042C37.3263 22.6042 41.8263 23.3042 44.8263 21.0042C47.8263 18.7042 48.8263 15.0042 47.0263 12.6042C45.2263 10.2042 38.5263 13.1042 36.6263 11.7042C34.6263 10.3042 26.3263 4.30423 22.4263 5.10423C18.5263 5.90423 14.3263 7.70423 12.9263 11.8042C11.5263 15.9042 5.92627 28.5042 5.92627 28.5042C5.92627 28.5042 8.22627 35.9042 16.5263 38.2042C24.6263 40.4042 27.8263 38.6042 27.8263 38.6042Z" fill="white"/>
<path d="M48.1266 17.3043C48.1266 17.3043 48.9266 14.6043 46.9266 12.5043C44.9266 10.4043 43.1266 11.3043 43.1266 11.3043C43.1266 11.3043 39.9266 13.7043 41.7266 15.2043C43.5266 16.7043 48.1266 17.3043 48.1266 17.3043Z" fill="#FACE8D"/>
<path d="M23.4265 10.7042C23.3265 10.4042 23.2265 10.2042 22.9265 10.1042C20.7265 9.2042 18.9265 10.8042 17.1265 11.9042C14.6265 13.5042 12.2265 11.9042 10.0265 10.6042C8.32645 9.5042 6.42645 8.6042 4.32645 8.9042C2.52645 9.2042 1.02645 10.5042 0.826452 12.4042C0.426452 16.4042 4.22645 20.4042 7.62645 21.9042C11.3265 23.6042 15.6265 23.3042 19.1265 21.0042C20.9265 19.8042 22.5265 18.1042 23.4265 16.1042C24.1265 14.4042 24.6265 12.1042 23.4265 10.7042Z" fill="#FF931E"/>
<path d="M15.2265 9.10419L21.1265 4.1042L15.6265 2.8042L11.2265 0.804199L8.62646 3.5042L10.8265 7.7042L15.2265 9.10419Z" fill="#E6E6E6"/>
<path d="M23.2266 3.5042L29.9266 2.8042L32.2266 4.0042L31.9266 5.5042L29.0266 6.5042L23.2266 4.3042V3.5042Z" fill="#E6E6E6"/>
<path d="M29.6263 32.9042C29.6263 32.9042 27.5263 29.3042 22.5263 29.7042C17.5263 30.1042 14.9263 37.6042 14.9263 37.6042L21.1263 39.3042L27.3263 39.0042L29.6263 32.9042Z" fill="#FF931E"/>
<path d="M2.42627 33.7042L4.92627 28.3042C4.92627 28.3042 8.22627 34.8042 14.9263 37.5042C21.6263 40.2042 27.3263 38.9042 27.3263 38.9042L27.8263 44.4042C27.8263 44.4042 16.9263 46.4042 11.7263 42.6042C6.52627 38.8042 2.42627 33.7042 2.42627 33.7042Z" fill="#FF1D25"/>
<path d="M30.7266 12.7043C30.4266 12.0043 29.6266 11.6042 28.8266 11.6042C28.4266 11.6042 28.0266 11.7043 27.7266 11.9043C27.5266 12.0043 27.4266 12.2043 27.3266 12.3043C27.3266 12.3043 27.2266 12.3043 27.2266 12.4043C26.9266 12.7043 26.7266 13.2042 26.7266 13.6042C26.7266 14.0042 26.8266 14.4043 27.0266 14.7043C27.2266 15.0043 27.5266 15.3042 27.9266 15.5042C28.3266 15.7042 28.8266 15.8043 29.3266 15.7043C29.7266 15.6043 30.0266 15.4042 30.3266 15.1042C30.6266 14.8042 30.8266 14.4042 30.9266 14.1042C30.9266 13.5042 30.9266 13.1043 30.7266 12.7043Z" fill="#3D4F3D"/>
<path d="M48.0265 18.3042C50.4265 15.6042 48.2265 10.7042 44.4265 10.4042C41.8265 10.0042 39.2265 11.2042 36.6265 10.5042C34.2265 9.90423 32.3265 8.30423 30.4265 6.90423C34.3265 6.00423 33.9265 2.00423 29.9265 1.90423C25.4265 1.70423 20.9265 3.70423 16.5265 2.20423C14.7265 1.60423 13.3265 -0.095769 11.3265 0.00423101C9.82651 0.104231 8.52651 1.40423 8.12651 2.90423C7.22651 6.50423 10.6265 8.70423 13.6265 9.60423C13.3265 10.3042 12.9265 11.0042 12.7265 11.8042C9.82651 10.5042 7.12651 7.80423 3.72651 8.40423C1.82651 8.70423 0.226513 10.1042 0.0265132 12.1042C-0.373487 16.5042 3.82651 20.8042 7.62651 22.4042C6.42651 24.6042 2.02651 31.6042 1.42651 33.7042C5.72651 42.4042 16.2265 47.2042 26.5265 45.4042C27.7265 45.3042 28.9265 45.0042 28.8265 43.3042C28.6265 40.2042 28.3265 36.8042 30.0265 34.0042C30.9265 32.7042 32.4265 31.8042 34.0265 32.2042C35.6265 32.7042 37.1265 33.8042 38.9265 33.1042C40.4265 32.6042 41.5265 31.1042 41.6265 29.5042C45.0265 29.0042 46.7265 24.6042 44.7265 21.9042C46.1265 20.9042 46.7265 19.6042 48.0265 18.3042ZM47.1265 16.0042C46.1265 14.9042 44.5265 15.0042 43.1265 15.0042C42.0265 15.0042 41.9265 14.3042 41.9265 14.3042C41.9265 12.7042 43.7265 12.4042 44.5265 12.4042C46.5265 12.3042 47.4265 14.3042 47.1265 16.0042ZM29.4265 3.70423C29.9265 3.70423 30.7265 3.60423 31.1265 4.00423C31.9265 4.80423 29.8265 5.00423 29.5265 5.30423C28.4265 6.20423 26.3265 4.30423 24.7265 4.10423C26.3265 3.90423 27.8265 3.70423 29.4265 3.70423ZM9.92651 3.10423C10.5265 1.40423 12.1265 1.70423 13.3265 2.50423C15.2265 3.80423 17.4265 4.50423 19.7265 4.50423C17.7265 5.20423 15.9265 6.40423 14.6265 8.10423C12.3265 7.50423 8.82651 5.90423 9.92651 3.10423ZM3.82651 17.4042C1.22651 14.4042 0.426513 9.30423 6.02651 10.3042C7.92651 10.8042 9.52651 12.2042 11.2265 13.1042C13.0265 14.0042 15.1265 14.6042 17.1265 13.8042C18.8265 13.1042 20.4265 11.1042 22.3265 11.3042C24.1265 12.3042 22.7265 15.2042 21.8265 16.6042C17.8265 22.9042 8.42651 23.4042 3.82651 17.4042ZM3.32651 33.2042C3.82651 32.1042 4.42651 31.1042 4.92651 30.0042C9.42651 37.1042 18.0265 41.2042 27.0265 40.3042C27.1265 41.4042 27.1265 42.5042 27.2265 43.6042L27.1265 43.7042C27.1265 43.7042 26.1265 43.9042 26.0265 43.9042C16.6265 45.6042 7.42651 40.9042 3.32651 33.2042ZM43.5265 23.2042C44.6265 25.1042 43.3265 27.6042 41.1265 27.9042C41.2265 27.9042 40.6265 28.0042 39.3265 27.9042C38.5265 27.8042 37.9265 27.2042 37.3265 26.5042C36.8265 25.8042 36.5265 24.8042 36.9265 24.0042C38.9265 24.1042 41.3265 24.0042 43.2265 22.9042C43.4265 23.0042 43.4265 23.1042 43.5265 23.2042ZM35.4265 26.5042C35.4265 26.6042 35.5265 26.7042 35.5265 26.7042C34.3265 25.9042 32.7265 23.4042 35.3265 23.5042C34.9265 24.5042 35.0265 25.6042 35.4265 26.5042ZM45.5265 19.0042C43.6265 21.7042 39.8265 22.9042 36.6265 22.1042C35.7265 21.9042 34.7265 21.7042 33.8265 22.1042C32.9265 22.4042 32.3265 23.2042 32.2265 24.2042C32.1265 27.9042 36.6265 30.1042 39.9265 29.8042C39.7265 31.3042 38.1265 32.1042 36.7265 31.5042C35.0265 30.9042 33.6265 30.1042 31.8265 30.7042C28.3265 31.8042 27.3265 35.4042 27.0265 38.7042C18.6265 39.6042 10.3265 35.8042 6.32651 28.8042C6.62651 27.6042 8.52651 24.6042 9.32651 23.2042C15.0265 24.8042 21.5265 21.7042 24.0265 16.3042C24.8265 14.6042 25.8265 10.7042 23.5265 9.90423C20.0265 8.60423 17.6265 13.0042 14.3265 12.5042C15.9265 7.50423 21.4265 4.50423 26.4265 6.70423C31.5265 9.20423 34.4265 14.1042 40.8265 12.5042C39.6265 13.9042 40.0265 16.2042 41.9265 16.7042C43.0265 17.1042 44.3265 16.7042 45.3265 17.0042C45.5265 17.1042 45.7265 17.2042 45.8265 17.3042L46.0265 17.5042C46.0265 17.5042 46.2265 17.7042 46.1265 17.6042C46.2265 17.7042 46.3265 17.9042 46.3265 18.0042C46.3265 18.0042 45.7265 18.6042 45.5265 19.0042Z" fill="#3D4F3D"/>
</svg>
