<svg width="50" height="50" viewBox="0 0 49 49" fill="none" xmlns="http://www.w3.org/2000/svg">
<path d="M48.5 28.9L2.8 28.8L1.5 0.600009C1.5 0.600009 18.2 0.100012 22 3.90001C23.8 5.70001 25.1 7.60001 25.1 7.60001C25.1 7.60001 25.5 3.60001 30.2 2.20001C34.9 0.800012 48.5 1.60001 48.5 1.60001V28.9Z" fill="white"/>
<path d="M48.9 28.4C48.9 24.3 48.9 20.1 48.8 16C48.7 11.2 48.9 6.50002 48.5 1.70002C48.5 1.10002 48.1 0.900024 47.5 0.900024C45.4 1.00002 43.3 0.800022 41.5 0.800022C39.3 0.800022 37.1 0.800022 34.9 0.800022C31.7 0.800022 28.2 1.10002 26.1 3.90002C25.7 4.50002 25.4 5.10002 25.1 5.70002C24.9 5.30002 24.7 5.00002 24.5 4.70002C23 2.70002 20.9 1.60002 18.6 1.00002C16 0.300023 13.3 0.200021 10.7 0.100021C9.2 2.12453e-05 7.7 0.200024 6.1 0.200024C4.6 0.200024 3 0.300021 1.5 0.600021C0.8 0.700021 0.9 13.4 1.1 15.6C1.3 20.1 1.5 24.6 1.6 29.1C1.6 30.3 10.6 30 14.1 30.1C17.8 30.2 21.6 30 25.3 29.9C29 29.8 32.8 29.7 36.5 29.7C40 29.7 43.7 29.8 47.2 29.6C48.9 29.7 48.9 29 48.9 28.4ZM14.1 27.7C10.6 27.8 7.1 27.7 3.7 28.1C3.4 23.9 3.1 19.8 3 15.6C2.9 13.4 2.9 11.2 2.9 9.00002C2.9 6.90002 2.9 5.30002 2.9 2.60002C5.2 2.50002 6.9 2.30002 9.2 2.40002C11.6 2.50002 14 2.50002 16.4 2.90002C20.1 3.50002 23.5 5.40002 24.4 9.00002C24.2 10.8 24.2 12.6 24.2 14.3C24.2 18.8 24.4 23.4 24.9 27.9C21.3 27.7 17.7 27.6 14.1 27.7ZM36.6 28C33.2 28 29.8 27.9 26.4 27.9C26 23.9 25.8 20 25.8 16C25.8 14.1 25.8 12.1 26 10.2C26.1 8.60002 26.4 6.90002 27.2 5.50002C29.1 2.60002 33.2 2.70002 36.3 2.70002C38.2 2.70002 39.9 2.60002 41.8 2.60002C43.4 2.60002 45.1 2.60002 47.2 2.50002C47 7.00002 47.2 11.6 47.2 16.1C47.2 20.1 47.2 24.1 47.3 28.1C43.8 27.8 40.1 28 36.6 28Z" fill="#3D4F3D"/>
<path d="M12 29.1V38.9C12 38.9 16.7 43.3 24.8 43.3C32.9 43.3 37.6 38 37.6 38L37.3 29L12 29.1Z" fill="#999999"/>
<path d="M5.8 26.6L25.2 35.6L44.2 26.4L24.7 17L5.8 26.6Z" fill="#E6E6E6"/>
<path d="M44.8 25.4C41.1 23.8 37.5 22.1 33.8 20.3C31.9 19.4 30 18.4 28 17.5C27.6 17.3 25.2 16.1 24.5 16.6C23.8 16.6 23.1 16.9 22.4 17.2C21.6 17.5 20.9 17.8 20.1 18.2C18.5 19 16.9 19.8 15.4 20.7C12.2 22.4 9 24.1 5.7 25.8C5.5 25.9 4 26.7 4.5 27.1C6 28.2 7.8 28.9 9.5 29.7C11.2 30.5 12.9 31.3 14.6 32.2C16.3 33 17.9 34 19.6 34.8C21.3 35.6 23.1 36.1 24.8 36.8C25.3 37 32.7 33.1 36.2 31.4C37.9 30.6 39.6 29.8 41.3 29C42.2 28.5 44.4 27.4 44.5 27.4C45.7 27.1 45.1 25.4 44.8 25.4ZM40.4 27.1C38.7 27.9 37.1 28.8 35.4 29.7C32.1 31.4 28.8 33.1 25.5 34.8C23.9 34 22.3 33 20.6 32.2C18.9 31.4 17 30.9 15.3 30.1C13.6 29.4 11.8 28.6 10.1 27.8C9.2 27.4 8.3 27 7.3 26.6C10.3 25.2 13.3 23.7 16.3 22.3C17.9 21.6 19.5 20.9 21 20.1C21.8 19.7 24.3 18.3 24.8 17.8C26 18.6 27.4 19.2 28.2 19.5C30 20.3 31.9 21.1 33.7 21.9C36.6 23.2 39.5 24.5 42.3 25.9C41.6 26.5 41 26.8 40.4 27.1Z" fill="#3D4F3D"/>
<path d="M15 47.7C16.0493 47.7 16.9 46.8494 16.9 45.8C16.9 44.7507 16.0493 43.9 15 43.9C13.9507 43.9 13.1 44.7507 13.1 45.8C13.1 46.8494 13.9507 47.7 15 47.7Z" fill="#FF931E"/>
<path d="M38.1 37.6C38.1 36.3 38.1 35 38.1 33.7C38.1 32.9 38.1 32.1 38.1 31.3C38.1 30.9 38.1 30.6 38 30.2C38 29.8 38 29.4 37.9 29C37.8 28.7 37.4 28.7 37.3 29C37.2 29.4 37.2 29.8 37.1 30.2C37.1 30.6 37 30.9 37 31.3C36.9 32.1 36.9 32.9 36.9 33.7C36.9 35.2 36.8 36.7 36.8 38.2C33.5 40.7 29.7 42.3 25.6 42.4C23.5 42.5 21.3 42.1 19.3 41.5C18.2 41.1 17.1 40.6 16.1 40C15.2 39.5 13.9 38.8 13 38.1C12.8 37.9 12.9 37.7 12.8 37.5C12.7 36.8 12.7 36.2 12.7 35.5C12.7 34.8 12.6 34.1 12.6 33.4C12.5 32 12.3 30.6 12.1 29.1C12 28.7 11.5 28.8 11.5 29.2C11.5 30.7 11.5 32.1 11.5 33.6C11.5 34.3 11.6 35 11.6 35.7C11.6 36.4 11.7 37.2 11.7 37.9C11.7 38 11.8 38.6 12.1 38.9C13 39.8 14.1 40.4 15.1 41.1C16.2 41.7 17.3 42.2 18.4 42.7C20.7 43.5 23.2 43.9 25.7 43.8C29.9 43.6 34.7 41.6 37.2 39.1C37.9 38.5 38.2 37.7 38.1 37.6Z" fill="#3D4F3D"/>
<path d="M17.6 46.2C17.7 45.9 17.7 45.6 17.7 45.2C17.7 44.5 17.3 43.9001 16.9 43.4001C16.7 43.2001 16.4 42.9001 16.1 42.8001C15.9 42.7001 15.7 42.6 15.5 42.5C15.2 42.4 14.9 42.4 14.6 42.5C14.3 42.6 14.2 42.8 14.1 43.1C13.8 43.2 13.4 43.4 13.2 43.6C12.2 44.5 12 46 12.8 47.1C13.5 48.1 14.9 48.5001 16 47.9001C16.5 47.6001 16.9 47.2001 17.2 46.8001C17.2 46.8001 17.2 46.7 17.3 46.7C17.3 46.6 17.4 46.5001 17.4 46.4001C17.6 46.5001 17.6 46.3 17.6 46.2ZM16.3 46.6C16.2 46.8 16.1 46.8 15.9 47C15.7 47.1 15.7 47.2001 15.4 47.3001H15.3H15.2C15.1 47.3001 15.1 47.3001 15 47.3001H14.9C14.5 47.3001 14.2 47.2001 13.8 46.9001C13.5 46.7001 13.3 46.3001 13.3 45.9001C13.3 45.5001 13.4 45.1001 13.7 44.8001C13.8 44.8001 13.8 44.7 13.9 44.7C13.9 44.7 14.1 44.6 14 44.6C14.1 44.6 14.1 44.5 14.2 44.5C14.3 44.4 14.4 44.4001 14.6 44.3001C14.7 44.3001 14.8 44.3001 14.8 44.3001H14.9C14.8 44.3001 15 44.3001 15 44.3001C15.1 44.3001 15.1 44.3001 15.1 44.3001H15.2C15.3 44.3001 15.3 44.3001 15.4 44.4001C15.5 44.5001 15.6 44.5 15.6 44.6L15.7 44.7C15.8 44.8 15.8 44.9001 15.9 44.9001C15.9 45.0001 16 45 16 45.1C16 45.1 16.1 45.4001 16.1 45.3001C16.1 45.4001 16.1 45.5 16.2 45.6V45.7V45.8001V45.9001C16.2 45.9001 16.2 46.1 16.2 46C16.4 46.3 16.4 46.4 16.3 46.6Z" fill="#3D4F3D"/>
<path d="M25.5 24.9C24.5 25 23.5 25.6 22.7 26.1C21.8 26.6 20.9 27 20 27.5C18.2 28.5 14.5 30.6 14.5 30.6C14.4 30.6 14.3 30.7 14.3 30.8C14.1 31.3 14.1 31.8 14.1 32.3C14.1 32.8 14 33.3 14 33.8C14 34.9 14 36.1 14.1 37.2C14.2 39.4 14.6 41.6 14.4 43.8C14.3 44.8 16 44.7 15.8 43.6C15.6 42.5 15.7 41.4 15.7 40.3C15.7 39.2 15.7 38.1 15.7 37.1C15.7 36 15.6 34.9 15.6 33.9C15.6 33.4 15.5 32.9 15.4 32.5C15.4 32.4 15.4 32.2 15.3 32.1C17.1 31.1 19 30.1 20.7 29.1C21.6 28.6 22.4 28.1 23.3 27.5C24.1 27 25.1 26.5 25.8 25.7C26 25.2 25.8 24.9 25.5 24.9Z" fill="#3D4F3D"/>
<path d="M45.4 6.30003C44.2 5.90003 42.8 5.90004 41.5 5.90004C40.1 5.80004 38.8 5.90004 37.4 5.90004C36 5.90004 34.6 5.90004 33.3 5.90004C31.9 5.90004 30.5 5.80003 29.2 6.00003C28.2 6.10003 28.1 7.50003 29.2 7.60003C30.6 7.70003 32 7.60003 33.3 7.60003C34.7 7.60003 36.1 7.60003 37.4 7.50003C38.8 7.50003 40.2 7.50004 41.5 7.40004C42.8 7.30004 44.2 7.30004 45.4 6.90004C45.6 6.80004 45.7 6.40003 45.4 6.30003Z" fill="#3D4F3D"/>
<path d="M45 10.6C39.7 10.1 34.2 10.3 28.9 10.5C27.9 10.5 27.9 12 28.9 12C34.2 12 39.7 12 45 11.3C45.4 11.2 45.4 10.6 45 10.6Z" fill="#3D4F3D"/>
<path d="M44.7 15.3C42 15.1 39.3 14.9 36.5 14.8C33.8 14.7 31 14.7 28.3 14.6C27.5 14.6 27.5 15.8 28.3 15.8C31 15.9 33.8 15.9 36.5 16C39.2 16 42 16 44.7 15.9C45.1 15.9 45.1 15.3 44.7 15.3Z" fill="#3D4F3D"/>
<path d="M44.6 19.3C42.8 19.2 41 19 39.2 19C37.4 19 35.6 18.9 33.8 18.9C33.2 18.9 33.2 19.9 33.8 19.9C35.6 19.9 37.4 20 39.2 20C41 20 42.8 20 44.6 19.9C45 19.9 45 19.3 44.6 19.3Z" fill="#3D4F3D"/>
<path d="M20.2 6.50004C18.9 6.50004 17.5 6.30004 16.2 6.20004C14.9 6.10004 13.6 6.10004 12.3 6.10004C9.7 6.10004 7.1 6.10004 4.4 6.10004C3.7 6.10004 3.7 7.10004 4.4 7.20004C7 7.30004 9.6 7.30004 12.3 7.40004C13.6 7.40004 14.9 7.40004 16.2 7.40004C17.5 7.30004 18.9 7.10004 20.2 7.20004C20.6 7.10004 20.6 6.50004 20.2 6.50004Z" fill="#3D4F3D"/>
<path d="M21.6 10.8C18.9 10.4 16 10.2 13.3 10.2C11.9 10.2 10.5 10.3 9.1 10.4C7.7 10.5 6.3 10.4 4.9 10.6C4.3 10.7 4.3 11.7 4.9 11.8C6.2 12 7.6 11.9 8.9 12C10.4 12.1 11.8 12.2 13.3 12.2C16.1 12.2 18.9 12 21.6 11.5C21.9 11.3 21.9 10.8 21.6 10.8Z" fill="#3D4F3D"/>
<path d="M21.6 14.6C18.8 14.5 15.9 14.4 13.1 14.6C10.3 14.8 7.4 15.1 4.6 15.3C4 15.4 4 16.3 4.6 16.3C7.5 16.3 10.4 16.3 13.3 16.2C16.1 16.1 18.9 15.7 21.7 15.3C22.1 15.2 22 14.6 21.6 14.6Z" fill="#3D4F3D"/>
<path d="M14.9 19.3C11.7 19.1 8.5 18.9 5.2 18.8C4.5 18.8 4.5 19.8 5.2 19.8C8.4 19.9 11.6 19.9 14.9 19.9C15.3 20 15.3 19.4 14.9 19.3Z" fill="#3D4F3D"/>
</svg>
