<svg width="49" height="43" viewBox="0 0 49 43" fill="none" xmlns="http://www.w3.org/2000/svg">
<path d="M28.2285 29.6C28.2285 29.6 38.8382 28.8 43.1211 22.1C47.4039 15.4 47.5985 12.9 47.5985 12.9L32.122 11.7C32.122 11.7 22.7777 -3.79995 10.6106 3.60005C-1.55648 11 11.3893 29.5 11.3893 29.5C11.3893 29.5 12.3627 34.2 6.42512 37.4C0.487588 40.6 3.01834 41.7 3.01834 41.7C3.01834 41.7 19.2736 39.6 22.875 35.1C26.4765 30.6 28.2285 29.6 28.2285 29.6Z" fill="#0B6C9D"/>
<path d="M10.9986 28.6L32.51 12.8L29.0059 7.5L7.5918 22.5L10.9986 28.6Z" fill="#FACE8D"/>
<path d="M47.4038 10.7C42.537 10.8 37.5728 11 32.706 11.6C32.6086 11.2 32.5113 10.8 32.3166 10.4C31.83 9.50001 31.3433 8.60001 30.7593 7.80001C29.6885 6.20001 28.3258 4.80001 26.8658 3.60001C23.8483 1.20001 20.0522 -0.199985 16.1587 0.100015C12.2653 0.400015 8.76116 2.30001 6.52242 5.50001C4.28367 8.70001 3.69965 13 4.18634 16.8C4.77036 21.7 7.0091 26.5 10.0265 30.3C7.78779 34.5 4.67302 38.2 0.58488 40.5C-0.388487 41.1 0.000859822 42.8 1.1689 42.7C8.37181 42.5 16.2561 41.5 22.1936 36.9C24.4324 35.2 26.2818 33.1 27.9365 30.9C28.0338 30.9 28.1312 30.9 28.3258 30.9C33.4847 30.8 38.4488 28.7 42.1476 25.1C43.8997 23.3 45.3598 21.2 46.4305 18.9C46.9171 17.8 47.3065 16.6 47.5985 15.4C47.7932 14.6 48.5719 10.7 47.4038 10.7ZM31.4406 12.5C31.4406 12.6 28.6178 15 27.2551 16C25.4057 17.3 23.459 18.6 21.6096 19.9C18.2028 22.3 14.6987 24.5 11.0972 26.7C10.4159 25.6 9.83186 24.5 9.24784 23.4C10.8052 22.3 12.3626 21.1 13.92 20C15.7694 18.7 17.5215 17.4 19.3709 16.1C21.2203 14.8 22.9723 13.4 24.8217 12.1C26.1844 11.1 27.6445 10.1 28.9099 9.00002C29.3965 9.60002 29.8832 10.3 30.2726 11C30.6619 11.6 31.0513 12 31.4406 12.5ZM8.27448 8.90001C9.73453 5.90001 12.0706 3.90001 15.2827 3.20001C18.4948 2.50001 21.8043 3.20001 24.627 5.00001C25.6977 5.70001 26.6711 6.50001 27.5471 7.40001C26.1844 8.20001 24.919 9.20002 23.6537 10.1C21.7069 11.4 19.8575 12.7 18.0081 14.1C16.1587 15.4 14.212 16.8 12.3626 18.1C10.9999 19.1 9.53985 20 8.27448 21C7.98247 20.2 7.69046 19.4 7.49578 18.6C6.71709 15.4 6.81443 11.9 8.27448 8.90001ZM22.6803 32.7C20.0522 35.4 16.7428 37.1 13.1413 38.2C10.6106 39 7.88513 39.4 5.25704 39.7C8.46915 36.9 11.1946 33.5 13.044 29.5C13.2386 29.1 19.6629 24.1 22.875 21.8C24.627 20.5 26.2818 19.1 28.0338 17.7C29.5912 16.4 31.3433 15.2 32.706 13.7C35.5287 13.7 38.4488 13.6 41.3689 13.4C40.0062 14.1 38.6435 15 37.3781 16C34.458 18.2 31.83 20.8 29.5912 23.8C27.3525 26.8 25.4057 30 22.6803 32.7ZM44.3864 17.8C43.413 19.9 42.1476 21.8 40.5903 23.4C37.6702 26.3 33.874 28 29.8832 28.4C32.0246 25.4 34.166 22.4 36.7941 20C38.3515 18.5 40.1036 17.2 41.953 16.1C43.121 15.3 44.3864 14.6 45.7491 13.9C45.6518 14.2 45.6518 14.4 45.5544 14.7C45.2624 15.7 44.8731 16.7 44.3864 17.8Z" fill="#3D4F3D"/>
</svg>
