<svg width="49" height="38" viewBox="0 0 49 38" fill="none" xmlns="http://www.w3.org/2000/svg">
<path d="M18.8346 36.7012C28.4443 36.7012 36.2346 28.911 36.2346 19.3012C36.2346 9.69148 28.4443 1.90125 18.8346 1.90125C9.22482 1.90125 1.43457 9.69148 1.43457 19.3012C1.43457 28.911 9.22482 36.7012 18.8346 36.7012Z" fill="#FF931E"/>
<path d="M29.4347 36.2012C39.0444 36.2012 46.8347 28.411 46.8347 18.8012C46.8347 9.19148 39.0444 1.40125 29.4347 1.40125C19.8249 1.40125 12.0347 9.19148 12.0347 18.8012C12.0347 28.411 19.8249 36.2012 29.4347 36.2012Z" fill="#FACE8D"/>
<path d="M39.4348 10.6013C35.1348 5.10129 26.3348 3.80129 20.9348 8.60129C18.6348 10.7013 17.2348 13.9013 16.8348 16.5013C15.7348 22.2013 18.5348 28.4013 24.0348 30.8013C29.4348 33.2013 35.7348 31.7013 39.4348 27.1013C43.2348 22.3013 43.2348 15.5013 39.4348 10.6013ZM39.1348 24.9013C36.5348 29.4013 31.2348 31.2013 26.3348 29.6013C21.6348 28.1013 18.6348 23.5013 18.8348 18.6013C18.9348 16.0013 20.1348 13.5013 21.9348 11.6013C23.0348 10.5013 24.2348 9.70129 25.4348 9.10129C29.1348 7.90129 32.9348 8.30128 36.3348 10.9013C40.7348 14.0013 41.9348 20.2013 39.1348 24.9013Z" fill="#3D4F3D"/>
<path d="M37.9346 35.2012C46.5346 31.4012 50.9346 20.5012 47.3346 11.8012C47.1346 11.3012 46.5346 9.90123 45.2346 8.10123C44.0346 6.30123 40.9346 3.00121 36.8346 1.40121C28.9346 -1.89879 19.6346 0.801202 14.6346 7.7012C12.2346 11.1012 11.1346 15.0012 11.4346 19.1012C11.7346 23.1012 13.2346 26.9012 15.7346 30.1012C21.0346 36.6012 30.3346 38.5012 37.9346 35.2012ZM14.9346 11.7012C18.2346 5.2012 25.7346 0.901227 33.0346 2.60123C37.2346 3.60123 40.8346 6.10121 43.0346 9.90121C44.1346 11.7012 45.3346 13.8012 45.5346 15.9012C45.7346 18.0012 45.7346 20.2012 45.4346 22.8012C45.0346 25.4012 42.7346 29.4012 39.8346 31.7012C33.9346 36.4012 24.6346 36.5012 18.9346 31.5012C13.2346 26.5012 11.5346 18.4012 14.9346 11.7012Z" fill="#3D4F3D"/>
<path d="M34.2345 19.9012C33.4345 18.7012 32.2345 18.2012 30.8345 18.0012C30.7345 16.9012 30.6345 15.9012 30.5345 14.8012C30.5345 14.7012 30.5345 14.6012 30.5345 14.4012C31.5345 14.4012 32.5345 14.5012 33.5345 14.3012C33.9345 14.2012 34.0345 13.5012 33.6345 13.3012C32.6345 12.8012 31.4345 12.8012 30.3345 12.8012C30.2345 12.0012 30.0345 11.3011 29.6345 10.7011C29.4345 10.4011 28.9345 10.4012 28.8345 10.8012C28.6345 11.4012 28.6345 12.1012 28.7345 12.9012C28.2345 12.9012 27.6345 13.0012 27.1345 13.1012C25.0345 13.5012 23.5345 15.5012 24.5345 17.6012C25.4345 19.5012 27.4345 19.9011 29.3345 20.2011C29.4345 21.1011 29.4345 22.0012 29.4345 22.9012C28.1345 23.0012 26.8345 23.0011 25.6345 23.2011C24.3345 23.5011 24.6345 25.4012 25.9345 25.5012C27.0345 25.5012 28.1345 25.3011 29.2345 25.2011C29.3345 25.2011 29.4345 25.2011 29.5345 25.2011C29.5345 26.2011 29.6345 27.1012 29.6345 28.1012C29.6345 29.3012 31.4345 29.3012 31.4345 28.1012C31.4345 27.1012 31.4345 26.1012 31.3345 25.1012C31.7345 25.1012 32.1345 25.0012 32.5345 24.9012C33.5345 24.6012 34.4345 23.9012 34.7345 22.9012C34.9345 21.8012 34.7345 20.7012 34.2345 19.9012ZM26.7345 16.8012C26.3345 16.4012 26.2345 15.9012 26.7345 15.4012C27.2345 14.9012 28.0345 14.7012 28.7345 14.6012C28.7345 14.7012 28.7345 14.9012 28.7345 15.0012C28.8345 15.9012 28.8345 16.8011 28.9345 17.7011C28.8345 17.7011 28.8345 17.7011 28.7345 17.7011C28.1345 17.5011 27.2345 17.4012 26.7345 16.8012ZM32.3345 22.2011C32.1345 22.5011 31.6345 22.7012 31.2345 22.8012C31.2345 22.1012 31.1345 21.3012 31.1345 20.6012C31.4345 20.7012 31.7345 20.8012 31.9345 21.0012C32.1345 21.2012 32.3345 21.5011 32.4345 21.7011C32.4345 21.8011 32.4345 22.0011 32.3345 22.2011Z" fill="#3D4F3D"/>
<path d="M19.8347 35.3012C13.2347 35.7012 6.53469 32.0012 3.73469 26.0012C0.834688 19.6012 2.53469 12.0012 7.83469 7.50118C10.7347 5.00118 14.1347 3.90116 17.8347 3.20116C18.3347 3.10116 18.3347 2.30117 17.8347 2.30117C10.3347 1.20117 2.93469 7.10118 0.834688 14.0012C-1.56531 21.6012 1.33469 30.1012 7.93469 34.4012C11.4347 36.7012 15.8347 37.5012 19.9347 36.9012C20.8347 36.6012 20.6347 35.2012 19.8347 35.3012Z" fill="#3D4F3D"/>
</svg>
