<svg width="49" height="50" viewBox="0 0 49 50" fill="none" xmlns="http://www.w3.org/2000/svg">
<path d="M21.6 10.7L42.2 10.6L41.4 15.2L22.2 16.3L21.6 10.7Z" fill="white"/>
<path d="M23.1 16.8L40.6 16.3L38.5 48.3L27.7 48.7L23.1 16.8Z" fill="#3FA9F5"/>
<path d="M43.5 0.999989C39.8 1.49999 36.1 2.19999 32.4 3.19999C32.1 3.29999 31.9 3.59999 31.9 3.89999C32.1 5.79999 31.9 7.69999 31.9 9.49999C31.9 9.59999 31.9 9.69999 31.9 9.79999C28.5 9.79999 25 9.79999 21.6 10.2C21 10.3 23 23.5 23.9 29.6C24.9 36 26.7 42.3 27.7 48.7C27.8 49.3 34.6 49.1 35.4 49C35.8 49 36.2 49 36.5 48.9C36.8 48.9 38.4 48.8 38.5 48.2C39.3 41.9 40 35.7 40.6 29.4C41.2 23.1 41.9 16.9 42.2 10.6C42.2 10.5 42.1 9.89999 41.9 9.89999C40.3 9.49999 38.6 9.59999 37 9.69999C35.8 9.69999 34.6 9.79999 33.4 9.79999C33.4 8.09999 33.2 6.29999 33.3 4.49999C36.8 3.89999 40.3 3.09999 43.7 2.09999C44.2 1.89999 44.1 0.899989 43.5 0.999989ZM31.9 11.2C31.9 12.5 32 13.8 32 15.1V15.2C29 15.3 26 15.5 22.9 15.6C22.6 14.2 22.4 12.7 22.1 11.3C25.4 11.5 28.6 11.3 31.9 11.2ZM33.1 47.9C31.8 48 30.6 48 29.3 48.1C27.6 41.9 26.8 35.6 25.5 29.3C24.6 25.1 23.9 20.9 23.2 16.7C26.2 16.7 29.1 16.6 32.1 16.6C32.2 19.8 32.3 23.1 32.5 26.3C32.9 33.5 33.3 40.7 34.3 47.8C33.9 47.9 33.5 47.9 33.1 47.9ZM37.2 48C37 48 36.8 47.9 36.6 47.9C36.2 47.9 35.8 47.9 35.5 47.9C35 40.6 34.2 33.4 33.9 26.1C33.8 22.9 33.6 19.8 33.6 16.6C34.8 16.6 35.9 16.6 37.1 16.6C37.9 16.6 38.7 16.5 39.5 16.5C39.9 16.5 40.3 16.4 40.7 16.4C40.2 20.7 39.8 24.9 39.3 29.3C38.4 35.4 37.8 41.7 37.2 48ZM41.4 11C41.2 12.4 41 13.8 40.8 15.2C40.4 15.1 39.9 15.1 39.5 15.1C38.8 15.1 38 15.1 37.3 15.1C36.1 15.1 34.8 15.2 33.6 15.3C33.6 15.3 33.6 15.3 33.6 15.2C33.6 13.9 33.6 12.6 33.5 11.2C34.7 11.2 35.9 11.1 37.1 11.1C38.5 11 39.9 11 41.4 11Z" fill="#3D4F3D"/>
<path d="M24.8 40.6H9.4V48.2H24.8V40.6Z" fill="#999999"/>
<path d="M0 21.1L35.2 21.2C35.2 21.2 32.7 41.4 18.3 42.3C1.7 43.4 0 21.1 0 21.1Z" fill="#E6E6E6"/>
<path d="M35.2 21.2C34.1 20.6 32.8 20.6 31.6 20.6C30.1 20.6 28.7 20.6 27.2 20.5C24.2 20.3 21.3 20.1 18.4 20.1C15.5 20.1 12.7 20.1 9.8 20.2C6.8 20.2 -0.1 20.7 -3.10712e-07 21.1C0.0999997 25.5 1.5 30 3.2 33.9C4.6 37 6.4 39.7 9.1 41.2C8.9 42.1 9 43.2 9 44.1C9 45.1 8.9 46.2 9.2 47.2C9.6 49.1 11.5 49.1 12.8 49.1C14.8 49.1 16.7 49.3 18.7 49.1C19.7 49 23.8 49.1 24.9 49.1C25.2 49.1 25.4 48.3 25.4 48C25.4 45.9 25.5 43.8 25.5 41.7C25.6 41.6 25.7 41.4 25.7 41.2C27.4 40.1 29 38.5 30.2 36.6C31.4 34.8 32.3 32.8 33.1 30.7C34 28.1 34.5 25.3 35.4 22.6C35.5 22.3 35.5 21.4 35.2 21.2ZM19.7 47.4C18 47.3 16.3 47.3 14.6 47.2C13.8 47.2 13 47.2 12.2 47.2C11.6 47.2 10.7 47.4 10.5 46.5C10.4 45.6 10.5 44.6 10.4 43.7C10.4 43 10.3 42.3 10.3 41.7C10.3 41.7 10.3 41.7 10.4 41.7C12.1 42.4 14 42.6 15.8 42.8C17.8 43 19.8 43.1 21.7 42.8C22.6 42.6 23.5 42.3 24.4 41.9C24.4 43.7 24.4 45.5 24.4 47.3C22.8 47.5 21.2 47.6 19.7 47.4ZM28.5 36.5C27.5 37.9 26.3 39.1 24.9 40C24.9 40 24.9 40 24.8 40C24.5 40 24.3 40.2 24.2 40.4C24 40.5 23.8 40.7 23.5 40.8C21.3 41.8 19 41.8 16.7 41.6C14.5 41.4 12.2 41.1 10.2 40.2C8.1 39.3 6.5 37.5 5.3 35.3C4 32.9 3.1 30.3 2.4 27.6C2.5 27.6 2.6 27.7 2.7 27.7C4.2 27.9 4.7 26 6 25.8C7.2 25.6 8 27.4 9.3 27.4C10.3 27.4 11.1 26.8 11.8 26.2C12.8 25.4 14 24.3 15.2 25.5C15.9 26.2 16.3 27.4 17.4 27.7C18.3 28 19.1 27.5 19.6 26.8C20 26.3 20.2 25.7 20.6 25.3C21.7 24.3 22.9 25.3 23.8 26.1C24.9 26.9 26.3 27.8 27.6 26.9C28.4 26.3 28.7 25.4 29.6 25C30.9 24.4 32.3 25.1 32.8 26.4C32.8 26.5 32.9 26.6 33 26.6C32 30.1 30.5 33.7 28.5 36.5ZM33.2 25.4C32.4 23.4 29.7 22.7 28.1 24.5C27.4 25.2 27.1 26.4 25.8 26.1C24.9 25.9 24.2 25.1 23.5 24.5C22.5 23.8 21.3 23.5 20.3 24.3C19.5 24.9 19 26.8 17.9 26.7C16.8 26.6 16.2 24.8 15.3 24.3C13.3 23.1 11.7 25.4 10.2 26.2C8.5 27.1 8 25.1 6.5 24.8C5.9 24.7 5.4 24.9 5 25.2C4.7 25.4 4.5 25.6 4.3 25.9C4.2 26 4.1 26.2 4 26.3C3.9 26.4 3.8 26.5 3.7 26.6C3.3 27 2.2 26.8 2 25.8C1.7 24.6 1.4 23.3 1.1 22.1C3.9 22.3 6.7 22.1 9.5 22C12.4 21.9 15.4 21.9 18.3 21.9C21.2 22 24 21.9 26.9 21.9C28.4 21.9 29.9 21.9 31.4 22.2C32.2 22.3 33.1 22.4 34 22.4C33.6 23.4 33.4 24.4 33.2 25.4Z" fill="#3D4F3D"/>
<path d="M20.3 40.5L29.7 40.7L34.8 37.6L37.2 33.8H34.2L32.7 32.7L31 33.1L28.5 31.2C28.5 31.2 22.9 36.2 21.1 38C19.3 39.8 20.3 40.5 20.3 40.5Z" fill="#FACE8D"/>
<path d="M25.7 28.5L29.5 32.2C29.5 32.2 24.7 34.2 24.2 36C23.8 37.8 21.3 39.8 20.3 39.7C19.3 39.6 18.9 40.5 18.9 40.5L14.9 40.6C14.9 40.6 13.3 38.9 15.2 37.1C17.1 35.3 20.4 34.5 21.1 32.3C21.8 30.1 25.7 28.5 25.7 28.5Z" fill="#FF1D25"/>
<path d="M34.7 45.6C36.9644 45.6 38.8 43.7643 38.8 41.5C38.8 39.2356 36.9644 37.4 34.7 37.4C32.4356 37.4 30.6 39.2356 30.6 41.5C30.6 43.7643 32.4356 45.6 34.7 45.6Z" fill="#39B54A"/>
<path d="M40.6 43.3C43.3062 43.3 45.5 41.1062 45.5 38.4C45.5 35.6938 43.3062 33.5 40.6 33.5C37.8938 33.5 35.7 35.6938 35.7 38.4C35.7 41.1062 37.8938 43.3 40.6 43.3Z" fill="#FF1D25"/>
<path d="M15.2 41.7L44.6 41.5C44.6 41.5 45.2 46.5 39.5 47.9C33.8 49.3 19.4 49 18.3 47.3C17.3 45.6 15.2 41.7 15.2 41.7Z" fill="#E6E6E6"/>
<path d="M47.9 41.2C47.1 40.9 46.2 40.9 45.3 40.9C45.8 40.5 46.1 40.1 46.3 39.5C46.5 38.7 46.5 37.8 46.2 37C45.6 35.3 44.1 34 42.5 33.3C40.8 32.6 38.8 32.9 37.3 33.9C37.1 33.5 36.6 33.2 36.2 33.1C35.6 33 34.9 33.1 34.4 33.4C33.8 32.4 32.3 32 31.3 32.7C30.8 31.7 29.8 31.1 28.6 31.3C28.1 30.8 27.5 30.2 27 29.7C26.7 29.4 26.3 28.8 25.8 28.7C25.4 28.6 24.8 28.8 24.4 28.9C22.6 29.4 21 30.8 20.1 32.3C19.5 33.2 19.1 34.1 18.2 34.7C17.4 35.3 16.5 35.7 15.6 36.4C14.3 37.4 13.3 39.1 14 40.8C13.3 40.8 12.7 40.9 12 40.9C11.5 40.9 11.5 41.6 12 41.7C12.7 41.8 13.3 41.8 14 41.9C15.3 44.6 16.8 47.4 19.7 48.6C21.3 49.2 23.1 49.2 24.7 49.2C26.8 49.2 28.8 49.2 30.9 49.2C34.2 49.2 38.2 49.8 41.2 48.1C43.4 46.9 45.5 45.2 45.7 42.6C46.4 42.6 47.2 42.5 47.9 42.3C48.4 42 48.3 41.3 47.9 41.2ZM44.6 36.5C45.4 37.8 45.4 39.6 44.3 40.7C44.3 40.7 44.3 40.8 44.2 40.8C44 40.8 43.8 40.8 43.7 40.8C43.4 40.8 43 40.8 42.7 40.8C42.8 40.8 42.8 40.7 42.9 40.7C43.3 40.3 43.7 39.8 43.9 39.3C44.4 38.1 43.9 36.6 42.9 35.8C40.7 34.2 37.4 36 37.4 38.6C37.4 39.3 37.7 40.1 38.3 40.6L38.4 40.7C37.9 40.7 37.5 40.7 37 40.7C36.4 40.1 36 39.2 35.9 38.3C35.8 37 36.5 35.8 37.5 35.1C39.8 33.4 43.2 34.3 44.6 36.5ZM40.2 36.8C40.5 36.7 40.5 36.7 40.8 36.7C40.9 36.7 41.3 36.7 41.8 37C42.4 37.3 42.7 38.3 42.7 38.3C42.7 38.3 42.7 38.6 42.7 38.7C42.7 38.7 42.7 38.9 42.6 39.2C42.5 39.5 42.2 39.7 42.2 39.7C42.2 39.7 42 39.8 41.9 39.9C41.9 39.9 41.3 40.2 40.9 40.2C40.5 40.2 40 39.7 40 39.6C40 39.6 39.7 39.3 39.8 39.4C39.7 39.3 39.3 38.9 39.3 38.5C39.3 38.1 39.3 38.5 39.3 38.5C39.3 38.4 39.3 38.2 39.3 37.9C39.3 37.6 39.5 37.4 39.6 37.3C39.7 37.2 39.9 37 40 36.9C40.1 36.8 40.1 36.8 40.2 36.8ZM34.9 38.6C34.8 38.6 34.6 38.7 34.5 38.7C34.1 38.8 33.7 39 33.4 39.2C32.9 39.6 32.4 40.1 32 40.7C31.7 40.7 31.3 40.7 31 40.7C31.4 39.9 32 39.3 32.7 38.7C33.1 38.4 33.6 38.1 34.1 37.9C34.4 37.8 34.6 37.7 34.9 37.6C34.9 38 34.9 38.3 34.9 38.6ZM33.8 40.6L34.1 40.4C34.4 40.2 34.7 40 35 39.8C35.1 39.8 35.2 39.7 35.2 39.7C35.3 40 35.5 40.4 35.7 40.7C35.1 40.7 34.4 40.7 33.8 40.6C33.8 40.6 33.7 40.7 33.8 40.6ZM30.5 33.5C30.5 33.9 31.1 34.2 31.4 33.9C31.9 33.2 33.3 33.1 33.4 34.2C33.5 34.7 34 35 34.5 34.6C34.8 34.3 35.2 34.2 35.5 34.2C35.7 34.2 36.4 34.2 36.3 34.5V34.6C35.8 35.1 35.4 35.7 35.1 36.4C34.9 36.4 34.7 36.4 34.5 36.5C34.2 36.5 33.9 36.6 33.6 36.8C32.9 37.1 32.3 37.4 31.8 37.8C31.3 38.2 30.8 38.7 30.4 39.2C30.1 39.6 29.9 40.2 29.7 40.7C26.6 40.7 23.4 40.6 20.3 40.5C20.9 39.9 22.2 39.9 22.9 39.6C24 39.2 24.5 38.4 24.8 37.3C25.1 36.3 25.3 35.4 26.2 34.7C27 34 28.1 33.5 29.1 33.2C29.6 33.1 29.7 32.6 29.5 32.2C30.1 32.4 30.5 32.9 30.5 33.5ZM25.4 33.2C24.4 33.9 23.6 34.8 23.4 36C23.3 36.5 23.2 37.2 22.9 37.7C22.5 38.2 21.8 38.3 21.2 38.5C20.2 38.8 19.1 39.4 18.9 40.5C18.2 40.5 17.5 40.5 16.8 40.5C16.7 39.4 17.8 38.6 18.7 38.1C19.8 37.5 21 37 21.9 36.1C22.7 35.2 23.2 34 24.1 33.1C24.5 32.7 25 32.3 25.5 32.1C25.8 31.9 26.1 31.8 26.4 31.7C26.6 31.6 26.7 31.6 26.9 31.5C27.2 31.8 27.4 32 27.7 32.3C26.9 32.5 26.1 32.8 25.4 33.2ZM14.9 40.4C14.2 39 15.7 37.7 16.8 37.1C17.9 36.4 19.2 36 20.1 35C21 34 21.4 32.7 22.4 31.7C23.2 30.9 24.3 30.5 25.4 30.2C25.6 30.4 25.8 30.6 26 30.8C25.6 30.9 25.3 31.1 25 31.2C24.4 31.5 23.8 31.9 23.3 32.4C22.3 33.4 21.8 34.8 20.7 35.7C19.5 36.6 18 36.9 16.9 37.9C16.2 38.6 15.7 39.6 15.8 40.6C15.5 40.6 15.2 40.6 14.9 40.6C15 40.5 15 40.4 14.9 40.4ZM39.6 47.3C36.5 47.9 33.2 47.5 30.1 47.4C28.5 47.4 27 47.3 25.4 47.3C23.9 47.3 22.3 47.4 20.8 47.2C18.1 46.7 16.5 44.1 15.2 41.8C20.1 42.1 25.1 42.1 30 42.2C33 42.3 36 42.4 39 42.5C40.5 42.5 42 42.5 43.5 42.5C43.7 42.5 43.9 42.5 44.1 42.5C43.3 44.6 42.2 46.7 39.6 47.3Z" fill="#3D4F3D"/>
<path d="M6.9 17.1C6.6 16.5 6.1 16.1 5.9 15.6C5.6 15.1 5.8 14.6 6.1 14.1C6.6 13.1 7.2 12.2 6.7 11C6.5 10.4 6 9.9 5.7 9.3C5.4 8.8 5.1 7.6 6 7.6C6.4 7.6 6.4 7 6 7C4.9 7 4.4 8.1 4.5 9C4.7 10.2 6 11.3 5.5 12.5C5.1 13.5 4.2 14.3 4.5 15.5C4.7 16.1 5.1 16.6 5.5 17C5.7 17.2 6 17.5 6 17.8C6 18.2 5.8 18.2 5.6 18.5C5.4 18.7 5.5 19.2 5.8 19.2C7 19.4 7.3 17.8 6.9 17.1Z" fill="#3D4F3D"/>
<path d="M13.2 16.2C12.8 15.7 12.2 15.3 11.9 14.7C11.6 14.1 12 13.5 12.2 13C12.7 11.8 12.5 10.9 11.6 10.1C11.2 9.70002 10.7 9.40002 10.9 8.80002C11 8.40002 11.3 8.10002 11.6 7.90002C11.7 7.80002 11.8 7.70002 11.9 7.50002C12 7.40002 12 7.30002 12 7.20002C12.1 6.80002 11.9 6.60002 11.6 6.80002C11.5 6.80002 11.3 7.00002 11.2 7.10002C11 7.00002 10.9 7.10002 10.8 7.20002C10.6 7.40002 10.4 7.70002 10.2 7.90002C9.89999 8.30002 9.7 8.80002 9.8 9.40002C9.9 9.90002 10.2 10.3 10.6 10.7C10.9 11.1 11.4 11.4 11.3 11.9C11.3 12.4 10.9 13 10.7 13.5C10.5 14 10.5 14.6 10.7 15.1C10.9 15.7 11.4 16.1 11.9 16.5C12.2 16.8 12.9 17.7 12.2 17.9C11.6 18.1 11.8 19 12.5 18.9C13.7 18.6 13.8 17.1 13.2 16.2Z" fill="#3D4F3D"/>
<path d="M19 16.1C18.6 15.8 17.5 15.6 17.4 15C17.2 14.5 17.9 14 18.2 13.7C18.5 13.2 18.7 12.7 18.5 12.1C18.3 11.5 17.8 11.1 17.4 10.7C17 10.3 16.8 9.79999 16.9 9.09999C17 8.59999 17.5 8.09999 18.1 7.99999C18.5 7.89999 18.3 7.29999 17.9 7.39999C16.9 7.59999 16.1 8.49999 16 9.59999C15.9 10.1 16.1 10.7 16.4 11.1C16.7 11.6 17.3 12 17.4 12.6C17.5 13.1 16.9 13.6 16.7 13.9C16.4 14.3 16.2 14.9 16.3 15.4C16.5 16 17.1 16.4 17.6 16.7C17.9 16.8 18.2 16.9 18.4 17.2C18.5 17.3 18.6 17.6 18.3 17.6C17.7 17.7 17.9 18.6 18.4 18.6C19 18.7 19.4 18.2 19.5 17.7C19.8 17.1 19.5 16.5 19 16.1Z" fill="#3D4F3D"/>
</svg>
