<svg width="48" height="49" viewBox="0 0 48 49" fill="none" xmlns="http://www.w3.org/2000/svg">
<path d="M47.2 15.1C45.9 14 44 13.5 42.4 12.9C40.6 12.3 38.7 11.7 36.9 11.1C35.1 10.5 33.2 10 31.3 9.50001C29.6 9.00001 27.7 8.20001 25.8 8.20001C25.1 8.20001 21.4 19.5 20 24.6C18.7 29.5 14.7 40.8 16.4 41.5C19.9 42.8 23.6 43.7 27.2 44.8C29 45.3 30.7 45.9 32.5 46.4C33.8 46.8 38.4 48.2 38.7 47.1C39.3 44.4 40.4 41.7 41.3 39.1C42.1 36.4 42.9 33.7 43.7 31C44.4 28.4 45.2 25.7 45.8 23.1C46.1 21.7 46.5 20.3 46.7 18.9C47 17.9 47.4 15.2 47.2 15.1Z" fill="#E6E6E6"/>
<path d="M47.9 14.5C46.5 13.4 44.6 12.8 42.9 12.2C41 11.6 39.1 10.9 37.1 10.3C35.2 9.69999 33.2 9.19999 31.3 8.59999C29.5 8.09999 27.5 7.29999 25.6 7.29999C24.9 7.29999 21 19.1 19.6 24.4C18.2 29.5 14.1 41.3 15.9 42C19.6 43.4 23.4 44.3 27.2 45.5C29 46.1 30.9 46.6 32.7 47.1C34.1 47.5 38.9 49 39.1 47.9C39.7 45.1 40.9 42.3 41.8 39.6C42.7 36.8 43.5 34 44.3 31.2C45.1 28.5 45.8 25.7 46.5 22.9C46.8 21.4 47.2 20 47.5 18.5C47.6 17.4 48.1 14.7 47.9 14.5ZM45.7 17.9C45.4 19.3 45.1 20.7 44.8 22.1C44.1 24.9 43.5 27.8 42.7 30.6C42 33.3 41.1 36.1 40.3 38.8C39.5 41.4 38.7 44.3 37.5 46.8C36.3 46.1 34.9 45.8 33.7 45.3C31.8 44.6 29.9 44 28 43.4C24.5 42.3 20.9 41.2 17.4 40.1C18.4 35 19.7 30 21.1 25C21.9 22.3 22.7 19.7 23.5 17C24.3 14.4 25.1 11.9 25.6 9.19999C27.1 10.1 29.1 10.4 30.8 10.9C32.7 11.5 34.5 12 36.4 12.6C38.3 13.1 40.2 13.6 42 14.1C43.4 14.5 44.9 14.9 46.4 15C46.1 15.9 45.9 16.9 45.7 17.9Z" fill="#3D4F3D"/>
<path d="M24.7 30.9C24.7 29.6 24.6 28.2 24.6 26.9C24.5 24.2 24.4 21.5 24.4 18.8C24.3 13.4 24.3 7.99999 23.8 2.59999C23.8 2.29999 23.1 1.39999 22.7 1.29999C19.3 0.699991 15.9 1.09999 12.4 1.39999C9 1.69999 5.5 1.69999 2 1.79999C1.4 1.79999 1.1 2.29999 1.1 2.79999C1 2.89999 0.6 5.29999 0.6 6.49999C0.6 7.89999 0.6 9.19999 0.6 10.6C0.7 13.2 0.7 15.8 0.8 18.5C0.9 21 1 23.5 0.9 26.1C0.9 28.8 1.1 35.8 1.7 35.9C1.9 36.2 2.1 36.3 2.5 36.3C6.4 36.4 10.3 36.3 14.2 36.2C16.1 36.2 18 36.1 19.9 36.1C20.7 36.1 22.1 36.2 23.2 36C25.2 35.9 24.7 32.3 24.7 30.9Z" fill="white"/>
<path d="M10.9 26.5H15.1L13 22.4C13 22.4 16.9 23.5 17.3 20.6C17.7 17.7 12.6 13.2 12.6 13.2C12.6 13.2 7.8 18.2 7.8 21.2C7.8 24.2 11.6 22.6 11.6 22.6L10.9 26.5Z" fill="#999999"/>
<path d="M25.2 31.5C25.2 30.1 25.1 28.7 25.1 27.3C25 24.5 24.9 21.7 24.9 18.8C24.8 13.2 24.8 7.50001 24.3 1.90001C24.3 1.60001 23.6 0.600011 23.2 0.600011C19.6 1.12355e-05 16 0.300011 12.4 0.600011C8.8 1.00001 5.1 0.900011 1.5 1.00001C0.9 1.00001 0.6 1.60001 0.6 2.00001C0.5 2.10001 0 4.70001 0 5.90001C0 7.30001 0 8.70001 0 10.1C0.1 12.8 0.2 15.6 0.3 18.3C0.4 21 0.4 23.6 0.4 26.3C0.4 29.1 0.6 36.4 1.2 36.6C1.4 36.9 1.6 37.1 2 37.1C6.1 37.2 10.2 37.1 14.3 37C16.3 37 18.3 36.9 20.3 36.8C21.2 36.8 22.6 36.9 23.8 36.7C25.8 36.7 25.3 33 25.2 31.5ZM20.3 34.9C18.3 34.9 16.3 34.9 14.3 34.9C10.5 34.9 6.7 34.9 2.9 35C2.2 32.3 2.6 29.4 2.4 26.6C2.3 23.8 2.2 21 2.2 18.1C2.2 15.4 2.2 12.6 2.2 9.90001C2.2 8.60001 2.2 7.20001 2.1 5.90001C2.1 4.90001 2 3.90001 1.8 2.90001C5.4 2.80001 8.9 2.60001 12.5 2.70001C16 2.90001 19.1 2.30001 23 2.30001C22.9 7.80001 23.1 13.3 23.3 18.8C23.4 21.5 23.5 24.3 23.6 27C23.6 28.4 23.7 29.8 23.7 31.2C23.7 32.4 23.9 33.7 23.7 35C22.7 34.7 21.2 34.9 20.3 34.9Z" fill="#3D4F3D"/>
<path d="M18.6 19.6C18.3 18.1 17.1 16.9 16.2 15.8C15.7 15.1 15.1 14.5 14.6 13.9C14.2 13.4 12.7 12.3 12.3 12.4C10.9 12.8 10 14.2 9.2 15.4C8.3 16.6 7.7 17.9 7.2 19.3C6.7 20.8 6.5 22.7 8 23.6C9 24.2 10 24.1 11 23.7C10.9 23.8 10.9 23.9 10.8 24.1C10.7 24.4 10.5 24.7 10.4 25.1C10.2 25.5 10.1 25.9 10 26.3C9.8 26.9 10.3 27.5 10.9 27.5C12.3 27.5 13.7 27.5 15.1 27.5C15.8 27.5 16.2 26.7 15.9 26.1C15.6 25.5 15.2 24.9 14.9 24.3C15.7 24.3 16.5 24.2 17.2 23.7C18.3 22.6 18.9 21.1 18.6 19.6ZM12.1 25.5C12.2 25.2 12.7 24.1 12.8 23.8L13.3 25.1L13.5 25.5C13 25.5 12.6 25.5 12.1 25.5ZM16.1 21.4C15.6 22 14.8 22 14.1 21.6C13.6 21.3 13.2 21.4 12.8 21.7C12.5 21.1 10.5 22.1 9.8 22.1C9.1 22.1 8.5 21.1 8.8 20.2C9 19.3 10.8 17 11.3 16.1C11.7 15.5 12 14.9 12.4 14.3C12.5 14.4 13.4 15.8 13.7 16.3C14.4 17.3 15.3 18.3 15.9 19.3C16.4 19.9 16.6 20.7 16.1 21.4Z" fill="#3D4F3D"/>
<path d="M33.6 21.9L35.2 29L30.9 33.4L28 27.3L33.6 21.9Z" fill="#FF1D25"/>
<path d="M35.9 27.3C35.8 26.6 35.6 25.9 35.5 25.2C35.2 23.9 34.9 22.7 34.7 21.4C34.6 21.1 34.4 21 34.2 20.9C34.1 20.8 33.9 20.7 33.7 20.7C33.2 20.7 33 21 32.7 21.3C32.5 21.5 32.2 21.8 32 22C31.5 22.5 31 22.9 30.6 23.4C30.1 23.9 29.7 24.4 29.3 24.8C29.1 25 28.9 25.3 28.6 25.5C28.4 25.7 27.4 26.6 27.5 27L27.9 28.7C28 29.3 28.2 29.9 28.4 30.5C28.6 31.1 28.7 31.6 28.9 32.2C29 32.5 29.1 32.8 29.2 33C29.3 33.3 29.4 33.7 29.6 34C30.1 34.7 31 34.5 31.3 33.9C31.7 33.5 32.1 33.2 32.4 32.8C32.8 32.4 33.1 32 33.5 31.6C33.9 31.2 34.2 30.9 34.6 30.5C34.8 30.3 35.8 29.6 35.9 29.3C36.3 28.9 36 28 35.9 27.3ZM32.4 30.8C32 31.1 31.1 32 31 32C31 31.9 30.5 30.5 30.3 29.9C30.1 29.3 29.9 28.8 29.6 28.2C29.5 28 29.4 27.8 29.3 27.6C29.6 27.4 29.8 27.1 30 26.9C30.2 26.7 30.4 26.4 30.7 26.2C31.1 25.7 31.6 25.2 32 24.7C32.4 24.2 32.8 23.7 33.2 23.2C33.3 24 33.3 24.7 33.4 25.5C33.5 26.2 33.7 28.7 34 29.3C33.9 29.4 33.7 29.5 33.6 29.7C33.2 30.1 32.8 30.5 32.4 30.8Z" fill="#3D4F3D"/>
</svg>
