<svg width="49" height="47" viewBox="0 0 49 47" fill="none" xmlns="http://www.w3.org/2000/svg">
<path d="M47.1192 39.3C46.6192 33.9 45.2192 28.6 42.9192 23.6C41.8192 21.2 40.5192 18.7 38.4192 17C36.3192 15.4 33.8192 15.2 31.3192 15.9C28.4192 16.7 25.8192 17.8 22.7192 17.7C21.6192 17.7 20.6192 17.5 19.6192 17.3C18.2192 16.8 16.8192 16.2 15.5192 15.8C15.0192 15.6 14.0192 15.3 13.1192 15.3C11.3192 15.1 9.61916 15.3 7.91916 16.5C6.01916 17.9 4.91916 20 4.01916 22.1C2.91916 24.5 2.11916 27.1 1.61916 29.7C1.11916 32.3 0.91916 34.9 0.91916 37.6C1.01916 39.7 1.01916 42.1 2.31916 43.9C5.01916 47.6 10.2192 45.4 13.0192 43.2C16.3192 40.7 19.3192 36.6 24.0192 37C29.6192 37.5 33.2192 42.5 38.0192 44.7C40.1192 45.7 42.7192 46.2 44.8192 45C47.1192 43.9 47.3192 41.5 47.1192 39.3Z" fill="#999999"/>
<path d="M48.0192 39.7C47.5192 34.1 46.0192 28.6 43.7192 23.4C42.6192 20.9 41.2192 18.3 39.0192 16.6C36.8192 14.9 34.3192 14.7 31.6192 15.5C28.6192 16.4 25.9192 17.5 22.7192 17.4C21.6192 17.4 20.5192 17.2 19.5192 17C18.1192 16.5 16.6192 15.9 15.2192 15.5C14.7192 15.3 13.7192 15 12.7192 14.9C10.9192 14.7 9.11916 14.9 7.31916 16.2C5.31916 17.6 4.21916 19.9 3.21916 22C2.11916 24.5 1.31916 27.2 0.71916 29.9C0.21916 32.6 -0.0808398 35.4 0.0191602 38.1C0.11916 40.3 0.21916 42.8 1.51916 44.6C4.31916 48.4 9.71916 46.1 12.6192 43.9C16.1192 41.3 19.1192 37.1 24.0192 37.5C29.8192 38 33.6192 43.2 38.6192 45.5C40.8192 46.5 43.5192 47.1 45.7192 45.8C48.0192 44.4 48.2192 41.9 48.0192 39.7ZM45.3192 43.9C44.2192 44.9 42.5192 44.9 41.1192 44.5C36.4192 43.2 33.1192 39 28.7192 37C24.7192 35.1 20.7192 35.3 17.1192 37.9C14.1192 40 11.6192 43.4 8.01916 44.6C5.61916 45.4 2.91916 44.9 2.11916 42.3C1.41916 40.1 1.61916 37.6 1.71916 35.4C1.91916 32.5 2.51916 29.6 3.41916 26.9C4.21916 24.3 5.31916 21.6 6.91916 19.4C8.91916 16.6 11.6192 16.4 14.3192 17C18.1192 18.7 21.9192 19.7 25.9192 19.2C28.3192 18.9 30.4192 17.8 32.8192 17.3C35.4192 16.7 37.5192 17.5 39.2192 19.5C40.7192 21.3 41.8192 23.5 42.7192 25.6C43.7192 28 44.6192 30.5 45.2192 33C45.8192 35.5 46.3192 38.2 46.5192 40.8C46.4192 41.7 46.3192 43 45.3192 43.9Z" fill="#3D4F3D"/>
<path d="M16.2192 24.2C16.2192 23.6 16.1192 23.1 15.8192 22.6C15.3192 21.8 14.5192 21.3 13.5192 21.2C12.6192 21.1 11.8192 21.6 11.3192 22.4C10.9192 23 10.8192 23.6 10.8192 24.2C10.0192 24.2 9.31916 24.4 8.71916 25C7.81916 25.9 7.91916 27.3 8.61916 28.3C9.01916 28.8 9.51916 29.1 10.1192 29.3C10.2192 29.3 10.4192 29.3 10.5192 29.4C10.5192 29.4 10.5192 29.4 10.5192 29.5C10.5192 29.8 10.6192 30.2 10.7192 30.5C10.9192 31.1 11.2192 31.6 11.7192 32C12.2192 32.4 13.0192 32.4 13.6192 32.3C14.3192 32.1 15.0192 31.6 15.4192 31C15.6192 30.7 15.7192 30.4 15.8192 30C15.8192 29.8 15.8192 29.7 15.8192 29.5C16.0192 29.6 16.1192 29.6 16.3192 29.6C16.7192 29.6 17.1192 29.5 17.5192 29.4C18.3192 29 18.8192 28.3 18.9192 27.4C19.0192 25.6 17.7192 24.4 16.2192 24.2Z" fill="#3FA9F5"/>
<path d="M16.6192 23.8C16.6192 23.1 16.5192 22.5 16.1192 21.9C15.5192 21 14.6192 20.4 13.5192 20.3C12.4192 20.2 11.5192 20.8 11.0192 21.7C10.6192 22.3 10.4192 23.1 10.4192 23.8C9.51916 23.7 8.61916 24 8.01916 24.7C7.01916 25.8 7.01916 27.4 7.91916 28.6C8.31916 29.1 8.91916 29.6 9.61916 29.7C9.81916 29.7 9.91916 29.7 10.1192 29.8C10.1192 29.8 10.1192 29.8 10.1192 29.9C10.1192 30.3 10.2192 30.7 10.3192 31.1C10.5192 31.8 10.9192 32.4 11.5192 32.9C12.1192 33.4 13.0192 33.4 13.7192 33.2C14.6192 33 15.3192 32.4 15.8192 31.6C16.0192 31.2 16.1192 30.9 16.2192 30.5C16.2192 30.3 16.2192 30.1 16.2192 29.9C16.4192 30 16.6192 30 16.8192 30C17.3192 30 17.7192 29.9 18.2192 29.7C19.1192 29.3 19.7192 28.4 19.8192 27.4C19.9192 25.4 18.4192 24.1 16.6192 23.8ZM17.6192 27.9C17.0192 28.4 16.5192 27.8 15.8192 27.7C15.3192 27.7 14.8192 27.9 14.6192 28.3C14.3192 28.8 14.4192 29.2 14.5192 29.7C14.6192 30.4 14.2192 31.2 13.5192 31.4C13.2192 31.5 12.8192 31.6 12.5192 31.5C12.2192 31.4 12.0192 30.9 11.9192 30.7C11.6192 29.9 12.0192 29.1 11.4192 28.4C10.9192 27.9 10.0192 28.1 9.51916 27.6C9.11916 27.2 9.01916 26.6 9.31916 26.1C9.71916 25.6 10.4192 25.3 11.0192 25.6C11.7192 26 12.3192 25.3 12.2192 24.6C12.1192 23.7 12.2192 21.5 13.7192 21.9C14.6192 22.1 15.0192 23 15.3192 24C14.8192 24.5 15.0192 25.5 15.9192 25.5C16.6192 25.5 17.4192 25.7 17.8192 26.3C18.0192 26.7 18.1192 27.5 17.6192 27.9Z" fill="#3D4F3D"/>
<path d="M35.9192 22.7C35.9192 22.2 35.7192 21.7 35.4192 21.4C35.1192 21 34.5192 20.7 34.0192 20.8C33.8192 20.7 33.6192 20.6 33.4192 20.6C32.5192 20.8 31.7192 21.6 31.7192 22.6C31.6192 23.5 32.2192 24.4 33.0192 24.7C33.8192 25 34.9192 24.8 35.4192 24.1C35.5192 24 35.5192 23.9 35.6192 23.8C35.6192 23.8 35.6192 23.7 35.7192 23.7C35.7192 23.7 35.7192 23.6 35.8192 23.6C35.8192 23.2 35.9192 23 35.9192 22.7Z" fill="#39B54A"/>
<path d="M35.9192 30.8C35.9192 30.3 35.7192 29.8 35.4192 29.5C35.1192 29.1 34.5192 28.8 34.0192 28.9C33.8192 28.8 33.6192 28.7 33.4192 28.7C32.5192 28.9 31.7192 29.7 31.7192 30.7C31.6192 31.6 32.2192 32.5 33.0192 32.8C33.8192 33.1 34.9192 32.9 35.4192 32.2C35.5192 32.1 35.5192 32 35.6192 31.9C35.6192 31.9 35.6192 31.8 35.7192 31.8C35.7192 31.8 35.7192 31.7 35.8192 31.7C35.8192 31.3 35.9192 31.1 35.9192 30.8Z" fill="#39B54A"/>
<path d="M29.7192 24.6C29.2192 24.6 28.7192 24.8 28.4192 25.1C28.0192 25.4 27.7192 26 27.8192 26.5C27.7192 26.7 27.6192 26.9 27.6192 27.1C27.8192 28 28.6192 28.8 29.6192 28.8C30.5192 28.9 31.4192 28.3 31.7192 27.5C32.0192 26.7 31.8192 25.6 31.1192 25.1C31.0192 25 30.9192 25 30.8192 24.9C30.8192 24.9 30.7192 24.9 30.7192 24.8C30.7192 24.8 30.6192 24.8 30.6192 24.7C30.2192 24.7 30.0192 24.6 29.7192 24.6Z" fill="#FF1D25"/>
<path d="M37.8192 24.6C37.3192 24.6 36.8192 24.8 36.5192 25.1C36.1192 25.4 35.8192 26 35.9192 26.5C35.8192 26.7 35.7192 26.9 35.7192 27.1C35.9192 28 36.7192 28.8 37.7192 28.8C38.6192 28.9 39.5192 28.3 39.8192 27.5C40.1192 26.7 39.9192 25.6 39.2192 25.1C39.1192 25 39.0192 25 38.9192 24.9C38.9192 24.9 38.8192 24.9 38.8192 24.8C38.8192 24.8 38.7192 24.8 38.7192 24.7C38.3192 24.7 38.1192 24.6 37.8192 24.6Z" fill="#FF1D25"/>
<path d="M36.4192 22.7C36.4192 22.1 36.2192 21.5 35.8192 21C35.4192 20.5 34.7192 20.2 34.0192 20.2C33.8192 20 33.5192 20 33.2192 20C32.0192 20.2 31.1192 21.3 31.0192 22.4C30.9192 23.5 31.6192 24.6 32.6192 25C33.6192 25.4 34.9192 25.1 35.6192 24.2C35.7192 24.1 35.8192 24 35.9192 23.8C35.9192 23.7 36.0192 23.7 36.0192 23.6C36.0192 23.5 36.0192 23.5 36.1192 23.4C36.1192 23.4 36.1192 23.4 36.1192 23.3C36.3192 23.3 36.4192 23 36.4192 22.7ZM35.1192 23V23.1V23.2C35.1192 23.3 35.0192 23.3 35.0192 23.4L34.9192 23.5C34.8192 23.6 34.8192 23.6 34.7192 23.7L34.6192 23.8C34.6192 23.8 34.5192 23.8 34.5192 23.9C34.4192 23.9 34.3192 24 34.3192 24H34.2192C34.1192 24 34.0192 24 33.9192 24H33.8192H33.7192H33.6192H33.5192C33.4192 24 33.4192 23.9 33.3192 23.9L33.2192 23.8L33.1192 23.7C33.1192 23.7 33.1192 23.7 33.0192 23.6C33.0192 23.5 32.9192 23.5 32.9192 23.4C32.9192 23.4 32.9192 23.3 32.8192 23.3C32.8192 23.2 32.8192 23.1 32.7192 23.1C32.7192 23 32.7192 23 32.7192 22.9V22.8V22.7C32.7192 22.6 32.8192 22.5 32.9192 22.4L33.0192 22.3C33.0192 22.3 33.1192 22.3 33.1192 22.2C33.1192 22.2 33.2192 22.2 33.2192 22.1C33.2192 22.1 33.2192 22.1 33.1192 22.2C33.1192 22.1 33.3192 22.1 33.4192 22C33.5192 22 33.5192 22 33.6192 21.9H33.7192C33.9192 21.9 34.1192 21.8 34.2192 21.7C34.2192 21.7 34.2192 21.7 34.3192 21.7C34.3192 21.7 34.3192 21.7 34.4192 21.7H34.5192C34.6192 21.7 34.7192 21.8 34.7192 21.8C34.7192 21.8 34.8192 21.8 34.8192 21.9C34.8192 21.9 34.9192 22 34.8192 21.9C34.9192 22 34.9192 22 35.0192 22.1C35.0192 22.1 35.0192 22.2 35.1192 22.2C35.1192 22.3 35.2192 22.3 35.2192 22.4C35.2192 22.5 35.2192 22.5 35.3192 22.6V22.7C35.1192 22.8 35.1192 22.9 35.1192 23Z" fill="#3D4F3D"/>
<path d="M36.8192 31C36.9192 29.7 35.9192 28.3 34.5192 28.1C33.7192 28 32.9192 28.2 32.3192 28.7C31.8192 29.1 31.5192 29.8 31.5192 30.5C31.4192 31.8 32.3192 33.1 33.7192 33.3C35.0192 33.5 36.9192 32.8 36.8192 31.2C36.8192 31.2 36.8192 31.2 36.8192 31.1C36.8192 31.1 36.8192 31.1 36.8192 31ZM35.5192 31.4C35.5192 31.4 35.4192 31.5 35.5192 31.4C35.4192 31.5 35.4192 31.5 35.4192 31.5L35.3192 31.6C35.3192 31.6 35.2192 31.6 35.2192 31.7C35.1192 31.7 35.0192 31.8 35.0192 31.8H34.9192H34.8192C34.5192 31.9 34.4192 31.9 34.1192 31.9C34.0192 31.9 33.9192 31.9 33.8192 31.9H33.7192H33.6192C33.5192 31.9 33.4192 31.8 33.4192 31.8C33.3192 31.8 33.3192 31.7 33.2192 31.7L33.1192 31.6C33.1192 31.5 33.0192 31.4 33.0192 31.4V31.3V31.2V31.1V31V30.9V30.8C33.0192 30.8 33.0192 30.7 33.1192 30.7C33.1192 30.6 33.2192 30.6 33.2192 30.5C33.2192 30.5 33.2192 30.5 33.2192 30.4L33.3192 30.3C33.3192 30.2 33.4192 30.2 33.4192 30.1C33.4192 30.1 33.4192 30.1 33.5192 30L33.6192 29.9C33.6192 29.9 33.7192 29.9 33.7192 29.8C33.7192 29.8 33.7192 29.8 33.8192 29.8C33.7192 29.8 33.7192 29.8 33.9192 29.7C33.9192 29.7 33.9192 29.7 34.0192 29.7H34.1192H34.2192H34.3192H34.4192H34.6192C34.7192 29.7 34.8192 29.7 34.9192 29.8C34.9192 29.8 34.9192 29.8 35.0192 29.8C35.1192 29.9 35.2192 29.9 35.2192 30C35.3192 30.1 35.4192 30.3 35.5192 30.5C35.6192 30.6 35.6192 30.6 35.6192 30.7C35.6192 30.8 35.6192 30.8 35.6192 30.9C35.6192 30.9 35.6192 31.1 35.6192 31C35.6192 31.1 35.6192 31.2 35.6192 31.3C35.5192 31.3 35.5192 31.4 35.5192 31.4C35.6192 31.3 35.5192 31.4 35.5192 31.4Z" fill="#3D4F3D"/>
<path d="M28.1192 28.8C28.5192 29.3 29.1192 29.5 29.7192 29.6C30.4192 29.7 31.0192 29.4 31.5192 28.9C31.8192 28.9 32.0192 28.7 32.2192 28.5C32.9192 27.5 32.8192 26.1 32.0192 25.2C31.3192 24.4 30.0192 24.1 29.0192 24.5C28.0192 24.9 27.3192 26.1 27.4192 27.2C27.4192 27.4 27.4192 27.5 27.5192 27.6C27.5192 27.7 27.5192 27.7 27.6192 27.8C27.6192 27.9 27.6192 27.9 27.7192 28C27.7192 28 27.7192 28 27.7192 28.1C27.7192 28.3 27.9192 28.5 28.1192 28.8ZM28.8192 27.6C28.8192 27.6 28.8192 27.5 28.8192 27.6C28.7192 27.5 28.7192 27.4 28.7192 27.4C28.7192 27.3 28.7192 27.3 28.7192 27.2V27.1C28.7192 27 28.7192 26.9 28.7192 26.8C28.7192 26.7 28.7192 26.7 28.7192 26.6V26.5C28.7192 26.4 28.8192 26.4 28.8192 26.3C28.8192 26.3 28.8192 26.2 28.9192 26.2C29.0192 26.1 29.0192 26.1 29.1192 26L29.2192 25.9C29.2192 25.9 29.3192 25.9 29.3192 25.8C29.3192 25.8 29.4192 25.8 29.4192 25.7H29.5192C29.6192 25.7 29.6192 25.7 29.7192 25.6H29.8192H29.9192H30.0192C30.1192 25.6 30.2192 25.6 30.2192 25.6H30.3192C30.4192 25.6 30.4192 25.7 30.5192 25.7L30.6192 25.8C30.6192 25.8 30.6192 25.9 30.7192 25.9C30.7192 25.9 30.7192 26 30.8192 26C30.8192 26.1 30.9192 26.2 30.9192 26.3C30.9192 26.4 30.9192 26.4 30.9192 26.5V26.6V26.7V26.6L30.8192 26.9C30.8192 26.9 30.8192 27 30.7192 27C30.7192 27 30.7192 27.1 30.6192 27.1C30.5192 27.3 30.4192 27.4 30.4192 27.6C30.4192 27.6 30.4192 27.6 30.3192 27.6H30.2192C30.1192 27.6 30.0192 27.6 29.9192 27.7H29.8192C29.8192 27.7 29.6192 27.7 29.8192 27.7C29.7192 27.7 29.6192 27.7 29.5192 27.7H29.4192C29.3192 27.7 29.2192 27.7 29.2192 27.6C29.1192 27.6 29.1192 27.5 29.0192 27.5C29.0192 27.5 28.9192 27.5 28.9192 27.4C28.9192 27.7 28.9192 27.7 28.8192 27.6Z" fill="#3D4F3D"/>
<path d="M40.6192 26.8C40.7192 25.5 39.7192 24.1 38.3192 23.9C37.5192 23.8 36.7192 24 36.1192 24.5C35.6192 24.9 35.3192 25.6 35.3192 26.3C35.2192 27.6 36.1192 28.9 37.5192 29.1C38.8192 29.3 40.7192 28.6 40.6192 27C40.6192 27 40.6192 27 40.6192 26.9C40.6192 26.9 40.6192 26.8 40.6192 26.8ZM39.3192 27.2C39.3192 27.2 39.3192 27.3 39.3192 27.2C39.2192 27.3 39.2192 27.3 39.2192 27.3L39.1192 27.4C39.1192 27.4 39.0192 27.4 39.0192 27.5C38.9192 27.5 38.8192 27.6 38.8192 27.6H38.7192H38.6192C38.3192 27.7 38.2192 27.7 37.9192 27.7C37.8192 27.7 37.7192 27.7 37.6192 27.7H37.5192H37.4192C37.3192 27.7 37.2192 27.6 37.2192 27.6C37.1192 27.6 37.1192 27.5 37.0192 27.5L36.9192 27.4C36.9192 27.3 36.8192 27.2 36.8192 27.2V27.1V27V26.9V26.8V26.7V26.6C36.8192 26.6 36.8192 26.5 36.9192 26.5C36.9192 26.4 37.0192 26.4 37.0192 26.3C37.0192 26.3 37.0192 26.3 37.0192 26.2L37.1192 26.1C37.1192 26 37.2192 26 37.2192 25.9C37.2192 25.9 37.2192 25.9 37.3192 25.8L37.4192 25.7C37.4192 25.7 37.5192 25.7 37.5192 25.6C37.5192 25.6 37.5192 25.6 37.6192 25.6C37.5192 25.6 37.5192 25.6 37.7192 25.5C37.7192 25.5 37.7192 25.5 37.8192 25.5H37.9192H38.0192H38.1192H38.2192H38.4192C38.5192 25.5 38.6192 25.5 38.7192 25.6C38.7192 25.6 38.7192 25.6 38.8192 25.6C38.9192 25.7 39.0192 25.7 39.0192 25.8C39.1192 25.9 39.2192 26.1 39.3192 26.3C39.4192 26.4 39.4192 26.4 39.4192 26.5C39.4192 26.6 39.4192 26.6 39.4192 26.7C39.4192 26.7 39.4192 26.9 39.4192 26.8C39.4192 26.9 39.4192 27 39.4192 27.1C39.4192 27.1 39.3192 27.2 39.3192 27.2C39.4192 27.1 39.3192 27.2 39.3192 27.2Z" fill="#3D4F3D"/>
<path d="M25.7192 8.40001C24.6192 7.60001 23.0192 7.50001 21.9192 6.60001C21.5192 6.30001 21.1192 5.7 21.5192 5.2C21.8192 4.9 22.4192 4.7 22.8192 4.5C23.8192 4 24.5192 3.00001 24.3192 1.90001C24.1192 0.800009 23.1192 0 21.9192 0C20.8192 0 20.8192 1.8 21.9192 1.8C22.3192 1.8 22.6192 2.20001 22.3192 2.60001C22.0192 2.90001 21.4192 3.1 21.0192 3.3C20.0192 3.8 19.3192 4.7 19.4192 6C19.5192 7.3 20.5192 8.2 21.6192 8.7C22.7192 9.2 24.9192 9.3 25.3192 10.7C25.7192 11.9 23.7192 12.2 22.9192 12.5C21.9192 12.9 20.8192 13.4 20.4192 14.4C19.4192 16.8 22.4192 19.1 24.6192 18.5C25.0192 18.4 25.1192 17.8 24.7192 17.6C24.1192 17.2 23.4192 17.2 22.8192 16.8C22.2192 16.5 21.5192 15.8 21.8192 15C22.2192 14 23.9192 13.9 24.8192 13.6C25.8192 13.2 26.8192 12.5 27.1192 11.4C27.4192 10.2 26.6192 9.10001 25.7192 8.40001Z" fill="#3D4F3D"/>
</svg>
