<svg width="49" height="48" viewBox="0 0 49 48" fill="none" xmlns="http://www.w3.org/2000/svg">
<path d="M18.7284 38.1593C18.7284 38.1593 18.5284 24.2593 10.7284 26.5593C2.92842 28.8593 13.1284 40.3593 13.1284 40.3593L18.7284 38.1593Z" fill="#E6E6E6"/>
<path d="M39.3284 42.4593C38.5284 40.8593 37.0284 39.5593 35.2284 39.1593C34.1284 38.9593 33.2284 39.0593 32.1284 39.2593C31.5284 39.3593 31.4284 39.0593 31.0284 38.5593C30.6284 38.0593 30.1284 37.6593 29.6284 37.1593C28.0284 35.8593 26.0284 34.9593 23.9284 35.2593C22.3284 35.5593 20.9284 36.5593 20.3284 38.0593C17.3284 36.1593 13.2284 37.6593 12.3284 41.1593C9.02842 40.8593 6.32842 43.5593 6.82842 46.8593C6.82842 47.1593 7.22842 47.3593 7.52842 47.3593C19.2284 47.2593 30.8284 47.6593 42.5284 46.9593C42.9284 46.9593 43.1284 46.6593 43.1284 46.2593C43.9284 43.8593 41.7284 41.7593 39.3284 42.4593Z" fill="#999999"/>
<path d="M40.0284 42.5594C39.1284 40.7594 37.6284 39.4594 35.6284 39.0594C34.5284 38.7594 33.5284 38.9594 32.3284 39.1594C31.6284 39.2594 31.5284 38.9594 31.1284 38.4594C30.6284 37.9594 30.2284 37.4594 29.6284 36.9594C27.9284 35.5594 25.8284 34.5594 23.6284 34.8594C21.9284 35.1594 20.4284 36.2594 19.7284 37.8594C16.5284 35.8594 12.2284 37.3594 11.2284 41.1594C7.72842 40.7594 4.82842 43.6594 5.32842 47.2594C5.42842 47.5594 5.72842 47.8594 6.02842 47.8594C18.4284 47.7594 30.8284 48.1594 43.2284 47.4594C43.6284 47.4594 43.9284 47.0594 43.9284 46.7594C45.0284 44.0594 42.6284 41.8594 40.0284 42.5594ZM6.92842 46.2594C7.02842 43.7594 8.92842 41.8594 11.6284 42.4594C11.9284 42.5594 12.3284 42.3594 12.4284 42.0594C12.9284 38.5594 16.9284 36.8594 19.7284 39.1594C20.0284 39.4594 20.6284 39.3594 20.7284 38.8594C21.2284 36.2594 23.9284 35.4594 26.2284 36.0594C28.4284 36.6594 30.1284 38.3594 31.5284 40.1594C31.6284 40.2594 31.8284 40.3594 32.0284 40.2594C34.9284 39.1594 38.2284 40.3594 39.4284 43.2594C39.5284 43.4594 39.7284 43.7594 40.0284 43.6594C41.8284 42.9594 43.5284 44.2594 43.4284 46.0594C31.2284 45.9594 19.0284 46.5594 6.92842 46.2594Z" fill="#3D4F3D"/>
<path d="M47.4284 15.5593C47.4284 15.5593 47.1284 21.4593 42.6284 22.7593C38.1284 24.1593 34.6284 21.0593 34.6284 21.0593C34.6284 21.0593 35.6284 18.7593 40.0284 18.0593C44.4284 17.3593 47.4284 15.5593 47.4284 15.5593Z" fill="#39B54A"/>
<path d="M40.4284 1.15936C40.4284 1.15936 39.6284 4.05936 39.7284 8.15936C39.7284 12.2594 36.0284 14.8594 33.4284 15.2594C30.8284 15.6594 28.3284 14.5594 28.3284 14.5594C28.3284 14.5594 29.2284 8.15936 32.8284 4.85936C36.4284 1.65936 40.4284 1.15936 40.4284 1.15936Z" fill="#39B54A"/>
<path d="M15.4284 5.35931C15.4284 5.35931 18.0284 7.95932 21.1284 10.9593C24.2284 13.9593 24.6284 19.9593 24.6284 19.9593C24.6284 19.9593 20.2284 17.4593 18.1284 15.4593C13.9284 11.2593 15.4284 5.35931 15.4284 5.35931Z" fill="#39B54A"/>
<path d="M40.6284 0.0593363C37.5284 1.35934 34.3284 2.05934 31.8284 4.55934C29.4284 6.85934 28.2284 10.0593 27.8284 13.3593C27.3284 17.2593 27.4284 21.1593 27.5284 25.0593C27.6284 29.1593 27.8284 33.1593 28.7284 37.0593C28.9284 37.8593 30.0284 37.4593 29.9284 36.7593C29.3284 33.1593 29.1284 29.4593 29.0284 25.7593C29.0284 22.2593 28.9284 18.6593 29.3284 15.1593C29.7284 12.0593 30.7284 8.75934 32.9284 6.45934C34.6284 4.55934 37.0284 3.15934 39.4284 2.25934C38.8284 4.55934 39.6284 7.05934 38.9284 9.35934C37.8284 13.2593 34.2284 15.4593 30.2284 14.8593C29.7284 14.7593 29.1284 15.2593 29.5284 15.3593C33.0284 16.6593 37.5284 15.5593 39.7284 12.4593C40.8284 10.9593 41.2284 9.05934 41.1284 7.25934C41.0284 5.25934 40.6284 3.25934 41.5284 1.35934C41.8284 0.659336 41.3284 -0.240664 40.6284 0.0593363Z" fill="#3D4F3D"/>
<path d="M37.3284 6.05931C37.2284 5.55931 36.6284 5.25931 36.1284 5.35931C33.9284 6.15931 32.1284 7.65931 30.8284 9.55931C30.2284 10.4593 29.7284 11.4593 29.4284 12.5593C29.3284 12.9593 28.6284 15.7593 29.8284 15.1593C30.2284 14.9593 30.2284 14.2593 30.3284 13.9593C30.4284 13.4593 30.5284 13.0593 30.7284 12.5593C31.0284 11.7593 31.5284 10.8593 32.1284 10.1593C35.7284 5.85931 37.4284 6.55931 37.3284 6.05931Z" fill="#3D4F3D"/>
<path d="M46.8284 14.9594C45.5284 16.5594 43.1284 16.8594 41.3284 17.1594C39.3284 17.4594 37.4284 17.9594 35.6284 18.9594C32.4284 20.9594 29.9284 23.9594 27.8284 27.0594C27.4284 27.6594 28.3284 28.4594 28.9284 27.8594C31.5284 25.0594 34.0284 21.9594 37.6284 20.2594C40.4284 18.8594 43.9284 18.9594 46.5284 17.2594C46.1284 18.8594 45.2284 20.2594 43.9284 21.2594C42.0284 22.6594 38.4284 23.5594 35.9284 21.4594C35.5284 21.1594 34.4284 21.6594 34.8284 21.9594C41.6284 27.6594 48.3284 21.1594 48.2284 15.3594C48.2284 14.4594 47.2284 14.3594 46.8284 14.9594Z" fill="#3D4F3D"/>
<path d="M35.8284 22.0593C37.2284 22.2593 38.6284 22.5593 40.0284 22.0593C40.6284 21.8593 41.1284 21.6593 41.6284 21.2593C41.8284 21.0593 42.0284 20.8593 42.2284 20.6593C42.4284 20.4593 42.5284 20.0593 42.2284 19.9593C42.0284 19.8593 41.7284 19.9593 41.6284 20.1593C41.4284 20.3593 41.2284 20.4593 41.0284 20.5593C40.6284 20.7593 40.1284 20.9593 39.6284 21.0593C38.4284 21.2593 37.3284 21.0593 36.1284 20.8593C35.7284 20.7593 35.4284 20.9593 35.3284 21.3593C35.3284 21.5593 35.5284 22.0593 35.8284 22.0593Z" fill="#3D4F3D"/>
<path d="M28.8284 24.0593C27.8284 19.6593 23.3284 18.1593 20.0284 15.8593C16.8284 13.7593 15.2284 9.95931 15.7284 6.25931C17.0284 8.05931 18.7284 9.45931 20.3284 10.9593C21.4284 11.9593 22.4284 12.9593 23.1284 14.1593C23.9284 15.4593 24.0284 17.2593 24.4284 18.7593C24.5284 19.0593 25.0284 19.2593 25.0284 18.9593C25.8284 16.2593 23.8284 12.6593 22.1284 10.8593C20.0284 8.65932 17.4284 6.95931 16.0284 4.15931C15.7284 3.65931 15.0284 3.85931 14.8284 4.35931C13.3284 8.15931 14.3284 12.7593 17.3284 15.5593C20.5284 18.4593 26.4284 19.6593 27.5284 24.3593C27.7284 25.2593 29.0284 24.8593 28.8284 24.0593Z" fill="#3D4F3D"/>
<path d="M24.6284 18.1593C24.5284 17.8593 24.3284 17.7593 24.1284 17.5593C23.8284 17.3593 23.6284 17.0593 23.3284 16.8593C22.8284 16.3593 22.4284 15.8593 22.0284 15.3593C21.2284 14.2593 20.6284 13.0593 20.2284 11.7593C20.1284 11.4593 19.7284 11.3593 19.4284 11.4593C19.1284 11.5593 19.0284 11.9593 19.1284 12.2593C19.5284 13.6593 20.2284 14.9593 21.1284 16.0593C21.6284 16.6593 22.1284 17.1593 22.7284 17.6593C23.0284 17.8593 23.2284 18.0593 23.5284 18.2593C23.8284 18.4593 24.1284 18.6593 24.4284 18.5593C24.4284 18.5593 24.5284 18.5593 24.5284 18.6593C24.7284 18.7593 24.7284 18.1593 24.6284 18.1593Z" fill="#3D4F3D"/>
<path d="M9.32843 23.5593C9.32843 23.5593 12.6284 28.3593 13.1284 30.8593C13.5284 33.3593 12.3284 32.4593 11.2284 31.6593C10.1284 30.8593 7.32843 24.5593 7.32843 24.5593L9.32843 23.5593Z" fill="#999999"/>
<path d="M19.5284 33.8593C19.3284 32.5593 19.1284 31.3593 18.5284 30.2593C17.6284 28.2593 16.0284 26.5593 13.9284 25.8593C11.8284 25.2593 9.52842 25.6593 8.02842 27.3593C6.52842 29.1593 6.22842 31.5593 6.92842 33.7593C7.82842 36.4593 9.82842 38.5593 11.8284 40.4593C12.6284 41.2593 13.9284 39.9593 13.1284 39.1593C11.6284 37.7593 10.1284 36.2593 9.12842 34.4593C8.32842 32.8593 8.12842 30.8593 8.92842 29.2593C9.72842 27.7593 11.3284 27.1593 12.9284 27.5593C14.6284 28.0593 15.8284 29.3593 16.5284 30.9593C16.9284 31.9593 17.2284 33.0593 17.4284 34.1593C17.5284 34.7593 17.6284 35.3593 17.7284 35.9593C17.8284 36.5593 17.8284 37.2593 18.0284 37.8593C18.2284 38.4593 19.1284 38.4593 19.2284 37.8593C19.7284 36.5593 19.7284 35.0593 19.5284 33.8593Z" fill="#3D4F3D"/>
<path d="M13.2284 29.5594C13.0284 29.0594 12.8284 28.6594 12.6284 28.1594C12.5284 27.9594 12.4284 27.6594 12.3284 27.4594C12.2284 27.2594 12.0284 26.9594 11.8284 26.8594C11.6284 26.7594 11.4284 26.8594 11.4284 27.0594C11.4284 27.2594 11.5284 27.5594 11.5284 27.7594C11.6284 27.9594 11.6284 28.2594 11.7284 28.4594C11.9284 28.9594 12.0284 29.3594 12.2284 29.8594C12.4284 30.2594 12.5284 30.7594 12.7284 31.1594C12.8284 31.3594 12.9284 31.8594 12.7284 31.9594C12.5284 32.0594 12.2284 31.8594 12.1284 31.6594C11.8284 31.3594 10.2284 29.0594 9.72842 28.1594C9.52842 27.7594 9.32842 27.2594 8.92842 27.4594C8.52842 27.6594 8.32842 28.2594 8.62842 28.5594C9.12842 29.3594 9.72842 30.1594 10.2284 30.8594C10.6284 31.5594 11.1284 32.4594 11.8284 32.7594C12.6284 33.1594 13.6284 32.8594 13.9284 31.9594C14.1284 31.1594 13.6284 30.2594 13.2284 29.5594Z" fill="#3D4F3D"/>
<path d="M11.8284 26.2593C11.7284 26.0593 10.5284 23.7593 10.3284 23.3593C9.92843 22.5593 9.52843 21.6593 8.62843 21.4593C7.62843 21.1593 6.82843 21.9593 6.62843 22.8593C6.42843 23.8593 6.92843 24.8593 7.32843 25.7593C7.52843 26.2593 7.82843 26.6593 8.02843 27.1593C8.32843 27.5593 8.62843 28.2593 9.02843 28.4593C9.52843 28.7593 10.0284 28.2593 9.92843 27.7593C9.82843 27.4593 9.02843 26.9593 8.92843 26.7593C8.32843 25.4593 8.22843 24.3593 8.02843 23.8593C7.92843 23.5593 7.82843 23.0593 8.02843 22.8593C8.12843 22.7593 8.22843 22.6593 8.52843 22.7593C8.82843 22.8593 9.12843 23.2593 9.32843 23.5593C9.62843 23.9593 10.5284 26.3593 10.6284 26.5593C10.8284 26.7593 11.8284 26.3593 11.8284 26.2593Z" fill="#3D4F3D"/>
<path d="M2.22842 10.9593C0.328422 11.7593 2.52842 22.0593 5.42842 23.6593C8.32842 25.2593 10.3284 22.8593 10.2284 21.0593C10.1284 19.3593 4.62842 9.95934 2.22842 10.9593Z" fill="#FF1D25"/>
<path d="M8.02843 14.8594C7.12843 13.4594 6.32843 11.7594 4.92843 10.7594C3.62843 9.85935 1.82843 9.95935 0.828427 11.2594C-0.171573 12.5594 -0.171573 14.1594 0.328427 15.6594C0.928427 17.4594 1.82843 19.2594 2.72843 20.9594C3.32843 22.0594 3.92843 23.1594 4.92843 23.8594C5.22843 24.2594 5.72843 24.4594 6.22843 24.6594C7.52843 25.1594 9.02843 24.7593 9.92843 23.7593C12.3284 21.0593 9.52843 17.1594 8.02843 14.8594ZM2.72843 16.4594C2.22843 15.4594 1.52843 14.2594 1.82843 13.0594C2.02843 11.9594 2.92843 11.3594 3.92843 11.9594C4.92843 12.5594 5.52843 13.7594 6.22843 14.7594C7.02843 15.8594 7.82843 16.9594 8.52843 18.0594C9.22843 19.0594 9.92843 20.1594 9.72843 21.4594C9.72843 21.6594 9.62843 22.3594 9.32843 22.6594C8.52843 23.6594 7.22843 23.7594 6.32843 23.1594C5.32843 22.5594 4.82843 21.3594 4.42843 20.3594C3.82843 18.9594 3.22843 17.7594 2.72843 16.4594Z" fill="#3D4F3D"/>
</svg>
