<svg width="47" height="49" viewBox="0 0 47 49" fill="none" xmlns="http://www.w3.org/2000/svg">
<path d="M9.97578 24.9L6.67578 35.6L7.57578 47.1L42.5758 46.2L43.1758 36.6L41.1758 26.6L40.1758 24.9H9.97578Z" fill="#E6E6E6"/>
<path d="M44.2759 36.5C44.1759 34.7 43.8759 32.9 43.4759 31.1C43.2759 30.2 43.0759 29.3 42.7759 28.4C42.5759 27.7 42.3759 26.9 41.5759 26.5C41.3759 26.4 41.1759 26.4 41.0759 26.6C40.6759 27.3 40.8759 27.9 41.0759 28.7C41.2759 29.6 41.4759 30.5 41.6759 31.4C41.9759 33.2 42.1759 34.9 42.2759 36.7C42.3759 38.4 42.3759 40.2 42.2759 41.9C42.1759 42.8 42.1759 43.7 41.9759 44.6C41.8759 45.1 41.7759 45.6 41.7759 46.1C39.3759 45.9 36.8759 46 34.4759 45.9C31.5759 45.9 28.6759 45.9 25.7759 45.9C20.0759 45.9 8.57594 45.9 8.47594 45.9C7.67594 45.2 7.67594 43.6 7.57594 42.4C7.47594 40.7 7.47594 39 7.57594 37.4C7.67594 35.7 7.97595 34 8.37595 32.3C8.57595 31.5 8.77594 30.7 9.07594 29.9C9.37594 29 9.57595 28.1 9.87595 27.2C10.0759 26.8 9.37594 26.5 9.17594 26.9C8.57594 27.8 8.07594 28.7 7.67594 29.7C7.27594 30.7 6.87594 31.7 6.67594 32.8C6.07594 35 5.77594 37.2 5.57594 39.4C5.47594 41.4 5.47594 43.8 6.07594 45.8C6.67594 47.5 7.17594 48.2 10.2759 48.2C15.4759 48.2 20.6759 48.2 25.8759 48.1C28.6759 48.1 31.4759 48.1 34.2759 48.1C37.0759 48.1 39.9759 48.2 42.6759 47.9C42.9759 47.9 43.2759 47.4 43.3759 47.4C43.9759 46.7 43.9759 45.8 44.0759 45C44.1759 44.1 44.2759 43.3 44.3759 42.4C44.3759 40.3 44.3759 38.4 44.2759 36.5Z" fill="#3D4F3D"/>
<path d="M30.176 30.1L35.876 25.9L38.176 15.1L36.576 2.49998L14.176 2.09998L13.876 22.1L16.376 27L20.076 30.1H30.176Z" fill="white"/>
<path d="M9.97603 24.8999H40.076C40.076 24.8999 43.776 23.6 43.576 20.5C43.376 17.4 37.876 15.7 37.876 15.7L9.97603 16C9.97603 16 5.17602 18 5.77602 21.2C6.37602 24.4 9.97603 24.8999 9.97603 24.8999Z" fill="#999999"/>
<path d="M45.9758 19.6C45.9758 19.5 45.8758 19.5 45.8758 19.4C45.7758 19.3 45.6758 19.2 45.5758 19.1C45.3758 18.9 45.1758 18.7 44.8758 18.7C44.5758 18.6 44.2758 18.6 43.9758 18.7C43.7758 18.2 43.5758 17.7 43.2758 17.3C42.0758 15.6 40.0758 15 37.9758 14.7C38.0758 12.7 38.0758 10.8 38.1758 8.80001C38.2758 7.00001 38.3758 7.10001 38.2758 5.20001C38.1758 3.80001 37.7758 2.5 36.6758 1.6C35.3758 0.599999 33.5758 0.600002 31.9758 0.400002C27.9758 2.26498e-06 23.8758 -0.100001 19.8758 0.0999992C17.0758 0.199999 12.7758 -0.299992 12.4758 3.50001C12.2758 5.70001 12.3758 5.9 12.3758 8.1C12.3758 10.2 12.2758 12.3 12.4758 14.3C9.5758 14.5 6.67579 15.6 5.27579 18.3C5.17579 18.5 5.0758 18.8 4.9758 19C3.7758 18.8 2.4758 19.8 2.1758 21C1.8758 21.9 2.07579 22.9 2.27579 23.8C2.37579 24.9 2.5758 25.9 2.6758 26.9C2.8758 27.8 2.9758 28.8 3.0758 29.7C3.1758 30.4 3.2758 31.2 2.6758 31.6C1.6758 32.4 -0.424203 32.9 0.0757974 34.7C0.175797 35.2 0.675796 35.4 1.1758 35.3C1.7758 35.2 2.1758 34.8 2.6758 34.4C3.1758 34.1 3.6758 33.8 4.0758 33.4C5.1758 32.4 5.4758 31 5.3758 29.6C5.2758 27.9 5.0758 26.2 4.8758 24.6C4.7758 23.8 4.5758 23.1 4.5758 22.3C4.5758 22.1 4.4758 21.6 4.6758 21.4C4.8758 22.8 5.7758 24.2 7.1758 25C9.3758 26.3 12.1758 26.3 14.7758 26.2C14.7758 27.9 16.8758 29.4 18.1758 30C20.2758 30.9 22.4758 31 24.7758 31C28.7758 31 33.9758 30.6 35.5758 26.2C35.5758 26.1 35.6758 26 35.5758 25.8C37.2758 25.7 39.1758 25.8 40.7758 25.2C42.2758 24.7 43.2758 23.5 43.7758 22C43.8758 22 43.8758 22 43.9758 22C44.1758 22 44.3758 22 44.5758 21.9C44.9758 21.7 45.4758 21.5 45.6758 21C45.7758 20.7 45.8758 20.5 45.8758 20.2C46.1758 20.1 46.0758 19.8 45.9758 19.6ZM44.3758 20.2C44.2758 20.2 44.2758 20.2 44.3758 20.2V20.2ZM16.0758 2.6C16.9758 2.5 17.9758 2.50001 18.9758 2.50001C21.0758 2.50001 23.2758 2.5 25.3758 2.6C27.4758 2.7 29.6758 2.8 31.7758 2.9C33.3758 3 36.0758 2.70001 36.5758 4.70001C36.7758 5.60001 36.5758 7.4 36.5758 8.4C36.5758 10.5 36.4758 12.6 36.4758 14.7C36.2758 14.7 35.9758 14.7 35.7758 14.7C31.8758 14.6 27.8758 14.6 23.9758 14.5C20.7758 14.5 17.5758 14.3 14.3758 14.4C14.9758 10.5 14.7758 8.40001 14.8758 4.50001C14.8758 3.40001 14.8758 2.8 16.0758 2.6ZM30.6758 28.9C28.7758 29.5 26.8758 29.3 24.8758 29.2C23.0758 29.1 21.1758 29 19.5758 28.3C18.8758 28 18.0758 27.6 17.5758 27.1C17.2758 26.8 16.9758 26.5 16.7758 26.2C17.0758 26.2 17.3758 26.2 17.7758 26.2C21.5758 26.2 25.3758 26.1 29.1758 26.1C30.8758 26.1 32.4758 26 34.1758 26C33.4758 27.4 32.0758 28.4 30.6758 28.9ZM42.1758 23.4C41.1758 24.4 39.5758 24.6 38.1758 24.6C35.2758 24.7 32.3758 24.5 29.4758 24.5C26.4758 24.5 23.5758 24.5 20.5758 24.5C17.6758 24.5 14.7758 24.6 11.8758 24.5C9.5758 24.4 6.07579 23.2 6.77579 20.2C7.37579 17.5 10.3758 16.7 12.6758 16.6C15.4758 16.4 18.3758 16.6 21.1758 16.6C24.1758 16.6 27.1758 16.6 30.0758 16.6C32.9758 16.6 36.2758 16.2 39.1758 16.9C40.4758 17.2 41.5758 17.5 42.2758 18.7C42.2758 18.8 42.7758 19.4 42.7758 20.9C42.7758 22.4 42.1758 23.3 42.1758 23.4ZM44.3758 20.3C44.2758 20.3 44.2758 20.3 44.3758 20.3C44.2758 20.3 44.2758 20.2 44.3758 20.3C44.3758 20.2 44.3758 20.2 44.3758 20.3Z" fill="#3D4F3D"/>
<path d="M15.1757 34.5C15.1757 34.4 15.1757 34.3 15.1757 34.3C15.1757 34.2 15.0757 34.2 15.0757 34.1C15.0757 34 14.9757 34 14.9757 33.9L14.8757 33.8L14.7757 33.7L14.5757 33.6H14.4757H14.3757C14.2757 33.6 14.2757 33.6 14.1757 33.6C14.0757 33.6 13.9757 33.7 13.8757 33.7C13.7757 33.7 13.7757 33.8 13.7757 33.8C13.6757 33.9 13.6757 34 13.6757 34.1V34.2C13.6757 34.3 13.5757 34.4 13.5757 34.5C13.5757 34.6 13.5757 34.7 13.5757 34.8V34.9V35C13.5757 35.1 13.6757 35.2 13.6757 35.3C13.7757 35.4 13.6757 35.4 13.7757 35.4L13.8757 35.5C13.8757 35.5 13.9757 35.5 13.9757 35.6C14.0757 35.6 14.0757 35.7 14.1757 35.7H14.2757H14.3757C14.4757 35.7 14.4757 35.7 14.5757 35.7C14.6757 35.7 14.6757 35.6 14.7757 35.6C14.8757 35.6 14.8757 35.5 14.9757 35.5C15.0757 35.4 15.0757 35.4 15.1757 35.3C15.1757 35.2 15.2757 35.2 15.2757 35.1C15.1757 34.7 15.1757 34.6 15.1757 34.5Z" fill="#3D4F3D"/>
<path d="M20.7757 34.1C20.6757 34 20.6757 33.9 20.5757 33.9C20.4757 33.8 20.3757 33.8 20.2757 33.7C20.1757 33.7 20.0757 33.6 20.0757 33.6C20.0757 33.6 20.0757 33.6 19.9757 33.6C19.9757 33.6 19.9757 33.6 19.8757 33.6C19.7757 33.6 19.6757 33.6 19.5757 33.6C19.4757 33.6 19.3757 33.6 19.2757 33.6C19.2757 33.6 19.2757 33.6 19.1757 33.6C19.0757 33.6 18.9757 33.7 18.8757 33.8C18.7757 33.9 18.7757 34 18.6757 34C18.5757 34.1 18.5757 34.1 18.5757 34.3C18.5757 34.4 18.5757 34.5 18.6757 34.6C18.6757 34.7 18.7757 34.7 18.8757 34.8C18.8757 34.8 18.9757 34.8 18.9757 34.9L19.0757 35C19.0757 35 19.1757 35.1 19.2757 35.1C19.2757 35.1 19.3757 35.2 19.4757 35.2C19.5757 35.2 19.5757 35.2 19.6757 35.2H19.7757C19.9757 35.2 20.0757 35.2 20.2757 35.1C20.3757 35.1 20.3757 35 20.4757 35C20.5757 34.9 20.5757 34.9 20.6757 34.8C20.7757 34.7 20.7757 34.6 20.7757 34.4C20.8757 34.4 20.8757 34.2 20.7757 34.1Z" fill="#3D4F3D"/>
<path d="M26.4756 34.2C26.4756 34.1 26.3756 34 26.3756 33.8C26.3756 33.7 26.2756 33.7 26.1756 33.6C26.1756 33.6 26.1756 33.6 26.0756 33.5C25.9756 33.5 25.9756 33.4001 25.8756 33.4001C25.7756 33.4001 25.7756 33.3 25.6756 33.3C25.5756 33.3 25.4756 33.3 25.3756 33.3C25.2756 33.3 25.1756 33.3 25.0756 33.3C24.9756 33.3 24.7756 33.4 24.6756 33.5C24.6756 33.5 24.5756 33.6 24.5756 33.7C24.5756 33.7 24.5756 33.7 24.4756 33.7C24.3756 33.7 24.3756 33.8 24.2756 33.8C24.1756 33.9 24.1756 33.9 24.0756 34C24.0756 34.1 23.9756 34.2 23.9756 34.2C23.9756 34.3 23.9756 34.4 23.9756 34.5V34.6C23.9756 34.6 23.9756 34.6 23.9756 34.7C23.9756 34.8 24.0756 34.9 24.0756 35C24.0756 35.1 24.1756 35.1 24.1756 35.2C24.2756 35.3 24.2756 35.3001 24.3756 35.4001C24.4756 35.4001 24.5756 35.5 24.6756 35.5C24.6756 35.5 24.6756 35.5 24.7756 35.5C24.8756 35.5 24.9756 35.5 25.0756 35.5C25.0756 35.5 25.0756 35.5 25.1756 35.5C25.2756 35.5 25.3756 35.5 25.4756 35.5C25.5756 35.5 25.6756 35.4001 25.7756 35.4001L25.8756 35.3L25.9756 35.2C26.0756 35.1 26.0756 35.1 26.1756 35C26.1756 35 26.1756 35.0001 26.1756 34.9001C26.1756 34.8001 26.2756 34.7 26.2756 34.7C26.2756 34.7 26.2756 34.6 26.2756 34.5C26.2756 34.5 26.2756 34.4 26.2756 34.3C26.5756 34.5 26.4756 34.3 26.4756 34.2Z" fill="#3D4F3D"/>
<path d="M32.376 34.3C32.376 34.2 32.276 34.1 32.276 34C32.276 33.9 32.076 33.8 32.076 33.8C31.976 33.7 31.776 33.6 31.676 33.6C31.576 33.6 31.476 33.6 31.476 33.6C31.376 33.6 31.276 33.6 31.276 33.6C31.276 33.6 31.276 33.6 31.176 33.6H31.076C31.076 33.6 31.076 33.6 30.976 33.6C30.876 33.6 30.776 33.7 30.676 33.7C30.576 33.8 30.476 33.8 30.476 33.9C30.376 34 30.376 34 30.376 34.1V34.2V34.3C30.376 34.5 30.276 34.6 30.376 34.8C30.376 34.9 30.476 35 30.476 35C30.576 35.1 30.576 35.2 30.676 35.2C30.876 35.4 30.876 35.4 31.176 35.5C31.276 35.5 31.376 35.5 31.476 35.5C31.576 35.5 31.676 35.5 31.776 35.5C31.976 35.4 32.076 35.4 32.276 35.2C32.376 35.1 32.376 35 32.476 35C32.576 34.8 32.576 34.7 32.576 34.5C32.376 34.5 32.376 34.4 32.376 34.3Z" fill="#3D4F3D"/>
<path d="M37.7759 34C37.6759 33.9 37.5759 33.7 37.3759 33.6C37.1759 33.5 37.0759 33.5 36.8759 33.5C36.8759 33.5 36.8759 33.5 36.7759 33.5C36.6759 33.5 36.5759 33.5 36.4759 33.5C36.2759 33.6 36.1759 33.6 36.0759 33.7C35.9759 33.8 35.9759 33.9 35.8759 33.9C35.7759 34.1 35.7759 34.2 35.7759 34.4C35.7759 34.5 35.7759 34.6 35.7759 34.7V34.8V34.9C35.7759 35 35.8759 35.1 35.9759 35.1C36.0759 35.2 36.1759 35.2 36.1759 35.3C36.2759 35.3 36.3759 35.4 36.3759 35.4C36.4759 35.4 36.5759 35.4 36.6759 35.4C36.7759 35.4 36.8759 35.4 36.9759 35.4C37.0759 35.4 37.1759 35.3 37.2759 35.3C37.3759 35.2 37.5759 35.1 37.6759 34.9C37.7759 34.7 37.7759 34.6 37.7759 34.4C37.8759 34.4 37.8759 34.2 37.7759 34Z" fill="#3D4F3D"/>
<path d="M37.6758 39.8C37.6758 39.7 37.5758 39.6 37.5758 39.5C37.4758 39.4 37.4758 39.3 37.3758 39.3C37.2758 39.2 37.1758 39.2 37.0758 39.1C36.9758 39.1 36.8758 39.1 36.8758 39.1C36.7758 39.1 36.6758 39.1 36.5758 39.2H36.4758C36.3758 39.2 36.2758 39.2 36.2758 39.2C36.1758 39.2 36.1758 39.2 36.0758 39.3C35.9758 39.3 35.9758 39.4 35.9758 39.4L35.8758 39.5L35.7758 39.6C35.7758 39.6 35.6758 39.7 35.6758 39.8C35.6758 39.9 35.6758 39.9 35.6758 40C35.6758 40.1 35.6758 40.2 35.6758 40.2C35.6758 40.3 35.7758 40.3 35.7758 40.4C35.7758 40.5 35.8758 40.5 35.8758 40.6C35.9758 40.7 35.9758 40.7 36.0758 40.8C36.1758 40.8 36.1758 40.9 36.2758 40.9C36.3758 40.9 36.3758 40.9 36.4758 40.9C36.5758 40.9 36.6758 40.9 36.6758 40.9C36.6758 40.9 36.6758 40.9 36.7758 40.9C36.8758 40.9 36.9758 40.8 37.0758 40.8C37.1758 40.8 37.1758 40.7 37.2758 40.6C37.3758 40.5 37.3758 40.5 37.4758 40.4L37.5758 40.3V40.2C37.6758 40.1 37.6758 40 37.6758 39.9C37.6758 40 37.6758 39.9 37.6758 39.8Z" fill="#3D4F3D"/>
<path d="M14.7758 39.9V39.7C14.7758 39.6 14.6758 39.6 14.6758 39.5C14.6758 39.4 14.5758 39.4 14.5758 39.3C14.4758 39.2 14.4758 39.2 14.3758 39.2C14.2758 39.2 14.2758 39.1 14.1758 39.1H13.9758H13.8758C13.7758 39.1 13.7758 39.1 13.6758 39.2H13.5758C13.4758 39.2 13.4758 39.3 13.3758 39.3C13.2758 39.4 13.1758 39.5 13.1758 39.7C13.1758 39.8 13.1758 39.9 13.1758 40C13.1758 40 13.1758 40.1 13.1758 40.2C13.1758 40.2 13.1758 40.3 13.1758 40.4C13.1758 40.5 13.1758 40.5 13.2758 40.6L13.3758 40.7L13.4758 40.8C13.5758 40.8 13.5758 40.9 13.6758 40.9C13.7758 40.9 13.7758 40.9 13.8758 40.9C13.9758 40.9 13.9758 40.9 14.0758 40.9C14.0758 40.9 14.0758 40.9 14.1758 40.9C14.2758 40.9 14.2758 40.9 14.3758 40.8C14.5758 40.7 14.5758 40.7 14.6758 40.5C14.6758 40.4 14.7758 40.4 14.7758 40.3C14.7758 40.1 14.7758 40 14.7758 39.9Z" fill="#3D4F3D"/>
<path d="M19.1757 39.5C20.0757 39.1 21.1757 39.1 22.1757 39C23.1757 38.9 24.0757 38.9 25.0757 38.8C27.0757 38.7 29.0757 38.7 31.0757 38.6C32.4757 38.6 32.4757 40.7 31.0757 40.8C29.0757 40.9 27.0757 41 25.0757 41.1C23.1757 41.1 21.0757 41.4 19.1757 40.8C18.4757 40.6 18.5757 39.7 19.1757 39.5Z" fill="#3D4F3D"/>
</svg>
