<svg width="49" height="49" viewBox="0 0 49 49" fill="none" xmlns="http://www.w3.org/2000/svg">
<path d="M46.876 20.7033C45.276 9.50332 34.776 1.20332 23.676 1.40332C23.476 1.40332 23.376 1.50332 23.276 1.60332C15.476 2.00332 7.87597 6.50332 4.07597 13.4033C-0.624029 21.9033 0.975971 33.3033 7.57597 40.4033C14.376 47.7033 25.976 49.4033 34.776 45.0033C43.476 40.6033 48.376 30.2033 46.876 20.7033Z" fill="#39B54A"/>
<path d="M35.476 19.1033C35.476 18.8033 35.176 18.5033 34.876 18.5033C33.076 18.6033 31.276 18.6033 29.476 18.7033C29.476 17.4033 29.476 16.2033 29.476 14.9033C29.376 13.7033 28.576 13.0033 27.376 13.0033C24.476 13.0033 21.576 13.2033 18.776 13.3033C18.476 13.3033 18.176 13.6033 18.176 13.9033C18.176 14.7033 18.176 15.6033 18.176 16.4033C18.176 17.1033 18.176 17.7033 18.176 18.4033C16.476 18.5033 14.776 18.5033 12.976 18.6033C12.676 18.6033 12.376 18.9033 12.376 19.2033C12.376 22.5033 12.376 25.9033 12.376 29.2033C12.376 29.5033 12.676 29.8033 12.976 29.8033C14.776 29.7033 16.576 29.7033 18.376 29.6033C18.376 30.9033 18.376 32.1033 18.376 33.4033C18.476 34.6033 19.276 35.3033 20.476 35.3033C23.376 35.3033 26.276 35.1033 29.076 35.0033C29.376 35.0033 29.676 34.7033 29.676 34.4033C29.676 33.6033 29.676 32.7033 29.676 31.9033C29.676 31.2033 29.676 30.5033 29.676 29.9033C31.376 29.8033 33.076 29.8033 34.876 29.7033C35.176 29.7033 35.476 29.4033 35.476 29.1033C35.576 25.8033 35.476 22.5033 35.476 19.1033Z" fill="white"/>
<path d="M35.9761 18.9034C35.9761 18.6034 35.6761 18.3034 35.3761 18.3034C33.4761 18.4034 31.5761 18.4034 29.7761 18.5034C29.7761 17.2034 29.7761 15.9034 29.7761 14.6034C29.6761 13.3034 28.8761 12.6034 27.5761 12.6034C24.5761 12.6034 21.5761 12.8034 18.5761 12.9034C18.2761 12.9034 17.9761 13.2034 17.9761 13.5034C17.9761 14.4034 17.9761 15.2034 17.9761 16.1034C17.9761 16.8034 17.9761 17.5034 17.9761 18.2034C16.1761 18.3034 14.3761 18.3034 12.5761 18.4034C12.2761 18.4034 11.9761 18.7034 11.9761 19.0034C11.9761 22.5034 11.9761 26.0034 11.9761 29.5034C11.9761 29.8034 12.2761 30.1034 12.5761 30.1034C14.4761 30.0034 16.3761 30.0034 18.1761 29.9034C18.1761 31.2034 18.1761 32.6034 18.1761 33.9034C18.2761 35.2034 19.0761 35.9034 20.3761 35.9034C23.3761 35.9034 26.3761 35.7034 29.3761 35.6034C29.6761 35.6034 29.9761 35.3034 29.9761 35.0034C29.9761 34.1034 29.9761 33.3034 29.9761 32.4034C29.9761 31.7034 29.9761 31.0034 29.9761 30.3034C31.7761 30.2034 33.5761 30.2034 35.3761 30.1034C35.6761 30.1034 35.9761 29.8034 35.9761 29.5034C36.0761 25.9034 35.9761 22.4034 35.9761 18.9034ZM34.7761 28.8034C32.8761 28.9034 31.0761 29.0034 29.1761 29.1034C28.5761 29.1034 28.4761 29.8034 28.7761 30.1034C28.7761 30.8034 28.7761 31.6034 28.7761 32.3034C28.7761 33.0034 28.7761 33.6034 28.7761 34.3034C26.3761 34.4034 23.9761 34.5034 21.5761 34.5034C21.0761 34.5034 20.4761 34.6034 19.9761 34.5034C19.3761 34.4034 19.3761 33.8034 19.3761 33.3034C19.3761 32.0034 19.3761 30.7034 19.2761 29.3034C19.2761 29.0034 19.0761 28.6034 18.3761 28.6034C16.5761 28.6034 14.7761 28.7034 13.0761 28.8034C13.0761 25.7034 13.0761 22.6034 13.0761 19.5034C14.9761 19.4034 16.7761 19.3034 18.6761 19.2034C19.2761 19.2034 19.0761 16.7034 19.0761 16.0034C19.0761 15.3034 19.0761 14.7034 19.0761 14.0034C21.4761 13.9034 23.8761 13.8034 26.2761 13.8034C26.7761 13.8034 27.3761 13.7034 27.8761 13.8034C28.4761 13.9034 28.4761 14.5034 28.4761 15.0034C28.4761 16.3034 28.4761 17.6034 28.5761 19.0034C28.5761 19.4034 28.8761 19.6034 29.1761 19.6034C29.2761 19.7034 29.3761 19.7034 29.4761 19.7034C31.2761 19.7034 33.0761 19.6034 34.7761 19.5034C34.8761 22.6034 34.7761 25.7034 34.7761 28.8034Z" fill="#3D4F3D"/>
<path d="M48.2759 20.5033C46.4759 8.60334 35.4759 -0.196659 23.6759 0.00334147C23.4759 0.00334147 23.2759 0.103341 23.2759 0.203341C14.9759 0.603341 6.87586 5.40334 2.87586 12.7033C-2.12414 21.7033 -0.424143 33.8033 6.57586 41.3033C13.7759 49.0033 26.0759 50.9033 35.4759 46.2033C44.6759 41.5033 49.7759 30.6033 48.2759 20.5033ZM37.6759 43.0033C29.7759 48.8033 18.2759 48.6033 10.3759 42.9033C2.47586 37.1033 -0.624143 25.9033 2.67586 16.8033C6.37586 6.20334 18.0759 0.203341 28.6759 2.20334C28.9759 2.20334 29.2759 2.10334 29.3759 2.00334C36.9759 4.00334 43.6759 9.90334 46.0759 17.4033C48.9759 26.5033 45.3759 37.3033 37.6759 43.0033Z" fill="#3D4F3D"/>
</svg>
