<svg width="48" height="49" viewBox="0 0 48 49" fill="none" xmlns="http://www.w3.org/2000/svg">
<path d="M40.2875 26.158V18.1713L23.2916 3.19617L5.18604 21.2861L7.29551 47.1232H32.2894L40.2875 26.158Z" fill="#FFD275"/>
<path d="M32.2895 47.1232C32.2895 47.1232 48.2856 39.1365 46.2861 31.1498C44.2866 23.163 36.2886 25.1597 36.2886 25.1597L32.2895 29.1531C32.2895 29.1531 30.29 24.1614 24.2915 26.1581C18.2929 28.1547 18.2929 33.1465 22.292 38.1382C26.291 43.1299 32.2895 47.1232 32.2895 47.1232Z" fill="#E23538"/>
<path d="M46.556 26.4077C44.7764 23.8021 41.8571 22.9834 38.8178 23.1631C35.8386 23.3328 33.7791 24.8403 32.1894 26.9967C31.0997 25.5092 29.3702 24.3711 27.7106 23.822C24.6513 22.7937 21.2821 23.9019 19.2726 26.3678C17.4531 28.5941 16.8432 31.5093 17.4031 34.3146C17.9929 37.2497 20.1624 39.6158 22.6418 41.1732C24.2114 42.1616 25.841 42.9203 27.3407 44.0285C28.8203 45.1166 30.2299 46.3047 31.4496 47.6924C31.8195 48.1117 32.2894 48.1416 32.6693 47.9519C34.149 47.882 35.6086 46.7539 36.8383 46.0152C38.328 45.1166 39.7776 44.1582 41.1873 43.1499C43.8666 41.2331 46.416 39.1665 47.3558 35.892C48.2356 32.8071 48.4255 29.1432 46.556 26.4077ZM45.0663 32.4577C44.9363 34.075 44.5664 35.9219 43.5767 37.2497C42.6169 38.5376 41.1773 39.506 39.9676 40.5442C38.6179 41.6824 37.2482 42.7805 35.8086 43.8088C34.9188 44.4478 33.7591 45.0368 32.8693 45.7955C30.7298 43.5193 27.9805 41.9819 25.831 39.7356C23.8815 37.699 20.9922 36.0317 20.8922 32.9169C20.8122 30.5009 22.1719 27.9751 24.6213 27.3162C25.941 26.9668 27.4306 27.3062 28.5903 27.9651C29.3702 28.4044 30.03 28.9834 30.7098 29.5325C30.3199 31.2696 32.9093 32.5875 33.8591 30.7904C34.4989 29.5825 35.1887 28.2547 36.2985 27.4161C37.4582 26.5275 39.0778 26.3478 40.4975 26.3179C41.9771 26.2879 43.1668 26.6373 44.0566 27.8753C45.0064 29.1931 45.1863 30.8703 45.0663 32.4577Z" fill="#3D4F3D"/>
<path d="M39.9279 15.9251C39.2181 15.1464 38.4682 14.4376 37.7084 13.7088C36.2388 12.2911 34.7691 10.8835 33.2995 9.4758C31.8698 8.09809 30.4502 6.72038 29.0305 5.33269C28.2907 4.6039 27.5409 3.86513 26.8111 3.13634C26.1213 2.44748 25.4614 1.62884 24.6316 1.11969C23.5419 0.460781 22.2022 1.50904 22.3622 2.62718C21.8423 3.00655 21.3724 3.45581 20.8725 3.91504C19.9028 4.81355 18.953 5.73202 17.9832 6.64051C16.0037 8.49743 14.0742 10.4242 12.1147 12.3011C8.24559 16.0149 4.33654 19.6888 0.457486 23.3827C-0.922178 24.6905 1.12733 26.6872 2.52699 25.4493C3.22682 24.8303 3.91664 24.1914 4.60647 23.5624C4.54648 24.0516 4.50651 24.5408 4.46652 25C4.28656 26.9867 4.35655 29.0034 4.37655 30.9901C4.40654 34.9734 4.5765 38.9468 4.78645 42.9302C4.86643 44.4577 4.75644 46.2747 5.70621 47.5725C6.65598 48.8704 8.16561 48.9402 9.64525 48.9103C13.6943 48.8304 17.7233 48.7306 21.7623 48.461C23.5019 48.3512 23.5119 45.6457 21.7623 45.7455C18.3731 45.9452 14.984 46.065 11.5848 46.095C10.725 46.105 9.8452 46.1349 8.98541 46.085C8.32557 46.0451 8.02564 46.0051 7.92567 45.3063C7.69572 43.7589 7.8657 42.0617 7.8457 40.4943C7.81571 37.0799 7.78571 33.6756 7.71573 30.2613C7.68574 28.5841 7.69572 26.8969 7.57575 25.2296C7.47577 23.8819 7.66574 22.3943 7.37581 21.0566C9.71525 18.9001 12.0347 16.7337 14.3241 14.5274C16.2336 12.7004 18.1632 10.8835 20.0027 8.98662C20.9225 8.03819 21.8423 7.08977 22.7521 6.13136C23.182 5.68211 23.6119 5.23285 23.9918 4.76363C24.2017 4.95332 24.4117 5.143 24.6116 5.33269C25.3314 6.01156 26.0513 6.68045 26.7711 7.35932C28.3007 8.78695 29.8403 10.2146 31.3799 11.6222C32.8896 12.9999 34.3992 14.3677 35.9488 15.7055C36.6987 16.3544 37.4385 17.0033 38.2283 17.5923C39.0381 18.2013 39.7679 18.7803 40.7977 18.9101C41.1976 18.96 41.4375 18.5008 41.3675 18.1714C41.1776 17.2329 40.5377 16.594 39.9279 15.9251Z" fill="#3D4F3D"/>
</svg>
