<svg xmlns="http://www.w3.org/2000/svg" viewBox="0 0 55.13 48.02"><defs><style>.cls-1{fill:#999;}.cls-2{fill:#ccc;}.cls-3{fill:#484949;}.cls-4{fill:#face8d;}.cls-5{fill:#ff931e;}.cls-6{fill:#ff1d25;}.cls-7{fill:#39b54a;}</style></defs><title>home_family</title><g id="Layer_2" data-name="Layer 2"><g id="Layer_1-2" data-name="Layer 1"><g id="home_family"><polygon class="cls-1" points="7.88 16.32 7.88 46.06 47.89 46.06 47.89 14.25 27.34 1.14 7.88 16.32"/><polygon class="cls-2" points="6.72 16.44 47.97 16.38 27.84 1.14 6.72 16.44"/><path class="cls-3" d="M54.61,18.73A157,157,0,0,0,41.72,8.16C39.53,6.56,37.31,5,35,3.54a41.59,41.59,0,0,0-3.7-2.17C30.37.87,29,0,27.88.42c-.28.12-.58.37-.54.71.12,1.15,1.08,1.74,1.95,2.39,1.09.81,2.23,1.56,3.35,2.33,2.3,1.57,4.62,3.1,6.87,4.74A147.23,147.23,0,0,1,52.25,21.08C53.83,22.53,56.19,20.18,54.61,18.73Z"/><circle class="cls-4" cx="19.82" cy="30.76" r="3.09"/><circle class="cls-4" cx="36.13" cy="30.76" r="3.09"/><circle class="cls-4" cx="27.89" cy="34.83" r="2.27"/><path class="cls-3" d="M31.36,33.23a3.68,3.68,0,0,0-1.71-2.1,3.6,3.6,0,0,0-2.74-.33,1.12,1.12,0,0,0-.63.52,3.25,3.25,0,0,0-1.43,1.24,3.59,3.59,0,0,0,5,4.88A3.71,3.71,0,0,0,31.36,33.23ZM29.45,35h0a1.3,1.3,0,0,1-.08.17l-.08.13a.44.44,0,0,0-.08.1l0,0L29,35.6l0,0h0a.42.42,0,0,1-.12.08,1,1,0,0,1-.3.17h0l-.21.07-.15,0h-.46a.49.49,0,0,1-.14,0,1.8,1.8,0,0,1-.33-.1l-.06,0L27,35.72l-.13-.08c.17.11,0,0,0,0l-.28-.28h0v0l-.08-.13a.8.8,0,0,1-.08-.16l-.05-.11c0-.12-.06-.23-.08-.35h0c0-.08,0-.16,0-.24s0-.1,0-.15v0c0-.14.06-.27.1-.41a.08.08,0,0,0,0,0l0,0a1.28,1.28,0,0,1,.11-.2.57.57,0,0,1,.08-.13c-.11.17,0,0,.07-.08l.14-.13s.21-.14,0,0l.38-.24,0,0a1,1,0,0,0,.24,0h0l.14,0a2.41,2.41,0,0,1,.38,0h.06c-.07,0,.1,0,.12,0a2.64,2.64,0,0,1,.4.12h0l.13.07.2.12h0a1.81,1.81,0,0,1,.24.24h0c.05.08.1.15.14.23s0,.1.08.14v.06a3.37,3.37,0,0,1,.09.34v.08s0,.07,0,.09,0,.15,0,.23v.05C29.52,34.72,29.49,34.85,29.45,35Z"/><path class="cls-3" d="M23.5,28.21A4.64,4.64,0,0,0,21,26.31a4.22,4.22,0,0,0-3.21.27A4.43,4.43,0,0,0,15.7,29a4.35,4.35,0,0,0-.27,1.47,2.84,2.84,0,0,0,.3,1.49A4.33,4.33,0,0,0,24,31.35,4.46,4.46,0,0,0,23.5,28.21Zm-1.76,2.67V31c0,.16-.13.42-.14.46v0a.11.11,0,0,0,0,.05,2.48,2.48,0,0,1-.18.31l-.06.09c-.07.06-.13.13-.19.19l-.1.09a3,3,0,0,1-.3.18l-.12.06-.25.08-.15,0c-.05,0-.17,0-.08,0H19.9l-.33,0h-.05l-.32-.08-.15-.05-.08,0-.19-.12-.11-.07,0,0,0,0h0c-.06,0-.06-.05,0-.05l-.13-.1-.12-.13,0,0a2.64,2.64,0,0,1-.34-.55l0,0s0,0,0-.05,0-.06,0-.09a1.81,1.81,0,0,0,0-.23v0h0a1.61,1.61,0,0,1,0-.31v-.08c0-.1,0-.22.07-.32a2.25,2.25,0,0,0,.08-.24s0-.05,0-.08l.13-.24.09-.13v0l0,0s0,0,0,0a.29.29,0,0,1,.08-.08c.09-.09.18-.19.28-.28l0,0a3.37,3.37,0,0,1,.32-.19h0l.3-.08.24,0h.51a4.08,4.08,0,0,1,.6.16h0a1.75,1.75,0,0,1,.27.16l.08.05c.08.08.17.15.24.23l.08.09.13.2.08.17h0c0,.08.05.15.07.23s0,.19,0,.27a.22.22,0,0,1,0,.08,1.71,1.71,0,0,1,0,.32A.92.92,0,0,1,21.74,30.88Z"/><path class="cls-3" d="M18.4,29.37a.6.6,0,0,1-.08.08h0C18.39,29.39,18.41,29.36,18.4,29.37Z"/><path class="cls-3" d="M18.6,32.12l.06.06h0S18.62,32.12,18.6,32.12Z"/><path class="cls-3" d="M38.19,31.76l0-.06a.15.15,0,0,0,0,.07Z"/><path class="cls-3" d="M40.15,28.45a5,5,0,0,0-5.91-2.33,1.41,1.41,0,0,0-.91,1,4.41,4.41,0,0,0-1.7,2.15,4.59,4.59,0,0,0,7.44,4.9A4.86,4.86,0,0,0,40.15,28.45ZM38.38,31v.1c0,.05,0,.16,0,.16s-.05.19-.07.28l-.06.18s0,0,0,.06v0h0l-.14.25s-.12.19-.14.22a3.58,3.58,0,0,1-.26.29.63.63,0,0,0-.13.11l-.16.11A3,3,0,0,1,37,33l0,0h0l-.35.11-.09,0-.17,0a4.56,4.56,0,0,1-.52,0h0l-.26-.06L35.23,33h0l-.12-.06c-.13-.07-.25-.16-.38-.24l0,0h0l-.2-.18a3,3,0,0,0-.21-.24,3.14,3.14,0,0,1-.24-.39c0-.05,0-.1-.07-.14l-.06-.16a2.58,2.58,0,0,1-.1-.33.76.76,0,0,0,0-.15,2.26,2.26,0,0,1,0-.26s0-.1,0-.16h0a.68.68,0,0,1,0-.14,2.33,2.33,0,0,1,.07-.25.88.88,0,0,1,0-.15c.08-.16.17-.3.26-.45l.17-.22c-.19.26,0,0,.07-.06a1.21,1.21,0,0,1,.16-.16l.19-.15c.3-.2.62-.36.93-.53l0,0,.36-.14h.28l.13,0a2.81,2.81,0,0,1,.49.16l.23.13.23.14,0,0v0a4.64,4.64,0,0,1,.39.38l0,0s0,0,0,0,.1.16.14.25a1.29,1.29,0,0,1,.09.16l.06.14c0,.15.1.31.14.47l0,.19c0-.29,0,.1,0,.16Z"/><path class="cls-3" d="M42.91,45.25c-1-.68-2.3-.57-3.44-.58H36c-2.4,0-4.8-.13-7.19-.16s-4.8,0-7.19,0c-1.16,0-2.32,0-3.48.08a12.4,12.4,0,0,0-3.85.32,1.46,1.46,0,0,0,0,2.78,12.39,12.39,0,0,0,3.85.25h3.48c2.39,0,4.79,0,7.19-.11s4.79-.25,7.19-.3l3.47-.06c1.14,0,2.48,0,3.44-.65A1,1,0,0,0,42.91,45.25Z"/><path class="cls-5" d="M25.61,45.59c0-4.19-2.56-7.58-5.73-7.58s-5.72,3.39-5.72,7.58Z"/><path class="cls-6" d="M42.31,45.59c0-4.19-2.56-7.58-5.73-7.58s-5.73,3.39-5.73,7.58Z"/><path class="cls-7" d="M33,45.59a4.87,4.87,0,0,0-9.73,0Z"/><path class="cls-3" d="M32.88,41.78a5.91,5.91,0,0,0-4.31-2.46A5.68,5.68,0,0,0,24,40.84a5.51,5.51,0,0,0-1.77,4.83,1.56,1.56,0,0,0,3,0,1.7,1.7,0,0,0,.09-.54h0c0-.07.05-.25.06-.28s.07-.29.12-.44.05-.13.07-.19.21-.4.33-.6l0-.06,0,0,.27-.29s.14-.13.21-.2.19-.13.22-.15l.4-.23.21-.09a5.09,5.09,0,0,1,.67-.18l.05,0H28c.16,0,.31,0,.47,0h.14l.45.1.3.11.21.1a2.39,2.39,0,0,1,.34.21.14.14,0,0,1,.07,0l0,0,.28.27s.17.2.23.25.14.2.15.23l.23.4a.15.15,0,0,0,0,.06.31.31,0,0,0,0,.08l.12.38a5.29,5.29,0,0,0,.64,1.64.91.91,0,0,0,1.41.18C34.49,45.24,33.78,43,32.88,41.78Z"/><path class="cls-3" d="M43.49,41.27a7.14,7.14,0,0,0-3.83-4A8.22,8.22,0,0,0,34,36.85a9.57,9.57,0,0,0-2.59,1.21,4.79,4.79,0,0,0-2.15,2.32c-.25.9.67,2.09,1.67,1.68a9.32,9.32,0,0,0,1.88-1.43,6.93,6.93,0,0,1,1.69-.94,5.7,5.7,0,0,1,3.82-.11A4.51,4.51,0,0,1,41,42a6.55,6.55,0,0,1,.23,3.75c-.14.85.91,1.73,1.61.93A4.36,4.36,0,0,0,43.93,44,6.44,6.44,0,0,0,43.49,41.27Z"/><path class="cls-3" d="M23.33,37.19a6.42,6.42,0,0,0-4.12-1.11,7.25,7.25,0,0,0-6.54,5.42,7.5,7.5,0,0,0,.64,5.2,1.31,1.31,0,1,0,2.26-1.33,4.54,4.54,0,0,1,2.47-6l.27-.1a4.61,4.61,0,0,1,.53-.15,2.29,2.29,0,0,1,.76-.1,4.39,4.39,0,0,1,1.75.28,4.72,4.72,0,0,1,1.46.75c.58.46,1.16,1.16,2,1.16a.72.72,0,0,0,.62-.36C26.16,39.41,24.36,37.89,23.33,37.19Z"/><path class="cls-3" d="M10.85,45c-2.34-.15-2.27-3.45-2.23-5.08.05-2.62.16-5.24.24-7.86l.24-7.9c0-1.32.09-2.63.07-3.95a15.23,15.23,0,0,0-.25-3.76,1.15,1.15,0,0,0-2.2,0,18.73,18.73,0,0,0-.54,4.5c-.12,1.56-.13,3.13-.19,4.69L5.66,35c-.15,4.2-1.29,12.82,5.19,12.84A1.43,1.43,0,0,0,10.85,45Z"/><path class="cls-3" d="M49.82,39.31c-.08-1.65-.17-3.3-.25-5l-.48-9.66c-.09-1.65-.15-3.3-.27-4.95-.11-1.43,0-3.17-.85-4.37a.82.82,0,0,0-1.4,0,6,6,0,0,0-.47,3.38q0,2,.15,4c.13,2.72.27,5.45.4,8.17l.4,7.92c.05.94.9,6.6-1.16,6.21-1.73-.32-2.47,2.32-.73,2.65,2.61.49,4.45-1.57,4.74-4A26.1,26.1,0,0,0,49.82,39.31Z"/><path class="cls-3" d="M27.76,0c-2.49.3-5,2.23-7.07,3.55-2.39,1.52-4.75,3.1-7.06,4.73A150.64,150.64,0,0,0,.51,18.64C-1,20,1.19,22.1,2.69,20.83c4.18-3.51,8.47-6.9,12.92-10.06C17.79,9.21,20,7.71,22.27,6.26c1.1-.7,2.21-1.39,3.29-2.12a11.77,11.77,0,0,0,3.13-2.51A1.08,1.08,0,0,0,27.76,0Z"/><path class="cls-3" d="M7.56,18.51a.06.06,0,0,0,0,.12C7.63,18.63,7.63,18.51,7.56,18.51Z"/><path class="cls-3" d="M7.56,18.52a.05.05,0,1,0,0,.1A.05.05,0,0,0,7.56,18.52Z"/><path class="cls-3" d="M46.49,15.78c-6.54-.16-13.13.1-19.68.21l-9.72.16c-1.66,0-3.32,0-5,.1-1.47.06-3.21-.08-4.46.81a1,1,0,0,0,0,1.62c1.28.85,3,.66,4.46.67,1.66,0,3.32,0,5-.06l9.72-.16c6.55-.11,13.14-.07,19.68-.44A1.46,1.46,0,0,0,46.49,15.78Z"/></g></g></g></svg>