<svg width="49" height="47" viewBox="0 0 49 47" fill="none" xmlns="http://www.w3.org/2000/svg">
<path d="M44.3758 26.9673C42.9758 25.9673 41.0758 25.9673 39.4758 26.1673C36.2758 26.5673 32.8758 27.2672 31.0758 30.0672C30.2758 31.2672 29.9758 32.8673 30.5758 34.2673C31.0758 35.6673 32.3758 36.6673 33.6758 37.2673C36.1758 38.4673 39.3758 38.6672 41.9758 37.3672C43.3758 36.6672 44.6758 35.3672 45.2758 33.8672C45.5758 33.2672 45.7758 32.4673 45.8758 31.7673C46.1758 31.5673 46.4758 31.2673 46.5758 30.7673C46.6758 29.2673 45.6758 27.8673 44.3758 26.9673Z" fill="#3FA9F5"/>
<path d="M45.4758 26.0672C43.7758 24.9672 41.6758 24.8672 39.6758 25.0672C35.9758 25.4672 31.8758 26.2673 29.6758 29.6673C28.7758 31.0673 28.3758 32.9672 29.0758 34.5672C29.6758 36.1672 31.1758 37.3673 32.6758 38.1673C35.6758 39.6673 39.3758 39.8673 42.4758 38.3673C44.1758 37.5673 45.6758 35.9673 46.3758 34.2673C46.6758 33.4673 46.9758 32.6673 47.0758 31.7673C47.4758 31.5673 47.7758 31.1673 47.8758 30.6673C48.1758 28.7673 46.9758 27.0672 45.4758 26.0672ZM42.2758 35.6673C40.1758 36.9673 37.6758 37.2673 35.2758 36.6673C32.9758 36.1673 30.1758 34.4673 30.9758 31.7673C31.7758 28.7673 35.2758 28.0673 37.9758 27.7673C39.6758 27.5673 41.4758 27.3673 43.1758 27.8673C44.3758 28.2673 45.3758 29.2672 45.3758 30.5672C45.3758 30.7672 45.3758 30.9672 45.4758 31.0672C45.2758 31.5672 45.1758 32.1673 44.9758 32.6673C44.2758 33.8673 43.3758 34.9673 42.2758 35.6673Z" fill="#3D4F3D"/>
<path d="M47.9758 10.9673L17.8758 16.9673V6.56728L45.7758 0.967285L47.9758 10.9673Z" fill="#3FA9F5"/>
<path d="M47.3758 0.767288C47.1758 -0.132712 45.7758 0.0672852 45.7758 0.967285C45.6758 5.86729 46.0758 10.7673 46.2758 15.6673C46.3758 20.5673 46.2758 25.4673 46.0758 30.3673C45.9758 31.5673 47.8758 31.5673 47.9758 30.3673C48.2758 25.3673 48.3758 20.3673 48.3758 15.4673C48.2758 10.4673 48.1758 5.56729 47.3758 0.767288Z" fill="#3D4F3D"/>
<path d="M46.8758 0.0672753C45.8758 -0.132725 44.7758 0.167287 43.7758 0.267287C42.4758 0.467287 41.2758 0.767275 39.9758 1.06728C37.4758 1.66728 34.8758 2.16728 32.3758 2.66728C29.8758 3.16728 27.2758 3.76728 24.7758 4.16728C23.4758 4.36728 22.1758 4.56729 20.9758 4.76729C19.7758 4.96729 18.3758 4.96728 17.1758 5.46728C16.0758 5.86728 16.2758 7.46728 17.4758 7.46728C18.6758 7.46728 19.9758 7.16728 21.0758 6.86728C22.3758 6.66728 23.5758 6.36728 24.8758 6.16728C27.4758 5.66728 30.0758 5.16728 32.7758 4.56728C35.2758 3.96728 37.7758 3.36729 40.2758 2.76729C41.4758 2.46729 42.7758 2.06728 43.9758 1.66728C44.9758 1.36728 46.1758 1.06729 46.9758 0.267287C47.0758 0.367287 47.0758 0.167275 46.8758 0.0672753Z" fill="#3D4F3D"/>
<path d="M19.1758 20.3673C18.9758 17.9673 18.8758 15.4673 18.7758 13.0673C18.7758 11.8673 18.6758 10.5673 18.5758 9.3673C18.4758 8.3673 18.5758 7.3673 17.8758 6.5673C17.6758 6.3673 17.3758 6.3673 17.1758 6.5673C16.4758 7.2673 16.5758 8.3673 16.4758 9.3673C16.3758 10.6673 16.2758 11.9673 16.2758 13.2673C16.2758 15.6673 16.2758 18.1673 16.3758 20.5673C16.5758 25.5673 17.0758 30.6673 17.9758 35.5673C18.1758 36.8673 20.4758 36.5673 20.3758 35.2673C19.9758 30.3673 19.5758 25.3673 19.1758 20.3673Z" fill="#3D4F3D"/>
<path d="M46.8758 10.9673C45.6758 10.9673 44.4758 11.2673 43.2758 11.4673C42.1758 11.6673 41.0758 11.8673 39.8758 12.0673C37.5758 12.4673 35.2758 12.9673 32.9758 13.3673C30.6758 13.7673 28.2758 14.0673 25.9758 14.5673C24.8758 14.7673 23.7758 14.9673 22.5758 15.1673C21.3758 15.3673 19.8758 15.8673 18.6758 15.8673C16.5758 15.7673 17.1758 19.3673 19.0758 18.6673C20.2758 18.2673 21.6758 18.2673 22.8758 18.0673C23.9758 17.8673 25.0758 17.6673 26.2758 17.4673C28.6758 17.0673 31.0758 16.4673 33.3758 15.9673C35.7758 15.4673 38.0758 14.8673 40.4758 14.2673C41.5758 13.9673 42.6758 13.6673 43.7758 13.3673C44.8758 13.0673 46.1758 12.8673 47.1758 12.2673C47.7758 11.8673 47.4758 10.9673 46.8758 10.9673Z" fill="#3D4F3D"/>
<path d="M15.9758 32.4673C13.5758 31.8673 10.9758 32.6673 8.87579 33.6673C7.57579 34.1673 6.37579 34.7673 5.27579 35.5673C4.17579 36.3673 3.07579 37.1673 2.27579 38.1673C0.675788 40.4673 1.87579 43.2673 4.17579 44.4673C5.07579 44.9673 6.17579 45.2673 7.27579 45.3673C10.0758 46.0673 13.2758 45.4673 15.6758 43.5673C17.3758 42.1673 18.8758 40.1673 19.1758 37.9673C19.5758 35.5673 18.4758 33.1673 15.9758 32.4673Z" fill="#3FA9F5"/>
<path d="M16.6758 31.3673C13.8758 30.6673 10.9758 31.6673 8.47579 32.6673C6.97579 33.2673 5.57579 33.9673 4.27579 34.8673C3.07579 35.7673 1.67579 36.6673 0.875791 37.9673C-1.02421 40.5673 0.375791 43.8673 3.07579 45.2673C4.17579 45.8673 5.37579 46.1673 6.67579 46.3673C9.97579 47.1673 13.5758 46.4673 16.3758 44.2673C18.3758 42.6673 20.0758 40.2673 20.4758 37.7673C20.8758 34.8673 19.5758 32.1673 16.6758 31.3673ZM2.67579 40.1673C3.07579 39.2673 3.97579 38.6673 4.67579 38.0673C5.77579 37.2673 6.87579 36.5673 8.07579 35.9673C9.97579 34.8673 12.1758 33.9673 14.3758 33.8673C16.2758 33.7673 17.8758 34.6673 18.0758 36.6673C18.1758 37.3673 18.0758 37.9673 17.8758 38.5673C17.7758 38.7673 17.7758 38.8673 17.6758 39.0673C16.7758 40.9673 15.2758 42.6673 13.2758 43.4673C11.1758 44.2673 8.87579 44.4673 6.67579 43.9673C5.17579 43.5673 1.67579 42.3673 2.67579 40.1673Z" fill="#3D4F3D"/>
</svg>
