<svg width="48" height="48" viewBox="0 0 48 48" fill="none" xmlns="http://www.w3.org/2000/svg">
<path d="M42.4014 35.5905L17.149 34.3992L10.8608 47.8014L46.3939 47.0072L42.4014 35.5905Z" fill="#39B54A"/>
<path d="M37.2112 22.4861L41.9024 34.4985L16.7497 35.392L21.2413 23.8759L37.2112 22.4861Z" fill="#3FA9F5"/>
<path d="M24.4353 14.5439L33.8176 14.4446L37.2112 22.486L21.5407 22.9824L24.4353 14.5439Z" fill="#FF931E"/>
<path d="M28.4277 2.03516L33.8176 14.4447L24.4353 14.5439L28.4277 2.03516Z" fill="#FACE8D"/>
<path d="M39.2075 23.3795C37.6105 19.607 36.0135 15.8345 34.4165 12.0621C32.7197 8.19028 31.2225 4.02068 28.7272 0.54602C28.7272 0.54602 28.6274 0.347466 28.4277 0.148914C28.2281 -0.0496381 27.9287 -0.0496381 27.8289 0.148914C26.2319 3.82213 25.2338 7.79318 24.036 11.5657C22.7384 15.5367 21.3411 19.5078 19.9437 23.4788C17.0492 31.4209 13.955 39.2637 10.4616 46.908C10.2619 47.3051 10.4616 47.6029 10.761 47.8015C10.8608 47.9007 10.9606 47.9007 11.1602 47.9007C17.2488 47.7022 23.2375 48 29.326 48C32.3204 48 35.3148 48 38.3091 48C41.1039 48 48.2904 47.9007 47.9909 47.1065C45.3958 39.1644 42.4014 31.2223 39.2075 23.3795ZM24.4353 14.544C24.8345 14.544 25.2338 14.544 25.633 14.544C26.0323 14.544 26.5313 14.544 26.9306 14.544C27.7291 14.544 28.5276 14.544 29.4259 14.544C30.2244 14.544 31.0229 14.544 31.9212 14.544C32.3204 14.544 33.618 14.4447 33.8176 14.3454C35.0153 17.0259 36.1133 19.7063 37.2112 22.3868C36.1133 22.3868 35.0153 22.3868 33.9174 22.3868C32.52 22.3868 31.1227 22.486 29.7253 22.486C27.0304 22.5853 24.3354 22.6846 21.5407 22.8831C22.5388 20.2027 23.5369 17.423 24.4353 14.544ZM28.4277 2.03516C29.6255 5.6091 31.4221 8.98449 32.9193 12.3599C33.1189 12.757 33.2187 13.0548 33.4183 13.4519C33.3185 13.4519 33.3185 13.4519 33.2187 13.4519C32.8195 13.4519 32.3204 13.4519 31.9212 13.4519C31.1227 13.4519 30.3242 13.4519 29.4259 13.5512C28.6274 13.5512 25.1339 13.6505 24.8345 13.6505C24.9343 13.3526 24.9343 13.2534 25.0341 12.9555C26.2319 9.28231 27.6292 5.70838 28.4277 2.03516ZM20.9418 24.4716C21.0416 24.273 21.0416 24.0745 21.1415 23.8759C23.9362 23.9752 26.7309 23.8759 29.6255 23.7766C31.0229 23.7766 32.4202 23.7766 33.8176 23.6774C35.0153 23.5781 36.3129 23.6774 37.6105 23.4788C37.7103 23.6774 37.7103 23.6773 37.8101 23.8759C39.3073 27.4498 40.505 30.726 41.9024 34.3992C37.8101 34.3992 33.7178 34.4985 29.5257 34.3992C27.3298 34.3992 25.2338 34.3992 23.0379 34.2999C21.0416 34.2999 19.0454 34.1013 17.0492 34.2006C18.4465 31.1231 19.7441 27.847 20.9418 24.4716ZM38.6086 46.7094C35.5144 46.7094 32.4202 46.6101 29.4259 46.6101C23.6368 46.6101 17.8477 46.7094 12.0586 46.6101C13.6555 42.9369 15.2525 39.1644 16.7497 35.3919C18.8458 35.5905 21.0416 35.4912 23.1377 35.5905C25.3336 35.5905 27.4296 35.6898 29.6255 35.6898C33.9174 35.789 38.2093 35.8883 42.4014 35.6898C43.7988 39.4623 45.1962 43.2347 46.4937 47.0072C43.8986 46.6101 41.2037 46.7094 38.6086 46.7094Z" fill="#484949"/>
<path d="M13.9557 25.8615C13.9557 25.8615 2.47726 20.6991 0.780454 33.7043C-0.916352 46.7094 2.87651 45.4189 5.67125 46.6102C8.46599 47.8015 18.9463 47.3051 21.3418 46.1138C23.7372 44.9225 30.8239 26.3578 21.0423 24.4716C15.2532 23.3796 13.9557 25.8615 13.9557 25.8615Z" fill="#FF1D25"/>
<path d="M13.1565 24.7694L12.9569 21.4933L10.3617 14.3454L7.16776 10.1758C7.16776 10.1758 3.67433 16.0331 5.77039 20.2027C7.86644 24.3723 13.1565 24.7694 13.1565 24.7694Z" fill="#39B54A"/>
<path d="M27.6292 28.5419C26.6311 25.4643 24.3354 22.8832 21.0416 22.2875C18.5463 21.7911 16.1508 22.5853 14.2544 24.1737C14.2544 23.5781 14.3542 23.0817 14.454 22.4861C14.5539 21.8904 14.7535 21.1955 14.9531 20.5998C15.0529 20.302 15.1527 20.0041 15.2525 19.8056C15.3524 19.607 15.4522 19.4085 15.4522 19.3092C15.4522 19.1107 15.4522 18.9121 15.552 18.7136C15.6518 18.0186 14.9531 17.5223 14.3542 18.0186C14.0548 18.3165 13.8552 18.6143 13.6555 19.0114C13.5557 19.1107 13.5557 19.2099 13.5557 19.4085C13.5557 19.2099 13.4559 19.1107 13.4559 18.9121C13.1565 17.7208 12.6574 16.5295 12.0586 15.4374C10.8608 13.1541 9.36363 11.0693 7.76663 9.08378C7.36738 8.48812 6.46907 8.88522 6.26945 9.48088C5.17152 12.8563 4.17339 17.0259 5.77039 20.4013C6.36926 21.6918 7.36738 22.7839 8.56513 23.6774C8.06607 23.6774 7.66682 23.6774 7.16776 23.7766C4.37302 24.3723 2.17715 26.7549 1.17903 29.2368C-0.0187148 32.4137 -0.118527 36.0869 0.0810974 39.363C0.280722 42.3413 1.17903 45.4188 3.97377 47.0073C5.27133 47.8015 6.86832 47.9007 8.3655 47.9007C10.2619 47.9007 12.2582 47.9007 14.1546 47.9007C17.2488 48 20.343 48 22.8383 45.9152C25.0341 43.9297 26.1321 40.9514 27.0304 38.271C28.0285 35.1934 28.6274 31.7187 27.6292 28.5419ZM7.06795 19.4085C5.8702 16.8273 6.6687 14.0476 7.56701 11.4664C8.66494 12.9555 9.76287 14.4447 10.6612 15.9338C11.2601 16.9266 11.7591 18.0186 12.1584 19.1107C12.358 19.607 12.5576 20.2027 12.6574 20.6991C12.7572 20.9969 12.857 21.1955 12.9569 21.4933C12.9569 21.6918 12.857 21.7911 12.857 21.9897C12.7572 22.3868 12.7572 22.8832 12.7572 23.2803C10.3617 23.181 8.06607 21.6918 7.06795 19.4085ZM25.1339 37.7746C24.4353 40.1572 23.7366 42.7384 22.0398 44.6246C19.9437 46.908 17.0492 46.7094 14.2544 46.7094C12.7572 46.7094 11.3599 46.7094 9.86269 46.6101C8.3655 46.5109 6.56889 46.6101 5.17152 45.9152C2.67621 44.5254 2.27696 41.15 2.17715 38.5688C1.97753 35.6898 1.7779 32.6122 3.07546 29.9318C4.17339 27.5491 6.6687 25.3651 9.46344 25.9607C10.5614 26.1593 11.6593 26.6556 12.7572 26.8542C13.1565 27.7477 14.454 28.3433 15.2525 27.4499C15.552 27.0528 15.8514 26.7549 16.2507 26.4571C16.3505 26.3578 16.4503 26.2585 16.6499 26.1593C17.8477 25.3651 19.245 24.968 20.7422 25.1665C23.0379 25.4643 24.6349 27.4499 25.4334 29.4354C26.3317 32.2151 25.8326 35.0941 25.1339 37.7746Z" fill="#484949"/>
</svg>
