<svg width="50" height="50" viewBox="0 0 48 49" fill="none" xmlns="http://www.w3.org/2000/svg">
<path d="M44.0732 9.83588H2.45166V3.08582L23.2624 1.15723L44.0732 3.08582V9.83588Z" fill="#F0F2F2"/>
<path d="M45.0408 37.8005H4.47434C2.81916 37.8005 1.4834 36.4698 1.4834 34.8208V9.83594H45.0408V37.8005Z" fill="white"/>
<path d="M16.9706 13.6931C16.9706 13.6931 17.9386 22.3718 16.0027 24.3004C14.0668 26.2289 12.1309 22.3718 9.22708 22.3718C6.32325 22.3718 4.38736 21.4075 5.35531 19.4789C6.32325 17.5503 9.22708 17.5503 12.1309 16.586C15.0347 15.6217 16.9706 13.6931 16.9706 13.6931Z" fill="#E23538"/>
<path d="M17.9392 37.8005H14.0674V46.4792H17.9392V37.8005Z" fill="#009634"/>
<path d="M25.6823 32.0148H21.8105V47.4435H25.6823V32.0148Z" fill="#009634"/>
<path d="M33.426 34.9076H29.5542V46.4791H33.426V34.9076Z" fill="#009634"/>
<path d="M41.1696 28.1576H37.2979V46.4792H41.1696V28.1576Z" fill="#009634"/>
<path d="M6.90466 5.61239C6.8369 5.49668 6.74978 5.40025 6.64331 5.32311C6.54652 5.23632 6.43036 5.16882 6.29485 5.13989C6.20773 5.13025 6.11094 5.11096 6.02383 5.10132C5.83992 5.10132 5.66569 5.14953 5.51082 5.23632C5.4721 5.25561 5.42371 5.28453 5.39467 5.30382C5.31724 5.36168 5.23979 5.41954 5.16236 5.47739C5.15268 5.48704 5.143 5.49668 5.13332 5.49668C5.11396 5.51596 5.0946 5.52561 5.08492 5.54489C5.06556 5.56418 5.0559 5.58347 5.03654 5.59311C4.96878 5.6799 4.90101 5.75704 4.84294 5.84383C4.83326 5.86311 4.8139 5.8824 4.80422 5.90168C4.75583 5.99811 4.70743 6.10418 4.67839 6.20061C4.62999 6.37419 4.62999 6.54776 4.67839 6.72133C4.72678 6.88526 4.81391 7.02991 4.93006 7.15527C5.05589 7.28062 5.20108 7.35777 5.36563 7.40598C5.46243 7.43491 5.5689 7.44455 5.66569 7.43491C5.69473 7.43491 5.7141 7.4542 5.73346 7.4542C5.86897 7.48313 6.01415 7.48313 6.14966 7.43491C6.2271 7.40598 6.33358 7.36741 6.41101 7.32884C6.41101 7.32884 6.42069 7.32884 6.42069 7.3192C6.43037 7.3192 6.44005 7.30955 6.44005 7.30955C6.47877 7.28062 6.52716 7.24205 6.5562 7.22277C6.58524 7.19384 6.63364 7.16491 6.67236 7.13598C6.68204 7.12634 6.68203 7.12634 6.69171 7.11669C6.75947 7.03955 6.82722 6.95276 6.8853 6.86598C6.94337 6.77919 6.97241 6.67312 7.01113 6.57669C7.02081 6.5574 7.02081 6.53812 7.02081 6.52847C7.04017 6.43205 7.04985 6.33562 7.05953 6.22954C7.05953 6.2199 7.05953 6.21026 7.05953 6.20061C7.05953 5.99811 7.02081 5.8149 6.90466 5.61239Z" fill="#3D4F3D"/>
<path d="M11.5308 5.92102C11.5308 5.91138 11.5212 5.81495 11.5115 5.76674C11.5018 5.73781 11.4147 5.52566 11.3953 5.49673C11.3953 5.49673 11.3953 5.48709 11.3856 5.48709C11.376 5.47745 11.2211 5.27495 11.2114 5.2653C11.1437 5.1978 11.0275 5.12066 10.9791 5.08209C10.9694 5.07245 10.9694 5.07245 10.9597 5.07245C10.9404 5.0628 10.7178 4.96637 10.6984 4.96637C10.6887 4.96637 10.6887 4.96637 10.6791 4.96637C10.65 4.95673 10.4177 4.9278 10.3887 4.9278H10.379C10.2822 4.91816 10.1757 4.93744 10.0789 4.96637C10.0305 4.98566 9.98212 5.00494 9.94341 5.02423C9.88533 5.04352 9.85629 5.0628 9.80789 5.08209C9.79821 5.09173 9.78854 5.09173 9.77886 5.10137C9.6627 5.15923 9.54655 5.2653 9.45943 5.33281C9.42072 5.36173 9.39169 5.39066 9.36265 5.42923C9.28521 5.52566 9.19809 5.63174 9.13034 5.73781C9.1013 5.79567 9.08194 5.85352 9.0529 5.91138C9.02386 5.96924 8.99482 6.03674 8.97546 6.0946C8.96578 6.11388 8.96578 6.14281 8.9561 6.1621C8.93674 6.26817 8.91739 6.38389 8.90771 6.4996C8.90771 6.50924 8.90771 6.50924 8.90771 6.51889V6.52853C8.91739 6.61532 8.92707 6.7021 8.94643 6.79853C8.94643 6.80818 8.94642 6.81782 8.9561 6.82746C8.96578 6.85639 8.97547 6.87568 8.98515 6.90461L9.08194 7.13604C9.14001 7.25175 9.22714 7.33854 9.33361 7.40604C9.39169 7.4639 9.46911 7.51211 9.54655 7.5314C9.6627 7.58925 9.78853 7.61818 9.92404 7.61818C10.0402 7.60854 10.1564 7.5989 10.2628 7.56997C10.3015 7.56033 10.3499 7.54104 10.3887 7.52175C10.4274 7.50247 10.4661 7.49283 10.5048 7.47354C10.5726 7.42532 10.6306 7.37711 10.6984 7.32889H10.7081C10.7178 7.31925 10.7274 7.30961 10.7371 7.29997C10.7758 7.25175 10.8146 7.19389 10.8533 7.14568C10.921 7.11675 10.9985 7.08782 11.0081 7.07818C11.0953 7.02996 11.1727 6.97211 11.2308 6.90461C11.2405 6.89496 11.3953 6.69246 11.405 6.68282C11.4437 6.59603 11.4824 6.50924 11.5115 6.42246V6.41282C11.5212 6.3646 11.5212 6.31639 11.5308 6.26817C11.5405 6.21996 11.5502 6.1621 11.5502 6.11388C11.5502 6.03674 11.5212 5.84388 11.5308 5.92102Z" fill="#3D4F3D"/>
<path d="M15.4222 5.89204C15.3931 5.80525 15.3544 5.70882 15.3157 5.63168C15.3157 5.62204 15.306 5.61239 15.306 5.60275C15.306 5.60275 15.306 5.59311 15.2963 5.59311C15.2576 5.53525 15.1898 5.45811 15.1511 5.40025C15.1414 5.39061 15.1221 5.37132 15.1124 5.36168C15.0543 5.31346 14.9963 5.26525 14.9285 5.22668C14.8607 5.19775 14.7833 5.16882 14.7156 5.13989C14.6381 5.13025 14.5607 5.1206 14.4832 5.11096C14.4639 5.11096 14.4542 5.11096 14.4348 5.11096C14.3187 5.1206 14.1735 5.13025 14.0573 5.17846C13.9702 5.20739 13.8831 5.24596 13.8057 5.28453C13.7283 5.32311 13.6508 5.39061 13.5927 5.44846C13.5734 5.47739 13.554 5.49668 13.5347 5.52561C13.4669 5.59311 13.4282 5.6799 13.3992 5.77632C13.3895 5.84383 13.3798 5.91133 13.3701 5.97883C13.3798 6.04633 13.3895 6.11383 13.3992 6.18133C13.3992 6.19097 13.4088 6.20061 13.4088 6.21026C13.4088 6.2199 13.4185 6.22954 13.4185 6.23919C13.4475 6.30669 13.4669 6.37419 13.5056 6.43205C13.5056 6.43205 13.5056 6.43205 13.5056 6.44169C13.5153 6.52847 13.525 6.61526 13.5637 6.69241C13.6024 6.80812 13.6702 6.91419 13.767 7.00098C13.8347 7.04919 13.8928 7.09741 13.9606 7.15527C14.1154 7.24205 14.2703 7.29027 14.4445 7.29027C14.5316 7.28062 14.6478 7.27098 14.7446 7.2517C14.9091 7.20348 15.064 7.11669 15.1898 6.99134C15.3157 6.83705 15.3157 6.80812 15.3738 6.65383C15.4028 6.58633 15.4222 6.57669 15.4222 6.51883C15.4415 6.43205 15.4512 6.33562 15.4609 6.24883C15.4609 6.22954 15.4609 6.21026 15.4609 6.20061C15.4609 6.09454 15.4512 5.98847 15.4222 5.89204Z" fill="#3D4F3D"/>
<path d="M42.6783 21.7547C42.3395 20.3854 42.0007 19.0161 41.6619 17.6468C41.5361 17.1165 40.9844 16.7115 40.4326 16.7211C39.184 16.75 37.9257 16.7693 36.677 16.7983C35.0412 16.8272 35.0509 19.2572 36.677 19.3247C36.9674 19.3344 37.2578 19.3536 37.5482 19.3633C34.6443 22.3333 31.7405 25.3033 28.8367 28.2734C28.3914 28.7266 28.4495 29.0159 28.0623 28.5434C27.7139 28.1191 27.2977 27.7237 26.9298 27.3187C26.262 26.5859 25.6328 25.7951 24.9068 25.1201C23.271 23.5773 21.7029 23.9533 20.2994 25.5155C17.1343 29.0352 13.911 32.5066 10.62 35.9106C7.24188 39.411 3.59275 42.7667 0.437256 46.46C-0.0951124 47.0771 0.63084 48.2536 1.38584 47.6846C5.19953 44.8207 8.63573 41.301 12.0042 37.9356C15.3532 34.5895 18.5958 31.1277 21.7707 27.6273C21.9933 27.3862 22.4289 26.6534 22.8064 26.6437C23.0774 26.6341 23.7743 27.6369 23.9389 27.8298C24.6939 28.6687 25.4102 29.5944 26.2329 30.3659C26.804 30.9059 27.5106 31.3977 28.3333 31.4073C29.3303 31.4266 30.0079 30.7612 30.6564 30.1055C33.7248 27.0101 36.7448 23.8569 39.7744 20.7229C39.9196 21.2919 40.0551 21.8705 40.2003 22.4394C40.6165 24.0015 43.0751 23.3362 42.6783 21.7547Z" fill="#3D4F3D"/>
<path d="M46.9772 25.554C46.9288 22.6997 46.8029 19.8454 46.59 17.0007C46.4835 15.535 46.377 14.0596 46.1738 12.5939C46.0383 11.5718 46.1254 9.15138 46.0866 8.77531C45.9124 7.16494 46.2028 5.27492 45.2349 3.87669C44.3347 2.58454 42.7763 2.03489 41.3147 1.64917C37.3558 0.588446 33.2711 0.154513 29.1767 0.0387977C24.9468 -0.0769176 20.7169 0.125584 16.4966 0.328086C14.3381 0.434159 12.1893 0.559517 10.0308 0.684875C8.0949 0.800591 5.9848 0.704161 4.09731 1.18631C0.515921 2.11203 -0.577856 6.48993 0.283613 9.72032C0.302972 9.8071 0.109377 12.0828 0.0803384 12.9507C0.0416207 14.6189 -0.00676874 16.2968 0.0125901 17.9747C0.0706666 21.3979 0.215852 24.8308 0.399761 28.2541C0.486876 29.9223 0.583668 31.6002 0.699821 33.2684C0.786936 34.5702 0.903096 35.9009 1.73553 36.9616C3.11 38.707 5.65569 39.1892 7.57222 38.0706C8.86926 37.3088 7.70773 35.332 6.39133 36.0649C5.66537 36.4699 4.8039 36.4506 4.08762 36.0359C2.95513 35.3706 3.01321 33.953 2.92609 32.7959C2.72282 30.0091 2.5486 27.2223 2.41308 24.4355C2.27757 21.7258 2.22918 19.0161 2.08399 16.3065C2.00655 14.8697 1.97751 13.4329 1.87104 11.9961C1.85168 11.7164 1.842 11.4175 1.82264 11.1185C8.82086 11.0318 15.8094 10.6075 22.8173 10.511C29.8446 10.4146 36.8815 10.5689 43.9088 10.4725C43.8604 12.3239 44.2572 14.2911 44.4024 16.0557C44.6057 18.5822 44.7412 21.1183 44.809 23.6544C44.8767 26.1905 44.8767 28.7266 44.8186 31.2723C44.7799 32.7766 45.2445 36.007 43.5119 36.7591C42.4182 37.2316 43.2022 39.0734 44.325 38.6781C46.2318 38.0224 46.7158 36.0938 46.832 34.2713C47.0449 31.3784 47.0159 28.4469 46.9772 25.554ZM22.827 8.34137C16.0223 8.38959 9.21772 8.38959 2.43245 8.87174C2.52924 7.53137 2.46148 6.09457 3.25519 4.9567C4.41672 3.28847 7.06889 3.67419 8.84022 3.57776C13.3895 3.34633 17.9389 3.03775 22.4882 2.83525C26.9407 2.64239 31.3836 2.67132 35.8168 3.14383C37.8978 3.36561 40.2596 3.54883 42.2342 4.32027C43.2506 4.71563 43.7346 5.27492 43.8604 6.37421C43.9475 7.16494 43.9475 7.8978 44.1798 8.62102C44.1701 8.64031 44.1604 8.65959 44.1604 8.67888C44.112 8.66924 44.0636 8.64031 44.0056 8.64031C36.959 8.22566 29.8833 8.29316 22.827 8.34137Z" fill="#3D4F3D"/>
<path d="M16.6805 13.3653C16.4191 13.2978 16.1868 13.3267 15.9932 13.4135C15.3447 13.2882 14.7542 13.6257 14.2703 14.0692C13.2055 15.0432 12.2182 16.2871 10.6695 16.3932C9.04339 16.5089 7.41725 15.9978 5.89758 16.8368C4.56182 17.5696 3.92297 19.1511 4.15528 20.6168C4.38759 22.15 5.62655 23.2011 7.08815 23.5868C7.17526 23.6061 7.27205 23.6158 7.35917 23.635C7.46564 23.9533 7.60115 24.2618 7.7173 24.5511C8.25935 25.9301 8.65622 27.4729 9.90486 28.3987C10.3888 28.7554 11.1438 28.4758 11.4245 28.0033C11.7536 27.444 11.5116 26.8365 11.0277 26.4893C10.6889 26.2386 10.4566 25.5251 10.2727 25.0718C10.1178 24.6765 9.95325 24.2908 9.7887 23.8954C9.77902 23.8761 9.76935 23.8472 9.74999 23.8183C10.263 23.8183 10.7857 23.8086 11.2987 23.8472C11.8504 23.8858 12.4602 23.9725 12.9345 24.2811C13.5734 24.6861 13.8057 25.4768 14.4445 25.9011C15.1705 26.3833 16.119 26.3833 16.7772 25.7854C17.387 25.2261 17.7452 24.31 17.9581 23.529C18.4711 21.6293 18.5292 19.5368 18.5583 17.5889C18.5679 16.0268 18.5583 13.8282 16.6805 13.3653ZM6.58481 20.9061C6.13956 20.3854 6.18796 19.5561 6.60417 19.0257C7.13654 18.3603 8.24968 18.3989 9.10147 18.4278C8.86916 19.3825 9.10147 20.3854 9.12083 21.3689C9.06275 21.3882 9.01434 21.3979 8.95627 21.4172C8.78204 21.4654 8.61749 21.5039 8.44326 21.5522C8.38518 21.5714 8.32711 21.5907 8.26904 21.6197C7.63019 21.5522 6.99135 21.3786 6.58481 20.9061ZM16.4288 17.7914C16.4191 19.1704 16.3707 20.5686 16.1674 21.9379C16.09 22.4779 15.9739 23.0468 15.7416 23.5482C15.7319 23.5675 15.606 23.7604 15.5092 23.9243C15.4608 23.8665 15.4124 23.8086 15.4028 23.7893C14.7446 22.7865 13.8444 22.1307 12.6635 21.8511C12.1795 21.7354 11.6955 21.6968 11.2116 21.6679C11.2116 21.5811 11.2116 21.5039 11.2019 21.4172C11.1245 20.7904 11.0277 20.1636 10.9502 19.5271C10.8922 19.1125 10.8147 18.7268 10.6695 18.3603C11.6278 18.2446 12.528 17.9553 13.3507 17.3285C13.9121 16.9043 14.3864 16.3932 14.8317 15.8435C15.0156 15.6121 15.1898 15.371 15.3834 15.1492C15.3931 15.1396 15.4512 15.0817 15.5189 15.0239C15.6448 15.2071 15.8383 15.3517 16.119 15.4192C16.2933 15.4578 16.1868 15.4 16.2739 15.5639C16.3514 15.7085 16.3804 15.911 16.4094 16.0653C16.4772 16.6343 16.4385 17.2321 16.4288 17.7914Z" fill="#3D4F3D"/>
<path d="M45.2735 46.4021C44.2474 46.1129 43.173 46.0743 42.1083 46.0357C42.1857 45.7754 42.2051 45.5053 42.2244 45.1582C42.2825 44.3193 42.3406 43.4803 42.3696 42.6414C42.4277 41.0889 42.4761 39.5267 42.5342 37.9742C42.5923 36.4217 42.6406 34.8595 42.6987 33.307C42.7278 32.5838 42.7471 31.8702 42.7762 31.147C42.8052 30.4527 42.9214 29.6813 42.7858 28.987C42.5245 27.7045 41.3243 27.473 40.2111 27.3284C39.1173 27.1837 37.5009 26.8462 36.6684 27.7816C36.2329 28.2638 36.2329 28.8809 36.1748 29.4884C36.107 30.2502 36.0102 31.012 35.9425 31.7738C35.807 33.2974 35.7876 34.8306 35.7683 36.3542C35.7392 39.5171 35.8167 42.7089 36.2135 45.8525C35.5843 45.8332 34.9552 45.8236 34.3357 45.8139C34.4712 45.3511 34.4615 44.7725 34.4712 44.4157C34.5002 43.3646 34.4615 42.3328 34.4228 41.2817C34.3841 40.2789 34.326 39.2664 34.2583 38.2635C34.2002 37.2799 34.268 36.171 34.0453 35.2163C33.8033 34.2135 32.8451 33.8374 31.9255 33.6734C31.035 33.5095 29.8154 33.3842 28.9636 33.7795C27.9666 34.2424 28.015 35.3899 27.9086 36.3253C27.7827 37.386 27.6859 38.4467 27.5988 39.5074C27.4343 41.5807 27.4343 43.6635 27.4924 45.7464C26.9213 45.7464 26.3405 45.7368 25.7694 45.7368C25.934 44.7628 25.8372 43.7503 25.8372 42.7667C25.8275 41.6 25.9049 40.4332 25.963 39.2664C26.0888 36.9521 26.3502 34.5702 26.1082 32.2559C25.9824 31.0506 25.0531 30.9252 24.0174 30.8384C23.0301 30.7516 21.7234 30.7999 20.891 31.4074C19.9134 32.1113 19.9908 33.3938 19.9618 34.4642C19.923 35.6888 19.923 36.9038 19.9521 38.1285C20.0102 40.6646 20.2909 43.2007 20.6587 45.7079C20.165 45.7079 19.6811 45.6982 19.1874 45.6982C18.9841 45.6982 18.7809 45.6886 18.5873 45.6886C18.7228 45.11 18.7034 44.4639 18.7421 43.9046C18.7905 43.1043 18.8099 42.3039 18.8293 41.5035C18.8486 40.7032 18.868 39.9028 18.8777 39.1024C18.897 38.3117 19.0229 37.386 18.2388 36.8942C17.8904 36.682 17.4645 36.6531 17.0773 36.6049C16.6998 36.5567 16.3223 36.5181 15.9448 36.5085C15.2188 36.4795 14.4445 36.4699 13.7863 36.7978C12.3924 37.4921 12.3053 39.4592 12.2279 40.8092C12.1311 42.41 12.0634 44.001 11.9762 45.6018C11.3277 45.6211 10.6695 45.6403 10.0307 45.7079C8.62715 45.8332 8.62715 47.7425 10.0307 47.8775C12.9539 48.1475 15.9932 47.9064 18.9261 47.8968C21.888 47.8872 24.8595 47.8775 27.8215 47.8679C30.7059 47.8582 33.5904 47.8389 36.4845 47.7714C38.0042 47.7329 39.5336 47.6943 41.0532 47.6364C42.4567 47.5882 43.899 47.6268 45.2638 47.2507C45.6994 47.135 45.6993 46.5179 45.2735 46.4021ZM14.58 38.9289C14.6381 38.7264 14.6574 38.6106 14.8123 38.5335C15.0253 38.4178 15.3834 38.4467 15.6351 38.4371C16.0126 38.4274 16.3901 38.4371 16.7676 38.466C16.8256 38.4756 16.9224 38.4949 17.0192 38.5142C17.0192 38.5431 17.0192 38.5624 17.0192 38.5914C17.0095 39.4496 17.0095 40.3078 16.9999 41.166C16.9902 42.0242 16.9805 42.8825 17.0095 43.7407C17.0289 44.3482 16.9902 45.0425 17.116 45.6693C16.1577 45.6403 15.1898 45.6211 14.2315 45.6018C14.2703 44.1071 14.2993 42.6221 14.3477 41.1274C14.3574 40.3849 14.3767 39.6424 14.58 38.9289ZM37.9074 36.8942C37.9461 35.2452 38.0526 33.6059 38.13 31.957C38.1688 31.2145 38.4011 30.2116 38.2656 29.4884C38.2656 29.4595 38.2752 29.4306 38.2752 29.4016C38.3236 29.392 38.3624 29.392 38.4301 29.3727C38.7495 29.4595 39.2335 29.3534 39.5723 29.3727C39.8239 29.3823 40.5112 29.3052 40.7048 29.4595C40.879 29.6041 40.8112 29.7488 40.8112 30.067C40.8016 30.9059 40.7919 31.7449 40.7822 32.5838C40.7628 34.2038 40.7435 35.8142 40.7241 37.4342C40.7048 39.0542 40.6854 40.6646 40.6661 42.2846C40.6564 43.1235 40.666 43.9625 40.6757 44.8014C40.6854 45.245 40.6661 45.6307 40.7725 45.9971C39.882 45.9682 38.9818 45.9393 38.0816 45.9104C38.0042 42.9018 37.8397 39.9124 37.9074 36.8942ZM29.9606 37.9742C29.9896 37.5017 30.0284 37.0292 30.0671 36.5663C30.0864 36.3349 30.1058 36.0938 30.1252 35.8624C30.1348 35.7949 30.1348 35.7178 30.1445 35.6503C30.5123 35.602 31.0157 35.6503 31.277 35.6792C31.5093 35.7081 31.8191 35.737 32.0417 35.8431C32.061 35.9492 32.061 36.0745 32.061 36.1903C32.1482 37.5017 32.2353 38.8228 32.3321 40.1342C32.4289 41.4071 32.5063 42.7089 32.7096 43.9721C32.758 44.2614 32.7967 45.1582 32.9903 45.8043C31.8771 45.785 30.7543 45.7753 29.6412 45.7657C29.6509 44.1071 29.7089 42.4582 29.7961 40.8092C29.8735 39.8642 29.9025 38.9192 29.9606 37.9742ZM22.1687 37.9838C22.1106 36.6724 22.0912 35.3513 22.1106 34.0399C22.1106 33.7892 22.0815 33.5095 22.1299 33.2588C22.188 33.0081 22.0622 33.1431 22.3042 33.0177C22.7688 32.7574 23.6399 32.7477 24.153 32.7092C24.2304 32.6995 24.3175 32.6995 24.3949 32.6995C24.4143 32.9117 24.453 33.2395 24.4627 33.3263C24.5014 33.9531 24.5111 34.5799 24.5111 35.2163C24.5111 36.4795 24.4433 37.7428 24.3949 38.9964C24.3465 40.2499 24.3369 41.5132 24.4046 42.7667C24.4627 43.7696 24.5692 44.8303 25.0241 45.7368C24.2981 45.7368 23.5722 45.7271 22.8366 45.7271C22.4784 43.1621 22.2751 40.5778 22.1687 37.9838Z" fill="#3D4F3D"/>
</svg>
