<svg width="49" height="49" viewBox="0 0 49 49" fill="none" xmlns="http://www.w3.org/2000/svg">
<path d="M47.8 47.3L38.1 28.8L21.4 27.3L9.6 47.7L47.8 47.3Z" fill="#39B54A"/>
<path d="M21.4 29L26.3 34.4L29.7 29.6L35.1 32.8L38 29.2L29.7 12.8L21.4 29Z" fill="white"/>
<path d="M32.5 17.1C32.5 17.1 38.7 14.7 41.8 21.1C44.9 27.5 39.1 30.6 39.1 30.6L32.5 17.1Z" fill="#FF931E"/>
<path d="M24.8 21.3L28.9 12.9C28.9 12.9 27 11.4 25.6 11.3C24.2 11.2 22.2 11.3 22.2 11.3C22.2 11.3 24.7 2.40002 17.2 1.30002C9.7 0.200018 7.6 9.30002 7.6 9.30002C7.6 9.30002 0.100001 11.6 2.2 17.9C4.2 24.2 18 22.4 18 22.4L24.8 21.3Z" fill="#E6E6E6"/>
<path d="M9.6 47.7L1.7 47.4L10.9 29.6L15.5 37.5L9.6 47.7Z" fill="#39B54A"/>
<path d="M41.4 35.6C41.4 35.6 39.4 36.4 38.7 37.5C38.1 38.7 35.7 38.8 34.1 39.6C32.5 40.5 32.2 42.8 30.4 43.1C28.6 43.3 26.1 44.6 25.4 45.1C24.7 45.6 25.3 47 25.3 47H31.8C31.8 47 32.8 44.6 33.9 44C35 43.4 37.4 44 38.1 43.5C38.8 43 41 39.5 42.1 39.7C43.2 39.9 43.6 39.2 43.6 39.2L41.4 35.6Z" fill="#3FA9F5"/>
<path d="M48.7 47C47.2 44 45.5 41.1 43.9 38.1C42.7 35.8 41.4 33.6 40.2 31.3C43.3 28.8 44.4 24.2 42.5 20.6C41.6 18.8 39.9 17.4 38 16.7C37.1 16.3 36.1 16.2 35.1 16.1C34.3 16 33.2 16 32.4 16.4C31.1 14 29.9 11.8 29.9 11.7C29.8 11.4 29.5 11.2 29.3 11.5C29.3 11.5 29 11.8 29 11.9C28.9 12 28.9 12.1 28.8 12.2C27.6 10.5 25.2 10.1 23.2 10.6C23.7 8.70002 23.7 6.70002 22.7 4.80002C21.5 2.40002 19.1 0.700018 16.5 0.300018C11.4 -0.499982 6.5 4.10002 6.6 9.10002C4.2 9.60002 2 11.2 1.1 13.6C0.0999996 16.3 1.2 19.5 3.4 21.3C6 23.4 10.3 23.2 13.5 23.4C16.9 23.5 20.4 23.3 23.7 22.2C22.4 24.6 21.2 27 19.9 29.4C18.6 31.8 17.2 34.1 15.8 36.5C15.2 35.4 14.6 34.4 14 33.3C13.5 32.5 13 31.7 12.6 30.9C12.2 30.2 11.8 29.1 10.9 28.8C10.8 28.8 10.3 28.8 10.2 28.9C9.5 29.3 9.2 30.1 8.9 30.8C8.5 31.5 8.2 32.3 7.8 33.1C7 34.8 6.2 36.4 5.4 38.1C4.6 39.7 3.8 41.3 3 42.9C2.2 44.5 1.6 46.1 0.900003 47.7C0.600003 48.3 1.8 48.3 2.1 48.3C3.8 48.4 5.1 48.4 6.7 48.3C7.7 48.3 35.6 48 38.7 48.1C41.6 48.2 44 48.4 47.1 48.3C48.3 48.2 49.2 47.9 48.7 47ZM33.9 18C34.3 17.9 34.7 17.9 35.1 18C35.8 18 36.6 18.3 37.3 18.6C38.8 19.2 40 20.3 40.7 21.7C42.1 24.4 41.3 27.7 39.2 29.8C39.1 29.7 39.1 29.5 39 29.4C37.4 26.5 36 23.6 34.5 20.6C34.2 19.9 33.7 19.1 33.3 18.2C33.5 18 33.7 18 33.9 18ZM15.6 21.8C12.7 21.8 9.6 21.7 6.7 21C4.1 20.4 2.1 18.1 2.4 15.3C2.6 12.6 5 10.6 7.6 10.6C8.1 10.6 8.5 10.2 8.5 9.70002C8.1 5.50002 12 2.20002 16 2.50002C20.3 2.80002 23.2 7.80002 21 11.6C20.6 12.4 21.4 13.2 22.2 12.8C24.3 11.6 26.2 12.2 28.3 13C27.8 13.9 27.4 14.8 27 15.7C26.3 17.2 25.5 18.7 24.7 20.2C24.6 20.3 24.6 20.4 24.5 20.5C21.7 21.5 18.7 21.9 15.6 21.8ZM26.6 21C27.2 19.5 27.8 18 28.4 16.6C28.8 15.7 29.2 14.8 29.5 13.8C30.5 16.3 31.9 18.7 33.1 21C34.5 23.6 35.9 26.1 37.2 28.7C37.2 28.7 37.2 28.7 37.1 28.7C36.3 29.7 35.4 30.7 34.6 31.8C33 30.8 31.4 29.7 29.9 28.7C29.6 28.5 29 28.6 28.8 29C28 30.5 27.1 31.9 26.1 33.2C25.4 32.3 24.7 31.5 24 30.7C23.5 30.2 23.1 29.7 22.6 29.2C24.1 26.4 25.4 23.8 26.6 21ZM6.5 46.7C5.2 46.8 4.2 46.7 3 47C3.8 45.8 4.1 44.8 4.7 43.5C5.6 41.9 6.4 40.2 7.2 38.5C8 36.9 8.6 35.3 9.3 33.7C9.6 32.9 10 32.1 10.3 31.2C10.4 31 10.5 30.8 10.5 30.5C10.7 30.8 10.9 31.2 11.1 31.5C11.5 32.3 12 33.1 12.4 33.9C13.1 35.3 13.9 36.6 14.7 37.9C13 40.8 11.1 43.5 9.5 46.3C8.5 46.5 7.5 46.6 6.5 46.7ZM16.7 39.5C18.6 36.6 20.2 33.7 21.8 30.6L22.7 31.8C23.6 33 24.6 34.1 25.6 35.2C26 35.7 26.7 35.4 27 35C28.1 33.6 29 32 29.8 30.4C31.3 31.4 32.9 32.5 34.4 33.5C34.7 33.7 35.2 33.6 35.4 33.4C36.3 32.3 37.1 31.2 38 30.1C38.9 31.8 39.8 33.6 40.7 35.3C40.2 35.3 39.7 35.5 39.3 35.8C38.5 36.4 38.2 37.3 37.5 37.9C36.7 38.7 35.6 38.6 34.6 38.9C33.7 39.2 33.1 39.7 32.5 40.4C31.8 41.2 31.2 41.8 30.2 42.1C29.3 42.5 28.3 42.7 27.4 43C25.9 43.6 24.7 44.6 24.4 46.2C20.2 46.3 16 46.4 11.8 46.5C13.6 44.4 15.2 42 16.7 39.5ZM25.6 46.4C26.1 44.9 27.8 44.3 29.2 43.9C30.7 43.4 32.1 42.9 33.2 41.7C33.8 41 34.3 40.5 35.2 40.3C36 40.1 36.9 40.1 37.6 39.7C38.3 39.3 38.8 38.7 39.3 38.1C39.8 37.5 40.4 36.4 41.3 36.4C41.7 37.2 42.1 37.9 42.5 38.7C42.6 38.9 42.7 39 42.7 39.2C41.7 39.2 40.8 39.9 40.1 40.5C39.2 41.4 38.5 42.8 37.2 43.3C36.5 43.6 35.6 43.4 34.9 43.4C34.2 43.4 33.6 43.5 33 43.9C32 44.4 31.4 45.4 31.1 46.4C30.5 46.4 30 46.4 29.4 46.4C28.1 46.3 26.8 46.4 25.6 46.4ZM39 46.4C36.8 46.4 34.7 46.3 32.5 46.3C32.8 45.6 33.5 45.1 34.2 44.9C34.9 44.7 35.6 44.8 36.2 44.8C36.8 44.8 37.5 44.6 38 44.3C40 43.2 40.7 40.3 43.1 40C44.3 42.4 45.5 44.7 46.8 47C44.2 46.4 41.5 46.5 39 46.4Z" fill="#3D4F3D"/>
</svg>
