<svg width="50" height="50" viewBox="0 0 49 49" fill="none" xmlns="http://www.w3.org/2000/svg">
<path d="M19.4211 2.39038H1.19044V45.2989H19.4211V2.39038Z" fill="#E6E6E6"/>
<path d="M29.6263 2.39038H19.4211V45.2989H29.6263V2.39038Z" fill="#999999"/>
<path d="M43.4975 14.9053H29.6263V27.8176H43.4975V14.9053Z" fill="#E6E6E6"/>
<path d="M45.2809 10.833H29.6263V14.9053H45.2809V10.833Z" fill="#999999"/>
<path d="M28.8337 27.321C28.8337 28.4136 30.6171 28.4136 30.6171 27.321C30.2208 19.1764 30.419 11.0317 29.6263 2.88699C29.8245 2.39036 29.6263 1.69509 28.9328 1.69509C23.7806 1.59576 18.5294 1.49643 13.3772 1.29778C10.8012 1.19846 8.2251 0.999808 5.7481 0.999808C5.25271 0.999808 0.397796 0.701832 0.397796 1.99306C0.199636 3.97957 0.100556 5.96608 0.199636 8.05191C0.199636 9.04516 0.298716 10.0384 0.298716 11.0317C0.298716 11.2303 0.298716 11.5283 0.298716 11.7269C0.298716 13.4155 0.298716 15.0047 0.298716 16.5939C0.298716 19.7723 0.397796 22.8514 0.397796 26.0298C0.496875 32.2873 0.794115 45.0009 0.893194 45.0009C0.695035 45.4976 0.992275 46.1929 1.78491 46.1929C4.26191 46.1929 6.63982 45.9942 9.11682 45.9942C11.3957 45.9942 13.6745 46.0935 15.9533 46.1929C18.2322 46.2922 20.511 46.3915 22.7898 46.5902C23.9788 46.6895 25.0687 46.6895 26.2576 46.7888C27.4466 46.7888 28.6355 46.9875 29.8245 46.6895C30.1217 46.5902 30.2208 46.0935 29.9236 45.9942C28.0411 45.1003 25.465 45.0009 23.3843 44.9016C22.4926 44.8023 21.5018 44.8023 20.6101 44.703C20.511 43.9084 20.6101 42.9151 20.6101 42.1205C20.6101 41.2266 20.6101 40.3327 20.6101 39.4387C20.6101 37.7502 20.511 35.9623 20.511 34.2738C20.4119 30.6981 20.4119 27.1224 20.4119 23.646C20.3128 20.1696 20.2138 16.6932 20.1147 13.2168C20.0156 9.93909 20.0156 6.56203 20.0156 3.38362C22.8889 3.38362 25.2668 3.38362 28.0411 3.38362C27.7438 11.2303 28.5365 19.2757 28.8337 27.321ZM18.4303 12.8195C18.5294 16.3952 18.5294 19.971 18.6285 23.4473C18.7276 26.9237 18.8266 30.4001 19.0248 33.8765C19.1239 35.6644 19.1239 37.5515 19.223 39.3394C19.223 40.134 19.223 41.0279 19.322 41.8225C19.322 42.7165 19.5202 43.7097 19.4211 44.6036C18.4303 44.5043 17.3404 44.5043 16.3496 44.405C13.9717 44.3057 11.5938 44.3057 9.2159 44.3057C6.93706 44.3057 4.65823 44.2063 2.37939 44.3057C2.28031 38.1475 2.37939 32.0886 2.28031 25.9305C2.28031 22.8514 2.18123 19.8716 2.18123 16.7925C2.18123 14.806 2.18123 12.7202 1.98307 10.6344C1.98307 9.83977 1.98307 8.94584 2.08215 8.05191C2.18123 6.36338 2.08215 4.77417 1.98307 3.08564C2.28031 3.18497 2.57755 3.18497 2.77571 3.18497C3.86559 3.28429 5.05455 3.38362 6.2435 3.38362C8.81958 3.38362 11.2966 3.28429 13.8726 3.28429C15.4579 3.28429 16.845 3.28429 18.3312 3.28429C18.3312 6.4627 18.3312 9.64111 18.4303 12.8195Z" fill="#484949"/>
<path d="M46.2717 11.2303C46.2717 11.131 46.1727 10.9323 46.1727 10.833C46.1727 10.7337 45.8754 9.93909 45.2809 9.93909C42.5067 9.74044 39.6334 9.34314 36.8592 9.34314C35.472 9.34314 34.184 9.34314 32.7969 9.44247C32.1033 9.44247 31.3107 9.54179 30.6171 9.64112C29.9236 9.74044 29.3291 9.74044 28.8337 10.2371C28.5365 10.535 28.6355 11.131 28.9328 11.3296C29.5273 11.7269 30.2208 11.5283 30.8153 11.5283C31.4098 11.5283 32.1033 11.429 32.6978 11.429C34.0849 11.3296 35.373 11.3296 36.7601 11.2303C39.4352 11.2303 42.0113 11.2303 44.6865 11.5283C44.6865 12.0249 44.6865 12.5216 44.6865 13.0182C44.6865 13.3162 44.6865 13.6141 44.6865 13.9121C43.9929 13.7135 43.0021 13.8128 42.4076 13.8128C40.9214 13.7135 39.4352 13.9121 38.0481 14.0114C35.0757 14.1108 32.2024 14.4087 29.3291 14.4087C28.5365 14.4087 28.5365 15.7 29.3291 15.7C32.4006 15.7 35.373 15.7993 38.4444 15.7993C38.8408 15.7993 40.6242 15.7993 42.5067 15.7C42.5067 16.7925 42.6058 17.4878 42.6058 18.4811C42.6058 19.5737 42.6058 20.5669 42.6058 21.6595C42.6058 23.8446 42.7049 25.9305 42.7049 28.1156C42.7049 29.2082 44.3892 29.2082 44.4883 28.1156C44.5874 25.9305 44.5874 23.8446 44.5874 21.6595C44.5874 20.5669 44.5874 19.5737 44.5874 18.4811C44.5874 17.4878 44.4883 16.5939 44.4883 15.5013C45.38 15.402 45.6773 15.3027 45.6773 15.3027C46.0736 15.3027 46.2717 15.0047 46.2717 14.6074C46.2717 13.3162 46.2717 12.3229 46.2717 11.2303Z" fill="#484949"/>
<path d="M40.6242 18.9777C40.6242 18.7791 40.6242 18.5804 40.5251 18.4811C40.5251 18.3818 40.426 18.2824 40.426 18.1831C40.426 18.0838 40.426 18.0838 40.327 17.9845C40.327 17.8851 40.2279 17.8851 40.1288 17.7858C40.0297 17.6865 39.8316 17.5872 39.7325 17.5872C39.4352 17.5872 39.138 17.7858 39.0389 18.0838C39.0389 18.1831 38.9398 18.2824 38.9398 18.3818C38.9398 18.5804 38.8408 18.7791 38.8408 18.8784C38.8408 18.9777 38.8408 19.077 38.8408 19.2757C38.8408 19.7723 39.2371 20.1696 39.6334 20.1696C40.1288 20.1696 40.426 19.7723 40.426 19.2757C40.6242 19.1764 40.6242 19.077 40.6242 18.9777Z" fill="#484949"/>
<path d="M37.2555 18.9777C37.2555 18.7791 37.2555 18.5804 37.1564 18.4811C37.1564 18.3818 37.0573 18.2824 37.0573 18.1831C37.0573 18.0838 37.0573 18.0838 36.9582 17.9845C36.9582 17.8851 36.8592 17.8851 36.7601 17.7858C36.661 17.6865 36.4628 17.5872 36.3638 17.5872C36.0665 17.5872 35.7693 17.7858 35.6702 18.0838C35.6702 18.1831 35.5711 18.2824 35.5711 18.3818C35.5711 18.5804 35.472 18.7791 35.472 18.8784C35.472 18.9777 35.472 19.077 35.472 19.2757C35.472 19.7723 35.8684 20.1696 36.2647 20.1696C36.7601 20.1696 37.0573 19.7723 37.0573 19.2757C37.2555 19.1764 37.2555 19.077 37.2555 18.9777Z" fill="#484949"/>
<path d="M33.5895 18.9777C33.5895 18.7791 33.5895 18.5804 33.4904 18.4811C33.4904 18.3818 33.3914 18.2824 33.3914 18.1831C33.3914 18.0838 33.3914 18.0838 33.2923 17.9845C33.2923 17.8851 33.1932 17.8851 33.0941 17.7858C32.995 17.6865 32.7969 17.5872 32.6978 17.5872C32.4006 17.5872 32.1033 17.7858 32.0042 18.0838C32.0042 18.1831 31.9052 18.2824 31.9052 18.3818C31.9052 18.5804 31.8061 18.7791 31.8061 18.8784C31.8061 18.9777 31.8061 19.077 31.8061 19.2757C31.8061 19.7723 32.2024 20.1696 32.5987 20.1696C33.0941 20.1696 33.3914 19.7723 33.3914 19.2757C33.6886 19.1764 33.5895 19.077 33.5895 18.9777Z" fill="#484949"/>
<path d="M40.6242 22.3548C40.6242 22.1561 40.6242 21.9575 40.5251 21.8582C40.5251 21.7588 40.426 21.6595 40.426 21.5602C40.426 21.4609 40.426 21.4609 40.327 21.3615C40.327 21.2622 40.2279 21.2622 40.1288 21.1629C40.0297 21.0636 39.8316 20.9642 39.7325 20.9642C39.4352 20.9642 39.138 21.1629 39.0389 21.4609C39.0389 21.5602 38.9398 21.6595 38.9398 21.7588C38.9398 21.9575 38.8408 22.1561 38.8408 22.2555C38.8408 22.3548 38.8408 22.4541 38.8408 22.6528C38.8408 23.1494 39.2371 23.5467 39.6334 23.5467C40.1288 23.5467 40.426 23.1494 40.426 22.6528C40.6242 22.6528 40.6242 22.5534 40.6242 22.3548Z" fill="#484949"/>
<path d="M37.2555 22.3548C37.2555 22.1561 37.2555 21.9575 37.1564 21.8582C37.1564 21.7588 37.0573 21.6595 37.0573 21.5602C37.0573 21.4609 37.0573 21.4609 36.9582 21.3615C36.9582 21.2622 36.8592 21.2622 36.7601 21.1629C36.661 21.0636 36.4628 20.9642 36.3638 20.9642C36.0665 20.9642 35.7693 21.1629 35.6702 21.4609C35.6702 21.5602 35.5711 21.6595 35.5711 21.7588C35.5711 21.9575 35.472 22.1561 35.472 22.2555C35.472 22.3548 35.472 22.4541 35.472 22.6528C35.472 23.1494 35.8684 23.5467 36.2647 23.5467C36.7601 23.5467 37.0573 23.1494 37.0573 22.6528C37.2555 22.6528 37.2555 22.5534 37.2555 22.3548Z" fill="#484949"/>
<path d="M33.5895 22.3548C33.5895 22.1561 33.5895 21.9575 33.4904 21.8582C33.4904 21.7588 33.3914 21.6595 33.3914 21.5602C33.3914 21.4609 33.3914 21.4609 33.2923 21.3615C33.2923 21.2622 33.1932 21.2622 33.0941 21.1629C32.995 21.0636 32.7969 20.9642 32.6978 20.9642C32.4006 20.9642 32.1033 21.1629 32.0042 21.4609C32.0042 21.5602 31.9052 21.6595 31.9052 21.7588C31.9052 21.9575 31.8061 22.1561 31.8061 22.2555C31.8061 22.3548 31.8061 22.4541 31.8061 22.6528C31.8061 23.1494 32.2024 23.5467 32.5987 23.5467C33.0941 23.5467 33.3914 23.1494 33.3914 22.6528C33.6886 22.6528 33.5895 22.5534 33.5895 22.3548Z" fill="#484949"/>
<path d="M26.6539 5.46944C26.5549 5.46944 26.4558 5.46944 26.3567 5.46944C24.9696 5.46944 23.4834 5.37012 22.0963 5.37012C21.9972 5.37012 21.8981 5.37012 21.799 5.46944C21.3036 5.46944 21.3036 6.26405 21.799 6.26405H21.9972H22.0963C23.5825 6.36337 25.0687 6.36337 26.5549 6.4627C26.8521 6.4627 26.9512 6.16472 26.9512 5.96607C26.9512 5.66809 26.9512 5.46944 26.6539 5.46944Z" fill="#484949"/>
<path d="M26.6539 8.25057C26.5549 8.25057 26.4558 8.25057 26.3567 8.25057C24.9696 8.25057 23.4834 8.15125 22.0963 8.15125C21.9972 8.15125 21.8981 8.15125 21.799 8.25057C21.3036 8.25057 21.3036 9.04517 21.799 9.04517H21.9972H22.0963C23.5825 9.1445 25.0687 9.1445 26.5549 9.24382C26.8521 9.24382 26.9512 8.94585 26.9512 8.7472C26.9512 8.54855 26.9512 8.25057 26.6539 8.25057Z" fill="#484949"/>
<path d="M26.6539 11.131C26.5549 11.131 26.4558 11.131 26.3567 11.131C24.9696 11.131 23.4834 11.0317 22.0963 11.0317C21.9972 11.0317 21.8981 11.0317 21.799 11.131C21.3036 11.131 21.3036 11.9256 21.799 11.9256H21.9972H22.0963C23.5825 12.0249 25.0687 12.0249 26.5549 12.1243C26.8521 12.1243 26.9512 11.8263 26.9512 11.6276C26.9512 11.3297 26.9512 11.131 26.6539 11.131Z" fill="#484949"/>
<path d="M26.6539 13.9121C26.5549 13.9121 26.4558 13.9121 26.3567 13.9121C24.9696 13.9121 23.4834 13.8128 22.0963 13.8128C21.9972 13.8128 21.8981 13.8128 21.799 13.9121C21.3036 13.9121 21.3036 14.7067 21.799 14.7067H21.9972H22.0963C23.5825 14.8061 25.0687 14.8061 26.5549 14.9054C26.8521 14.9054 26.9512 14.6074 26.9512 14.4088C26.9512 14.2101 26.9512 13.9121 26.6539 13.9121Z" fill="#484949"/>
<path d="M26.6539 16.7926C26.5549 16.7926 26.4558 16.7926 26.3567 16.7926C24.9696 16.7926 23.4834 16.6932 22.0963 16.6932C21.9972 16.6932 21.8981 16.6932 21.799 16.7926C21.3036 16.7926 21.3036 17.5872 21.799 17.5872H21.9972H22.0963C23.5825 17.6865 25.0687 17.6865 26.5549 17.7858C26.8521 17.7858 26.9512 17.4878 26.9512 17.2892C26.9512 16.9912 26.9512 16.7926 26.6539 16.7926Z" fill="#484949"/>
<path d="M26.6539 19.5737C26.5549 19.5737 26.4558 19.5737 26.3567 19.5737C24.9696 19.5737 23.4834 19.4744 22.0963 19.4744C21.9972 19.4744 21.8981 19.4744 21.799 19.5737C21.3036 19.5737 21.3036 20.3683 21.799 20.3683H21.9972H22.0963C23.5825 20.4676 25.0687 20.4676 26.5549 20.5669C26.8521 20.5669 26.9512 20.269 26.9512 20.0703C26.9512 19.8717 26.9512 19.5737 26.6539 19.5737Z" fill="#484949"/>
<path d="M26.6539 22.4541C26.5549 22.4541 26.4558 22.4541 26.3567 22.4541C24.9696 22.4541 23.4834 22.3547 22.0963 22.3547C21.9972 22.3547 21.8981 22.3547 21.799 22.4541C21.3036 22.4541 21.3036 23.2487 21.799 23.2487H21.9972H22.0963C23.5825 23.348 25.0687 23.348 26.5549 23.4473C26.8521 23.4473 26.9512 23.1493 26.9512 22.9507C26.9512 22.6527 26.9512 22.4541 26.6539 22.4541Z" fill="#484949"/>
<path d="M26.6539 25.2353C26.5549 25.2353 26.4558 25.2353 26.3567 25.2353C24.9696 25.2353 23.4834 25.1359 22.0963 25.1359C21.9972 25.1359 21.8981 25.1359 21.799 25.2353C21.3036 25.2353 21.3036 26.0299 21.799 26.0299H21.9972H22.0963C23.5825 26.1292 25.0687 26.1292 26.5549 26.2285C26.8521 26.2285 26.9512 25.9305 26.9512 25.7319C26.9512 25.5332 26.9512 25.2353 26.6539 25.2353Z" fill="#484949"/>
<path d="M26.6539 28.1156C26.5549 28.1156 26.4558 28.1156 26.3567 28.1156C24.9696 28.1156 23.4834 28.0163 22.0963 28.0163C21.9972 28.0163 21.8981 28.0163 21.799 28.1156C21.3036 28.1156 21.3036 28.9102 21.799 28.9102H21.9972H22.0963C23.5825 29.0095 25.0687 29.0095 26.5549 29.1089C26.8521 29.1089 26.9512 28.8109 26.9512 28.6122C26.9512 28.3143 26.9512 28.1156 26.6539 28.1156Z" fill="#484949"/>
<path d="M26.6539 30.8968C26.5549 30.8968 26.4558 30.8968 26.3567 30.8968C24.9696 30.8968 23.4834 30.7974 22.0963 30.7974C21.9972 30.7974 21.8981 30.7974 21.799 30.8968C21.3036 30.8968 21.3036 31.6914 21.799 31.6914H21.9972H22.0963C23.5825 31.7907 25.0687 31.7907 26.5549 31.89C26.8521 31.89 26.9512 31.592 26.9512 31.3934C26.9512 31.1947 26.9512 30.8968 26.6539 30.8968Z" fill="#484949"/>
<path d="M26.6539 33.7772C26.5549 33.7772 26.4558 33.7772 26.3567 33.7772C24.9696 33.7772 23.4834 33.6779 22.0963 33.6779C21.9972 33.6779 21.8981 33.6779 21.799 33.7772C21.3036 33.7772 21.3036 34.5718 21.799 34.5718H21.9972H22.0963C23.5825 34.6711 25.0687 34.6711 26.5549 34.7704C26.8521 34.7704 26.9512 34.4725 26.9512 34.2738C26.9512 33.9758 26.9512 33.7772 26.6539 33.7772Z" fill="#484949"/>
<path d="M26.6539 36.5583C26.5549 36.5583 26.4558 36.5583 26.3567 36.5583C24.9696 36.5583 23.4834 36.459 22.0963 36.459C21.9972 36.459 21.8981 36.459 21.799 36.5583C21.3036 36.5583 21.3036 37.3529 21.799 37.3529H21.9972H22.0963C23.5825 37.4522 25.0687 37.4522 26.5549 37.5516C26.8521 37.5516 26.9512 37.2536 26.9512 37.0549C26.9512 36.8563 26.9512 36.5583 26.6539 36.5583Z" fill="#484949"/>
<path d="M26.6539 39.4387C26.5549 39.4387 26.4558 39.4387 26.3567 39.4387C24.9696 39.4387 23.4834 39.3394 22.0963 39.3394C21.9972 39.3394 21.8981 39.3394 21.799 39.4387C21.3036 39.4387 21.3036 40.2333 21.799 40.2333H21.9972H22.0963C23.5825 40.3327 25.0687 40.3327 26.5549 40.432C26.8521 40.432 26.9512 40.134 26.9512 39.9354C26.9512 39.6374 26.9512 39.4387 26.6539 39.4387Z" fill="#484949"/>
<path d="M26.6539 42.2199C26.5549 42.2199 26.4558 42.2199 26.3567 42.2199C24.9696 42.2199 23.4834 42.1205 22.0963 42.1205C21.9972 42.1205 21.8981 42.1205 21.799 42.2199C21.3036 42.2199 21.3036 43.0145 21.799 43.0145H21.9972H22.0963C23.5825 43.1138 25.0687 43.1138 26.5549 43.2131C26.8521 43.2131 26.9512 42.9151 26.9512 42.7165C26.9512 42.5178 26.9512 42.2199 26.6539 42.2199Z" fill="#484949"/>
<path d="M36.4628 48.08C42.7009 48.08 47.7579 43.0105 47.7579 36.7569C47.7579 30.5034 42.7009 25.4338 36.4628 25.4338C30.2247 25.4338 25.1677 30.5034 25.1677 36.7569C25.1677 43.0105 30.2247 48.08 36.4628 48.08Z" fill="#FACE8D"/>
<path d="M47.7579 33.4792C46.9653 30.5988 45.0828 28.1156 42.5067 26.5264C41.9122 26.1291 41.1196 25.8311 40.426 25.5332C40.3269 25.3345 40.2279 25.1359 39.9306 25.1359C37.2555 24.3413 34.6794 24.2419 32.0042 25.2352C29.5273 26.1291 27.1493 27.7183 25.7622 30.0028C22.8889 34.5718 23.6815 41.1272 27.2484 45.0009C31.0134 49.0733 37.4536 50.2652 42.2095 47.3847C46.8662 44.6036 49.1451 38.5448 47.7579 33.4792ZM42.6058 44.5043C39.0389 47.1861 33.6886 47.2854 30.0227 44.8023C26.1585 42.2198 24.9696 36.459 26.9512 32.2873C28.0411 30.1021 29.8245 28.3143 32.0042 27.2217C33.6886 26.4271 35.6702 26.0298 37.6518 26.2284C38.7417 26.4271 39.8315 26.7251 40.9214 27.321C43.0021 28.4136 44.6865 30.1021 45.6773 32.2873C47.5598 36.459 46.1727 41.7232 42.6058 44.5043Z" fill="#484949"/>
<path d="M41.2187 36.7569C40.7233 35.7637 39.7325 35.1677 38.7417 34.8697C38.1472 34.7704 37.5527 34.6711 36.9582 34.6711C36.8592 33.5785 36.7601 32.4859 36.661 31.3934C37.5527 31.294 38.4444 31.3934 39.2371 31.592C39.8316 31.6913 40.2279 30.8967 39.6334 30.5988C38.6426 30.1021 37.6518 29.8041 36.5619 29.8041C36.4628 29.2082 36.4628 28.7116 36.3638 28.1156C36.2647 27.7183 35.7693 27.917 35.7693 28.2149C35.6702 28.8109 35.6702 29.3075 35.6702 29.9035C34.8776 30.0028 34.0849 30.2015 33.2923 30.4994C32.2024 30.8967 31.3107 31.89 31.2116 33.1812C31.1125 34.3731 31.9052 35.3664 32.7969 35.9623C33.5895 36.4589 34.5803 36.6576 35.5711 36.6576C35.5711 38.1475 35.6702 39.7367 35.6702 41.2266C34.5803 41.0279 33.6886 40.432 32.896 39.6374C31.8061 38.4455 30.0227 40.2333 31.1125 41.4252C32.3015 42.7164 33.9858 43.4117 35.6702 43.511C35.6702 44.107 35.6702 44.703 35.6702 45.2989C35.6702 46.4908 37.5527 46.4908 37.5527 45.2989C37.5527 44.703 37.4536 44.0077 37.4536 43.4117C39.2371 43.0144 40.9214 41.8225 41.5159 39.836C41.7141 38.6441 41.7141 37.6509 41.2187 36.7569ZM35.373 34.6711C34.6794 34.6711 33.2923 34.3731 33.3914 33.3799C33.3914 32.9826 33.7877 32.7839 34.0849 32.4859C34.4812 32.0886 34.9766 31.89 35.472 31.6913H35.5711C35.472 32.6846 35.373 33.6778 35.373 34.6711ZM38.2463 40.9286C37.949 41.0279 37.5527 41.1272 37.2555 41.2266C37.1564 39.7367 37.1564 38.1475 37.0573 36.6576C37.7509 36.6576 38.4444 36.7569 38.9398 37.0549C39.6334 37.4522 39.9306 38.3461 39.8316 39.1407C39.8316 39.9353 39.0389 40.5313 38.2463 40.9286Z" fill="#484949"/>
<path d="M12.3865 38.4455C12.1883 38.4455 11.8911 38.4455 11.6929 38.4455C11.3957 38.4455 11.0984 38.4455 10.7021 38.4455C10.1076 38.4455 9.51314 38.4455 8.91866 38.4455C8.42326 38.4455 7.82878 38.5448 7.7297 39.1408C7.53154 39.6374 7.63062 40.3327 7.63062 40.8293V42.8158C7.63062 43.5111 7.63062 44.2064 7.7297 44.9016C7.7297 45.3983 8.52234 45.3983 8.52234 44.9016C8.62142 43.9084 8.62142 42.8158 8.62142 41.8226C8.62142 41.3259 8.62142 40.8293 8.62142 40.3327C8.62142 40.134 8.62142 39.8361 8.62142 39.6374C8.62142 39.5381 8.62142 39.5381 8.62142 39.4387H8.7205C9.7113 39.4387 10.8012 39.3394 11.792 39.3394C11.9901 39.3394 12.1883 39.3394 12.3865 39.3394C12.5846 39.4387 12.4855 39.5381 12.4855 39.6374C12.3865 40.134 12.3864 40.6307 12.2874 41.1273C12.1883 41.7232 12.1883 42.3192 12.0892 42.8158C12.0892 43.1138 11.9901 43.4118 12.0892 43.6104C12.0892 43.7097 12.0892 43.9084 12.0892 44.0077C12.0892 44.2064 12.0892 44.405 12.0892 44.6037C11.792 45.1003 12.7828 45.1996 12.6837 44.703C12.6837 44.5043 12.7828 44.3057 12.7828 44.107C12.7828 44.0077 12.8818 43.8091 12.8818 43.7097C12.9809 43.4118 12.9809 43.1138 13.08 42.8158C13.1791 42.2199 13.2782 41.6239 13.3772 41.028C13.2782 40.134 13.7736 38.5448 12.3865 38.4455Z" fill="#484949"/>
<path d="M17.8358 40.0346C17.5386 39.9353 17.2414 39.7367 16.9441 39.6373C17.0432 39.6373 17.2414 39.6373 17.3404 39.6373C17.7368 39.6373 17.7368 39.0414 17.3404 39.0414C16.6469 39.0414 16.0524 39.0414 15.3589 39.0414C15.0616 39.0414 14.8635 39.538 15.1607 39.6373L15.9533 40.0346C15.4579 40.134 15.0616 40.3326 14.6653 40.6306C14.4671 40.8292 14.4671 41.2265 14.7644 41.2265C15.1607 41.3259 15.4579 41.4252 15.8543 41.5245C15.4579 41.6238 14.9625 41.7232 14.5662 41.8225C14.1699 41.9218 14.1699 42.5178 14.5662 42.6171C14.6653 42.6171 14.7644 42.6171 14.8635 42.7164V42.8157C14.8635 43.0144 15.0616 43.3124 15.3589 43.3124C15.9533 43.213 16.5478 43.213 17.2414 43.213C17.6377 43.213 17.8358 42.5178 17.3404 42.4184C17.0432 42.3191 16.845 42.3191 16.5478 42.2198C16.845 42.1205 17.2414 42.0211 17.5386 42.0211C17.9349 41.9218 17.8358 41.4252 17.5386 41.3259C17.0432 41.2265 16.4487 41.0279 15.9533 40.9286C16.5478 40.7299 17.1423 40.7299 17.7368 40.8292C17.9349 40.8292 18.1331 40.7299 18.1331 40.6306C18.1331 40.3326 18.034 40.134 17.8358 40.0346Z" fill="#484949"/>
<path d="M6.04535 42.6171C5.74811 42.5178 5.45087 42.4185 5.15363 42.3192L6.04535 42.0212C6.34259 41.9219 6.44166 41.5246 6.14443 41.4252C5.74811 41.2266 5.35179 41.1273 5.05455 40.9286C5.45087 40.8293 5.84719 40.73 6.24351 40.6306C6.44167 40.6306 6.54075 40.432 6.54075 40.2333C6.54075 40.0347 6.44167 39.9354 6.24351 39.836C5.94627 39.7367 5.74811 39.6374 5.45087 39.5381C5.54995 39.5381 5.54995 39.5381 5.64903 39.5381C5.84719 39.4387 6.04535 39.3394 6.24351 39.2401C6.54074 39.1408 6.44166 38.7435 6.14443 38.6441C5.94627 38.5448 5.74811 38.5448 5.45087 38.5448C5.25271 38.5448 4.95547 38.5448 4.75731 38.6441C4.26191 38.7435 3.86559 38.7434 3.37019 38.8428C3.17203 38.8428 3.07295 39.0414 3.07295 39.2401C3.07295 39.4387 3.17203 39.6374 3.37019 39.6374C3.86559 39.836 4.36099 40.0347 4.75731 40.134C4.46007 40.2333 4.16283 40.3327 3.76651 40.432C3.46927 40.5313 3.46927 40.9286 3.76651 41.0279C4.16283 41.2266 4.55915 41.4252 4.95547 41.6239C4.55915 41.8225 4.26191 41.9219 3.86559 42.1205C3.66743 42.2198 3.76651 42.6171 3.96467 42.6171C4.26191 42.7165 4.55915 42.8158 4.85639 43.0144C4.65823 43.2131 4.85639 43.6104 5.15363 43.5111C5.45087 43.4117 5.64903 43.4117 5.94627 43.3124C6.34259 43.2131 6.34259 42.7165 6.04535 42.6171Z" fill="#484949"/>
<path d="M17.0432 36.459C16.5478 36.2603 15.9533 36.3597 15.3588 36.3597C14.8634 36.3597 14.368 36.3597 13.7736 36.3597C12.6837 36.3597 11.4947 36.459 10.4049 36.459C8.12602 36.5583 5.94627 36.5583 3.66743 36.5583C3.07295 36.5583 3.07295 37.5516 3.66743 37.5516C5.94627 37.4522 8.12602 37.3529 10.4049 37.3529C11.4947 37.3529 12.6837 37.3529 13.7736 37.2536C14.269 37.2536 14.7644 37.2536 15.3588 37.1543C15.8542 37.1543 16.4487 37.1543 17.0432 37.0549C17.3404 37.0549 17.4395 36.5583 17.0432 36.459Z" fill="#484949"/>
<path d="M17.0432 33.6779C16.5478 33.4792 15.9533 33.5785 15.3588 33.5785C14.8634 33.5785 14.368 33.5785 13.7736 33.5785C12.6837 33.5785 11.4947 33.6779 10.4049 33.6779C8.12602 33.7772 5.94627 33.7772 3.66743 33.7772C3.07295 33.7772 3.07295 34.7704 3.66743 34.7704C5.94627 34.6711 8.12602 34.5718 10.4049 34.5718C11.4947 34.5718 12.6837 34.5718 13.7736 34.4725C14.269 34.4725 14.7644 34.4725 15.3588 34.3731C15.8542 34.3731 16.4487 34.3731 17.0432 34.2738C17.3404 34.1745 17.4395 33.7772 17.0432 33.6779Z" fill="#484949"/>
<path d="M17.0432 30.7974C16.5478 30.5988 15.9533 30.6981 15.3588 30.6981C14.8634 30.6981 14.368 30.6981 13.7736 30.6981C12.6837 30.6981 11.4947 30.7974 10.4049 30.7974C8.12602 30.8968 5.94627 30.8968 3.66743 30.8968C3.07295 30.8968 3.07295 31.89 3.66743 31.89C5.94627 31.7907 8.12602 31.6914 10.4049 31.6914C11.4947 31.6914 12.6837 31.6914 13.7736 31.592C14.269 31.592 14.7644 31.592 15.3588 31.4927C15.8542 31.4927 16.4487 31.4927 17.0432 31.3934C17.3404 31.3934 17.4395 30.8968 17.0432 30.7974Z" fill="#484949"/>
<path d="M17.0432 27.917C16.5478 27.7184 15.9533 27.8177 15.3588 27.8177C14.8634 27.8177 14.368 27.8177 13.7736 27.8177C12.6837 27.8177 11.4947 27.917 10.4049 27.917C8.12602 28.0163 5.94627 28.0163 3.66743 28.0163C3.07295 28.0163 3.07295 29.0096 3.66743 29.0096C5.94627 28.9103 8.12602 28.8109 10.4049 28.8109C11.4947 28.8109 12.6837 28.8109 13.7736 28.7116C14.269 28.7116 14.7644 28.7116 15.3588 28.6123C15.8542 28.6123 16.4487 28.6123 17.0432 28.513C17.3404 28.513 17.4395 28.0163 17.0432 27.917Z" fill="#484949"/>
<path d="M17.0432 25.1359C16.5478 24.9372 15.9533 25.0366 15.3588 25.0366C14.8634 25.0366 14.368 25.0366 13.7736 25.0366C12.6837 25.0366 11.4947 25.1359 10.4049 25.1359C8.12602 25.2352 5.94627 25.2352 3.66743 25.2352C3.07295 25.2352 3.07295 26.2285 3.66743 26.2285C5.94627 26.1291 8.12602 26.0298 10.4049 26.0298C11.4947 26.0298 12.6837 26.0298 13.7736 25.9305C14.269 25.9305 14.7644 25.9305 15.3588 25.8312C15.8542 25.8312 16.4487 25.8312 17.0432 25.7318C17.3404 25.7318 17.4395 25.2352 17.0432 25.1359Z" fill="#484949"/>
<path d="M17.0432 22.2554C16.5478 22.0568 15.9533 22.1561 15.3588 22.1561C14.8634 22.1561 14.368 22.1561 13.7736 22.1561C12.6837 22.1561 11.4947 22.2554 10.4049 22.2554C8.12602 22.3548 5.94627 22.3548 3.66743 22.3548C3.07295 22.3548 3.07295 23.348 3.66743 23.348C5.94627 23.2487 8.12602 23.1494 10.4049 23.1494C11.4947 23.1494 12.6837 23.1494 13.7736 23.05C14.269 23.05 14.7644 23.05 15.3588 22.9507C15.8542 22.9507 16.4487 22.9507 17.0432 22.8514C17.3404 22.8514 17.4395 22.3548 17.0432 22.2554Z" fill="#484949"/>
<path d="M17.0432 19.4744C16.5478 19.2757 15.9533 19.3751 15.3588 19.3751C14.8634 19.3751 14.368 19.3751 13.7736 19.3751C12.6837 19.3751 11.4947 19.4744 10.4049 19.4744C8.12602 19.5737 5.94627 19.5737 3.66743 19.5737C3.07295 19.5737 3.07295 20.567 3.66743 20.567C5.94627 20.4676 8.12602 20.3683 10.4049 20.3683C11.4947 20.3683 12.6837 20.3683 13.7736 20.269C14.269 20.269 14.7644 20.269 15.3588 20.1697C15.8542 20.1697 16.4487 20.1697 17.0432 20.0703C17.3404 20.0703 17.4395 19.5737 17.0432 19.4744Z" fill="#484949"/>
<path d="M17.0432 16.5939C16.5478 16.3952 15.9533 16.4946 15.3588 16.4946C14.8634 16.4946 14.368 16.4946 13.7736 16.4946C12.6837 16.4946 11.4947 16.5939 10.4049 16.5939C8.12602 16.6932 5.94627 16.6932 3.66743 16.6932C3.07295 16.6932 3.07295 17.6865 3.66743 17.6865C5.94627 17.5871 8.12602 17.4878 10.4049 17.4878C11.4947 17.4878 12.6837 17.4878 13.7736 17.3885C14.269 17.3885 14.7644 17.3885 15.3588 17.2892C15.8542 17.2892 16.4487 17.2892 17.0432 17.1898C17.3404 17.1898 17.4395 16.6932 17.0432 16.5939Z" fill="#484949"/>
<path d="M17.0432 13.8128C16.5478 13.6142 15.9533 13.7135 15.3588 13.7135C14.8634 13.7135 14.368 13.7135 13.7736 13.7135C12.6837 13.7135 11.4947 13.8128 10.4049 13.8128C8.12602 13.9121 5.94627 13.9121 3.66743 13.9121C3.07295 13.9121 3.07295 14.9054 3.66743 14.9054C5.94627 14.8061 8.12602 14.7067 10.4049 14.7067C11.4947 14.7067 12.6837 14.7067 13.7736 14.6074C14.269 14.6074 14.7644 14.6074 15.3588 14.5081C15.8542 14.5081 16.4487 14.5081 17.0432 14.4088C17.3404 14.3094 17.4395 13.8128 17.0432 13.8128Z" fill="#484949"/>
<path d="M17.0432 10.9323C16.5478 10.7337 15.9533 10.833 15.3588 10.833C14.8634 10.833 14.368 10.833 13.7736 10.833C12.6837 10.833 11.4947 10.9323 10.4049 10.9323C8.12602 11.0316 5.94627 11.0316 3.66743 11.0316C3.07295 11.0316 3.07295 12.0249 3.66743 12.0249C5.94627 11.9256 8.12602 11.8263 10.4049 11.8263C11.4947 11.8263 12.6837 11.8263 13.7736 11.7269C14.269 11.7269 14.7644 11.7269 15.3588 11.6276C15.8542 11.6276 16.4487 11.6276 17.0432 11.5283C17.3404 11.5283 17.4395 11.0316 17.0432 10.9323Z" fill="#484949"/>
<path d="M17.0432 8.05195C16.5478 7.8533 15.9533 7.95263 15.3588 7.95263C14.8634 7.95263 14.368 7.95263 13.7736 7.95263C12.6837 7.95263 11.4947 8.05195 10.4049 8.05195C8.12602 8.15128 5.94627 8.15128 3.66743 8.15128C3.07295 8.15128 3.07295 9.14453 3.66743 9.14453C5.94627 9.04521 8.12602 8.94588 10.4049 8.94588C11.4947 8.94588 12.6837 8.94588 13.7736 8.84656C14.269 8.84656 14.7644 8.84656 15.3588 8.74723C15.8542 8.74723 16.4487 8.74723 17.0432 8.6479C17.3404 8.6479 17.4395 8.15128 17.0432 8.05195Z" fill="#484949"/>
<path d="M17.0432 5.27076C16.5478 5.07211 15.9533 5.17144 15.3588 5.17144C14.8634 5.17144 14.368 5.17144 13.7736 5.17144C12.6837 5.17144 11.4947 5.27076 10.4049 5.27076C8.12602 5.37009 5.94627 5.37009 3.66743 5.37009C3.07295 5.37009 3.07295 6.36334 3.66743 6.36334C5.94627 6.26402 8.12602 6.16469 10.4049 6.16469C11.4947 6.16469 12.6837 6.16469 13.7736 6.06537C14.269 6.06537 14.7644 6.06537 15.3588 5.96604C15.8542 5.96604 16.4487 5.96604 17.0432 5.86672C17.3404 5.86672 17.4395 5.37009 17.0432 5.27076Z" fill="#484949"/>
</svg>
