<svg width="50" height="50" viewBox="0 0 44 49" fill="none" xmlns="http://www.w3.org/2000/svg">
<path d="M15.7709 48.7L33.8709 47.8L35.1709 32.9C35.1709 32.9 41.1709 33.9 41.9709 26.9C42.6709 19.9 35.6709 20.9 35.6709 20.9L37.2709 14C37.2709 14 28.5709 10.9 17.8709 10.1C7.1709 9.29997 6.9709 12.1 6.8709 14.5C6.7709 16.9 5.7709 20.4 3.8709 21.4C1.9709 22.3 0.170902 26.4 1.1709 29.1C2.1709 31.8 6.1709 31.7 6.1709 32.8C6.2709 34 10.2709 40.6 16.0709 42.1C17.5709 42.6 15.7709 48.7 15.7709 48.7Z" fill="#FACE8D"/>
<path d="M36.271 18.9C36.271 18.9 41.271 16 40.471 12.2C39.771 8.39998 37.171 3.69998 24.271 2.79998C11.371 1.89998 8.771 1.09998 8.771 1.09998C8.771 1.09998 5.771 5.19998 6.171 8.09998C6.571 11 7.571 13.1 7.571 13.1C7.571 13.1 11.371 9.49998 20.971 10.8C37.671 13.1 36.271 18.9 36.271 18.9Z" fill="#FF931E"/>
<path d="M21.9708 29C20.7708 28.1 18.9708 29.1 17.6708 29.3C16.7708 29.4 16.0708 29.2 16.1708 28.1C16.2708 27.5 16.4708 26.9 16.6708 26.4C16.9708 25.7 17.1708 25 17.4708 24.2C17.9708 22.8 18.5708 21.3 18.7708 19.8C18.8708 19.1 18.0708 18.7 17.6708 19.3C16.6708 20.8 16.0708 22.4 15.4708 24.1C14.9708 25.5 14.0708 27.1 14.0708 28.6C14.1708 30.2 15.3708 31.2 16.9708 31.4C17.6708 31.4 18.3708 31.3 18.9708 31.2C19.3708 31.1 19.7708 31 20.1708 30.9C20.5708 30.8 20.9708 31 21.3708 30.9C22.3708 30.8 22.7708 29.6 21.9708 29Z" fill="#3D4F3D"/>
<path d="M30.2711 20.8C30.0711 20.1 29.6711 19.5 28.9711 19.2C28.3711 18.8 27.5711 18.6 26.8711 18.6C25.4711 18.5 23.7711 19.2 22.9711 20.4C22.6711 20.8 22.8711 21.4 23.2711 21.7C23.6711 22 24.2711 22 24.6711 21.6C24.7711 21.5 24.8711 21.4 24.9711 21.3L25.0711 21.2L25.1711 21.1H25.2711C25.3711 21.1 25.3711 21 25.4711 21C25.5711 20.9 25.6711 20.9 25.7711 20.8H25.8711H25.9711C26.0711 20.8 26.1711 20.7 26.3711 20.7C26.4711 20.7 26.5711 20.7 26.6711 20.6C26.7711 20.6 26.8711 20.6 26.8711 20.6C26.9711 20.6 27.0711 20.6 27.2711 20.6H27.3711H27.4711C27.5711 20.6 27.6711 20.7 27.8711 20.7C27.9711 20.7 27.9711 20.7 28.0711 20.8C28.0711 20.8 28.1711 20.9 28.0711 20.8C28.1711 20.9 28.3711 20.9 28.4711 21H28.5711C28.6711 21 28.6711 21.1 28.7711 21.1C28.9711 21.2 29.2711 21.3 29.4711 21.4C29.8711 21.6 30.3711 21.2 30.2711 20.8Z" fill="#3D4F3D"/>
<path d="M14.4708 20C14.0708 18.5 12.1708 17.7 10.6708 17.8C9.87081 17.9 9.17081 18.1 8.57081 18.6C7.87081 19.1 7.17081 19.8 7.27081 20.7C7.37081 21.2 7.87081 21.6 8.37081 21.3C8.57081 21.1 8.87081 21 9.07081 20.7C9.17081 20.6 9.27081 20.5 9.37081 20.4C9.47081 20.3 9.47081 20.3 9.57081 20.3C9.57081 20.3 9.67081 20.3 9.67081 20.2L9.77081 20.1C9.87081 20.1 9.87081 20 9.97081 20C9.97081 20 9.97081 20 10.0708 20H10.1708C10.4708 19.9 10.6708 19.9 10.9708 19.8C11.0708 19.8 11.1708 19.8 11.1708 19.8C11.2708 19.8 11.4708 19.8 11.5708 19.8C11.6708 19.8 11.6708 19.8 11.7708 19.8C11.8708 19.8 12.0708 19.9 12.1708 19.9C12.1708 19.9 12.1708 19.9 12.2708 19.9C12.3708 19.9 12.3708 20 12.4708 20C12.5708 20.1 12.6708 20.1 12.8708 20.2C13.1708 20.3 13.3708 20.5 13.6708 20.6C14.0708 20.8 14.5708 20.4 14.4708 20Z" fill="#3D4F3D"/>
<path d="M38.6708 26.3C38.6708 26 38.5708 25.8 38.2708 25.7C38.0708 25.6 37.7708 25.6 37.5708 25.7C37.5708 25.7 37.4708 25.7 37.4708 25.8C37.2708 25.9 37.2708 26 37.0708 26.1C36.9708 26.2 36.9708 26.3 36.8708 26.4C36.7708 26.6 36.6708 26.7 36.5708 26.9C36.4708 27.1 36.2708 27.4 36.1708 27.6C36.0708 27.9 36.0708 28.1 36.0708 28.4C36.0708 28.5 36.0708 28.7 36.1708 28.8C36.2708 28.9 36.3708 29 36.5708 29.1C36.6708 29.2 36.7708 29.2 36.9708 29.2C37.1708 29.2 37.2708 29.1 37.3708 29L37.6708 28.8C37.7708 28.7 37.8708 28.6 37.9708 28.4C38.0708 28.2 38.1708 28 38.2708 27.8C38.3708 27.6 38.4708 27.3 38.5708 27C38.5708 26.9 38.6708 26.8 38.6708 26.7C38.7708 26.7 38.7708 26.5 38.6708 26.3Z" fill="#3D4F3D"/>
<path d="M28.771 15.3L34.271 15.2L35.171 7.6L38.771 7.7L33.371 2L26.271 7L29.871 8L28.771 15.3Z" fill="#39B54A"/>
<path d="M39.371 7.6C38.271 6.4 37.271 5.2 36.271 4C35.771 3.4 35.371 2.8 34.771 2.2C34.371 1.8 33.871 1.5 33.271 1.5C32.671 1.5 32.171 1.9 31.671 2.3C31.071 2.8 30.371 3.2 29.771 3.7C28.471 4.6 27.171 5.6 25.871 6.6C25.471 6.9 25.671 7.6 26.171 7.7C26.871 7.8 27.571 8 28.271 8.1C28.571 8.1 29.071 8.2 29.471 8.2C29.371 8.6 29.371 9 29.271 9.4C29.171 10 29.071 10.6 28.971 11.2C28.771 12.4 28.571 13.7 28.371 14.9C28.271 15.3 28.571 15.7 28.971 15.7C30.771 15.8 32.571 15.8 34.371 15.8C34.671 15.8 34.871 15.6 34.871 15.3C35.071 13 35.271 10.8 35.571 8.6C36.671 8.6 37.771 8.6 38.871 8.7C39.471 8.6 39.671 7.9 39.371 7.6ZM35.171 6.9C34.671 6.9 34.471 7.2 34.471 7.6C34.271 9.9 34.071 12.1 33.871 14.6C32.471 14.5 31.071 14.4 29.671 14.4C29.871 13.4 30.071 12.4 30.171 11.4C30.271 10.8 30.371 10.1 30.471 9.5C30.571 8.9 30.671 8 30.671 7.6C30.671 7.2 28.071 6.8 27.871 6.7C28.571 6.2 29.271 5.7 29.971 5.2C30.471 4.8 31.071 4.4 31.571 4C32.071 3.6 32.571 3.1 33.171 2.9C33.771 2.7 34.171 3.4 34.471 3.8C34.871 4.3 35.371 4.8 35.771 5.3C36.371 5.9 36.871 6.6 37.471 7.3C36.671 7.1 35.971 7 35.171 6.9Z" fill="#3D4F3D"/>
<path d="M43.1707 26C42.8707 24 41.8707 22 40.0707 20.9C39.0707 20.2 37.7707 20 36.6707 20.2C36.6707 20 36.7707 19.7 36.7707 19.5C37.6707 19.6 38.5707 18.7 39.1707 18.1C39.9707 17.3 40.5707 16.3 40.8707 15.2C41.1707 14.1 41.2707 12.9 41.0707 11.7C41.0707 11 40.8707 10.5 40.6707 10C40.4707 9.40003 40.1707 8.80003 39.6707 8.40003C39.0707 7.90003 37.8707 8.40003 38.1707 9.30003C38.3707 9.80003 38.6707 10.2 38.8707 10.6C39.0707 11 39.1707 11.5 39.2707 11.9C39.4707 12.8 39.3707 13.7 39.0707 14.6C38.8707 15.4 38.3707 16.2 37.8707 16.8C37.6707 17.1 37.2707 17.3 36.9707 17.6C37.0707 16.4 37.1707 15.2 37.1707 14C37.1707 13.3 36.1707 13.2 35.9707 13.8C35.2707 16.3 34.9707 18.9 34.5707 21.5C34.4707 22.3 35.4707 23.2 36.0707 22.4C37.0707 21.2 38.7707 22.1 39.5707 23C40.4707 24 41.0707 25.4 41.0707 26.7C41.0707 29.7 38.1707 32.2 35.1707 31.7C34.4707 31.6 33.8707 32 33.7707 32.7C33.2707 37.3 32.9707 42 32.5707 46.6C32.4707 48 34.6707 48 34.7707 46.6C35.1707 42.3 35.5707 38.1 35.7707 33.8C40.1707 33.9 43.7707 30.2 43.1707 26Z" fill="#3D4F3D"/>
<path d="M30.2709 2.9C26.9709 2 23.4709 1.6 20.0709 1.1C16.6709 0.7 13.1709 0.3 9.67087 0C8.87087 0 8.47087 0 7.97087 0.6C7.47087 1.1 7.07087 1.6 6.77087 2.2C6.07087 3.3 5.67087 4.5 5.37087 5.8C4.87087 8.3 4.97087 11.2 6.17087 13.5C5.47087 15.2 5.17087 17.2 4.77087 18.9C4.67087 19.3 4.57087 19.7 4.47087 20.1C3.37087 20.5 2.47087 21.4 1.77087 22.2C0.87087 23.4 0.27087 24.7 0.0708699 26.2C-0.12913 27.7 0.0708699 29.4 0.97087 30.7C1.77087 31.9 3.07087 32.6 4.47087 32.7C4.57087 33.1 4.67087 33.4 4.87087 33.8C6.47087 37.8 9.77087 41 13.8709 42.3C14.4709 42.5 15.1709 42.7 15.7709 42.8C15.6709 43.4 15.5709 44 15.4709 44.5C15.3709 45 15.2709 45.5 15.1709 46C15.1709 46.2 15.0709 46.5 15.0709 46.7C14.9709 47 14.8709 47.4 14.9709 47.7C14.9709 48.1 15.2709 48.6 15.6709 48.7C16.0709 48.8 16.5709 48.6 16.7709 48.2C16.9709 47.7 17.0709 47.1 17.1709 46.6C17.2709 46.1 17.3709 45.6 17.4709 45C17.5709 44.5 17.5709 44 17.6709 43.5C17.6709 43.3 17.7709 43.1 17.7709 42.9C21.2709 42.9 24.6709 41.5 27.4709 39.2C28.2709 38.5 27.0709 37.3 26.2709 38C20.2709 43.4 10.2709 40.9 7.07087 33.7C5.27087 29.7 5.57087 25.1 6.47087 20.9C6.87087 18.8 7.27087 16.7 7.97087 14.7C8.67087 12.7 9.87087 11.6 11.9709 11.3C17.0709 10.6 22.1709 11.8 27.2709 12C27.6709 12 27.8709 11.4 27.4709 11.2C24.9709 10.2 22.4709 9.7 19.8709 9.4C17.2709 9.1 14.4709 8.9 11.8709 9.1C10.2709 9.3 8.87087 9.8 7.77087 10.8C7.27087 8 7.67087 5 9.57087 2.5C12.8709 2.8 16.2709 3.1 19.5709 3.3C23.0709 3.6 26.5709 4.1 30.0709 4.1C30.7709 4.1 30.9709 3.1 30.2709 2.9ZM1.97087 26C2.17087 25 2.67087 24 3.37087 23.2C3.67087 22.9 3.97087 22.6 4.27087 22.4C3.87087 25.2 3.67087 28.2 4.27087 31C2.17087 30.5 1.47087 27.9 1.97087 26Z" fill="#3D4F3D"/>
<path d="M22.3709 34.3C22.2709 34.3 22.0709 34.4 21.9709 34.5L21.8709 34.6C21.8709 34.6 21.8709 34.6 21.7709 34.6C21.5709 34.7 21.4709 34.8 21.2709 34.9C21.0709 35 20.9709 35.1 20.7709 35.1H20.6709C20.5709 35.1 20.4709 35.2 20.3709 35.2C20.1709 35.2 20.0709 35.3 19.8709 35.3C19.8709 35.3 19.8709 35.3 19.7709 35.3H19.6709C19.5709 35.3 19.4709 35.3 19.4709 35.3C19.2709 35.3 19.0709 35.3 18.8709 35.3H18.7709C18.6709 35.3 18.5709 35.3 18.4709 35.2C18.0709 35.1 17.6709 35.3 17.5709 35.7C17.4709 36.1 17.6709 36.5 18.0709 36.6C18.9709 36.8 19.8709 36.8 20.6709 36.5C21.0709 36.4 21.4709 36.2 21.8709 36C22.0709 35.9 22.2709 35.7 22.4709 35.5C22.6709 35.3 22.8709 35.1 22.8709 34.8C23.1709 34.6 22.7709 34.2 22.3709 34.3Z" fill="#3D4F3D"/>
</svg>
