<svg width="50" height="50" viewBox="0 0 50 50" fill="none" xmlns="http://www.w3.org/2000/svg">
<path d="M35.8999 40.9999L41.2999 36.2999L48.9999 43.8999C48.9999 43.8999 48.4999 46.0999 47.2999 47.1999C46.0999 48.2999 43.7999 48.4999 43.7999 48.4999L35.8999 40.9999Z" fill="#3FA9F5"/>
<path d="M21.0997 41C31.814 41 40.4997 32.3143 40.4997 21.6C40.4997 10.8856 31.814 2.19995 21.0997 2.19995C10.3854 2.19995 1.69971 10.8856 1.69971 21.6C1.69971 32.3143 10.3854 41 21.0997 41Z" fill="#3FA9F5"/>
<path d="M32.8999 36.8999L37.1999 32.8999L40.3999 36.4999L36.6999 39.8999L32.8999 36.8999Z" fill="#999999"/>
<path d="M21.1 37.2C29.7156 37.2 36.7 30.2156 36.7 21.6C36.7 12.9844 29.7156 6 21.1 6C12.4844 6 5.5 12.9844 5.5 21.6C5.5 30.2156 12.4844 37.2 21.1 37.2Z" fill="white"/>
<path d="M37.9 20.3999C37.5 12.7999 31.8 6.79995 26.6 5.29995C19.5 3.19995 11.4 5.89995 7.39997 12.1999C3.49997 18.2999 3.79997 26.6999 8.69997 32.2999C13.3 37.4999 21 39.7999 27.5 37.0999C33.9 34.2999 38.3 27.2999 37.9 20.3999ZM28.9 34.2999C23.5 37.5999 16.5 36.6999 11.7 32.5999C6.69997 28.3999 5.19997 21.3999 7.69997 15.3999C9.99997 9.69995 15.7 6.29995 21.6 6.29995C28.4 6.29995 34.4 12.2999 35.9 18.3999C37.4 24.4999 34.2 30.9999 28.9 34.2999Z" fill="#3D4F3D"/>
<path d="M49.6998 43C48.3998 41.7 47.0998 40.4 45.7998 39.1C45.1998 38.5 44.4998 37.8 43.8998 37.2C43.1998 36.6 42.4998 35.9 41.8998 35.2C41.4998 34.7 40.8998 34.9 40.5998 35.4C39.7998 34.5 38.9998 33.7 38.1998 32.8C38.1998 32.8 38.1998 32.8 38.0998 32.7C43.5998 24.8 42.4998 13.4 35.7998 6.49996C31.5998 2.19996 24.1998 -0.300043 16.4998 1.59996C8.09977 3.89996 1.49977 11.7 0.999767 20.4C0.499767 29.1 6.39977 37.5 14.4998 40.5C20.5998 42.8 27.5998 41.5 32.9998 37.9C33.1998 38.1 33.3998 38.3 33.4998 38.5C33.6998 38.7 33.8998 38.9 33.9998 39.1C34.3998 39.5 35.1998 40.4 35.2998 40.4C35.0998 40.6 34.9998 40.7 34.9998 40.7V40.8C34.9998 41.1 35.0998 41.3 35.2998 41.5C35.3998 41.6 36.6998 42.8 37.1998 43.3C37.8998 44 38.4998 44.6 39.1998 45.3C40.4998 46.6 41.7998 47.9 43.0998 49.2C43.1998 49.3 43.8998 50.1 44.3998 49.9C45.7998 49.4 46.9998 48.6 48.0998 47.7C48.5998 47.3 49.0998 46.7 49.3998 46.1C49.5998 45.8 49.6998 45.4 49.7998 45.1C49.8998 44.7 49.8998 44.3 49.9998 43.9C49.9998 43.8 49.9998 43.2 49.6998 43ZM17.9998 39.6C10.0998 38.2 3.69977 31.2 2.79977 23.3C1.89977 15.4 6.79977 7.39996 14.0998 4.29996C22.3998 0.799957 32.3998 3.39996 37.0998 12.2C39.5998 16.9 40.7998 24.7 37.8998 30.1C34.0998 37 25.6998 41 17.9998 39.6ZM36.4998 39.2C36.4998 39.1 36.3998 39 36.3998 39C35.9998 38.6 35.6998 38.2 35.2998 37.8C35.0998 37.6 34.8998 37.4 34.7998 37.2C34.6998 37.1 34.4998 36.9 34.3998 36.8C35.3998 36 36.2998 35.1 37.0998 34.2C37.7998 35 38.5998 35.8 39.2998 36.6C38.3998 37.4 37.3998 38.4 36.4998 39.2ZM48.1998 44.2C48.1998 44.3 48.0998 44.5 48.0998 44.6C48.0998 44.7 47.9998 44.8 47.9998 44.9C47.8998 45 47.8998 45.2 47.7998 45.3C47.6998 45.4 47.6998 45.5 47.5998 45.6C47.5998 45.6 47.4998 45.7 47.3998 45.8C47.1998 46 46.9998 46.2 46.7998 46.4C46.6998 46.4 46.5998 46.6 46.5998 46.6C46.4998 46.7 46.3998 46.8 46.2998 46.9C45.9998 47.1 45.7998 47.2 45.4998 47.4C45.1998 47.6 44.9998 47.7 44.6998 47.8C44.5998 47.8 44.4998 47.9 44.3998 47.9C43.0998 46.6 41.7998 45.3 40.4998 44C39.8998 43.4 39.1998 42.7 38.5998 42.1C38.1998 41.7 37.6998 41.3 37.2998 40.8C38.6998 39.6 39.9998 38.3 41.3998 37.1C41.7998 37.5 42.2998 38 42.6998 38.4C43.3998 39.1 43.9998 39.7 44.6998 40.4C45.8998 41.6 47.0998 42.8 48.2998 44C48.1998 44 48.1998 44.3 48.1998 44.2Z" fill="#3D4F3D"/>
<path d="M32.1998 28.9999C32.0998 24.3999 31.9998 19.7999 31.8998 15.1999C31.8998 14.7999 31.4998 14.2999 31.0998 14.3999C28.7998 14.5999 26.6998 15.5999 25.0998 17.1999C24.1998 18.0999 23.6998 19.2999 22.7998 20.1999C21.8998 21.0999 20.7998 21.5999 19.5998 21.8999C18.1998 22.1999 17.0998 21.7999 15.6998 21.5999C14.6998 21.3999 13.4998 21.4999 12.6998 22.0999C11.7998 22.7999 11.6998 23.6999 11.5998 24.7999C11.4998 26.2999 11.3998 27.8999 11.2998 29.3999C11.2998 29.7999 11.4998 29.9999 11.7998 30.0999C11.8998 30.1999 12.0998 30.1999 12.1998 30.1999C18.4998 30.0999 24.6998 29.9999 30.9998 29.9999C31.9998 29.9999 32.1998 29.3999 32.1998 28.9999Z" fill="#39B54A"/>
<path d="M32.8996 29.5C32.7996 24.5 32.6996 19.6 32.5996 14.6C32.5996 14.2 32.1996 13.7 31.6996 13.7C29.2996 14 26.9996 15 25.2996 16.8C24.3996 17.8 23.7996 19.1 22.7996 20C21.8996 20.9 20.6996 21.5 19.3996 21.8C17.8996 22.1 16.6996 21.7 15.2996 21.5C14.1996 21.3 12.9996 21.3 11.9996 22.1C11.0996 22.8 10.8996 23.9 10.8996 25C10.7996 26.7 10.6996 28.3 10.5996 30C10.5996 30.4 10.7996 30.6999 11.0996 30.7999C11.1996 30.8999 11.3996 31 11.5996 31C18.2996 30.9 25.0996 30.7 31.7996 30.7C32.6996 30.6 32.8996 29.9 32.8996 29.5ZM12.7996 23.8C13.0996 23.3 13.7996 23.2 14.2996 23.2C15.4996 23.2 16.6996 23.8 17.8996 23.8C18.9996 23.8 19.9996 23.6 20.9996 23.3C23.0996 22.5 24.3996 21 25.6996 19.2C26.8996 17.4 28.7996 16.2 30.8996 15.8C30.9996 20.2 31.0996 24.6 31.1996 29C24.8996 29.1 18.6996 29.2 12.3996 29.3C12.4996 28.2 12.4996 27.1 12.5996 25.9C12.5996 25.2 12.4996 24.3 12.7996 23.8Z" fill="#3D4F3D"/>
<path d="M25.8997 10.3999C25.7997 10.2999 25.5997 10.2999 25.4997 10.2999C25.3997 10.2999 24.4997 10.3999 24.3997 10.3999C24.0997 10.3999 23.6997 10.4999 23.3997 10.4999C22.6997 10.5999 22.0997 10.5999 21.3997 10.6999C20.8997 10.6999 20.4997 11.0999 20.4997 11.5999C20.4997 11.9999 20.8997 12.4999 21.3997 12.4999C21.5997 12.4999 21.7997 12.4999 21.9997 12.3999C20.5997 13.1999 19.0997 13.8999 17.6997 14.6999C15.3997 15.8999 13.1997 17.1999 10.8997 18.2999C9.89973 18.7999 10.7997 20.3999 11.7997 19.7999C13.9997 18.4999 16.2997 17.3999 18.5997 16.1999C20.1997 15.2999 21.7997 14.4999 23.4997 13.5999C23.4997 13.6999 23.3997 13.7999 23.3997 13.8999C23.1997 14.2999 23.2997 14.8999 23.6997 15.0999C24.0997 15.2999 24.6997 15.1999 24.8997 14.7999L25.6997 13.1999C25.7997 12.8999 25.9997 12.6999 26.0997 12.3999C26.1997 12.0999 26.2997 11.8999 26.4997 11.5999C26.5997 11.1999 26.3997 10.5999 25.8997 10.3999Z" fill="#3D4F3D"/>
</svg>
