<svg width="49" height="49" viewBox="0 0 49 49" fill="none" xmlns="http://www.w3.org/2000/svg">
<path d="M36.6343 12.2392C35.1343 7.33923 31.3343 3.93922 26.8343 1.93922C24.3343 0.739222 19.8343 0.839225 17.4343 1.23923C12.3343 2.43923 7.93426 6.63922 6.43426 11.5392C4.33426 17.9392 6.43426 25.3392 11.9343 29.4392C17.3343 33.5392 25.0343 33.8392 30.6343 29.9392C36.2343 25.9392 38.7343 18.7392 36.6343 12.2392ZM28.9343 27.3392C24.3343 30.5392 18.2343 30.2392 13.7343 26.9392C9.23426 23.6392 7.63426 17.6392 9.33426 12.4392C10.6343 8.53922 14.2343 5.03923 18.3343 4.13923C20.2343 3.83923 23.8343 3.73923 25.9343 4.73923C29.5343 6.33923 32.6343 9.13923 33.8343 13.1392C35.5343 18.3392 33.5343 24.2392 28.9343 27.3392Z" fill="#FF1D25"/>
<path d="M33.7343 11.2392C31.6343 6.43923 26.1343 3.03923 20.8343 3.43923C15.2343 3.83923 10.4343 7.63923 8.63426 12.8392C7.53426 15.9392 7.63426 19.5392 9.03426 22.4392C10.5343 25.5392 13.5343 27.5392 16.5343 29.1392C16.7343 29.2392 16.9343 29.2392 17.1343 29.1392C21.8343 30.9392 27.2343 30.0392 30.9343 26.4392C34.9343 22.6392 36.0343 16.3392 33.7343 11.2392ZM31.4343 23.8392C28.4343 28.3392 21.7343 29.9392 16.8343 27.8392H16.7343C14.5343 26.6392 12.4343 25.1392 11.1343 22.8392C9.83426 20.5392 9.33426 17.7392 9.93426 15.1392C10.8343 10.5392 14.4343 6.43922 19.1343 5.53922C23.6343 4.73922 28.6343 6.53923 31.3343 10.2392C34.2343 14.1392 34.1343 19.9392 31.4343 23.8392Z" fill="#3D4F3D"/>
<path d="M37.4343 11.9392C35.8343 6.83923 31.8343 3.23923 27.1343 1.03923C24.4343 -0.160773 19.7343 -0.160768 17.3343 0.239232C12.0343 1.43923 7.33425 5.93923 5.73425 11.0392C3.53425 17.8392 5.73425 25.5392 11.4343 29.8392C17.1343 34.1392 25.1343 34.4392 31.0343 30.3392C37.0343 26.3392 39.6343 18.8392 37.4343 11.9392ZM32.0343 28.0392C27.2343 32.5392 20.1343 33.4392 14.4343 30.2392C8.73425 27.0392 5.53425 20.2392 6.83425 13.8392C7.53425 10.4392 9.43425 7.43923 12.0343 5.13923C13.9343 3.43923 15.0343 2.43923 19.0343 1.63923C27.5343 1.33923 31.5343 4.43923 34.7343 10.0392C38.0343 15.8392 36.9343 23.4392 32.0343 28.0392Z" fill="#3D4F3D"/>
<path d="M23.6343 16.2392C18.7343 17.7392 15.3343 21.5392 13.3343 26.0392C12.1343 28.5392 12.2343 33.0392 12.6343 35.4392C13.8343 40.5392 18.0343 44.9392 22.9343 46.4392C29.3343 48.5392 36.7343 46.4392 40.8343 40.9392C44.9343 35.5392 45.2343 27.8392 41.3343 22.2392C37.3343 16.6392 30.2343 14.2392 23.6343 16.2392ZM38.8343 24.0392C42.0343 28.6392 41.7343 34.7392 38.4343 39.2392C35.1343 43.7392 29.1343 45.3392 23.9343 43.6392C20.0343 42.3392 16.5343 38.7392 15.6343 34.6392C15.3343 32.7392 15.2343 29.1392 16.2343 27.0392C17.8343 23.4392 20.6343 20.3392 24.6343 19.1392C29.8343 17.4392 35.6343 19.4392 38.8343 24.0392Z" fill="#3FA9F5"/>
<path d="M22.7343 19.2393C17.9343 21.3393 14.5343 26.8393 14.9343 32.1393C15.3343 37.7393 19.1343 42.5393 24.3343 44.3393C27.4343 45.4393 31.0343 45.3393 33.9343 43.9393C37.0343 42.4393 39.0343 39.4393 40.6343 36.4393C40.7343 36.2393 40.7343 36.0393 40.6343 35.8393C42.4343 31.1393 41.5343 25.7393 37.9343 22.0393C34.0343 18.0393 27.7343 16.9393 22.7343 19.2393ZM35.3343 21.5393C39.8343 24.5393 41.4343 31.2393 39.3343 36.1393V36.2393C38.1343 38.4393 36.6343 40.5393 34.3343 41.8393C32.0343 43.1393 29.2343 43.6393 26.6343 43.0393C22.0343 42.1393 17.9343 38.5393 17.0343 33.8393C16.2343 29.3393 18.0343 24.3393 21.7343 21.6393C25.6343 18.7393 31.3343 18.8393 35.3343 21.5393Z" fill="#3D4F3D"/>
<path d="M23.4343 15.5393C18.3343 17.1393 14.7343 21.1393 12.5343 25.8393C11.3343 28.5393 11.3343 33.2393 11.7343 35.6393C12.9343 40.9393 17.4343 45.6393 22.5343 47.2393C29.3343 49.4393 37.0343 47.2393 41.3343 41.5393C45.6343 35.8393 45.9343 27.8393 41.8343 21.9393C37.8343 15.9393 30.3343 13.3393 23.4343 15.5393ZM39.4343 20.9393C43.9343 25.7393 44.8343 32.8393 41.6343 38.5393C38.4343 44.2393 31.6343 47.4393 25.2343 46.1393C21.8343 45.4393 18.8343 43.5393 16.5343 40.9393C14.8343 39.0393 13.8343 37.9393 13.0343 33.9393C12.7343 25.4393 15.8343 21.4393 21.4343 18.2393C27.2343 14.9393 34.8343 16.0393 39.4343 20.9393Z" fill="#3D4F3D"/>
<path d="M10.2343 27.7393C9.13426 27.7393 8.23426 28.3393 7.33426 29.0393C6.53426 29.7393 5.63426 30.4393 4.83426 31.1393C4.03426 31.8393 3.33426 32.6393 2.53426 33.3393C2.13426 33.7393 1.73426 34.1393 1.43426 34.5393C1.03426 34.9393 0.534258 35.3393 0.134258 35.8393C-0.365742 36.6393 0.634257 37.7393 1.43426 37.1393C1.93426 36.8393 2.23426 36.3393 2.63426 35.9393C3.03426 35.5393 3.43426 35.2393 3.73426 34.8393C4.53426 34.1393 5.33426 33.4393 6.13426 32.6393C6.93426 31.9393 7.73426 31.2393 8.53426 30.5393C9.33426 29.8393 10.0343 29.1393 10.4343 28.1393C10.5343 27.9393 10.3343 27.7393 10.2343 27.7393Z" fill="#3D4F3D"/>
<path d="M8.73426 34.8392C7.63426 33.7392 6.53426 32.5392 5.43426 31.4392C4.93426 30.8392 4.33426 30.3392 3.73426 29.8392C3.43426 29.5392 3.13426 29.2392 2.73426 29.0392C2.23426 28.7392 1.43426 28.8392 1.33426 29.4392C1.23426 29.6392 1.23426 29.8392 1.33426 30.0392C1.33426 30.3392 1.53426 30.5392 1.73426 30.8392C1.93426 31.1392 2.23426 31.4392 2.43426 31.7392C2.93426 32.3392 3.43426 32.9392 3.93426 33.4392C5.03426 34.5392 6.03426 35.5392 7.13426 36.6392C7.53426 37.0392 8.33426 37.1392 8.83426 36.6392C9.23426 36.0392 9.23426 35.3392 8.73426 34.8392Z" fill="#3D4F3D"/>
<path d="M48.1343 12.5392C47.9343 11.9392 47.0343 12.0392 46.8343 12.5392C46.6343 13.0392 46.6343 13.5392 46.5343 14.1392L46.4343 15.7392C46.3343 16.7392 46.3343 17.8392 46.3343 18.8392C46.3343 19.3392 46.5343 19.7392 47.0343 19.8392C47.4343 19.9392 47.9343 19.5392 48.0343 19.1392C48.1343 18.0392 48.1343 17.0392 48.2343 15.9392C48.2343 15.4392 48.2343 14.9392 48.2343 14.3392C48.2343 14.0392 48.2343 13.8392 48.2343 13.5392C48.3343 13.2392 48.3343 12.9392 48.1343 12.5392Z" fill="#3D4F3D"/>
<path d="M47.6343 12.5393C46.6343 12.2393 45.5343 12.2393 44.5343 12.2393C43.5343 12.2393 42.4343 12.2393 41.4343 12.3393C40.9343 12.3393 40.3343 12.7393 40.2343 13.2393C40.2343 13.4393 40.1343 13.6393 40.2343 13.9393C40.4343 14.4393 40.9343 14.9393 41.4343 14.8393C42.5343 14.7393 43.5343 14.6393 44.6343 14.4393C45.2343 14.3393 45.7343 14.3393 46.3343 14.2393C46.8343 14.1393 47.4343 13.9393 47.9343 13.6393C48.3343 13.4393 48.1343 12.6393 47.6343 12.5393Z" fill="#3D4F3D"/>
<path d="M46.6343 12.9392C46.1343 13.0392 45.8343 13.3392 45.4343 13.6392C45.1343 13.8392 44.8343 14.1392 44.5343 14.3392C43.9343 14.8392 43.4342 15.4392 42.8342 15.9392C42.2342 16.4392 41.7343 16.9392 41.1343 17.5392C40.8343 17.8392 40.6342 18.0392 40.3342 18.3392C40.0342 18.6392 39.7343 19.0392 39.5343 19.3392C39.2343 19.7392 39.1343 20.2392 39.4343 20.6392C39.7343 21.0392 40.2343 21.1392 40.7343 20.9392C41.1343 20.7392 41.5342 20.5392 41.8342 20.2392C42.1342 20.0392 42.4343 19.7392 42.7343 19.4392C43.3343 18.9392 43.9343 18.3392 44.5343 17.8392C45.0343 17.2392 45.6343 16.7392 46.1343 16.1392C46.4343 15.8392 46.6343 15.4392 46.9343 15.0392C47.2343 14.6392 47.4343 14.2392 47.4343 13.7392C47.7343 13.1392 47.1343 12.8392 46.6343 12.9392Z" fill="#3D4F3D"/>
<mask id="mask0" mask-type="alpha" maskUnits="userSpaceOnUse" x="9" y="21" width="13" height="15">
<rect x="14.2806" y="21.7302" width="8.2613" height="11" transform="rotate(26.7006 14.2806 21.7302)" fill="#C4C4C4"/>
</mask>
<g mask="url(#mask0)">
<path d="M36.6343 12.2392C35.1343 7.33923 31.3343 3.93922 26.8343 1.93922C24.3343 0.739222 19.8343 0.839225 17.4343 1.23923C12.3343 2.43923 7.93426 6.63922 6.43426 11.5392C4.33426 17.9392 6.43426 25.3392 11.9343 29.4392C17.3343 33.5392 25.0343 33.8392 30.6343 29.9392C36.2343 25.9392 38.7343 18.7392 36.6343 12.2392ZM28.9343 27.3392C24.3343 30.5392 18.2343 30.2392 13.7343 26.9392C9.23426 23.6392 7.63426 17.6392 9.33426 12.4392C10.6343 8.53922 14.2343 5.03923 18.3343 4.13923C20.2343 3.83923 23.8343 3.73923 25.9343 4.73923C29.5343 6.33923 32.6343 9.13923 33.8343 13.1392C35.5343 18.3392 33.5343 24.2392 28.9343 27.3392Z" fill="#FF1D25"/>
<path d="M33.7342 11.2392C31.6342 6.43923 26.1342 3.03923 20.8342 3.43923C15.2342 3.83923 10.4342 7.63923 8.63425 12.8392C7.53425 15.9392 7.63425 19.5392 9.03425 22.4392C10.5342 25.5392 13.5342 27.5392 16.5342 29.1392C16.7342 29.2392 16.9342 29.2392 17.1342 29.1392C21.8342 30.9392 27.2342 30.0392 30.9342 26.4392C34.9342 22.6392 36.0342 16.3392 33.7342 11.2392ZM31.4342 23.8392C28.4342 28.3392 21.7342 29.9392 16.8342 27.8392H16.7342C14.5342 26.6392 12.4342 25.1392 11.1342 22.8392C9.83425 20.5392 9.33425 17.7392 9.93425 15.1392C10.8342 10.5392 14.4342 6.43922 19.1342 5.53922C23.6342 4.73922 28.6342 6.53923 31.3342 10.2392C34.2342 14.1392 34.1342 19.9392 31.4342 23.8392Z" fill="#3D4F3D"/>
<path d="M37.4343 11.9392C35.8343 6.83923 31.8343 3.23923 27.1343 1.03923C24.4343 -0.160773 19.7343 -0.160768 17.3343 0.239232C12.0343 1.43923 7.33425 5.93923 5.73425 11.0392C3.53425 17.8392 5.73425 25.5392 11.4343 29.8392C17.1343 34.1392 25.1343 34.4392 31.0343 30.3392C37.0343 26.3392 39.6343 18.8392 37.4343 11.9392ZM32.0343 28.0392C27.2343 32.5392 20.1343 33.4392 14.4343 30.2392C8.73425 27.0392 5.53425 20.2392 6.83425 13.8392C7.53425 10.4392 9.43425 7.43923 12.0343 5.13923C13.9343 3.43923 15.0343 2.43923 19.0343 1.63923C27.5343 1.33923 31.5343 4.43923 34.7343 10.0392C38.0343 15.8392 36.9343 23.4392 32.0343 28.0392Z" fill="#3D4F3D"/>
</g>
</svg>
