<svg width="48" height="48" viewBox="0 0 48 48" fill="none" xmlns="http://www.w3.org/2000/svg">
<path d="M41.7 35.3522C41.6 31.2522 41.4 27.1523 41.2 23.0523C41 19.1523 41 15.1522 40.6 11.2522C40.7 11.2522 40.8 11.2522 40.8 11.1522C41.5 10.9522 41.6 9.85224 40.8 9.65224C39.6 9.35224 38.3 9.45225 37.1 9.45225C35.7 9.45225 34.3 9.45225 32.9 9.45225C30.2 9.45225 27.4 9.55225 24.7 9.45225C22 9.35225 12.9 9.35225 10.3 9.25225C8.90001 9.25225 7.50001 9.25224 6.10001 9.15224C4.70001 9.15224 3.30001 8.95224 1.90001 9.15224C1.60001 9.15224 1.30001 9.35224 1.20001 9.55224C0.600006 9.55224 0.100006 9.85224 0.100006 10.6522C0.200006 17.9522 0.500006 25.2522 0.800006 32.4522C0.900006 34.2522 0.900006 36.0522 0.900006 37.9522C0.900006 39.3522 0.900006 40.8523 1.30001 42.2523C2.00001 45.0523 4.30001 46.2523 7.00001 46.7523C13.8 47.8523 27.3 48.1523 34.1 47.2523C36.5 46.9523 39.1 46.1523 40.6 44.0523C42.2 41.5523 41.7 38.1522 41.7 35.3522Z" fill="#FACE8D"/>
<path d="M40.8 9.75228C39.6 9.45228 38.3 9.55228 37.1 9.55228C35.7 9.55228 34.3 9.55228 32.9 9.55228C30.2 9.55228 27.4 9.65228 24.7 9.55228C22 9.45228 12.9 9.45228 10.3 9.35228C8.9 9.35228 7.5 9.35228 6.1 9.25228C4.7 9.25228 3.3 9.05228 1.9 9.25228C0.699999 9.35228 0.199999 11.2523 1.6 11.5523C4.2 11.9523 7 11.7523 9.6 11.8523C12.4 11.8523 21.7 11.8523 24.5 11.8523C27.2 11.7523 30 11.7523 32.7 11.7523C34 11.7523 35.4 11.6523 36.7 11.6523C38.1 11.5523 39.6 11.6523 40.9 11.2523C41.5 11.0523 41.6 9.95228 40.8 9.75228Z" fill="#3D4F3D"/>
<path d="M41.7 35.3523C41.6 31.2523 41.4 27.1523 41.2 23.0523C41 18.9523 41.6 15.5523 41.4 10.4523C41.4 9.65227 39.3 9.95227 39.3 10.7523C39 17.1523 39.4 23.7523 39.6 30.1523C39.7 33.2523 39.9 36.3523 39.9 39.3523C39.9 40.7523 39.7 42.3523 38.7 43.4523C37.9 44.3523 36.6 44.8523 35.4 45.0523C32.6 45.6523 29.5 45.5523 26.6 45.5523C23.4 45.4523 13.8 45.3523 10.6 44.9523C8.1 44.6523 4.1 44.7523 3.3 41.7523C3 40.5523 3 39.2523 3 38.0523C2.9 36.3523 2.9 34.5523 2.9 32.8523C2.6 25.4523 2.5 18.1523 2.2 10.7523C2.1 9.35227 0 9.35227 0 10.7523C0.1 18.0523 0.4 25.3523 0.7 32.5523C0.8 34.3523 0.8 36.1523 0.8 38.0523C0.8 39.4523 0.8 40.9523 1.2 42.3523C1.9 45.1523 4.2 46.3523 6.9 46.8523C13.7 47.9523 27.2 48.2523 34 47.3523C36.4 47.0523 39 46.2523 40.5 44.1523C42.2 41.5523 41.7 38.1523 41.7 35.3523Z" fill="#3D4F3D"/>
<path d="M30.8 7.35228C30.5 4.75228 29.3 2.55227 27 1.15227C24.9 -0.147728 15.8 -0.347727 13.6 0.552273C11.2 1.55227 9.7 3.65227 8.9 6.05227C8 9.15227 8.5 12.3523 9.1 15.5523C9.3 16.5523 11 16.3523 10.8 15.3523C10.3 11.3523 9.5 5.65227 13.3 2.95227C14.9 1.85227 23.7 1.45228 25.5 2.35228C27.4 3.35228 28.4 5.15228 28.8 7.25228C29 8.65228 29 9.95228 29 11.3523C29 12.0523 29 12.7523 29 13.5523C29 14.2523 28.9 14.9523 29.1 15.5523C29.2 15.8523 29.6 16.0523 29.9 15.7523C30.7 14.7523 30.7 12.9523 30.8 11.7523C31 10.2523 31 8.75228 30.8 7.35228Z" fill="#3D4F3D"/>
<path d="M44.3 20.9523C42.5 19.6523 40.3 19.1523 38.2 18.7523C35.4 18.2523 32.6 17.9523 29.8 18.3523C25.3 18.9523 20.6 21.6523 19.3 26.3523C18.6 28.8523 19.1 31.6523 21.3 33.1523C23.5 34.7523 26.2 34.6523 28.8 34.2523C28.9 35.6523 29 37.1523 29.1 38.5523C29.2 39.4523 30.5 39.4523 30.5 38.5523V38.4523C34.2 34.9523 39.8 34.8523 43.8 31.6523C47.1 29.0523 48.2 23.7523 44.3 20.9523Z" fill="#E6E6E6"/>
<path d="M45.3 20.2523C43.3 18.8523 41 18.3523 38.6 17.9523C35.6 17.4523 32.6 17.1523 29.5 17.5523C24.6 18.2523 19.5 21.1523 18.1 26.1523C17.4 28.8523 17.9 31.8523 20.2 33.5523C22.6 35.3523 25.6 35.1523 28.4 34.7523C28.5 36.3523 28.6 37.8523 28.7 39.4523C28.8 40.4523 30.3 40.4523 30.2 39.4523V39.3523C34.3 35.5523 40.3 35.4523 44.6 32.0523C48.3 29.0523 49.5 23.3523 45.3 20.2523ZM41.7 31.9523C37.9 34.0523 33.3 34.7523 30.1 37.7523C30 36.4523 30 35.1523 29.9 33.8523C29.9 33.4523 29.6 33.0523 29.1 33.0523C26.7 33.3523 24 33.6523 21.8 32.2523C19.7 30.8523 19.6 28.2523 20.5 26.1523C22.2 22.2523 26.7 20.3523 30.8 20.0523C33.3 19.8523 35.8 20.0523 38.3 20.3523C40.2 20.5523 42.3 20.8523 44 21.7523C45.9 22.8523 46.7 24.7523 46.1 26.8523C45.4 29.2523 43.7 30.8523 41.7 31.9523Z" fill="#3D4F3D"/>
<path d="M35.8 24.9523C35.9 24.6523 35.6 24.5523 35.1 24.5523C34.4 24.5523 33.8 24.7523 33.1 24.8523C32.9 24.4523 32.7 24.0523 32.5 23.7523C32.4 23.5523 32.2 23.2523 32.1 23.0523C32 22.7523 31.8 22.4523 31.5 22.4523C31.1 22.4523 31 22.8523 31 23.1523L30.5 25.0523C30.4 25.0523 28.5 25.2523 28.3 25.3523C28.2 25.4523 28.1 25.5523 28 25.7523C28 25.9523 28 26.0523 28.1 26.2523C28.4 26.6523 30.3 27.8523 30.4 27.8523C30.3 28.0523 30.3 28.2523 30.2 28.5523C30.1 28.9523 30 29.4523 29.9 29.8523C29.9 30.1523 30.1 30.3523 30.4 30.2523C31.1 29.9523 31.8 29.4523 32.4 28.8523C32.4 28.8523 33.9 30.1523 34.2 30.3523C34.4 30.4523 34.8 30.3523 34.7 30.0523C34.6 29.5523 34.6 29.0523 34.5 28.6523C34.5 28.3523 34.5 27.9523 34.4 27.6523C34.5 27.5523 34.6 27.4523 34.6 27.3523C34.8 26.9523 35.8 25.1523 35.8 24.9523Z" fill="#FF931E"/>
<path d="M36.2 24.8523C36.3 24.5523 36 24.3523 35.5 24.3523C34.7 24.3523 34 24.5523 33.3 24.7523C33.1 24.3523 32.8 23.9523 32.6 23.4523C32.5 23.1523 32.3 22.9523 32.2 22.6523C32 22.3523 31.9 21.9523 31.5 21.9523C31.1 21.9523 31 22.3523 30.9 22.7523L30.3 24.8523C30.2 24.8523 28.1 25.0523 27.8 25.1523C27.6 25.2523 27.5 25.4523 27.5 25.5523C27.5 25.7523 27.5 25.9523 27.7 26.0523C28 26.4523 30.2 27.7523 30.2 27.8523C30.1 28.0523 30.1 28.3523 30 28.5523C29.9 29.0523 29.8 29.5523 29.7 30.0523C29.7 30.3523 29.9 30.6523 30.2 30.4523C31 30.0523 31.7 29.5523 32.4 28.9523C32.4 28.9523 34 30.3523 34.4 30.6523C34.6 30.8523 35 30.5523 35 30.3523C34.9 29.8523 34.8 29.2523 34.8 28.7523C34.8 28.3523 34.7 27.9523 34.7 27.6523C34.8 27.5523 34.9 27.4523 35 27.2523C35.2 27.0523 36.2 25.0523 36.2 24.8523ZM33.7 27.4523C33.6 27.6523 34.1 29.2523 34.1 29.4523C34 29.3523 33.9 29.2523 33.8 29.2523C33.6 29.1523 33.5 29.0523 33.3 28.9523C33.1 28.8523 32.3 28.2523 32.1 28.5523C31.6 28.9523 31.1 29.3523 30.6 29.6523C30.6 29.4523 30.7 29.2523 30.7 28.9523C30.8 28.7523 30.8 28.4523 30.9 28.2523C31 28.0523 31 27.7523 31 27.5523C31 27.3523 28.9 26.2523 28.6 26.0523C28.7 26.0523 30.7 25.7523 30.7 25.6523C31 25.2523 31.1 24.7523 31.3 24.2523C31.4 24.0523 31.5 23.8523 31.5 23.6523C31.6 23.8523 31.8 24.1523 31.9 24.3523C32.1 24.7523 33.2 26.1523 33.4 26.0523C33.8 25.9523 34.9 25.5523 35.4 25.4523C35.3 25.3523 33.8 27.3523 33.7 27.4523Z" fill="#3D4F3D"/>
<path d="M43.6 25.3523C43.1 25.3523 42 25.3523 42 25.3523C42 25.2523 42 25.2523 42 25.1523C42 24.9523 41.8 23.4523 41.7 23.3523C41.6 23.3523 41.4 23.3523 41.4 23.4523C41.2 23.7523 40.2 24.9523 40.2 25.0523C39.7 24.8523 39.2 24.8523 38.7 25.0523C38.4 25.1523 38.4 25.4523 38.5 25.6523C38.7 25.8523 39.4 26.6523 39.5 26.6523C39.4 26.7523 39.4 26.8523 39.4 26.9523C39.4 27.0523 39.2 27.7523 39.1 28.0523C39.1 28.1523 39.1 28.2523 39.2 28.3523C39.3 28.4523 39.4 28.4523 39.5 28.3523C39.9 28.0523 40.3 27.8523 40.6 27.5523C40.7 27.6523 41.6 28.4523 41.8 28.5523C42 28.6523 42.2 28.5523 42.2 28.3523C42.3 27.7523 42.3 27.2523 42.4 26.6523C42.4 26.6523 43.5 25.9523 43.8 25.8523C44 25.6523 43.9 25.3523 43.6 25.3523Z" fill="#FF931E"/>
<path d="M44.1 25.2523C43.5 25.2523 42.2 25.2523 42.2 25.2523C42.2 25.1523 42.2 25.0523 42.2 25.0523C42.2 24.8523 41.9 23.0523 41.8 22.9523C41.7 22.9523 41.5 22.9523 41.4 23.0523C41.2 23.3523 40 24.8523 40 24.9523C39.4 24.7523 38.8 24.7523 38.2 24.9523C37.9 25.0523 37.8 25.3523 38 25.6523C38.2 25.8523 39.1 26.8523 39.2 26.8523C39.1 26.9523 39.1 27.0523 39.1 27.2523C39.1 27.3523 38.8 28.2523 38.7 28.5523C38.7 28.6523 38.7 28.7523 38.8 28.8523C38.9 28.9523 39 28.9523 39.1 28.8523C39.5 28.5523 40 28.2523 40.4 27.9523C40.5 28.0523 41.6 28.9523 41.8 29.1523C42 29.3523 42.3 29.2523 42.3 28.9523C42.4 28.2523 42.5 27.6523 42.5 26.9523C42.5 26.9523 43.8 26.1523 44.1 25.9523C44.5 25.6523 44.4 25.2523 44.1 25.2523ZM42 26.5523C41.9 26.6523 41.9 27.7523 41.9 28.2523C41.8 28.1523 40.7 27.3523 40.7 27.3523C40.6 27.2523 39.8 27.5523 39.5 27.7523C39.5 27.7523 39.7 26.6523 39.6 26.6523C39.6 26.5523 39 25.8523 38.7 25.4523C38.7 25.4523 40 25.4523 40.1 25.4523C40.2 25.4523 41.3 24.2523 41.4 24.1523C41.4 24.2523 41.4 24.4523 41.5 24.5523C41.5 24.7523 41.7 25.6523 41.8 25.7523C41.9 25.8523 42.9 25.7523 43.2 25.8523C43.2 25.8523 42 26.5523 42 26.5523Z" fill="#3D4F3D"/>
<path d="M27.4 27.4523C27.3 27.3523 26.2 27.5523 26.2 27.5523C26.2 27.5523 26.1 27.5523 26 27.5523C25.9 27.5523 25.9 27.5523 25.8 27.5523C25.7 27.3523 24.8 26.4523 24.6 26.2523C24.5 26.1523 24 25.7523 23.9 26.2523C23.8 26.5523 23.7 26.8523 23.6 27.1523C23.6 27.2523 23.5 27.4523 23.5 27.5523C23.5 27.6523 23.4 27.7523 23.4 27.8523C23.4 27.8523 23.3 27.8523 23.3 27.9523C23.2 28.0523 23.1 28.1523 22.9 28.2523C22.8 28.3523 22.6 28.4523 22.5 28.5523C22.4 28.6523 22.3 28.7523 22.2 28.8523C22 29.0523 22 29.3523 22.2 29.5523C22.3 29.6523 22.5 29.7523 22.7 29.7523C22.8 29.8523 23.4 30.0523 23.5 30.0523C23.5 30.1523 23.5 30.1523 23.5 30.2523C23.5 30.3523 23.5 30.4523 23.5 30.6523C23.5 30.8523 23.5 31.1523 23.5 31.3523C23.5 31.4523 23.6 31.5523 23.7 31.5523C23.8 31.5523 23.9 31.5523 24 31.4523C24.2 31.3523 24.4 31.1523 24.6 31.0523C24.7 30.9523 25.1 30.6523 25.1 30.6523C25.1 30.6523 25.1 30.6523 25.1 30.5523C25.2 30.5523 25.2 30.5523 25.3 30.6523C25.4 30.6523 25.5 30.7523 25.7 30.7523C25.8 30.7523 25.9 30.8523 26.1 30.8523C26.2 30.8523 26.4 30.9523 26.5 30.9523C26.7 31.0523 26.9 30.7523 26.9 30.5523C26.8 30.2523 26.7 30.0523 26.7 29.7523C26.7 29.6523 26.6 29.5523 26.6 29.3523C26.6 29.2523 26.6 29.2523 26.5 29.1523C26.9 28.6523 27.3 28.1523 27.7 27.7523C27.5 27.8523 27.5 27.5523 27.4 27.4523Z" fill="#FF931E"/>
<path d="M27.9 27.2523C27.8 27.1523 26.5 27.4523 26.5 27.4523H26.3C26.2 27.4523 26.2 27.4523 26.1 27.4523C26 27.2523 24.9 26.1523 24.7 25.9523C24.6 25.7523 24 25.3523 23.8 25.9523C23.7 26.2523 23.6 26.6523 23.5 26.9523C23.5 27.1523 23.4 27.2523 23.4 27.4523C23.4 27.5523 23.3 27.6523 23.3 27.8523C23.3 27.8523 23.2 27.8523 23.2 27.9523C23.1 28.0523 22.9 28.1523 22.8 28.2523C22.6 28.3523 22.5 28.4523 22.3 28.6523C22.2 28.7523 22 28.8523 21.9 28.9523C21.7 29.1523 21.7 29.5523 21.9 29.7523C22.1 29.8523 22.3 29.9523 22.5 30.0523C22.7 30.1523 23.4 30.3523 23.4 30.3523C23.4 30.4523 23.4 30.5523 23.4 30.6523C23.4 30.7523 23.4 30.9523 23.4 31.0523C23.4 31.3523 23.4 31.6523 23.4 31.9523C23.4 32.0523 23.5 32.1523 23.6 32.2523C23.7 32.3523 23.8 32.2523 23.9 32.1523C24.1 31.9523 24.3 31.8523 24.6 31.6523C24.7 31.5523 25.2 31.2523 25.2 31.1523C25.2 31.1523 25.2 31.1523 25.3 31.0523C25.4 31.0523 25.4 31.1523 25.5 31.1523C25.6 31.2523 25.8 31.2523 25.9 31.3523C26 31.3523 26.2 31.4523 26.3 31.4523C26.5 31.4523 26.6 31.5523 26.7 31.5523C27 31.6523 27.2 31.3523 27.1 31.1523C27 30.8523 26.9 30.5523 26.8 30.2523C26.8 30.1523 26.7 29.9523 26.7 29.8523C26.7 29.7523 26.6 29.7523 26.6 29.6523C27.1 29.0523 27.5 28.5523 28 27.9523C28 27.6523 28 27.3523 27.9 27.2523ZM25 30.2523C24.9 30.2523 24.7 30.5523 24.6 30.5523C24.6 30.5523 23.9 31.1523 23.8 31.2523C23.8 31.1523 23.7 29.7523 23.6 29.6523C23.5 29.5523 22.3 29.2523 22.2 29.2523C22.4 29.1523 23.6 28.4523 23.6 28.3523C23.6 28.3523 24.1 26.1523 24.2 26.3523C24.3 26.1523 25.3 27.9523 25.5 28.0523C25.6 28.0523 26.8 27.8523 27 27.8523C26.8 28.0523 26.1 28.8523 25.9 29.0523C25.8 29.0523 25.7 29.1523 25.7 29.3523C25.7 29.4523 26.3 30.8523 26.3 30.8523C26.4 30.8523 25.2 30.1523 25 30.2523Z" fill="#3D4F3D"/>
</svg>
