<svg width="49" height="49" viewBox="0 0 49 49" fill="none" xmlns="http://www.w3.org/2000/svg">
<path d="M17.3 38.8C17.3 38.8 8.6 39.5 7.4 38C6.2 36.5 1.5 0.799988 1.5 0.799988H30L25.7 38C25.7 38 21.8 38.9 17.3 38.8Z" fill="#39B54A"/>
<path d="M46.5 31H17.8V46.5H46.5V31Z" fill="#3FA9F5"/>
<path d="M17.4 38.8H8.90002V47.3H17.4V38.8Z" fill="#FACE8D"/>
<path d="M6.90001 36.2C6.90001 36.2 10.4 21.2 17.4 18.5C24.4 15.8 29 9.80001 29 9.80001V5.20001C29 5.20001 27.2 9.80001 21.4 11.9C15.6 14 10.6 18.1 8.90001 23C7.20001 27.9 6.60001 31.2 6.60001 31.2L6.90001 36.2Z" fill="#FF931E"/>
<path d="M27.2 0.1C26.1 0.1 25 0 23.8 0C21.3 0 18.9 0 16.4 0C11.5 0 1.60001 0 1.60001 0C1.30001 0 1.10001 0.1 1.00001 0.3C0.70001 0.7 6.30001 37.1 6.30001 37.3C6.40001 37.8 6.60001 38.1 6.90001 38.4C7.00001 38.7 7.20001 38.9 7.50001 39C8.00001 39.3 8.50001 39.4 9.10001 39.4C9.50001 39.5 10 39.5 10.3 39.6C12.2 39.9 14.2 39.8 16.1 39.6C16.1 39.6 16.1 39.6 16.2 39.6C16.3 39.6 16.4 39.6 16.4 39.6C17.4 39.5 17.2 37.8 16.2 37.9C16.1 37.9 16 37.9 16 37.9C14.4 38.1 12.7 38.1 11.1 38C10.4 37.9 9.70001 37.8 9.00001 37.6C8.70001 37.5 8.40001 37.4 8.20001 37.2C8.20001 37.1 4.80001 13.4 2.30001 1.8C7.10001 1.7 11.8 1.7 16.6 1.7C19.1 1.7 21.5 1.6 24 1.6C25.1 1.6 28.2 1.4 29.4 1.3C28.4 9.2 27.7 17.1 26.6 25C26.5 26 28 26.4 28.1 25.4C29.3 17.2 30.5 8.8 30.5 0.5C30.3 0 28 0.2 27.2 0.1Z" fill="#3D4F3D"/>
<path d="M29.9 3.70002C29.2 3.10002 28.5 3.30002 27.6 3.40002C26.4 3.50002 25.2 3.50002 24 3.60002C21.7 3.70002 19.4 3.80002 17.1 3.90002C12.4 4.00002 7.70001 4.00002 2.90001 3.90002C1.80001 3.90002 1.80001 5.60002 2.90001 5.60002C7.60001 5.70002 12.3 5.70002 17.1 5.60002C19.4 5.50002 21.7 5.40002 24 5.30002C25.2 5.20002 26.4 5.10002 27.6 5.00002C28.5 4.90002 29.3 5.00002 29.9 4.40002C30 4.00002 30 3.80002 29.9 3.70002Z" fill="#3D4F3D"/>
<path d="M47 23.8H16.8V32.1H47V23.8Z" fill="#FF931E"/>
<path d="M43.6 30.6C43.6 30.6 38.8 36.6 30.4 38.4C22 40.2 17.9 46.6 17.9 46.6L24.4 46.1C24.4 46.1 28.4 41.5 35.8 39.8C43.2 38.1 45.4 31.7 45.4 31.7L43.6 30.6Z" fill="#FACE8D"/>
<path d="M20.4 46.2C18.8 46.2 17.1 46.2 15.5 46.2C13.9 46.2 12.3 46.3 10.8 46.3C10.3 46.3 9.70002 46.2 9.50002 45.6C9.30002 45 9.40002 44.2 9.30002 43.6C9.20002 42 9.10002 40.4 8.80002 38.8C8.70002 38.1 7.80002 38.4 7.70002 38.9C7.50002 40.7 7.50002 42.5 7.60002 44.3C7.70002 45.8 8.00002 47.4 9.70002 47.8C10.5 48 11.3 48 12 47.9C12.9 47.9 18.5 48.1 20.4 48C21.3 48 21.4 46.2 20.4 46.2Z" fill="#3D4F3D"/>
<path d="M28.6 5.10002C27.6 8.20002 24 10 21.2 11.3C18.4 12.6 15.6 13.8 13.3 15.9C9 19.6 6.5 24.9 6.1 30.6C6 31.4 7.2 31.4 7.3 30.6C7.9 24.8 11.1 19.1 15.9 15.7C18.5 13.8 21.7 13 24.4 11.3C26.8 9.80002 28.3 8.00002 28.9 5.20002C29.1 4.90002 28.6 4.80002 28.6 5.10002Z" fill="#3D4F3D"/>
<path d="M28.7 8.60002C26.2 14.5 18.8 16 14.4 19.9C10 23.8 8.1 29.5 6.6 34.8C6.4 35.5 7.4 35.7 7.6 35.1C9.4 29.3 11.6 23.2 16.8 19.6C21.4 16.4 27.3 14.5 29.2 8.70002C29.2 8.40002 28.8 8.30002 28.7 8.60002Z" fill="#3D4F3D"/>
<path d="M46.9 31C46 29.5 22.1 30 20.3 30.2C18.9 30.4 17.5 30.6 16.7 31.9C15.9 33.2 15.8 35.4 15.7 36.9C15.6 38.9 15.6 40.9 15.9 42.9C16.1 44.1 16.5 45.9 17.4 46.8C18.6 48 20.2 47.9 21.8 48C25.9 48.2 30.1 47.9 34.2 48C36 48 37.8 48 39.7 48C41.4 48 43.4 48.2 45.1 47.6C48.2 46.5 48 42.3 48.1 39.6C48.2 36.7 48.6 33.8 46.9 31ZM45.2 44.8C44.5 45.9 42.8 45.5 41.7 45.5C40 45.5 38.2 45.5 36.5 45.5C33.3 45.5 30.1 45.5 26.8 45.4C25.1 45.4 23.5 45.3 21.8 45.3C20.3 45.3 18.8 45.2 18.3 43.6C17.9 42.4 18 41 18 39.7C18 38.1 18 36.4 18.3 34.9C18.6 33.8 18.5 32.6 19.9 32.3C21.3 31.9 43.2 32 44.3 32.5C45.3 33 45.4 34.7 45.5 35.7C45.9 37.3 45.9 43.7 45.2 44.8Z" fill="#3D4F3D"/>
<path d="M47.5 23C37.4 22.9 27.3 23 17.1 23.1C16.7 23.1 16.3 23.5 16.3 23.9C16.3 25.6 16.2 29.3 16.2 31.1C16.2 32.7 16 34.4 16.4 35.9C16.5 36.4 17.2 36.3 17.3 35.9C17.8 34.4 17.7 32.6 17.8 31.1C17.9 29.6 17.9 26.2 17.9 24.7C27.6 24.6 46.3 24.3 46.5 24.8C46.7 25.3 46.5 31.1 47 33.5C47.1 33.9 48.1 35 48.1 34.6C48.3 32 48 26.3 48.1 23.6C48.1 23.2 47.8 23 47.5 23Z" fill="#3D4F3D"/>
<path d="M15.3 8.9C14.6 8.5 13.8 8.6 13 8.5C12.1 8.5 11.3 8.5 10.4 8.5C8.70001 8.6 7.00001 8.6 5.30001 8.7C5.00001 8.8 4.70001 8.9 4.60001 9.2C4.60001 9.3 4.60001 9.4 4.60001 9.6C4.70001 9.9 5.00001 10.1 5.20001 10.1C7.00001 10.1 8.70001 10 10.4 10C11.3 10 12.1 9.9 13 9.8C13.8 9.7 14.7 9.8 15.3 9.3C15.4 9.2 15.4 9 15.3 8.9Z" fill="white"/>
<path d="M11.8 12C11.4 11.6 10.8 11.6 10.2 11.5C9.70002 11.5 9.30002 11.5 8.80002 11.5C8.30002 11.5 7.90002 11.5 7.40002 11.5C6.80002 11.5 6.20002 11.5 5.80002 11.8C5.60002 12 5.60002 12.5 5.80002 12.7C6.30002 13.1 6.90002 13 7.40002 13L8.80002 13.1C9.30002 13.1 9.70002 13.1 10.2 13.1C10.8 13.1 11.3 13.1 11.8 12.6C12 12.6 12 12.2 11.8 12Z" fill="white"/>
<path d="M43.6 30.6C41.8 32.2 40.1 33.7 38 34.8C35.6 36 33 36.7 30.4 37.4C26.1 38.7 21.6 40.6 19.1 44.6C18.7 45.3 19.7 45.8 20.1 45.2C23.2 40.9 28.6 39.7 33.4 38.1C37.2 36.9 42.5 35 43.9 30.8C44.1 30.6 43.7 30.5 43.6 30.6Z" fill="#3D4F3D"/>
<path d="M44.9 31.6C44.3 32.5 44 33.5 43.3 34.4C42.6 35.3 41.8 36 40.9 36.7C38.9 38.2 36.4 39 34.1 39.8C29.8 41.2 25.2 42.4 22.4 46.2C21.9 46.8 23 47.7 23.5 47.1C26.9 42.9 32.2 42.2 36.9 40.3C39 39.5 41 38.5 42.6 37C43.9 35.8 45.5 33.6 45.4 31.8C45.3 31.5 45 31.4 44.9 31.6Z" fill="#3D4F3D"/>
<path d="M30.5 33.9C29.9 33.4 28.9 33.6 28.2 33.6C27.3 33.6 26.3 33.6 25.4 33.6C24.5 33.6 23.6 33.7 22.7 33.7C22.2 33.7 21.8 33.7 21.3 33.7C20.9 33.7 20.4 33.6 20.1 34C19.9 34.2 19.9 34.5 20.1 34.6C20.4 34.9 20.8 34.9 21.2 34.9C21.7 34.9 22.1 34.9 22.6 34.9C23.5 34.9 24.5 34.9 25.4 34.9C26.3 34.9 27.2 34.8 28.1 34.7C28.8 34.6 30 34.7 30.5 34.2C30.6 34.2 30.6 34 30.5 33.9Z" fill="white"/>
<path d="M26 36.5C25.9 36.4 25.7 36.3 25.6 36.2C25.4 36.1 25.2 36.1 25 36C24.6 35.9 24.2 35.8 23.8 35.8C23.4 35.8 23.1 35.7 22.7 35.7C22.3 35.7 21.7 35.6 21.3 35.9C21.1 36 21 36.2 21 36.5C21 36.8 21.2 37 21.4 37.2C21.6 37.4 21.9 37.4 22.2 37.4C22.4 37.4 22.6 37.4 22.8 37.4C23.2 37.4 23.5 37.4 23.9 37.4C24.3 37.4 24.7 37.3 25.1 37.3C25.3 37.3 25.5 37.3 25.7 37.2C25.8 37.1 26 37.1 26.1 37C26.2 36.8 26.1 36.6 26 36.5Z" fill="white"/>
</svg>
