<svg width="48" height="41" viewBox="0 0 48 41" fill="none" xmlns="http://www.w3.org/2000/svg">
<path d="M46.8001 1.78894H1.1001V7.28894H46.8001V1.78894Z" fill="#999999"/>
<path d="M45.7 39.2889H1L0 7.48889H46.7L45.7 39.2889Z" fill="white"/>
<path d="M47.2001 37.8889C47.2001 36.6889 47.2001 31.2889 47.2001 29.1889C47.2001 26.1889 47.2001 23.2889 47.2001 20.2889C47.2001 14.4889 47.2001 2.88889 47.2001 2.78889C47.4001 1.08889 46.0001 0.288889 44.5001 0.0888889C42.1001 -0.111111 39.7001 0.0888889 37.3001 0.0888889C32.3001 0.0888889 27.4001 0.188887 22.4001 0.188887C17.4001 0.188887 12.5001 0.288888 7.50012 0.388888C6.20012 0.388888 4.80012 0.38889 3.50012 0.48889C2.70012 0.48889 1.90012 0.588888 1.20012 0.888888C0.000117779 1.58889 0.100119 3.58889 0.100119 5.18889C-0.0998806 10.1889 0.100119 15.1889 0.100119 20.1889C0.100119 26.0889 0.100119 37.8889 0.100119 37.8889C0.300119 40.5889 1.40012 40.4889 2.90012 40.4889C5.30012 40.4889 7.70012 40.4889 10.1001 40.4889C15.1001 40.4889 20.0001 40.3889 25.0001 40.3889C30.0001 40.3889 34.9001 40.2889 39.9001 40.1889C41.2001 40.1889 42.6001 40.1889 43.9001 40.0889C44.7001 40.0889 45.5001 39.9889 46.2001 39.6889C46.6001 39.5889 47.2001 38.9889 47.2001 37.8889ZM3.90012 2.18889C4.80012 2.18889 5.70012 2.18889 6.60012 2.18889H12.3001C16.1001 2.18889 19.9001 2.08889 23.7001 2.08889C27.5001 2.08889 31.3001 1.98889 35.1001 1.98889C36.9001 1.98889 38.7001 1.98889 40.6001 1.88889C41.9001 1.88889 45.8001 1.58889 45.9001 3.78889C45.9001 4.78889 45.9001 5.88889 45.9001 6.88889C38.5001 6.48889 31.0001 6.58889 23.6001 6.48889C16.2001 6.38889 8.80012 6.48889 1.50012 6.48889C1.50012 5.98889 1.50012 5.48889 1.40012 4.98889C1.50012 2.08889 2.10012 2.18889 3.90012 2.18889ZM43.3001 38.5889C42.4001 38.5889 41.5001 38.5889 40.6001 38.5889H34.9001C31.1001 38.5889 27.3001 38.6889 23.5001 38.6889C19.7001 38.6889 15.9001 38.7889 12.1001 38.7889C10.3001 38.7889 8.50012 38.8889 6.60012 38.8889C3.80012 38.8889 1.60012 39.3889 1.50012 36.9889C1.50012 31.3889 1.50012 25.7889 1.50012 20.1889C1.50012 16.1889 1.60012 12.0889 1.60012 7.98889C9.00012 8.08889 16.3001 8.18889 23.7001 8.18889C31.1001 8.18889 38.6001 8.28889 46.0001 7.88889C46.0001 11.9889 45.9001 16.0889 45.9001 20.1889C45.9001 23.0889 45.9001 25.9889 45.9001 28.8889C45.9001 30.9889 45.8001 35.5889 45.8001 35.7889C45.7001 38.5889 45.1001 38.5889 43.3001 38.5889Z" fill="#3D4F3D"/>
<path d="M39.9998 21.7889C37.3998 20.3889 38.4999 16.5889 38.0999 14.1889C37.7999 12.2889 36.4998 10.2889 34.3998 10.2889C33.7998 10.2889 33.5998 11.2889 34.1998 11.3889C37.3998 11.8889 36.7998 15.6889 36.8998 17.9889C36.8998 19.5889 37.3998 21.1889 38.4998 22.2889C37.0998 23.5889 36.8999 25.5889 36.7999 27.4889C36.6999 29.9889 35.4999 33.1889 32.5999 33.6889C31.5999 33.8889 32.1998 35.4889 33.1998 34.9889C35.1998 33.8889 36.8998 32.7889 37.6998 30.4889C38.4998 28.1889 37.3998 24.2889 39.9998 22.8889C40.4998 22.6889 40.4998 22.0889 39.9998 21.7889Z" fill="#3D4F3D"/>
<path d="M23.6999 28.2888C26.627 28.2888 28.9999 25.916 28.9999 22.9888C28.9999 20.0617 26.627 17.6888 23.6999 17.6888C20.7728 17.6888 18.3999 20.0617 18.3999 22.9888C18.3999 25.916 20.7728 28.2888 23.6999 28.2888Z" fill="#E6E6E6"/>
<path d="M23.6998 25.3889C25.0253 25.3889 26.0998 24.3144 26.0998 22.9889C26.0998 21.6634 25.0253 20.5889 23.6998 20.5889C22.3743 20.5889 21.2998 21.6634 21.2998 22.9889C21.2998 24.3144 22.3743 25.3889 23.6998 25.3889Z" fill="#39B54A"/>
<path d="M13.5999 33.9889C12.0999 34.1889 10.9999 32.8889 10.5999 31.5889C10.1999 30.1889 10.3999 28.6889 10.3999 27.2889C10.3999 25.3889 10.1999 23.5889 9.0999 22.0889C10.2999 20.6889 10.5999 18.8889 10.6999 17.0889C10.8999 14.6889 10.9999 11.7889 13.8999 11.0889C14.5999 10.8889 14.3999 9.88894 13.6999 9.88894C11.4999 9.78894 9.9999 11.8889 9.5999 13.7889C8.9999 16.2889 9.6999 19.5889 7.4999 21.4889C7.1999 21.7889 7.1999 22.2889 7.4999 22.5889C9.6999 24.8889 8.3999 28.5889 8.8999 31.3889C9.3999 33.7889 11.3999 35.8889 13.9999 35.4889C14.9999 35.2889 14.5999 33.7889 13.5999 33.9889Z" fill="#3D4F3D"/>
<path d="M26.6002 21.8889C26.0002 20.4889 24.5002 19.5889 23.0002 19.8889C22.8002 19.8889 22.7002 19.9889 22.6002 20.1889C21.5002 20.5889 20.7002 21.6889 20.5002 22.8889C20.4002 24.0889 21.1002 25.2889 22.2002 25.8889C23.4002 26.4889 24.8002 26.2889 25.7002 25.3889C26.8002 24.3889 27.1002 22.9889 26.6002 21.8889ZM25.5002 23.0889V23.2889C25.5002 23.3889 25.4002 23.4889 25.4002 23.5889C25.4002 23.5889 25.4002 23.6889 25.3002 23.6889C25.3002 23.7889 25.2002 23.7889 25.2002 23.8889L25.1002 23.9889C25.0002 24.0889 25.0002 24.1889 24.9002 24.1889L24.8002 24.2889C24.7002 24.3889 24.6002 24.3889 24.5002 24.4889C24.5002 24.4889 24.4002 24.4889 24.4002 24.5889C24.3002 24.5889 24.3002 24.5889 24.4002 24.5889H24.3002C24.2002 24.5889 24.1002 24.5889 24.1002 24.6889H24.0002H23.9002C23.8002 24.6889 23.8002 24.6889 23.7002 24.6889C23.7002 24.6889 23.8002 24.6889 23.7002 24.6889C23.6002 24.6889 23.4002 24.5889 23.3002 24.5889H23.2002C23.2002 24.5889 23.1002 24.5889 23.1002 24.4889C23.0002 24.4889 22.9002 24.3889 22.8002 24.2889C22.8002 24.2889 22.7002 24.2889 22.7002 24.1889C22.8002 24.2889 22.6002 24.1889 22.6002 24.0889C22.5002 23.9889 22.4002 23.8889 22.4002 23.8889C22.4002 23.8889 22.4002 23.7889 22.3002 23.7889C22.2002 23.6889 22.2002 23.5889 22.2002 23.4889V23.3889C22.2002 23.2889 22.2002 23.2889 22.2002 23.1889C22.2002 23.0889 22.2002 23.0889 22.2002 22.9889V22.8889C22.2002 22.7889 22.2002 22.6889 22.2002 22.4889C22.2002 22.3889 22.2002 22.3889 22.2002 22.2889C22.2002 22.1889 22.3002 22.0889 22.3002 21.8889C22.3002 21.7889 22.4002 21.6889 22.4002 21.6889C22.6002 21.3889 22.9002 21.0889 23.2002 20.9889C23.3002 20.9889 23.5002 21.0889 23.6002 20.9889C23.7002 20.9889 23.7002 20.9889 23.8002 20.9889C23.9002 20.9889 24.0002 20.9889 24.1002 20.9889H24.2002C24.3002 20.9889 24.3002 20.9889 24.4002 20.9889C24.5002 20.9889 24.5002 20.9889 24.6002 20.9889H24.7002C24.6002 20.9889 24.6002 20.9889 24.7002 20.9889C24.8002 20.9889 24.9002 21.0889 25.0002 21.1889C25.0002 21.1889 25.1002 21.1889 25.1002 21.2889C25.2002 21.3889 25.3002 21.3889 25.3002 21.4889L25.4002 21.5889L25.5002 21.6889C25.6002 21.7889 25.6002 21.8889 25.7002 21.9889C25.7002 22.0889 25.7002 22.0889 25.7002 22.1889C25.7002 22.2889 25.7002 22.2889 25.7002 22.3889C25.5002 22.8889 25.5002 22.9889 25.5002 23.0889Z" fill="#3D4F3D"/>
<path d="M29.3002 21.5889C29.1002 20.4889 28.6002 19.4889 27.8002 18.5889C27.1002 17.7889 26.0002 17.1889 25.0002 16.8889C23.9002 16.5889 22.8002 16.6889 21.7002 16.9889C21.0002 17.1889 21.3002 18.2889 22.0002 18.0889C22.8002 17.8889 23.7002 17.9889 24.5002 18.2889C25.3002 18.5889 26.0002 18.9889 26.6002 19.5889C27.2002 20.1889 27.6002 20.9889 27.8002 21.7889C28.0002 22.5889 28.0002 23.5889 27.7002 24.2889C27.5002 24.6889 27.6002 25.1889 28.1002 25.3889C28.5002 25.5889 29.0002 25.3889 29.1002 24.8889C29.4002 23.8889 29.5002 22.7889 29.3002 21.5889Z" fill="#3D4F3D"/>
<path d="M26.0998 27.2889C25.8998 26.8889 25.4998 26.6889 25.0998 26.9889C24.7998 27.1889 24.2998 27.2889 23.8998 27.2889C23.4998 27.2889 23.0998 27.2889 22.5998 27.1889C21.6998 26.9889 20.8998 26.5889 20.2998 25.9889C19.0998 24.6889 18.7998 22.6889 19.5998 21.0889C19.8998 20.3889 18.9998 19.8889 18.5998 20.4889C17.6998 22.0889 17.6998 23.9889 18.3998 25.5889C19.1998 27.2889 20.7998 28.2889 22.5998 28.4889C23.0998 28.5889 23.5998 28.4889 24.0998 28.4889C24.5998 28.3889 24.9998 28.1889 25.4998 28.0889C25.9998 28.0889 26.1998 27.6889 26.0998 27.2889Z" fill="#3D4F3D"/>
<path d="M4.6001 4.28885C4.6001 4.08885 4.5001 3.98884 4.5001 3.88884C4.5001 3.78884 4.4001 3.78884 4.3001 3.68884C4.3001 3.68884 4.3001 3.58884 4.2001 3.58884C4.0001 3.48884 3.9001 3.38885 3.7001 3.28885C3.6001 3.28885 3.5001 3.18884 3.3001 3.18884C3.2001 3.18884 3.1001 3.18884 3.0001 3.18884H2.9001C2.8001 3.18884 2.7001 3.28884 2.6001 3.38884C2.5001 3.48884 2.4001 3.48884 2.3001 3.58884C2.2001 3.68884 2.1001 3.88885 2.1001 3.98885V4.08884C2.1001 4.18884 2.1001 4.28884 2.1001 4.38884C2.1001 4.58884 2.2001 4.68884 2.2001 4.88884C2.2001 4.98884 2.3001 5.08884 2.4001 5.18884C2.4001 5.18884 2.4001 5.18885 2.5001 5.28885C2.6001 5.38885 2.6001 5.38885 2.7001 5.48885C2.8001 5.48885 2.9001 5.58884 2.9001 5.58884C3.0001 5.58884 3.1001 5.58884 3.2001 5.58884H3.3001C3.4001 5.58884 3.5001 5.58884 3.6001 5.58884C3.8001 5.48884 3.9001 5.48884 4.0001 5.38884C4.1001 5.28884 4.3001 5.28884 4.4001 5.08884C4.4001 4.98884 4.5001 4.88885 4.5001 4.78885C4.5001 4.88885 4.5001 4.88885 4.4001 4.98885C4.4001 4.88885 4.5001 4.78885 4.5001 4.78885C4.7001 4.48885 4.6001 4.38885 4.6001 4.28885Z" fill="#3D4F3D"/>
<path d="M7.6998 4.08889C7.5998 3.98889 7.5998 3.78889 7.4998 3.68889C7.3998 3.58889 7.2998 3.48889 7.0998 3.48889C7.0998 3.48889 7.0998 3.48889 6.9998 3.48889C6.8998 3.48889 6.8998 3.48889 6.7998 3.48889C6.7998 3.48889 6.7998 3.48889 6.6998 3.48889C6.5998 3.48889 6.4998 3.48889 6.4998 3.48889C6.2998 3.58889 6.0998 3.68889 5.8998 3.88889C5.8998 3.98889 5.7998 3.98889 5.7998 4.08889C5.7998 4.18889 5.7998 4.18889 5.7998 4.28889C5.7998 4.38889 5.7998 4.38889 5.7998 4.48889C5.7998 4.58889 5.8998 4.68889 5.8998 4.68889C5.8998 4.78889 5.9998 4.78889 5.9998 4.88889C5.9998 4.88889 5.9998 4.98889 6.0998 4.98889C6.1998 5.08889 6.2998 5.18889 6.4998 5.18889C6.6998 5.18889 6.7998 5.18889 6.9998 5.18889C7.0998 5.18889 7.0998 5.08889 7.1998 5.08889C7.2998 5.08889 7.2998 4.98889 7.3998 4.98889C7.4998 4.88889 7.4998 4.88889 7.5998 4.78889C7.5998 4.68889 7.6998 4.68889 7.6998 4.58889C7.6998 4.48889 7.6998 4.38889 7.6998 4.38889C7.6998 4.38889 7.6998 4.38889 7.6998 4.28889C7.7998 4.18889 7.7998 4.08889 7.6998 4.08889Z" fill="#3D4F3D"/>
<path d="M11.0002 3.88884C11.0002 3.78884 10.9002 3.78884 10.9002 3.68884C10.9002 3.58884 10.8002 3.58885 10.8002 3.48885C10.8002 3.48885 10.8002 3.48884 10.8002 3.38884C10.7002 3.28884 10.7002 3.28885 10.6002 3.28885C10.6002 3.28885 10.6002 3.28885 10.5002 3.28885C10.4002 3.28885 10.4002 3.18884 10.3002 3.18884C10.2002 3.18884 10.1002 3.18884 10.0002 3.18884C9.8002 3.18884 9.7002 3.18885 9.6002 3.28885C9.5002 3.28885 9.5002 3.38884 9.4002 3.38884C9.4002 3.48884 9.3002 3.48884 9.3002 3.58884C9.3002 3.68884 9.2002 3.68885 9.2002 3.78885C9.2002 3.88885 9.2002 3.98884 9.2002 4.08884C9.2002 4.18884 9.2002 4.28884 9.2002 4.38884C9.2002 4.48884 9.3002 4.58884 9.3002 4.68884L9.4002 4.78885L9.5002 4.88884C9.6002 4.98884 9.7002 5.08884 9.9002 5.08884C10.0002 5.08884 10.1002 5.08884 10.1002 5.08884C10.1002 5.08884 10.1002 5.08884 10.2002 5.08884C10.3002 5.08884 10.4002 5.08884 10.4002 5.08884C10.5002 5.08884 10.5002 4.98885 10.6002 4.98885C10.7002 4.98885 10.8002 4.88885 10.8002 4.78885C10.9002 4.78885 10.9002 4.68884 10.9002 4.58884C10.9002 4.58884 10.9002 4.48885 11.0002 4.48885C11.0002 4.48885 11.0002 4.38884 11.1002 4.38884C11.1002 4.28884 11.1002 4.28884 11.1002 4.18884C11.1002 4.08884 11.1002 3.98884 11.0002 3.88884Z" fill="#3D4F3D"/>
</svg>
