<svg width="50" height="50" viewBox="0 0 36 50" fill="none" xmlns="http://www.w3.org/2000/svg">
<path d="M33.8763 14.5C31.5763 13.5 28.9763 15.9 27.5763 17.9C27.5763 16.6 27.5763 14.2 27.4763 12.9C27.3763 11.1 27.3763 9.19998 26.9763 7.29998C26.7763 5.89998 26.0763 4.49997 24.6763 3.99997C23.3763 3.49997 21.8763 4.19998 21.0763 5.19998C20.9763 5.29998 20.9763 5.39997 20.8763 5.49997C20.8763 5.19997 20.7763 4.79997 20.6763 4.49997C20.4763 3.89997 20.2763 3.29998 19.9763 2.79998C19.2763 1.79998 18.2763 1.09998 16.9763 1.09998C15.7763 1.09998 14.5763 1.59997 13.7763 2.39997C13.1763 2.99997 12.7763 3.79997 12.5763 4.59997C11.0763 3.59997 8.97635 4.19997 7.87635 5.59997C6.77635 7.09997 6.67635 10.1 6.67635 12C6.07635 11.5 5.27635 10.3 4.37635 10.6C2.77635 11.1 2.17635 12.6 1.87635 14.1C1.57635 16.2 1.47635 18.3 1.27635 20.4C0.776347 28.3 0.276347 38.1 6.07635 44.3C8.87635 47.3 12.9763 48.8 17.0763 48.5C23.1763 48.5 25.3763 47.2 28.3763 44.2C33.9763 38.6 31.5763 30.8 32.6763 23.8C32.8763 22.8 33.0763 21.8 33.3763 20.9C33.7763 19.9 34.3763 19.1 34.7763 18.1C35.6763 16.7 35.3763 15.2 33.8763 14.5Z" fill="#FACE8D"/>
<path d="M34.4763 14.1C32.0763 13.1 29.3763 14.6 27.8763 16.6C27.8763 15.2 27.8763 13.8 27.7763 12.4C27.6763 10.5 27.5763 8.5 27.2763 6.6C27.0763 5.2 26.3763 3.7 24.8763 3.1C23.4763 2.6 21.9763 3.3 21.0763 4.3C20.9763 4.4 20.9763 4.5 20.8763 4.6C20.8763 4.3 20.7763 3.9 20.6763 3.6C20.4763 3 20.2763 2.4 19.8763 1.8C19.1763 0.700003 18.0763 0.1 16.7763 0C15.5763 0 14.2763 0.500002 13.4763 1.4C12.8763 2.1 12.4763 2.8 12.2763 3.7C10.7763 2.6 8.57628 3.2 7.37628 4.8C6.37628 6.4 6.27628 8.4 6.27628 10.4C5.67628 9.9 4.77628 9.7 3.87628 10C2.27628 10.5 1.57628 12.1 1.27628 13.7C0.976276 15.9 0.876276 18.1 0.676276 20.3C0.176276 28.5 -0.323724 38.6 5.67628 45.1C8.57628 48.2 12.8763 49.7 17.0763 49.4C23.4763 49.4 25.6763 48.1 28.8763 45C34.6763 39.2 32.2763 31.1 33.3763 23.8C33.5763 22.8 33.7763 21.8 34.1763 20.8C34.5763 19.8 35.1763 18.9 35.5763 17.9C36.2763 16.4 35.9763 14.8 34.4763 14.1ZM32.9763 20.2C32.4763 21.5 32.1763 22.8 31.9763 24.1C31.1763 29.7 32.7763 36.1 29.8763 41.3C27.3763 45.8 22.4763 47.9 17.7763 48C13.0763 48.1 8.97628 46.6 6.27628 43.3C3.37628 39.7 2.37628 35 2.07628 30.5C1.77628 25.7 2.07628 20.8 2.47628 16C2.57628 14.9 2.57628 13.8 2.87628 12.8C3.27628 11.6 4.97628 10.1 5.67628 12C5.77628 12.2 5.97628 12.8 6.17628 13.5C6.17628 17.1 5.97628 20.9 6.37628 24.5C6.47628 25.2 7.47628 25.3 7.57628 24.5C7.87628 21.1 7.67628 17.5 7.67628 14.1C7.67628 12.4 7.67628 10.7 7.67628 9.1C7.77628 7.6 7.97628 5.7 9.57628 5C13.0763 3.3 12.3763 10.7 12.3763 12.4C12.3763 15.9 12.4763 19.4 12.4763 22.9C12.4763 23.9 13.9763 23.9 13.9763 22.9C13.9763 19.6 13.8763 16.3 13.8763 13C13.8763 11.4 13.8763 9.7 13.8763 8.1C13.8763 7.1 13.7763 6.1 13.2763 5.2C13.3763 3.4 14.8763 1.6 16.6763 1.6C18.8763 1.6 19.4763 4.3 19.6763 6.1C19.6763 6.3 19.5763 8.3 19.4763 9.2C18.9763 13.5 18.9763 17.8 19.3763 22C19.4763 22.7 20.5763 22.8 20.5763 22C20.3763 18.6 20.3763 15.1 20.6763 11.7C20.7763 10.1 20.8763 8.4 21.3763 6.9C21.8763 5.4 23.6763 3.7 24.9763 5.4C25.9763 6.6 25.8763 8.7 25.9763 10.2C26.0763 11.9 26.1763 13.5 26.1763 15.2C26.2763 18.7 26.0763 22.1 25.7763 25.6C25.6763 26.5 26.9763 26.4 27.0763 25.6C27.2763 23.6 27.4763 21.6 27.5763 19.5C27.5763 19.5 27.5763 19.4 27.6763 19.4C28.1763 18 29.1763 16.8 30.4763 16C31.4763 15.5 34.3763 14.7 34.3763 16.6C34.6763 17.7 33.4763 19.1 32.9763 20.2Z" fill="#3D4F3D"/>
<path d="M26.5762 33.1C24.5762 29.6 20.7762 27.4 16.7762 27.4C12.4762 27.4 8.97621 29.9 6.87621 33.4C6.57621 33.9 7.07621 34.4 7.57621 34.4C9.27621 38 13.1762 40.4 17.2762 40.3C21.4762 40.2 25.2762 37.6 26.9762 33.9C27.0762 33.6 26.7762 33.2 26.5762 33.1Z" fill="white"/>
<path d="M26.9763 33.1C24.8763 29.5 20.8763 27.1 16.7763 27.1C12.3763 27.1 8.67631 29.7 6.47631 33.4C6.17631 34 6.67631 34.5 7.17631 34.5C8.97631 38.3 13.0763 40.8 17.2763 40.7C21.5763 40.6 25.5763 37.9 27.3763 34C27.4763 33.6 27.2763 33.2 26.9763 33.1ZM17.1763 39.5C13.2763 39.5 9.67631 37.1 7.97631 33.6C9.67631 30.6 13.3763 28.6 16.7763 28.6C20.5763 28.5 24.0763 30.7 25.9763 33.9C24.2763 37.1 20.8763 39.4 17.1763 39.5Z" fill="#3D4F3D"/>
<path d="M18.1764 32.3999C17.9764 32.1999 17.8764 32.0999 17.6764 31.8999C17.5764 31.7999 17.4764 31.7999 17.3764 31.7999C17.1764 31.6999 16.9764 31.7 16.7764 31.7C15.9764 31.8 15.1764 32.3 14.8764 33.2C14.5764 34 15.0764 34.8999 15.7764 35.3999C16.1764 35.6999 16.6764 35.7 17.1764 35.7C17.4764 35.7 17.7764 35.5999 17.9764 35.3999C18.0764 35.3999 18.0764 35.3 18.1764 35.2C18.4764 35 18.6764 34.6999 18.7764 34.2999C18.9764 33.6999 18.7764 32.8999 18.1764 32.3999Z" fill="#3D4F3D"/>
</svg>
