<svg width="48" height="49" viewBox="0 0 48 49" fill="none" xmlns="http://www.w3.org/2000/svg">
<path d="M24.0812 46.7233C36.5629 46.7233 46.6812 36.6049 46.6812 24.1233C46.6812 11.6417 36.5629 1.52332 24.0812 1.52332C11.5996 1.52332 1.48123 11.6417 1.48123 24.1233C1.48123 36.6049 11.5996 46.7233 24.0812 46.7233Z" fill="#FF931E"/>
<path d="M45.9812 14.3233C43.5812 8.72331 38.8812 4.22331 33.2812 1.82331C21.1812 -3.27669 6.98122 2.72331 2.08122 14.8233C-0.41878 21.0233 -0.91878 28.7233 1.98122 34.9233C4.78122 40.9233 11.1812 44.4233 17.1812 46.3233C23.7812 48.3233 31.0812 48.0233 36.8812 44.0233C40.4812 41.6233 43.2812 38.1233 45.0812 34.1233C45.3812 34.1233 45.5812 33.9233 45.7812 33.6233C48.3812 27.4233 48.5812 20.5233 45.9812 14.3233ZM39.3812 39.2233C37.3812 41.3233 34.8812 43.0233 32.1812 44.1233C29.1812 45.3233 25.8812 45.5233 22.6812 45.1233C19.5812 44.7233 16.4812 43.8233 13.6812 42.4233C10.9812 41.2233 8.48122 39.7233 6.48122 37.5233C2.18122 33.0233 1.58122 26.0233 2.98122 20.2233C4.28122 14.5233 7.58122 9.22331 12.4812 6.02331C17.0812 2.92331 22.9812 1.52331 28.4812 2.62331C34.5812 3.82331 39.9812 7.62331 43.1812 12.9233C44.4812 15.1233 45.2812 17.5233 45.7812 20.0233C45.9812 21.3233 46.0812 22.6233 45.9812 24.0233C45.5812 29.7233 43.3812 35.2233 39.3812 39.2233Z" fill="#3D4F3D"/>
<path d="M15.2812 2.12332C14.7812 1.72332 14.1812 2.12332 14.2812 2.82332C14.6812 4.62332 15.9812 6.22332 16.9812 7.72332C17.9812 9.42332 19.0812 11.0233 20.1812 12.7233C22.2812 16.0233 24.2812 19.3233 26.2812 22.8233C29.7812 29.1233 32.9812 35.7233 33.8812 42.9233C33.9812 44.0233 35.6812 43.9233 35.5812 42.8233C34.8812 35.5233 31.7812 28.8233 28.2812 22.5233C26.3812 19.0233 24.3812 15.6233 22.2812 12.2233C21.1812 10.4233 20.1812 8.72332 19.0812 6.92332C17.8812 5.42332 16.8812 3.32332 15.2812 2.12332Z" fill="#3D4F3D"/>
<path d="M13.3812 12.8233C12.3812 11.7233 11.0812 10.7233 9.58122 10.2233C8.48122 9.82329 6.78122 9.32329 5.78122 10.3233C5.68122 10.4233 5.68122 10.6233 5.78122 10.7233C6.28122 11.0233 6.68122 11.0233 7.28122 11.1233C8.08122 11.2233 8.88122 11.5233 9.68122 11.9233C11.1812 12.7233 12.3812 13.9233 13.2812 15.3233C15.0812 18.4233 15.2812 22.7233 14.9812 26.2233C14.4812 32.2233 9.68122 39.8233 13.7812 45.5233C14.5812 46.6233 16.0812 45.5233 15.4812 44.3233C13.6812 40.7233 14.5812 37.0233 15.6812 33.3233C16.6812 29.8233 17.2812 26.3233 16.9812 22.6233C16.8812 19.2233 15.7812 15.5233 13.3812 12.8233Z" fill="#3D4F3D"/>
<path d="M37.0812 16.2233C33.8812 14.6233 30.4812 13.0233 28.0812 10.2233C26.9812 8.8233 26.1812 7.2233 25.9812 5.4233C25.7812 3.8233 26.1812 2.3233 26.0812 0.723302C26.0812 0.423302 25.6812 0.323302 25.5812 0.523302C23.6812 2.5233 24.2812 6.3233 25.2812 8.7233C26.6812 11.8233 29.3812 14.0233 32.2812 15.7233C35.3812 17.5233 38.7812 18.7233 41.5812 21.0233C43.9812 23.0233 45.9812 26.1233 45.3812 29.4233C45.1812 30.4233 46.7812 30.8233 46.9812 29.7233C48.1812 23.1233 42.1812 18.8233 37.0812 16.2233Z" fill="#3D4F3D"/>
<path d="M15.8812 48.0233C21.9564 48.0233 26.8812 43.0984 26.8812 37.0233C26.8812 30.9482 21.9564 26.0233 15.8812 26.0233C9.80609 26.0233 4.88123 30.9482 4.88123 37.0233C4.88123 43.0984 9.80609 48.0233 15.8812 48.0233Z" fill="#39B54A"/>
<path d="M27.1812 35.3233C25.7812 35.4233 24.2812 35.1233 22.9812 34.6233C21.6812 34.1233 20.3812 33.4233 19.3812 32.4233C18.3812 31.5233 17.5812 30.5233 16.8812 29.3233C16.1812 28.1233 15.6812 26.8233 15.2812 25.4233C15.0812 24.7233 13.9812 24.8233 13.9812 25.6233C13.8812 28.7233 15.6812 31.9233 17.9812 33.9233C19.2812 34.9233 20.6812 35.7233 22.2812 36.3233C23.0812 36.6233 23.8812 36.7233 24.6812 36.9233C25.4812 37.0233 26.2812 37.0233 27.1812 37.0233C28.2812 37.0233 28.1812 35.2233 27.1812 35.3233Z" fill="white"/>
<path d="M13.9812 37.8233C12.6812 36.6233 11.1812 35.6233 9.48123 35.1233C8.68123 34.8233 7.68123 34.6233 6.88123 34.6233C6.08123 34.6233 5.08123 34.7233 4.58123 35.4233C4.48123 35.5233 4.38123 35.8233 4.58123 35.9233C5.18123 36.4233 5.78123 36.4233 6.48123 36.6233C7.28123 36.8233 7.98123 36.8233 8.78123 37.0233C10.1812 37.4233 11.4812 38.2233 12.5812 39.2233C13.6812 40.2233 14.4812 41.5233 14.9812 42.9233C15.4812 44.4233 15.4812 45.8233 15.4812 47.4233C15.4812 48.4233 17.0812 48.7233 17.2812 47.6233C17.8812 44.1233 16.3812 40.2233 13.9812 37.8233Z" fill="white"/>
<path d="M27.3812 32.4233C26.1812 29.3233 23.8812 27.0233 21.0812 25.7233C20.9812 25.4233 20.8812 25.2233 20.4812 25.0233C17.7812 24.0233 14.6812 23.7233 11.9812 24.7233C9.28122 25.7233 7.08122 27.5233 5.58122 30.0233C4.18122 32.3233 3.38122 35.3233 3.78122 38.0233C4.18122 40.6233 5.58122 43.2233 7.48122 45.1233C11.3812 48.9233 17.8812 49.6233 22.5812 46.7233C27.1812 43.9233 29.2812 37.5233 27.3812 32.4233ZM26.1812 38.0233C25.7812 40.2233 24.6812 42.4233 23.0812 44.0233C19.6812 47.5233 13.8812 48.1233 9.98122 45.2233C6.08122 42.4233 4.58122 37.2233 6.28122 32.7233C7.98122 28.3233 12.7812 25.8233 17.3812 26.2233C18.2812 26.3233 19.0812 26.6233 19.8812 26.9233C21.8812 27.8233 23.5812 29.3233 24.6812 31.2233C25.9812 33.2233 26.6812 35.6233 26.1812 38.0233Z" fill="#3D4F3D"/>
</svg>
