<svg width="44" height="49" viewBox="0 0 44 49" fill="none" xmlns="http://www.w3.org/2000/svg">
<path d="M21.1 16.4C21.1 16.4 20.3 11.5 18.3 9.60004C16.3 7.70004 15 6.60004 15 6.60004C15 6.60004 11 12.6 10.7 14.5C10.4 16.4 11.1 15.4 8.4 14.9C5.7 14.4 2 14.1 2 14.1C2 14.1 3.8 17.4 3.8 20.8C3.7 24.2 7.2 30 10.8 31.3C14.4 32.6 18 33.5 20.6 32.3C23.2 31.1 22.2 17.8 21.1 16.4Z" fill="#39B54A"/>
<path d="M18.5 21.1001C15.4 15.0001 7.8 14.0001 1.7 13.4001C1.2 13.3001 0.799996 14.1001 1.1 14.5001C2.5 16.4001 2.6 18.8001 2.9 21.0001C3.2 23.2001 3.9 25.2001 5.1 27.1001C7.6 30.9001 11.8 33.2001 16.3 33.4001C17.2 33.4001 17.2 32.1001 16.3 32.0001C11.9 31.7001 7.8 29.2 5.7 25.3C4.7 23.4 4.4 21.3001 4.2 19.2001C4 17.8001 3.8 16.4001 3.2 15.1001C8.7 15.7001 14.5 16.9001 18 21.7001C18.1 21.9001 18.7 21.6001 18.5 21.1001Z" fill="#3D4F3D"/>
<path d="M35.8 20.6L24.1 9.00002C24.1 9.00002 31.6 -2.69998 39.4 4.10002C47.6 11.2 35.8 20.6 35.8 20.6Z" fill="#3FA9F5"/>
<path d="M15.6 6.50005C15.4 6.40005 15.1 6.40005 15 6.50005C12 8.60005 9.99999 11.7 9.79999 15.4C9.79999 16.2 11.1 16.4 11.2 15.6C11.6 12.7 13 9.80005 15.3 7.90005C18.1 9.60005 19.8 12.4 20.6 15.6C20.7 15.9 21.1 15.8 21.1 15.5C21.1 11.8 18.7 8.30005 15.6 6.50005Z" fill="#3D4F3D"/>
<path d="M23.8 9L35.5 20.6C35.5 20.6 27.4 30.3 20.5 24.8C13.6 19.3 23.8 9 23.8 9Z" fill="white"/>
<path d="M15.2 29.3L26.9 40.9001C26.9 40.9001 18.8 50.6 11.9 45.1C5 39.6 15.2 29.3 15.2 29.3Z" fill="white"/>
<path d="M33.7 0.10003C31 0.20003 28.9 1.90003 27.2 3.80003C25 6.10003 22.9 8.60003 20.8 11C17.4 15 14.6 21.2 19.1 25.6C23.3 29.7 29.9 28.1 33.2 23.6C35.1 21.8 37.1 20 38.9 18.1C40.8 16.1 42.6 13.7 43 10.9C43.8 5.80003 39 3.01136e-05 33.7 0.10003ZM41.1 11.1C40.6 13.8 38.6 16 36.8 18C35.5 19.4 32.2 22.2 32 22.6C29.5 26.6 24.2 28.3 20.5 24.7C16.4 20.7 20 15.5 22.9 12.2C24.6 10.3 26.2 8.40003 27.9 6.50003C29.2 5.00003 30.7 3.20003 32.7 2.50003C37.3 1.10003 41.9 6.80003 41.1 11.1Z" fill="#3D4F3D"/>
<path d="M27.3 40.9L15.6 29.3C15.6 29.3 24 18.9 30.9 24.4C37.8 29.9 27.3 40.9 27.3 40.9Z" fill="#FF1D25"/>
<path d="M10.7 45.4C13.9 49.1 19.6 48.9 23 45.8C23.9 45.2 24.6 44.4 25.4 43.7C26.7 42.4 28 41.1 29.2 39.8C31.3 37.6 33.3 35.4 34.1 32.4C34.8 29.8 34.3 27 32.7 24.8C31 22.7 28.3 21.9 25.7 22.1C23.1 22.3 21 23.7 19.1 25.4C16.7 27.5 14.4 29.8 12.3 32.1C10.6 33.9 8.99999 36.1 8.59999 38.6C8.19999 41.1 9.09999 43.6 10.7 45.4ZM13.4 32.8C15.1 30.9 16.9 29.1 18.7 27.3C20.3 25.6 22.2 24 24.5 23.3C27 22.6 29.5 23.6 31.2 25.6C32.9 27.6 33.2 30.1 32.3 32.6C31.2 35.3 29.1 37.4 27 39.3C25.2 40.9 24.4 42.4 21.6 44.7C19 46.7 15.1 46.7 12.7 44.3C11.3 42.9 10.6 41 10.5 39C10.4 36.5 11.8 34.5 13.4 32.8Z" fill="#3D4F3D"/>
<path d="M35.9 20C34 18.1 32.1 16.3 30.3 14.4C29.4 13.5 28.4 12.6 27.5 11.6C26.6 10.7 25.7 9.8 24.7 9.1C24.2 8.2 22.5 9.4 23.7 10.3C24.2 10.7 24.6 11.3 25 11.8C25.4 12.3 25.8 12.8 26.2 13.3C27.1 14.3 27.9 15.2 28.9 16.1C30.8 17.9 32.8 19.6 34.8 21.2C35.6 21.6 36.6 20.7 35.9 20Z" fill="#3D4F3D"/>
<path d="M17.6 27.3C16.5 25.4 14.7 23.8 12.9 22.6C11 21.3 8.9 20.4 6.7 19.8C5.9 19.6 5.5 20.9 6.4 21.1C8.5 21.6 10.5 22.4 12.3 23.5C14.2 24.6 15.7 26.1 17.3 27.6C17.4 27.8 17.7 27.6 17.6 27.3Z" fill="#3D4F3D"/>
<path d="M15.6 30.7C16.1 31 16.5 31.6 16.9 32C17.4 32.5 17.8 32.9 18.3 33.4C19.2 34.3 20.1 35.2 21 36.1C21.9 37 22.8 37.8 23.7 38.6C24.2 39 24.7 39.4 25.2 39.8C25.7 40.2 26.2 40.5 26.7 40.8C26.9 41 27.2 40.6 27 40.4C26.2 39.5 25.4 38.6 24.4 37.7C23.5 36.8 22.5 36 21.6 35.1C20.7 34.2 19.8 33.4 19 32.5C18.6 32.1 18.1 31.6 17.7 31.2C17.3 30.8 16.6 30.3 16.4 29.7C16.1 28.6 14.5 30.1 15.6 30.7Z" fill="#3D4F3D"/>
<path d="M17.6 18C17.4 17.3 17.2 16.5 16.9 15.8C16.4 14.4 16 13 15.4 11.6C15.3 11.3 14.9 11.4 14.9 11.7C15.2 13.2 15.6 14.7 16 16.1C16.2 16.8 16.4 17.5 16.6 18.2C16.8 18.9 17 19.7 17.3 20.4C17.6 20.9 18.3 20.5 18.2 20C18.1 19.4 17.8 18.7 17.6 18Z" fill="#3D4F3D"/>
</svg>
