<svg width="49" height="49" viewBox="0 0 49 49" fill="none" xmlns="http://www.w3.org/2000/svg">
<path d="M32.3 17.0049H17.1V32.2049H32.3V17.0049Z" fill="#3FA9F5"/>
<path d="M28.4 19.5049H19.6V28.3049H28.4V19.5049Z" fill="#39B54A"/>
<path d="M47.6 1.20496H36.8V12.005H47.6V1.20496Z" fill="#FF1D25"/>
<path d="M45.3 3.80493H39V10.1049H45.3V3.80493Z" fill="#39B54A"/>
<path d="M35.7 36.105H24.9V46.905H35.7V36.105Z" fill="#FACE8D"/>
<path d="M33.3 38.705H27V45.005H33.3V38.705Z" fill="#39B54A"/>
<path d="M12.3 36.105H1.5V46.905H12.3V36.105Z" fill="#FF931E"/>
<path d="M9.7 38.105H3.4V44.405H9.7V38.105Z" fill="#39B54A"/>
<path d="M24.4 1.10498H13.6V11.905H24.4V1.10498Z" fill="#FACE8D"/>
<path d="M22.1 3.70496H15.8V10.005H22.1V3.70496Z" fill="#39B54A"/>
<path d="M32.9 31.805C32.9 29.305 32.8 26.705 32.8 24.205C32.8 22.905 32.8 21.705 32.7 20.405C32.7 19.805 32.7 16.105 31.9 16.005C29.3 15.805 26.8 16.005 24.2 16.005C21.9 16.005 19.5 16.005 17.2 16.105C16.5 15.805 15.6 16.205 15.6 17.205C15.5 19.805 15.7 22.305 15.7 24.905C15.7 26.205 15.8 27.405 15.8 28.705C15.8 29.305 15.8 29.905 15.8 30.505C15.8 31.205 15.7 31.905 16 32.505C16.2 33.105 22.5 32.705 25.1 32.605C26.4 32.605 27.8 32.605 29.1 32.505C29.8 32.505 32.9 32.805 32.9 31.805C32.9 31.905 32.9 31.905 32.9 31.805ZM29.2 31.205C27.8 31.105 26.4 31.205 25.1 31.205C22.6 31.205 20.1 31.205 17.6 31.205C17.6 31.105 17.6 30.905 17.6 30.805C17.6 30.105 17.6 29.505 17.7 28.805C17.7 27.505 17.8 26.305 17.8 25.005C17.9 22.505 18 19.905 18 17.405C20.1 17.505 22.2 17.505 24.3 17.605C26.7 17.705 29 17.805 31.4 17.805C31.4 18.105 31.4 18.305 31.3 18.605C31.3 19.205 31.2 19.805 31.2 20.305C31.2 21.605 31.2 22.905 31.2 24.205C31.2 26.605 31.2 28.905 31.3 31.305C31.2 31.305 31.2 31.305 31.1 31.305C30.5 31.205 29.9 31.205 29.2 31.205Z" fill="#3D4F3D"/>
<path d="M29.8 24.1049C29.8 23.4049 29.7 22.705 29.7 21.905C29.7 21.205 30 19.3049 29.3 19.2049C29.1 19.2049 28.6 19.1049 28.4 19.1049C28 19.1049 27.5 19.1049 27.1 19.0049C26.3 19.0049 25.5 19.0049 24.6 19.0049C23.8 19.0049 23 19.0049 22.1 19.0049C21.7 19.0049 21.2 19.0049 20.8 19.0049C20.4 19.0049 19.9 19.0049 19.5 19.1049C19 19.3049 18.8 19.905 19 20.405C18.9 20.705 19 20.9049 18.9 21.2049C18.9 21.6049 18.9 21.9049 18.9 22.3049C18.9 23.1049 18.9 23.8049 19 24.6049C19 26.1049 19.1 27.305 19 28.905C19 29.505 19.5 29.8049 20 29.7049C20.2 29.7049 23.6 29.7049 25.1 29.6049C25.9 29.5049 26.6 29.5049 27.4 29.5049C27.8 29.5049 28.2 29.5049 28.5 29.5049C28.8 29.5049 29.2 29.5049 29.4 29.2049C29.4 29.2049 29.6 28.8049 29.6 28.6049C29.8 27.1049 29.8 25.6049 29.8 24.1049ZM25.2 28.1049C23.7 28.0049 22.2 28.1049 20.7 28.2049C20.6 27.0049 20.6 25.8049 20.5 24.6049C20.5 23.8049 20.5 23.1049 20.4 22.3049C20.4 21.9049 20.3 21.6049 20.3 21.2049C20.3 21.1049 20.3 20.6049 20.3 20.5049C20.9 20.5049 23.7 20.505 24.5 20.405C25.3 20.405 26.1 20.3049 26.9 20.3049C27.3 20.3049 27.8 20.3049 28.2 20.3049C28.3 20.3049 28.5 20.3049 28.6 20.3049C28.4 20.8049 28.5 21.405 28.4 21.905C28.4 22.605 28.3 23.3049 28.3 24.1049C28.2 25.5049 28.3 26.9049 28.3 28.3049C28 28.3049 27.7 28.3049 27.5 28.3049C26.8 28.2049 26 28.1049 25.2 28.1049Z" fill="#3D4F3D"/>
<path d="M48.2 4.00497C48.2 3.10497 48.2 2.20498 48 1.30498C48 1.30498 47.8 0.80498 47.6 0.60498C47.2 0.30498 46.7 0.304977 46.2 0.304977C45.7 0.204977 45.3 0.204971 44.8 0.204971C43.9 0.104971 43.1 0.10498 42.2 0.10498C40.4 0.10498 38.6 0.304974 36.8 0.504974C36.4 0.604974 35.9 1.40497 35.8 1.70497C35.5 3.50497 35.6 5.30498 35.7 7.10498C35.7 8.00498 35.7 8.80497 35.8 9.70497C35.8 10.105 35.8 10.505 35.8 11.005C35.8 11.505 35.8 12.005 35.9 12.505C36.1 13.105 38.8 13.005 39.5 13.005C40.4 13.005 44.1 13.105 45 13.005C45.5 13.005 48.1 13.105 48.1 12.305C48.2 10.505 48.2 8.60498 48.3 6.80498C48.2 5.80498 48.2 4.90497 48.2 4.00497ZM44.9 11.505C44 11.405 43.1 11.405 42.1 11.305C41.2 11.205 40.3 11.205 39.3 11.205C38.8 11.205 38.1 11.105 37.5 11.105C37.5 10.605 37.4 10.205 37.4 9.80498C37.4 8.90498 37.4 8.10497 37.4 7.20497C37.4 5.50497 37.5 3.70497 37.1 2.00497C38.7 1.80497 40.3 1.80498 42 1.80498C42.9 1.80498 43.8 1.90498 44.6 1.90498C45 1.90498 45.4 2.00497 45.8 2.00497C46.1 2.00497 46.5 2.10498 46.8 2.10498C46.7 2.70498 46.7 3.40497 46.6 4.00497C46.5 4.90497 46.5 5.80498 46.4 6.80498C46.3 8.40498 46.3 10.005 46.3 11.605H46.2C45.9 11.505 45.4 11.505 44.9 11.505Z" fill="#3D4F3D"/>
<path d="M45.6 9.20497C45.5 7.40497 45.3 3.80498 45.3 3.80498C45.4 3.60498 45.3 3.20497 44.7 3.20497C44.7 3.20497 44.4 3.20497 44.3 3.20497C44.1 3.20497 43.8 3.20497 43.6 3.20497C43.1 3.20497 42.7 3.20497 42.2 3.20497C41.3 3.20497 40.3 3.10498 39.4 3.10498C39 3.10498 38.6 3.40498 38.6 3.80498C38.6 3.90498 38.5 5.00498 38.5 5.40498C38.5 5.90498 38.5 6.40498 38.5 6.90498C38.5 7.40498 38.5 7.90498 38.5 8.40498C38.5 8.90498 38.4 9.60497 38.7 10.005C38.9 10.205 40.3 10.105 40.7 10.105C41.2 10.105 41.6 10.105 42.1 10.105C43 10.105 43.9 10.105 44.8 10.105C45.1 10.105 45.2 10.005 45.3 9.80498C45.5 9.70498 45.6 9.50497 45.6 9.20497ZM40.7 8.70497C40.4 8.70497 40.1 8.70498 39.7 8.80498C39.7 8.60498 39.7 8.50498 39.7 8.30498C39.7 7.80498 39.7 7.30498 39.7 6.80498C39.7 6.30498 39.7 5.80498 39.7 5.30498C39.7 5.00498 39.7 4.70498 39.7 4.40498C40.5 4.40498 41.3 4.30498 42.2 4.30498L43.6 4.20497C43.8 4.20497 43.9 4.20497 44.1 4.20497C44.1 5.70497 44.2 7.20497 44.3 8.70497C43.6 8.70497 42.8 8.70497 42.1 8.70497C41.6 8.70497 41.1 8.70497 40.7 8.70497Z" fill="#3D4F3D"/>
<path d="M3.9 35.105C3 35.105 2.1 35.105 1.2 35.305C1.2 35.305 0.7 35.505 0.5 35.705C0.2 36.105 0.2 36.605 0.2 37.105C0.1 37.605 0.1 38.005 0.1 38.505C0 39.405 0 40.305 0 41.205C0 43.005 0.2 44.805 0.4 46.605C0.5 47.005 1.3 47.505 1.6 47.605C3.4 47.905 5.2 47.805 7 47.705C7.9 47.705 8.7 47.705 9.6 47.605C10 47.605 10.4 47.605 10.9 47.605C11.4 47.605 11.9 47.605 12.4 47.505C13 47.305 12.9 44.605 12.9 43.905C12.9 43.005 13 39.305 12.9 38.405C12.9 37.905 13 35.305 12.2 35.305C10.4 35.205 8.5 35.205 6.7 35.105C5.7 35.105 4.8 35.105 3.9 35.105ZM11.4 38.405C11.3 39.305 11.3 40.205 11.2 41.205C11.1 42.105 11.1 43.005 11.1 44.005C11.1 44.505 11 45.205 11 45.805C10.5 45.805 10.1 45.905 9.7 45.905C8.8 45.905 8 45.905 7.1 45.905C5.4 45.905 3.6 45.805 1.9 46.205C1.7 44.605 1.7 43.005 1.7 41.305C1.7 40.405 1.8 39.505 1.8 38.705C1.8 38.305 1.9 37.905 1.9 37.505C1.9 37.205 2 36.805 2 36.505C2.6 36.605 3.3 36.605 3.9 36.705C4.8 36.805 5.7 36.805 6.7 36.905C8.3 37.005 9.9 37.005 11.5 37.005V37.105C11.4 37.505 11.4 37.905 11.4 38.405Z" fill="#3D4F3D"/>
<path d="M9.2 37.8049C7.4 37.9049 3.8 38.1049 3.8 38.1049C3.6 38.0049 3.2 38.1049 3.2 38.7049C3.2 38.7049 3.2 39.0049 3.2 39.1049C3.2 39.3049 3.2 39.6049 3.2 39.8049C3.2 40.3049 3.2 40.7049 3.2 41.2049C3.2 42.1049 3.1 43.1049 3.1 44.0049C3.1 44.4049 3.4 44.8049 3.8 44.8049C3.9 44.8049 5 44.9049 5.4 44.9049C5.9 44.9049 6.4 44.9049 6.9 44.9049C7.4 44.9049 7.9 44.9049 8.4 44.9049C8.9 44.9049 9.6 45.0049 10 44.7049C10.2 44.5049 10.1 43.1049 10.1 42.7049C10.1 42.2049 10.1 41.8049 10.1 41.3049C10.1 40.4049 10.1 39.5049 10.1 38.6049C10.1 38.3049 10 38.2049 9.8 38.1049C9.6 37.9049 9.4 37.8049 9.2 37.8049ZM8.6 42.7049C8.6 43.0049 8.6 43.3049 8.7 43.7049C8.5 43.7049 8.4 43.7049 8.2 43.7049C7.7 43.7049 7.2 43.7049 6.7 43.7049C6.2 43.7049 5.7 43.7049 5.2 43.7049C4.9 43.7049 4.6 43.7049 4.3 43.7049C4.3 42.9049 4.2 42.1049 4.2 41.2049L4.1 39.8049C4.1 39.6049 4.1 39.5049 4.1 39.3049C5.6 39.3049 7.1 39.2049 8.6 39.1049C8.6 39.8049 8.6 40.6049 8.6 41.3049C8.6 41.8049 8.6 42.2049 8.6 42.7049Z" fill="#3D4F3D"/>
<path d="M36 41.605C36 40.705 35.9 37.605 35.9 37.105C35.9 36.705 35.7 35.805 35.5 35.805C34.7 35.505 33.4 35.605 32.6 35.605C31.7 35.605 30.8 35.505 29.9 35.505C28.1 35.405 26.3 35.405 24.6 35.405C24 35.405 23.9 36.505 23.9 36.505C23.7 36.905 23.8 37.405 23.8 37.905C23.8 38.405 23.8 38.905 23.7 39.405C23.7 40.305 23.6 41.205 23.6 42.205C23.6 43.105 23.5 44.005 23.6 45.005C23.6 45.505 23.7 46.005 23.7 46.505C23.7 47.005 23.6 47.405 23.8 47.905C23.9 48.205 24.7 48.305 24.9 48.305C26.9 48.305 28.9 48.305 30.8 48.305C31.8 48.305 32.7 48.305 33.7 48.305C33.9 48.305 36 48.405 36.1 47.705C36.1 45.605 36.1 43.605 36 41.605ZM33.1 47.005C32.2 47.005 31.3 46.905 30.4 46.905C28.6 46.805 26.8 46.805 24.9 46.805C24.9 46.705 24.9 46.605 24.9 46.505C24.9 46.005 25 45.505 25 45.005C25 44.105 25.1 43.205 25 42.205C25 41.305 25 40.405 25 39.405C25 38.905 25 38.405 25 37.905C25 37.605 25 37.205 25 36.905C26.7 36.905 28.3 36.905 30 36.805C30.9 36.805 31.8 36.705 32.7 36.705C33.4 36.705 34.1 36.705 34.7 36.505C34.7 36.705 34.7 36.905 34.7 37.105C34.7 37.605 34.7 38.105 34.7 38.605C34.7 39.505 34.7 40.505 34.8 41.405C34.8 43.205 34.8 45.005 34.8 46.805C34.7 46.805 34.7 46.805 34.6 46.805C34 47.005 33.5 47.005 33.1 47.005Z" fill="#3D4F3D"/>
<path d="M33.6 43.305C33.6 42.805 33.5 42.405 33.5 41.905C33.5 41.405 33.4 41.005 33.4 40.505C33.4 40.005 33.4 39.505 33.2 39.005C33.1 38.705 32.9 38.505 32.6 38.505C32.2 38.305 31.8 38.305 31.3 38.205C30.8 38.205 30.3 38.105 29.8 38.105C28.8 38.105 27.8 38.305 26.8 38.505C26.6 38.505 26.4 38.505 26.3 38.705C26.1 39.005 26 39.205 26 39.605C26 39.805 25.9 40.105 25.9 40.305C25.9 40.805 25.8 41.205 25.8 41.705C25.7 42.605 25.8 43.605 25.8 44.505C25.8 44.805 26 45.105 26.3 45.205C26.4 45.305 26.5 45.405 26.6 45.405C27.1 45.505 27.6 45.505 28.1 45.505C28.6 45.505 29.1 45.505 29.5 45.505C29.9 45.505 30.5 45.505 30.9 45.505C31.1 45.505 31.3 45.505 31.6 45.505C31.9 45.505 32.2 45.505 32.4 45.505C32.4 45.505 33.1 45.305 33.3 45.105C33.7 44.505 33.7 43.805 33.6 43.305ZM31.2 44.105C30.7 44.105 30.2 44.105 29.8 44.105C29.3 44.105 28.8 44.105 28.4 44.105C28.1 44.105 27.9 44.105 27.6 44.105C27.6 43.305 27.6 42.505 27.6 41.605C27.6 41.205 27.6 40.705 27.7 40.305C27.7 40.205 27.7 40.005 27.7 39.905C28.5 39.705 29.3 39.605 30.1 39.605C30.6 39.605 31 39.505 31.5 39.505C31.7 39.505 31.9 39.505 32.1 39.505C32.1 39.805 32.1 40.105 32.1 40.405C32.1 40.905 32.1 41.405 32.1 41.905C32.1 42.405 32.1 42.905 32.1 43.405C32.1 43.605 32.1 43.805 32.1 44.105C31.9 44.105 31.4 44.105 31.2 44.105Z" fill="#3D4F3D"/>
<path d="M12.8 6.70493C12.8 7.60493 12.9 10.7049 12.9 11.2049C12.9 11.6049 13.1 12.5049 13.3 12.5049C14.1 12.8049 15.4 12.7049 16.2 12.7049C17.1 12.7049 18 12.8049 18.9 12.8049C20.7 12.9049 22.5 12.9049 24.2 12.9049C24.8 12.9049 24.9 11.8049 24.9 11.8049C25.1 11.4049 25 10.9049 25 10.4049C25 9.90495 25 9.40495 25.1 8.90495C25.1 8.00495 25.2 7.10494 25.2 6.10494C25.2 5.20494 25.3 4.30494 25.2 3.30494C25.2 2.80494 25.1 2.30494 25.1 1.80494C25.1 1.30494 25.2 0.904947 25 0.404947C24.9 0.104947 24.1 0.0049375 23.9 0.0049375C21.9 0.0049375 19.9 0.0049375 18 0.0049375C17 0.0049375 16.1 0.0049375 15.1 0.0049375C14.9 0.0049375 12.8 -0.0950564 12.7 0.604944C12.7 2.80494 12.7 4.80493 12.8 6.70493ZM15.7 1.40495C16.6 1.40495 17.5 1.50494 18.4 1.50494C20.2 1.60494 22 1.60494 23.9 1.60494C23.9 1.70494 23.9 1.80495 23.9 1.90495C23.9 2.40495 23.8 2.90495 23.8 3.40495C23.8 4.30495 23.7 5.20493 23.8 6.20493C23.8 7.10493 23.8 8.00494 23.8 9.00494C23.8 9.50494 23.8 10.0049 23.8 10.5049C23.8 10.8049 23.8 11.2049 23.8 11.5049C22.1 11.5049 20.5 11.5049 18.8 11.6049C17.9 11.6049 17 11.7049 16.1 11.7049C15.4 11.7049 14.7 11.7049 14.1 11.9049C14.1 11.7049 14.1 11.5049 14.1 11.3049C14.1 10.8049 14.1 10.3049 14.1 9.80494C14.1 8.90494 14.1 7.90494 14 7.00494C14 5.20494 14 3.40494 14 1.60494C14.1 1.60494 14.1 1.60494 14.2 1.60494C14.8 1.40494 15.3 1.40495 15.7 1.40495Z" fill="#3D4F3D"/>
<path d="M15.2 5.10497C15.2 5.60497 15.3 6.00496 15.3 6.50496C15.3 7.00496 15.4 7.40497 15.4 7.90497C15.4 8.40497 15.4 8.90497 15.6 9.40497C15.7 9.70497 15.9 9.90497 16.2 9.90497C16.6 10.105 17 10.105 17.5 10.205C18 10.205 18.5 10.305 19 10.305C20 10.305 21 10.105 22 9.90497C22.2 9.90497 22.4 9.90496 22.5 9.70496C22.7 9.40496 22.8 9.20496 22.8 8.80496C22.8 8.60496 22.9 8.30497 22.9 8.10497C22.9 7.60497 23 7.20496 23 6.70496C23.1 5.80496 23 4.80497 23 3.90497C23 3.60497 22.8 3.30496 22.5 3.20496C22.4 3.10496 22.3 3.00496 22.2 3.00496C21.7 2.90496 21.2 2.90497 20.7 2.90497C20.2 2.90497 19.7 2.90497 19.3 2.90497C18.9 2.90497 18.3 2.90497 17.9 2.90497C17.7 2.90497 17.5 2.90497 17.2 2.90497C16.9 2.90497 16.6 2.90497 16.4 2.90497C16.4 2.90497 15.7 3.10496 15.5 3.30496C15 3.90496 15.1 4.60497 15.2 5.10497ZM17.6 4.20496C18.1 4.20496 18.6 4.20496 19 4.20496C19.5 4.20496 20 4.20496 20.4 4.20496C20.7 4.20496 20.9 4.20496 21.2 4.20496C21.2 5.00496 21.2 5.80496 21.2 6.70496C21.2 7.10496 21.2 7.60496 21.1 8.00496C21.1 8.10496 21.1 8.30497 21.1 8.40497C20.3 8.60497 19.5 8.70496 18.7 8.70496C18.2 8.70496 17.8 8.80496 17.3 8.80496C17.1 8.80496 16.9 8.80496 16.7 8.80496C16.7 8.50496 16.7 8.20497 16.7 7.90497C16.7 7.40497 16.7 6.90497 16.7 6.40497C16.7 5.90497 16.7 5.40497 16.7 4.90497C16.7 4.70497 16.7 4.50496 16.7 4.20496C16.9 4.30496 17.4 4.20496 17.6 4.20496Z" fill="#3D4F3D"/>
<path d="M36.2 6.50496C35.8 6.10496 35 6.10496 34.4 6.00496C33.7 5.90496 32.9 5.80496 32.2 5.80496C31.5 5.70496 30.8 5.70496 30.1 5.70496C29.4 5.70496 28.7 5.80496 27.9 5.80496C27.7 5.80496 26.5 6.30496 26.5 6.80496C26.5 8.50496 26.4 10.105 26.3 11.805C26.2 13.505 26.4 15.105 26.4 16.805C26.4 17.805 28 17.805 28 16.805C28 15.105 28.2 13.505 28.1 11.805C28 10.405 28 9.00497 27.9 7.60497C28.6 7.70497 29.2 7.70496 29.9 7.70496C30.6 7.70496 31.3 7.70497 32.1 7.60497C32.8 7.60497 33.5 7.50497 34.2 7.40497C34.8 7.30497 35.6 7.30497 36.1 6.90497C36.3 6.80497 36.3 6.60496 36.2 6.50496Z" fill="#3D4F3D"/>
<path d="M21.6 37.005C21.6 35.405 21.6 33.905 21.7 32.305C21.7 32.105 21.6 31.8049 21.4 31.7049C21.2 31.6049 21 31.5049 20.8 31.7049H20.7C20.5 31.8049 20.4 32.105 20.4 32.305C20.3 33.905 20.3 35.505 20.3 37.005C20.3 38.305 20.3 39.605 20.4 40.905C19.3 40.805 18.1 40.805 17 40.805C15.7 40.805 14.4 40.805 13.1 40.905C12.3 40.905 12.3 42.2049 13.1 42.2049C14.4 42.2049 15.7 42.1049 17 42.2049C18.3 42.2049 19.6 42.3049 20.9 42.2049C20.9 42.2049 20.9 42.2049 21 42.2049C21.4 42.3049 21.9 42.005 21.9 41.605C21.8 40.105 21.6 38.605 21.6 37.005Z" fill="#3D4F3D"/>
<path d="M41.8 44.505C42.4627 44.505 43 43.9677 43 43.305C43 42.6422 42.4627 42.105 41.8 42.105C41.1373 42.105 40.6 42.6422 40.6 43.305C40.6 43.9677 41.1373 44.505 41.8 44.505Z" fill="#39B54A"/>
<path d="M45.8 26.105C46.4627 26.105 47 25.5677 47 24.905C47 24.2422 46.4627 23.705 45.8 23.705C45.1373 23.705 44.6 24.2422 44.6 24.905C44.6 25.5677 45.1373 26.105 45.8 26.105Z" fill="#39B54A"/>
<path d="M38 20.2049C38.6627 20.2049 39.2 19.6677 39.2 19.0049C39.2 18.3422 38.6627 17.8049 38 17.8049C37.3373 17.8049 36.8 18.3422 36.8 19.0049C36.8 19.6677 37.3373 20.2049 38 20.2049Z" fill="#39B54A"/>
<path d="M11.3 33.105C11.9627 33.105 12.5 32.5677 12.5 31.905C12.5 31.2422 11.9627 30.705 11.3 30.705C10.6373 30.705 10.1 31.2422 10.1 31.905C10.1 32.5677 10.6373 33.105 11.3 33.105Z" fill="#39B54A"/>
<path d="M2 26.405C2.66274 26.405 3.2 25.8677 3.2 25.2049C3.2 24.5422 2.66274 24.0049 2 24.0049C1.33726 24.0049 0.800003 24.5422 0.800003 25.2049C0.800003 25.8677 1.33726 26.405 2 26.405Z" fill="#39B54A"/>
<path d="M6 7.00497C6.66274 7.00497 7.2 6.46772 7.2 5.80498C7.2 5.14224 6.66274 4.60498 6 4.60498C5.33726 4.60498 4.8 5.14224 4.8 5.80498C4.8 6.46772 5.33726 7.00497 6 7.00497Z" fill="#39B54A"/>
<path d="M30.3 35.2049C30.3 34.9049 30.2 34.5049 30.2 34.2049C30.1 33.5049 30.1 32.8049 30 32.1049C29.9 31.8049 29.4 31.8049 29.4 32.1049C29.3 32.8049 29.3 33.5049 29.3 34.2049C29.3 34.5049 29.3 34.9049 29.3 35.2049C29.3 35.6049 29.3 36.1049 29.6 36.3049C29.7 36.4049 29.9 36.4049 30 36.3049C30.2 36.1049 30.3 36.0049 30.3 35.7049C30.3 35.6049 30.3 35.4049 30.3 35.2049Z" fill="#3D4F3D"/>
<path d="M19.4 12.005C19.3 11.905 19.2 11.905 19.1 11.905C18.8 11.905 18.5 12.105 18.4 12.405C18.2 13.105 18.1 13.905 18.1 14.605C18.1 15.005 18.1 15.305 18.1 15.705C18.1 15.905 18.1 16.105 18.1 16.205C18.1 16.305 18.1 16.405 18.1 16.405C18.1 16.605 18.2 16.805 18.4 17.005C18.7 17.405 19.3 17.205 19.5 16.905C19.7 16.505 19.6 16.105 19.6 15.705C19.6 15.405 19.6 15.005 19.6 14.705C19.6 14.405 19.6 14.005 19.7 13.705C19.7 13.605 19.7 13.505 19.7 13.505C19.7 13.405 19.7 13.405 19.7 13.305C19.7 13.105 19.7 12.905 19.7 12.705C19.7 12.405 19.6 12.105 19.4 12.005Z" fill="#3D4F3D"/>
<path d="M47.5 23.8049C47.2 23.1049 46.4 22.6049 45.6 22.7049C45.2 22.7049 44.8 22.9049 44.4 23.2049C44.1 23.5049 43.9 23.8049 43.9 24.2049C43.9 24.2049 43.9 24.3049 43.9 24.4049C43 24.4049 42 24.6049 41.1 24.6049C40.1 24.7049 39.2 24.7049 38.2 24.7049C38.3 23.9049 38.3 23.1049 38.3 22.4049C38.3 22.0049 38.3 21.6049 38.3 21.1049C38.3 21.0049 38.3 20.8049 38.3 20.7049C38.9 20.7049 39.5 20.4049 39.8 19.9049C40.2 19.2049 40 18.2049 39.4 17.6049C38.7 16.9049 37.7 16.9049 36.9 17.3049C36 17.7049 35.5 18.7049 35.7 19.6049C35.8 20.1049 36.2 20.5049 36.7 20.7049C36.8 20.7049 36.9 20.8049 37.1 20.8049C37.1 20.9049 37.1 21.0049 37.1 21.1049C37.1 21.5049 37 22.0049 37 22.4049C36.9 23.2049 36.9 24.0049 36.9 24.8049C36.4 24.8049 35.8 24.8049 35.3 24.8049C34.9 24.8049 34.4 24.8049 34 24.7049C33.4 24.7049 33 24.6049 32.5 24.9049C32.3 25.0049 32.3 25.3049 32.4 25.4049C32.9 25.8049 33.2 25.8049 33.7 25.8049C34.2 25.8049 34.7 25.9049 35.3 25.9049C36.3 25.9049 37.2 26.0049 38.2 26.0049C39.2 26.0049 40.1 26.0049 41.1 25.9049C41.2 25.9049 41.2 25.9049 41.3 25.9049C41.2 26.2049 41.2 26.6049 41.2 27.0049C41.2 27.6049 41.2 28.3049 41.2 28.9049C41.2 30.4049 41.2 31.8049 41.2 33.3049C41.2 36.1049 41.3 39.0049 41.4 41.8049C41.4 41.8049 41.3 41.8049 41.3 41.9049C41.3 41.9049 41.3 41.9049 41.3 42.0049C41 42.1049 40.7 42.2049 40.5 42.4049C40.2 42.7049 40.1 43.1049 40.1 43.5049C40.1 43.9049 40.3 44.3049 40.6 44.6049C41.2 45.2049 42.1 45.3049 42.8 44.8049C43.5 44.4049 43.9 43.5049 43.6 42.7049C43.5 42.5049 43.4 42.3049 43.3 42.1049C43.2 41.9049 43 41.8049 42.7 41.7049C42.6 41.7049 42.6 41.7049 42.5 41.7049C42.5 38.9049 42.6 36.1049 42.6 33.3049L42.5 29.1049C42.5 28.4049 42.5 27.7049 42.4 27.0049C42.4 26.6049 42.4 26.3049 42.3 25.9049C42.9 25.9049 43.4 25.8049 44 25.7049C44.2 26.1049 44.6 26.5049 45.1 26.7049C45.8 27.0049 46.7 26.7049 47.2 26.2049C47.7 25.5049 47.9 24.6049 47.5 23.8049ZM37.1 19.6049C37.1 19.6049 37 19.6049 37.1 19.6049C37 19.6049 37 19.6049 37.1 19.6049C37 19.5049 37 19.5049 37 19.5049C37 19.5049 37 19.5049 37 19.4049C37 19.4049 37 19.4049 37 19.3049C37 19.3049 37 19.3049 37 19.2049V19.1049V19.0049V18.9049V18.8049C37 18.8049 37 18.8049 37 18.7049V18.6049C37 18.5049 37.1 18.5049 37.1 18.4049C37.1 18.4049 37.1 18.4049 37.2 18.3049C37.2 18.2049 37.3 18.2049 37.4 18.2049L37.5 18.1049C37.6 18.1049 37.6 18.0049 37.7 18.0049H37.8C37.9 18.0049 37.9 18.0049 38 18.0049H38.1C38.2 18.0049 38.2 18.0049 38.3 18.0049C38.2 18.0049 38.4 18.0049 38.4 18.0049H38.5C38.6 18.0049 38.6 18.1049 38.7 18.1049L38.8 18.2049C38.8 18.2049 38.8 18.3049 38.9 18.3049C38.9 18.4049 39 18.4049 39 18.5049C39 18.5049 39 18.5049 39 18.6049C38.9 18.5049 39 18.6049 39 18.7049C39 18.8049 39 18.8049 39 18.9049V19.0049V19.1049V19.2049V19.3049C39 19.3049 39 19.4049 38.9 19.4049L38.8 19.5049C38.8 19.5049 38.8 19.5049 38.7 19.5049C38.8 19.4049 38.7 19.5049 38.6 19.5049L38.5 19.6049C38.4 19.6049 38.4 19.6049 38.3 19.7049H38.2C38.2 19.7049 38.2 19.7049 38.1 19.7049H38H37.9C37.8 19.6049 37.6 19.5049 37.4 19.6049C37.6 19.6049 37.4 19.6049 37.3 19.6049C37.2 19.6049 37.2 19.6049 37.1 19.7049C37.2 19.6049 37.2 19.6049 37.1 19.6049C37.2 19.6049 37.2 19.6049 37.1 19.6049C37.2 19.6049 37.2 19.6049 37.1 19.6049ZM42.7 42.6049C42.7 42.7049 42.7 42.7049 42.7 42.6049C42.7 42.7049 42.7 42.7049 42.7 42.6049C42.7 42.7049 42.7 42.7049 42.7 42.6049C42.7 42.7049 42.7 42.7049 42.7 42.6049C42.8 42.7049 42.8 42.7049 42.8 42.8049C42.8 42.7049 42.8 42.9049 42.8 42.8049C42.8 42.9049 42.8 42.9049 42.8 43.0049V43.1049V43.2049V43.3049C42.8 43.3049 42.8 43.4049 42.7 43.4049C42.7 43.4049 42.7 43.4049 42.7 43.5049L42.6 43.6049H42.5L42.4 43.7049C42.4 43.7049 42.4 43.7049 42.3 43.7049C42.2 43.7049 42.2 43.7049 42.1 43.8049C42.1 43.8049 42.1 43.8049 42 43.8049C42.1 43.8049 42 43.8049 42 43.8049H41.9H41.8C41.8 43.8049 41.8 43.8049 41.7 43.8049C41.7 43.8049 41.7 43.8049 41.6 43.8049L41.5 43.7049C41.5 43.7049 41.5 43.7049 41.5 43.6049L41.4 43.5049C41.4 43.5049 41.4 43.5049 41.4 43.4049C41.4 43.4049 41.4 43.4049 41.4 43.3049V43.2049C41.4 43.2049 41.4 43.2049 41.4 43.1049L41.5 43.0049C41.5 43.0049 41.5 42.9049 41.6 42.9049C41.9 43.2049 42.4 43.1049 42.6 42.7049C42.6 42.7049 42.6 42.7049 42.6 42.6049C42.5 42.6049 42.6 42.6049 42.7 42.6049C42.7 42.6049 42.6 42.6049 42.7 42.6049ZM46.7 24.9049C46.7 25.0049 46.7 25.0049 46.7 24.9049C46.7 25.0049 46.7 25.0049 46.7 24.9049C46.7 25.0049 46.7 25.0049 46.7 25.1049V25.2049C46.7 25.3049 46.6 25.3049 46.6 25.4049L46.5 25.5049C46.5 25.5049 46.5 25.5049 46.4 25.5049C46.4 25.5049 46.3 25.5049 46.3 25.6049C46.3 25.6049 46.2 25.6049 46.2 25.7049C46.1 25.7049 46 25.8049 45.9 25.8049C45.8 25.8049 45.8 25.8049 45.7 25.8049H45.6C45.6 25.8049 45.6 25.8049 45.5 25.8049C45.3 25.8049 45.2 25.7049 45.1 25.6049C45.2 25.5049 45.3 25.4049 45.4 25.3049C45.4 25.1049 45.4 25.0049 45.4 24.9049V24.8049C45.4 24.7049 45.4 24.7049 45.4 24.6049V24.5049C45.4 24.5049 45.4 24.5049 45.4 24.4049C45.4 24.4049 45.4 24.3049 45.5 24.3049L45.6 24.2049C45.6 24.2049 45.7 24.2049 45.7 24.1049H45.8H45.9C46 24.1049 46 24.1049 46.1 24.1049H46.2C46.3 24.1049 46.3 24.1049 46.4 24.2049C46.4 24.2049 46.5 24.2049 46.5 24.3049C46.5 24.3049 46.5 24.3049 46.6 24.4049C46.6 24.5049 46.7 24.5049 46.7 24.6049C46.7 24.7049 46.7 24.7049 46.7 24.8049C46.7 24.8049 46.7 24.9049 46.7 25.0049C46.7 24.9049 46.7 24.9049 46.7 24.9049Z" fill="#3D4F3D"/>
<path d="M17.1 24.5049C16.8 24.1049 16.3 24.1049 15.8 24.0049C15.2 23.9049 14.6 23.905 14 23.805C12.9 23.705 11.7 23.7049 10.6 23.7049C9.5 23.7049 8.5 23.805 7.4 23.905C7.5 22.605 7.4 21.3049 7.3 20.0049C7.2 18.6049 7.2 17.1049 7.1 15.7049C7 14.3049 7 12.805 6.9 11.405C6.8 10.105 6.9 8.70496 6.7 7.40496C7 7.30496 7.3 7.20496 7.5 6.90496C7.8 6.60496 8 6.20495 8 5.70495C8.1 4.90495 7.4 4.20496 6.6 3.90496C5.8 3.70496 4.9 3.90495 4.4 4.50495C4.1 4.90495 3.9 5.30495 3.9 5.80495C3.9 6.30495 4.1 6.70495 4.4 7.10495C4.7 7.40495 5.1 7.60495 5.5 7.60495C5.4 8.80495 5.6 10.105 5.7 11.305C5.8 12.805 5.9 14.305 6 15.805C6.1 17.205 6.2 18.705 6.2 20.105C6.3 21.405 6.3 22.705 6.5 23.905C5.5 24.005 4.6 24.005 3.6 24.105C3.6 24.105 3.6 24.0049 3.5 24.0049C3.4 23.9049 3.3 23.805 3.2 23.805C2.8 23.305 2 23.105 1.4 23.305C1 23.405 0.6 23.705 0.3 24.105C0.1 24.405 0 24.8049 0 25.2049C0.1 26.0049 0.6 26.8049 1.4 27.0049C2.2 27.2049 3 26.905 3.5 26.305C3.6 26.205 3.7 26.005 3.7 25.805C4.8 25.705 5.9 25.605 7 25.605C8.1 25.605 9.3 25.605 10.4 25.605C10.5 25.605 10.5 25.605 10.6 25.605C10.6 25.805 10.5 25.905 10.5 26.105C10.4 26.605 10.5 27.2049 10.5 27.7049C10.5 28.7049 10.6 29.6049 10.7 30.5049H10.6C10.2 30.5049 9.9 30.7049 9.7 31.0049C9.5 31.3049 9.4 31.7049 9.4 32.0049C9.5 32.4049 9.7 32.705 10 32.905C10.5 33.405 11.3 33.5049 12 33.2049C12.7 32.9049 13.1 32.2049 13 31.5049C13 31.3049 12.9 31.105 12.8 30.905C12.7 30.805 12.7 30.7049 12.6 30.7049L12.5 30.605C12.4 30.505 12.2 30.405 12 30.305C11.9 29.405 11.9 28.505 11.9 27.605C11.9 27.105 11.9 26.605 11.9 26.105C11.9 25.905 11.9 25.7049 11.8 25.5049C12.5 25.5049 13.3 25.505 14 25.405C14.6 25.405 15.2 25.305 15.8 25.305C16.3 25.205 16.7 25.205 17.1 24.905C17.2 24.905 17.2 24.7049 17.1 24.5049ZM5.5 6.50495C5.5 6.40495 5.4 6.40495 5.5 6.50495C5.4 6.40495 5.4 6.40495 5.5 6.50495C5.4 6.40495 5.4 6.40496 5.4 6.40496C5.4 6.40496 5.4 6.40495 5.3 6.30495V6.20495C5.3 6.20495 5.3 6.20495 5.3 6.10495V6.00495V5.90496V5.80495V5.60495C5.3 5.60495 5.3 5.50495 5.4 5.50495C5.4 5.50495 5.4 5.50496 5.4 5.40496C5.4 5.30496 5.5 5.30495 5.5 5.30495C5.6 5.30495 5.6 5.20495 5.7 5.20495C5.7 5.20495 5.7 5.20495 5.8 5.20495C5.8 5.20495 5.9 5.20495 6 5.20495C6 5.20495 6 5.20495 6.1 5.20495H6.2C6.2 5.20495 6.3 5.20495 6.4 5.20495H6.5C6.6 5.20495 6.6 5.30495 6.7 5.30495C6.7 5.30495 6.7 5.30495 6.8 5.30495L6.9 5.40496V5.50495V5.60495V5.70495C6.9 5.70495 6.9 5.70495 6.9 5.80495C6.9 5.80495 6.9 5.80496 6.9 5.90496C6.9 6.00496 6.8 6.00495 6.8 6.10495C6.7 6.10495 6.5 6.10495 6.4 6.10495C6.4 6.10495 6.3 6.20495 6.2 6.20495C6.3 6.20495 6.1 6.30495 6 6.30495C6 6.30495 5.9 6.30496 5.9 6.40496H5.8H5.7C5.7 6.40496 5.7 6.40496 5.6 6.40496C5.6 6.50496 5.6 6.50495 5.5 6.50495ZM2.7 25.605C2.7 25.705 2.7 25.705 2.7 25.605C2.6 25.705 2.6 25.7049 2.6 25.7049C2.5 25.7049 2.5 25.7049 2.4 25.7049C2.3 25.7049 2.2 25.7049 2.1 25.7049H2C2 25.7049 2 25.7049 1.9 25.7049C1.9 25.7049 1.9 25.7049 1.8 25.7049C1.8 25.7049 1.8 25.705 1.7 25.605C1.7 25.505 1.7 25.405 1.6 25.405C1.6 25.305 1.6 25.3049 1.6 25.2049V25.105C1.6 25.105 1.6 25.0049 1.7 25.0049C1.7 24.9049 1.8 24.905 1.9 24.805C1.9 24.805 2 24.8049 2 24.7049H2.1H2.2C2.2 24.7049 2.3 24.705 2.3 24.805C2.3 24.805 2.3 24.805 2.4 24.805L2.5 24.905C2.6 25.005 2.5 24.905 2.5 24.905C2.6 25.005 2.6 25.105 2.7 25.105C2.7 25.305 2.7 25.4049 2.8 25.5049C2.8 25.5049 2.8 25.605 2.7 25.605C2.7 25.605 2.8 25.605 2.7 25.605ZM12.1 31.605C12.1 31.705 12.1 31.7049 12.1 31.7049V31.805C12.1 31.805 12.1 31.805 12.1 31.905C12.1 32.005 12.1 32.005 12.1 32.105V32.2049V32.305L12 32.405C12 32.405 12 32.4049 11.9 32.5049L11.8 32.605H11.7H11.6C11.5 32.605 11.5 32.605 11.4 32.605H11.3C11.2 32.605 11.2 32.605 11.1 32.605C11.1 32.605 11.1 32.605 11 32.605C10.9 32.605 10.9 32.6049 10.8 32.5049C10.8 32.5049 10.8 32.5049 10.7 32.5049C10.7 32.5049 10.7 32.5049 10.6 32.5049L10.5 32.405C10.5 32.405 10.4 32.405 10.4 32.305L10.3 32.2049C10.3 32.2049 10.3 32.205 10.3 32.105C10.3 32.105 10.3 32.1049 10.3 32.0049C10.3 32.0049 10.3 32.005 10.3 31.905C10.3 31.905 10.3 31.905 10.3 31.805V31.7049C10.3 31.7049 10.3 31.705 10.3 31.605C10.3 31.605 10.3 31.6049 10.3 31.5049C10.3 31.5049 10.4 31.505 10.4 31.405H10.5C10.5 31.405 10.5 31.405 10.6 31.405H10.7C10.7 31.405 10.8 31.4049 10.8 31.5049C10.9 31.5049 11 31.605 11.1 31.605C11.2 31.605 11.3 31.6049 11.4 31.5049C11.4 31.5049 11.4 31.5049 11.5 31.5049C11.5 31.5049 11.5 31.5049 11.6 31.5049C11.6 31.5049 11.6 31.5049 11.7 31.5049H11.8C12.1 31.5049 12.1 31.505 12.1 31.605Z" fill="#3D4F3D"/>
</svg>
