<svg width="47" height="42" viewBox="0 0 47 42" fill="none" xmlns="http://www.w3.org/2000/svg">
<path d="M37.3243 13.8799H10.1243V28.1799H37.3243V13.8799Z" fill="#39B54A"/>
<path d="M38.4243 20.4799C38.4243 19.2799 38.4243 18.0799 38.3243 16.8799C38.3243 16.1799 38.2243 15.5799 38.2243 14.8799C38.2243 14.2799 38.1243 12.8799 37.8243 12.6799C37.0243 11.9799 33.2243 12.4799 31.2243 12.4799C28.9243 12.4799 26.6243 12.4799 24.3243 12.4799C19.7243 12.4799 15.1243 12.4799 10.5243 12.7799C9.92426 12.7799 9.12426 13.8799 9.02426 14.1799C8.52426 16.4799 8.62426 18.9799 8.62426 21.2799C8.62426 22.3799 8.62426 23.5799 8.72426 24.6799C8.72426 25.2799 8.92426 25.8799 8.92426 26.5799C8.92426 29.4799 9.82426 29.4799 10.5243 29.4799C15.0243 29.1799 19.5243 29.0799 24.0243 28.9799C26.2243 28.9799 28.4243 28.9799 30.6243 28.9799C32.9243 28.9799 35.2243 29.1799 37.5243 28.8799C37.6243 28.8799 37.7243 28.8799 37.8243 28.7799C38.1243 28.6799 38.4243 28.4799 38.4243 27.9799C38.5243 25.4799 38.4243 22.9799 38.4243 20.4799ZM24.2243 27.0799C19.8243 27.0799 15.3243 27.2799 10.9243 27.4799C11.0243 27.0799 10.8243 25.2799 10.8243 24.6799C10.7243 23.5799 10.6243 22.3799 10.6243 21.2799C10.5243 19.0799 10.6243 16.8799 10.5243 14.6799C15.2243 14.7799 19.9243 14.5799 24.5243 14.3799C26.8243 14.2799 29.1243 14.1799 31.4243 14.1799C33.0243 14.0799 34.8243 14.1799 36.5243 13.7799C36.4243 14.1799 36.4243 14.6799 36.4243 15.0799C36.4243 15.6799 36.4243 16.1799 36.4243 16.7799C36.4243 18.0799 36.4243 19.2799 36.5243 20.5799C36.5243 22.8799 36.6243 25.0799 36.7243 27.3799C32.6243 26.7799 28.3243 27.0799 24.2243 27.0799Z" fill="#3D4F3D"/>
<path d="M23.5243 24.0799C25.402 24.0799 26.9243 22.5577 26.9243 20.6799C26.9243 18.8021 25.402 17.2799 23.5243 17.2799C21.6465 17.2799 20.1243 18.8021 20.1243 20.6799C20.1243 22.5577 21.6465 24.0799 23.5243 24.0799Z" fill="#FACE8D"/>
<path d="M25.7243 16.7799C24.5243 16.0799 22.8243 15.8799 21.6243 16.7799C17.7243 18.6799 19.9243 25.5799 24.2243 25.1799C28.7243 24.6799 29.6243 18.8799 25.7243 16.7799ZM26.0243 21.0799V21.2799C26.0243 21.4799 25.9243 21.6799 25.8243 21.7799C25.7243 21.9799 25.6243 22.1799 25.5243 22.2799C25.4243 22.3799 25.2243 22.5799 25.1243 22.6799C25.0243 22.7799 24.8243 22.8799 24.7243 22.9799H24.6243C22.7243 23.6799 21.1243 21.3799 21.4243 19.5799C21.6243 18.3799 22.9243 17.3799 24.1243 17.9799L24.3243 18.0799C24.5243 18.1799 24.6243 18.2799 24.8243 18.3799C25.1243 18.5799 25.3243 18.8799 25.5243 19.0799C25.6243 19.2799 25.8243 19.4799 25.9243 19.6799C26.0243 19.8799 26.0243 20.0799 26.1243 20.3799C26.0243 20.7799 26.0243 20.8799 26.0243 21.0799Z" fill="#3D4F3D"/>
<path d="M34.8243 16.6799C34.8243 16.0799 34.1243 15.6799 33.6243 16.1799C33.6243 16.1799 33.6243 16.2799 33.5243 16.2799C33.4243 16.3799 33.4243 16.3799 33.4243 16.4799C33.3243 16.7799 33.2243 17.0799 33.2243 17.3799C33.2243 17.4799 33.2243 17.5799 33.2243 17.6799C33.2243 17.7799 33.2243 17.8799 33.3243 17.9799C33.5243 18.3799 34.0243 18.4799 34.3243 18.2799C34.8243 17.8799 34.8243 17.1799 34.8243 16.6799Z" fill="#3D4F3D"/>
<path d="M34.3243 23.9799C34.3243 23.5799 34.1243 22.9799 33.6243 22.9799H33.5243C33.4243 22.9799 33.3243 23.0799 33.3243 23.0799C32.9243 23.4799 32.9243 23.9799 32.9243 24.5799C32.9243 24.6799 32.9243 24.7799 33.0243 24.8799C33.0243 24.9799 33.1243 25.0799 33.2243 25.0799C33.5243 25.3799 34.0243 25.3799 34.3243 25.0799C34.5243 24.8799 34.3243 24.3799 34.3243 23.9799Z" fill="#3D4F3D"/>
<path d="M13.7243 16.8799C13.4243 15.7799 12.0243 16.0799 12.0243 17.1799C12.0243 17.3799 12.0243 17.6799 12.0243 17.8799C12.0243 17.9799 12.0243 18.0799 12.1243 18.1799C12.1243 18.2799 12.2243 18.3799 12.3243 18.4799C12.4243 18.5799 12.5243 18.5799 12.6243 18.6799C13.1243 18.9799 13.8243 18.4799 13.8243 17.8799C13.8243 17.6799 13.8243 17.3799 13.8243 17.1799C13.7243 17.0799 13.7243 16.9799 13.7243 16.8799Z" fill="#3D4F3D"/>
<path d="M14.3243 24.3799C14.3243 23.8799 14.0243 23.2799 13.5243 23.1799C13.4243 23.1799 13.4243 23.1799 13.3243 23.1799C13.2243 23.1799 13.1243 23.1799 13.0243 23.2799C12.4243 23.5799 12.5243 24.2799 12.4243 24.8799C12.4243 24.7799 12.4243 24.6799 12.4243 24.5799C12.4243 24.7799 12.4243 24.9799 12.3243 25.1799C12.3243 25.0799 12.3243 25.0799 12.3243 24.9799C12.3243 25.0799 12.3243 25.2799 12.3243 25.3799C12.3243 25.4799 12.3243 25.5799 12.4243 25.7799C12.6243 26.1799 13.3243 26.3799 13.7243 26.0799C14.3243 25.6799 14.4243 24.9799 14.3243 24.3799Z" fill="#3D4F3D"/>
<path d="M46.7243 20.2799C46.1243 19.6799 45.3243 20.2799 44.7243 20.6799C44.3243 17.7799 43.6243 15.0799 42.2243 12.4799C40.8243 9.7799 38.8243 7.3799 36.5243 5.3799C34.1243 3.2799 31.3243 1.6799 28.2243 0.8799C25.3243 0.0798995 21.8243 -0.4201 18.8243 0.479899C17.7243 0.7799 18.0243 2.2799 19.1243 2.3799C22.0243 2.6799 24.7243 2.5799 27.5243 3.4799C30.2243 4.2799 32.9243 5.4799 35.1243 7.1799C39.1243 10.2799 42.1243 15.4799 42.8243 20.5799C42.4243 20.1799 41.9243 19.7799 41.3243 19.4799C40.8243 19.1799 40.1243 19.3799 39.8243 19.8799C39.5243 20.3799 39.6243 21.0799 40.2243 21.3799C40.5243 21.4799 40.8243 21.6799 41.0243 21.8799C41.1243 21.9799 41.3243 22.0799 41.4243 22.1799C41.5243 22.1799 41.5243 22.2799 41.6243 22.3799C41.8243 22.5799 42.1243 22.7799 42.3243 22.9799C42.4243 23.0799 42.4243 23.0799 42.5243 23.1799L42.6243 23.2799L42.7243 23.3799C42.8243 23.4799 42.8243 23.5799 42.9243 23.5799C43.3243 24.1799 44.1243 24.1799 44.5243 23.5799C44.5243 23.5799 44.7243 23.3799 44.6243 23.4799C44.6243 23.3799 44.7243 23.3799 44.7243 23.2799C44.8243 23.1799 44.9243 22.9799 45.0243 22.8799C45.2243 22.5799 45.5243 22.3799 45.7243 22.1799C45.9243 21.9799 46.2243 21.6799 46.4243 21.4799C46.7243 21.1799 47.0243 20.5799 46.7243 20.2799Z" fill="#3D4F3D"/>
<path d="M0.124264 21.2799C0.724264 21.8799 1.52426 21.2799 2.12426 20.8799C2.52426 23.7799 3.22426 26.4799 4.62426 29.0799C6.12426 31.7799 8.02426 34.0799 10.4243 36.0799C12.8243 38.1799 15.6243 39.7799 18.7243 40.5799C21.6243 41.3799 25.1243 41.8799 28.1243 40.9799C29.2243 40.6799 28.9243 39.1799 27.8243 39.0799C24.9243 38.7799 22.2243 38.8799 19.4243 37.9799C16.7243 37.1799 14.0243 35.9799 11.8243 34.2799C7.82426 31.1799 4.82426 25.9799 4.12426 20.8799C4.52426 21.2799 5.02426 21.6799 5.62426 21.9799C6.02426 22.3799 6.72426 22.2799 7.02426 21.6799C7.32426 21.1799 7.22426 20.4799 6.62426 20.1799C6.32426 20.0799 6.02426 19.8799 5.82426 19.7799C5.72426 19.6799 5.52426 19.5799 5.42426 19.4799C5.32426 19.4799 5.32426 19.3799 5.22426 19.2799C5.02426 19.0799 4.72426 18.8799 4.52426 18.6799C4.42426 18.5799 4.42426 18.5799 4.32426 18.4799L4.22426 18.3799L4.12426 18.2799C4.02426 18.0799 4.02426 18.0799 3.92426 17.9799C3.52426 17.3799 2.72426 17.3799 2.32426 17.9799C2.32426 17.9799 2.12426 18.1799 2.22426 18.0799C2.22426 18.1799 2.12426 18.1799 2.12426 18.2799C2.02426 18.3799 1.92426 18.5799 1.82426 18.6799C1.62426 18.9799 1.32426 19.1799 1.12426 19.3799C0.924264 19.5799 0.624264 19.8799 0.424264 20.0799C0.124264 20.3799 -0.175736 20.9799 0.124264 21.2799Z" fill="#3D4F3D"/>
</svg>
