<svg width="50" height="50" viewBox="0 0 49 49" fill="none" xmlns="http://www.w3.org/2000/svg">
<path d="M28.6001 8.80625L11.2001 2.40625L7.1001 2.70625L6.1001 5.60625L22.7001 18.6063L32.2001 28.9062L42.6001 42.1062H45.4001L47.2001 39.0062L38.9001 15.2062L28.6001 8.80625Z" fill="#E6E6E6"/>
<path d="M8.6 35.5063L2 29.9063L2.8 27.8063L16.4 33.6063L21 45.6063L19.4 47.8063L12.6 39.0063L8.6 35.5063Z" fill="#FF1D25"/>
<path d="M6.6001 45.0063L10.3001 40.3063C10.3001 40.3063 27.6001 30.0063 35.9001 21.9063C44.2001 13.8063 48.3001 5.10629 45.9001 3.00629C43.5001 0.806295 33.8001 3.8063 25.1001 14.2063C16.4001 24.6063 9.6001 34.7063 9.6001 34.7063L7.5001 39.7063L3.6001 42.0063L6.6001 45.0063Z" fill="white"/>
<path d="M42 10.4063C41.8 9.30632 41.5 8.60632 40.6 7.90632C39.7 7.20632 38.5 7.00632 37.4 7.20632C37.3 7.20632 36.8 7.30632 36.7 7.40632C36 7.80632 35.8 8.80632 36.2 9.50632C36.6 10.2063 37.5 10.6063 38.1 11.0063C38.5 11.2063 38.8 11.5063 39.2 11.7063C39.5 11.9063 39.9 12.2063 40.3 12.3063C40.7 12.4063 41.2 12.3063 41.5 12.0063C41.7 11.9063 42.1 11.4063 42 10.4063Z" fill="#0B6C9D"/>
<path d="M42.9 10.6063C42.6 9.2063 42.2 8.2063 41.1 7.4063C39.9 6.5063 38.4 6.2063 37 6.5063C36.9 6.5063 36.2 6.7063 36 6.8063C35 7.3063 34.8 8.6063 35.4 9.5063C36 10.4063 37 10.9063 37.9 11.5063C38.4 11.8063 38.8 12.1063 39.3 12.4063C39.7 12.7063 40.2 13.0063 40.7 13.2063C41.3 13.4063 41.9 13.2063 42.3 12.8063C42.5 12.5063 43.1 11.8063 42.9 10.6063ZM40.8 11.4063C40.7 11.3063 40.5 11.2063 40.4 11.1063C39.8 10.7063 39.1 10.3063 38.5 9.8063C38.2 9.6063 37.9 9.4063 37.6 9.2063C37.5 9.1063 37.3 9.0063 37.3 9.0063C37.3 9.0063 37.1 8.8063 37 8.7063L36.9 8.6063C36.9 8.5063 36.8 8.5063 36.8 8.4063C36.8 8.4063 36.7 8.2063 37 8.1063C37.4 8.0063 38 8.0063 38.8 8.1063C38.9 8.1063 39.1 8.2063 39.2 8.2063C39.3 8.2063 39.4 8.3063 39.5 8.3063C39.6 8.4063 39.7 8.4063 39.9 8.5063C40 8.5063 40 8.6063 40.1 8.6063L40.2 8.7063L40.3 8.8063C40.4 8.8063 40.4 8.9063 40.4 8.9063C40.5 9.0063 40.6 9.1063 40.7 9.2063C40.7 9.2063 40.8 9.4063 40.9 9.4063C41 9.5063 41 9.6063 41.1 9.7063C41.2 9.8063 41.5 10.3063 41.6 10.6063C41.7 11.5063 41.2 11.7063 40.8 11.4063Z" fill="#3D4F3D"/>
<path d="M25.7999 7.20628C25.7999 7.20628 25.6999 4.00628 23.4999 3.70628C21.2999 3.50628 20.3999 5.40628 20.3999 5.40628L25.7999 7.20628Z" fill="#999999"/>
<path d="M19.0001 4.50625C19.0001 4.50625 18.9001 1.30625 16.7001 1.00625C14.5001 0.706251 13.6001 2.70625 13.6001 2.70625L19.0001 4.50625Z" fill="#999999"/>
<path d="M43.7999 27.8062C43.7999 27.8062 46.0999 25.6062 44.7999 23.8062C43.4999 22.0062 41.3999 22.7063 41.3999 22.7063L43.7999 27.8062Z" fill="#999999"/>
<path d="M46.5001 35.2063C46.5001 35.2063 48.8001 33.0063 47.5001 31.2063C46.2001 29.4063 44.1001 30.1063 44.1001 30.1063L46.5001 35.2063Z" fill="#999999"/>
<path d="M46.2001 28.7063C45.3001 28.6063 44.7001 28.8063 44.4001 29.1063C44.3001 28.8063 44.2001 28.6063 44.1001 28.3063C46.9001 27.1063 46.7001 22.8063 43.8001 21.8063C43.1001 21.5063 42.4001 21.5063 41.7001 21.7063C41.3001 20.6063 40.9001 19.5063 40.5001 18.3063C41.5001 17.3063 42.4001 16.2063 43.3001 15.1063C46.1001 11.7063 47.4001 8.40629 46.8001 3.30629C46.7001 2.30629 45.8001 2.20629 45.4001 2.10629C41.0001 1.00629 36.9001 2.80629 33.6001 5.60629C32.5001 6.50629 31.4001 7.40629 30.4001 8.40629C29.2001 8.00629 28.0001 7.50629 26.8001 7.10629C26.9001 6.80629 26.9001 6.50629 26.9001 6.20629C26.9001 5.80629 26.8001 5.40629 26.7001 5.10629C26.2001 3.80629 25.0001 2.80629 23.5001 2.80629C22.2001 2.80629 20.8001 3.60629 20.3001 4.80629C20.0001 4.70629 19.7001 4.60629 19.3001 4.40629C19.7001 3.90629 19.9001 3.30629 19.9001 2.70629C19.7001 1.00629 18.0001 -0.0937059 16.4001 0.0062941C15.0001 0.106294 13.7001 0.806294 13.1001 2.10629C12.3001 1.80629 11.5001 1.60629 10.7001 1.50629C9.20009 1.20629 7.5001 1.50629 6.3001 2.60629C5.2001 3.70629 5.1001 5.40629 5.8001 6.80629C6.7001 8.60629 8.60009 9.60629 10.2001 10.7063C13.8001 13.3063 17.5001 15.9063 21.1001 18.5063C17.8001 22.4063 14.7001 26.4063 11.8001 30.6063C11.0001 30.3063 10.1001 29.8063 9.3001 29.5063C8.3001 29.1063 7.40009 28.6063 6.40009 28.2063C5.50009 27.8063 4.50009 27.3063 3.50009 27.3063C2.60009 27.3063 1.70009 27.7063 1.20009 28.4063C-0.0999108 30.3063 2.10009 31.8063 3.40009 32.7063C5.00009 33.9063 6.6001 35.1063 8.3001 36.2063C8.0001 36.8063 7.20009 38.7063 7.40009 38.9063C6.20009 39.9063 4.90009 41.0063 3.70009 42.0063C3.40009 42.2063 3.40009 42.8063 3.60009 43.1063C4.20009 44.0063 4.90009 44.8063 5.50009 45.7063C5.90009 46.3063 6.60009 46.2063 7.00009 45.7063C8.10009 44.3063 9.10009 42.9063 10.2001 41.5063C10.5001 41.8063 12.3001 40.9063 12.9001 40.6063C14.1001 42.2063 15.3001 43.8063 16.4001 45.5063C17.3001 46.8063 18.9001 49.0063 20.7001 47.7063C21.4001 47.2063 21.8001 46.3063 21.8001 45.4063C21.8001 44.4063 21.3001 43.4063 20.9001 42.5063C20.5001 41.5063 20.0001 40.6063 19.6001 39.6063C19.2001 38.8063 18.8001 37.9063 18.5001 37.1063C22.7001 34.2063 26.8001 31.2063 30.6001 27.8063C33.2001 31.4063 35.8001 35.1063 38.4001 38.7063C39.5001 40.2063 40.6001 42.2063 42.3001 43.1063C43.7001 43.8063 45.4001 43.7063 46.5001 42.6063C47.6001 41.4063 47.9001 39.7063 47.6001 38.2063C47.4001 37.3063 47.2001 36.5063 46.9001 35.6063C49.6001 34.2063 49.6001 29.1063 46.2001 28.7063ZM44.4001 24.8063C44.5001 25.5063 44.2001 26.2063 43.7001 26.6063C43.6001 26.6063 43.6001 26.6063 43.5001 26.7063C43.1001 25.6063 42.7001 24.5063 42.3001 23.4063C43.0001 23.2063 44.3001 24.0063 44.4001 24.8063ZM21.9001 5.30629C21.9001 5.30629 21.9001 5.20629 21.9001 5.30629C22.0001 5.20629 22.0001 5.10629 22.1001 5.10629L22.2001 5.00629C22.2001 5.00629 22.5001 4.80629 22.6001 4.70629C22.6001 4.70629 22.7001 4.60629 22.8001 4.60629C22.9001 4.60629 22.9001 4.60629 23.0001 4.50629C23.1001 4.50629 23.3001 4.40629 23.3001 4.40629C23.4001 4.40629 23.6001 4.40629 23.8001 4.40629C23.6001 4.30629 24.1001 4.50629 24.1001 4.50629C24.2001 4.50629 24.5001 4.80629 24.5001 4.80629L24.7001 5.00629C24.8001 5.10629 24.9001 5.30629 24.9001 5.40629C24.9001 5.40629 25.0001 5.60629 25.0001 5.70629C25.0001 5.80629 25.1001 6.00629 25.1001 6.00629C25.1001 6.20629 25.1001 6.50629 25.1001 6.50629C24.0001 6.10629 22.9001 5.70629 21.8001 5.30629C21.9001 5.40629 21.9001 5.30629 21.9001 5.30629ZM14.8001 2.60629C14.9001 2.60629 14.9001 2.50629 15.0001 2.40629L15.1001 2.30629C15.1001 2.30629 15.1001 2.30629 15.2001 2.20629C15.2001 2.20629 15.4001 2.00629 15.6001 2.00629L15.8001 1.90629H15.9001C16.1001 1.80629 16.4001 1.80629 16.4001 1.80629C16.5001 1.80629 16.5001 1.80629 16.6001 1.80629C16.7001 1.80629 16.9001 1.80629 16.9001 1.80629C17.0001 1.80629 17.2001 1.90629 17.3001 1.90629C17.3001 1.90629 17.4001 1.90629 17.4001 2.00629C17.5001 2.00629 17.6001 2.10629 17.6001 2.10629L17.7001 2.20629C17.8001 2.30629 17.8001 2.30629 17.9001 2.40629C17.9001 2.50629 18.0001 2.50629 18.0001 2.60629V2.70629V2.80629C18.0001 2.90629 18.0001 2.90629 18.0001 3.00629V3.10629V3.20629C17.8001 3.50629 17.7001 3.70629 17.4001 3.80629C17.3001 3.80629 17.2001 3.70629 17.1001 3.70629C16.3001 3.30629 15.5001 3.00629 14.8001 2.60629C14.7001 2.60629 14.7001 2.70629 14.8001 2.60629ZM12.9001 10.5063C11.4001 9.40629 9.7001 8.40629 8.3001 7.20629C7.0001 6.00629 6.30009 3.90629 8.40009 3.20629C10.0001 2.60629 11.9001 3.60629 13.5001 4.20629C15.4001 4.90629 17.2001 5.60629 19.1001 6.30629C22.4001 7.50629 25.7001 8.70629 28.9001 9.90629C27.1001 11.7063 25.3001 13.6063 23.6001 15.5063C23.1001 16.1063 22.6001 16.6063 22.1001 17.2063C19.1001 14.9063 16.0001 12.7063 12.9001 10.5063ZM5.10009 31.7063C4.40009 31.2063 3.80009 30.8063 3.10009 30.2063C2.80009 29.9063 2.20009 29.5063 2.60009 29.1063C3.10009 28.6063 3.90009 28.9063 4.40009 29.1063C5.20009 29.4063 5.90009 29.8063 6.70009 30.1063C8.00009 30.7063 9.4001 31.3063 10.8001 31.9063C10.2001 32.8063 9.70009 33.7063 9.10009 34.5063C7.70009 33.7063 6.40009 32.7063 5.10009 31.7063ZM6.10009 43.8063C5.90009 43.5063 5.60009 43.1063 5.40009 42.8063C6.80009 41.6063 8.20009 40.4063 9.60009 39.2063C8.50009 40.7063 7.30009 42.2063 6.10009 43.8063ZM18.7001 42.0063C19.0001 42.8063 19.4001 43.5063 19.7001 44.3063C19.9001 44.8063 20.2001 45.6063 19.7001 46.1063C19.3001 46.5063 18.8001 45.9063 18.6001 45.6063C18.1001 45.0063 17.6001 44.3063 17.1001 43.6063C16.1001 42.3063 15.2001 40.9063 14.2001 39.6063C15.1001 39.0063 16.0001 38.5063 16.8001 37.9063C17.6001 39.3063 18.1001 40.7063 18.7001 42.0063ZM12.0001 39.0063C12.6001 38.2063 13.2001 37.4063 13.9001 36.6063C14.2001 36.2063 14.0001 35.6063 13.6001 35.4063C13.5001 35.4063 13.3001 35.1063 13.2001 35.1063C12.8001 34.7063 12.3001 34.8063 12.0001 35.1063C11.3001 35.7063 10.7001 36.2063 10.0001 36.8063C14.1001 30.1063 18.8001 23.7063 24.1001 17.8063C26.9001 14.6063 29.9001 11.6063 33.0001 8.70629C36.2001 5.80629 40.5001 2.50629 45.1001 3.90629C45.2001 3.90629 45.2001 3.90629 45.2001 4.00629C46.6001 8.60629 43.4001 12.8063 40.5001 16.0063C37.6001 19.1063 34.6001 22.1063 31.4001 24.9063C25.3001 30.1063 18.8001 34.8063 12.0001 39.0063ZM45.7001 40.3063C45.0001 42.4063 42.9001 41.8063 41.7001 40.4063C40.5001 39.0063 39.5001 37.3063 38.4001 35.8063C36.2001 32.7063 34.0001 29.6063 31.8001 26.6063C32.4001 26.1063 32.9001 25.6063 33.5001 25.1063C35.4001 23.4063 37.3001 21.6063 39.1001 19.8063C40.3001 23.1063 41.5001 26.3063 42.7001 29.6063C43.4001 31.5063 44.1001 33.3063 44.8001 35.2063C45.3001 36.7063 46.3001 38.6063 45.7001 40.3063ZM47.0001 32.9063C47.0001 33.0063 46.6001 33.5063 46.2001 33.8063C45.9001 33.0063 45.6001 32.3063 45.3001 31.6063C45.2001 31.3063 45.1001 31.0063 45.0001 30.7063C45.7001 30.4063 46.1001 30.4063 46.4001 30.5063C47.2001 31.0063 47.3001 32.1063 47.0001 32.9063Z" fill="#3D4F3D"/>
</svg>
