<svg width="50" height="50" viewBox="0 0 48 49" fill="none" xmlns="http://www.w3.org/2000/svg">
<path d="M33.0341 7.93054L31.1338 13.7446L35.8845 23.4347L36.8347 29.2487C36.8347 29.2487 22.2879 29.1906 21.4802 28.7351C20.6821 28.2797 9.28027 29.2487 9.28027 29.2487L13.0809 16.6516V9.86856L12.1307 7.93054H33.0341V7.93054Z" fill="#FFD275"/>
<path d="M23.4376 21.9134C23.3901 21.8553 23.3521 21.7971 23.3046 21.7487C23.2191 21.6615 23.1145 21.6227 23.0005 21.5743C22.896 21.5355 22.782 21.5064 22.668 21.4967C22.5065 21.4774 22.3449 21.4967 22.1929 21.5355C22.0599 21.5646 21.9269 21.6227 21.8033 21.6905C21.3188 21.9425 21.0147 22.4464 20.9482 22.989C20.9387 23.0665 20.9292 23.1441 20.9292 23.2216C20.9292 23.3766 20.9767 23.4832 21.0432 23.6189C21.1002 23.7448 21.1857 23.8708 21.2808 23.9774C21.3948 24.1131 21.6133 24.1324 21.7653 24.0743C21.9174 24.0065 22.0599 23.832 22.0409 23.6576C22.0314 23.5704 22.0314 23.4929 22.0409 23.4057C22.0504 23.3475 22.0694 23.2797 22.0694 23.2216C22.0694 23.1828 22.0694 23.1441 22.0694 23.115C22.0789 23.0472 22.0979 22.989 22.1169 22.9212C22.1359 22.8824 22.1644 22.834 22.1834 22.7952C22.2119 22.7661 22.2404 22.7371 22.2689 22.708C22.3069 22.6789 22.3544 22.6595 22.3924 22.6305C22.4779 22.6014 22.554 22.5723 22.6395 22.5626L22.497 22.582C22.5635 22.5723 22.6205 22.5626 22.6775 22.553C22.744 22.5433 22.801 22.5433 22.8675 22.5433C22.9435 22.5433 23.0195 22.5336 23.0955 22.5239C23.2286 22.5045 23.3426 22.4561 23.4186 22.3301C23.5041 22.2138 23.5231 22.0297 23.4376 21.9134Z" fill="#3D4F3D"/>
<path d="M9.52734 0.071167H35.8656L33.0341 7.92982L21.6323 6.96081L12.1308 7.92982L9.52734 0.071167Z" fill="#E23538"/>
<path d="M7.69336 47.8246H38.4973L37.7847 34.0937L36.8345 29.2487L20.6819 28.2797L9.28011 29.2487L7.69336 47.8246Z" fill="#0B6C9D"/>
<path d="M47.8232 17.0392C47.3766 16.2931 46.4074 16.0218 45.6473 15.702C45.5523 15.6632 45.4573 15.6245 45.3623 15.576C45.4573 15.6148 45.4288 15.6051 45.2673 15.5372C45.1247 15.4791 44.9822 15.4113 44.8397 15.3531C44.5261 15.2175 44.2221 15.0818 43.9181 14.9365C43.2244 14.6264 42.5403 14.2969 41.8562 13.9675C42.5403 13.4248 43.2244 12.8919 43.899 12.3395C44.4596 11.8938 45.0202 11.4287 45.5523 10.9442C46.0179 10.5178 46.987 9.41312 46.0654 8.89954C45.4003 8.53132 44.5927 9.09335 44.0321 9.47126C43.462 9.86855 42.8824 10.2465 42.3218 10.6631C41.2006 11.4868 40.0794 12.3105 38.9583 13.1341C38.2456 13.6574 38.1031 14.7911 38.9583 15.2853C40.1745 15.983 41.3906 16.6807 42.6258 17.3299C43.2244 17.64 43.823 17.9598 44.4216 18.2505C44.7447 18.4055 45.0772 18.5606 45.4098 18.7059C45.9704 18.9578 46.3979 19.1516 47.0345 19.0063C47.8707 18.8222 48.2507 17.7466 47.8232 17.0392Z" fill="#3D4F3D"/>
<path d="M36.0835 22.1072C34.4683 18.5025 32.2449 14.7427 33.6701 10.6826C34.8198 7.43639 37.2237 4.51483 36.6916 0.851983C36.5206 -0.301136 34.9243 -0.146095 34.8293 0.851983C34.6583 2.79969 33.7842 4.97511 32.891 6.67087C31.5513 5.99257 29.67 6.09916 28.2448 6.01195C26.506 5.90536 24.7672 5.82784 23.0284 5.79877C19.5129 5.74063 16.0163 5.90536 12.5388 6.43831C11.6836 4.46154 11.2086 2.95473 10.7715 0.851983C10.5339 -0.291446 8.89968 -0.223616 8.84267 0.851983C8.65264 4.95089 11.199 8.02749 12.2727 11.7775C13.4034 15.7214 10.7525 19.5684 9.46027 23.144C6.77134 30.5472 5.81169 38.8662 6.56231 46.7151C6.72383 48.3624 9.26074 48.3721 9.09921 46.7151C8.57663 41.3953 8.88068 35.7605 9.95435 30.5569C11.1135 30.6054 12.3107 30.305 13.4699 30.1887C14.5151 30.0821 15.5697 30.0143 16.6149 29.9755C18.8003 29.898 20.9951 29.9464 23.1805 30.0433C25.3753 30.1306 27.5702 30.2759 29.7745 30.305C31.7128 30.334 34.0597 30.6054 35.8745 29.8108C36.2356 31.2352 36.5301 32.6887 36.7391 34.1713C37.3567 38.4156 37.4898 42.4418 37.6228 46.7151C37.6798 48.4496 40.3307 48.4593 40.2737 46.7151C40.0362 38.2557 39.5991 29.9561 36.0835 22.1072ZM32.53 27.8825C31.4658 27.834 30.4111 27.7856 29.347 27.7177C27.0761 27.5724 24.7957 27.4658 22.5249 27.3883C20.2635 27.3107 18.0021 27.2817 15.7408 27.398C14.078 27.4852 12.2347 27.5336 10.5815 27.9987C11.0375 26.2448 11.5791 24.5103 12.2157 22.8049C13.5364 19.3067 15.5412 15.8861 14.7621 11.9907C14.5246 10.7988 14.04 9.6748 13.5269 8.57013C16.8049 8.08563 20.121 7.94997 23.4275 7.99842C25.0998 8.02749 26.7815 8.09532 28.4538 8.18253C29.594 8.24067 30.8957 8.46354 32.0739 8.28912C31.6653 9.12247 31.2948 9.9655 31.0477 10.857C29.9646 14.7718 31.5893 18.6091 33.1856 22.1169C34.0882 24.1033 34.8483 26.1189 35.4564 28.1732C34.5158 27.9115 33.4801 27.9212 32.53 27.8825Z" fill="#3D4F3D"/>
<path d="M7.44369 11.8647C5.51488 10.6729 3.58607 9.44222 1.56225 8.46352C0.868635 8.12437 -0.0625134 8.6864 0.184526 9.53912C0.39356 10.2271 0.764119 10.7698 1.32471 11.1961C1.79028 11.5643 2.28436 11.8938 2.77844 12.233C3.31053 12.6109 3.86161 12.9694 4.4127 13.3183C3.7666 13.9287 3.13 14.5198 2.4934 15.1109C1.94231 15.6245 1.37222 16.1187 0.840131 16.6516C0.241535 17.2524 -0.41407 18.3183 0.33655 19.0839C1.09667 19.8591 2.14184 19.2098 2.79744 18.6478C3.34853 18.173 3.86161 17.6691 4.3937 17.1846C5.50538 16.1671 6.62656 15.1594 7.71923 14.1225C8.40334 13.483 8.19431 12.3299 7.44369 11.8647Z" fill="#3D4F3D"/>
<path d="M23.6174 44.0454C23.6079 43.6287 23.5984 43.2218 23.5984 42.8051C23.5889 42.3593 23.5508 41.8361 23.2183 41.5163C23.0283 41.3322 22.7527 41.3419 22.5532 41.5163C22.2016 41.8264 22.1541 42.3593 22.1256 42.8051C22.0971 43.2218 22.0686 43.6287 22.0401 44.0454C21.9831 44.8691 21.9261 45.7024 21.8976 46.5261C21.8786 46.9912 22.3061 47.4273 22.7622 47.4079C23.2373 47.3885 23.6269 47.0203 23.6269 46.5261C23.6554 45.7024 23.6364 44.8788 23.6174 44.0454Z" fill="#484949"/>
</svg>
